<svg width="166" height="34" viewBox="0 0 166 34" fill="none" xmlns="http://www.w3.org/2000/svg"><g clip-path="url(#clip0_13794_8191)"><path d="M58.6973 7.55599L65.1182 20.081L69.4645 21.4549C71.5705 22.0775 76.9191 18.8205 70.7484 12.7297C65.516 7.55599 61.7293 6.89045 58.6973 7.55599Z" fill="url(#paint0_linear_13794_8191)"/><path d="M90.0244 0.530241L79.1166 20.1612L75.1602 25.3902C73.751 28.0154 69.1396 26.2741 67.8753 25.3902C65.6749 21.1671 64.8008 19.4834 64.541 18.9713C64.4768 18.8425 64.4492 18.7873 64.4492 18.7842C64.4492 18.7842 64.4678 18.8117 64.4922 18.8608C64.4985 18.8731 64.5076 18.8884 64.5134 18.9007C65.5067 19.416 67.9946 19.3638 69.9877 15.0395C70.2868 14.3924 70.614 13.684 70.9805 12.9357C73.6763 7.45522 78.5237 -0.0156591 90.0244 0.530241Z" fill="url(#paint1_linear_13794_8191)"/><path fill-rule="evenodd" clip-rule="evenodd" d="M79.1156 20.1614L76.2093 25.3903C74.0401 28.8917 70.8437 30.3354 67.8743 25.3903C65.6738 21.1673 64.7998 19.4836 64.54 18.9714C64.5246 18.9346 64.5097 18.8978 64.4912 18.861C64.4668 18.8058 64.4424 18.7506 64.418 18.6923C65.6585 18.9131 66.4901 18.6555 66.9302 18.4684C68.4152 17.8275 69.198 16.34 70.2402 14.3619L70.2492 14.3466C70.3224 14.2086 70.3897 14.0828 70.4507 13.9632C70.683 13.5277 70.8543 13.2057 70.9705 12.9297C70.9736 12.9328 70.9768 12.9359 70.9768 12.9359C72.5933 14.4785 73.749 15.8003 74.6872 16.8768C76.2703 18.6923 77.2451 19.8086 78.7979 20.097C78.9045 20.1215 79.0117 20.143 79.1156 20.1614Z" fill="url(#paint2_linear_13794_8191)"/><path d="M15.2718 10.7061V27.6452H12.0568V20.52H4.95714V27.6452H1.74219V10.7061H4.95714V17.4279H12.0568V10.7061H15.2718ZM23.5708 15.1425C24.2674 15.1425 24.9103 15.268 25.4998 15.5189C26.0892 15.7519 26.5982 16.0836 27.0269 16.5137C27.4556 16.944 27.786 17.4548 28.0182 18.0464C28.2682 18.6379 28.3932 19.2832 28.3932 19.9822V27.6452H26.116L25.5801 26.4353C25.2944 26.6862 24.9818 26.9103 24.6425 27.1075C24.3388 27.2867 23.9727 27.448 23.544 27.5915C23.1154 27.7169 22.6331 27.7797 22.0973 27.7797C20.7577 27.7797 19.7307 27.457 19.0163 26.8117C18.3019 26.1485 17.9446 25.306 17.9446 24.2843C17.9446 23.6748 18.0607 23.1192 18.2929 22.6172C18.543 22.0974 18.9538 21.6582 19.5253 21.2997C20.0969 20.9233 20.847 20.6365 21.7758 20.4394C22.7224 20.2243 23.9012 20.1167 25.3122 20.1167C25.3122 19.4356 25.1247 18.9068 24.7496 18.5303C24.3924 18.1539 23.9102 17.9657 23.3029 17.9657C22.8921 17.9657 22.5617 18.0374 22.3116 18.1808C22.0794 18.3242 21.8919 18.4765 21.749 18.6379C21.5882 18.8351 21.4811 19.0591 21.4275 19.3101H18.3465C18.4179 18.7364 18.5787 18.1987 18.8288 17.6968C19.0966 17.1949 19.4539 16.7558 19.9004 16.3793C20.3469 16.0029 20.8738 15.7072 21.4811 15.492C22.1062 15.259 22.8028 15.1425 23.5708 15.1425ZM22.6331 25.3598C23.4368 25.3598 24.0798 25.1267 24.5621 24.6607C25.0622 24.1767 25.3122 23.5583 25.3122 22.8055V22.2677C24.4013 22.2677 23.669 22.3125 23.1154 22.4022C22.5617 22.4739 22.1241 22.5904 21.8026 22.7517C21.4989 22.8951 21.2936 23.0743 21.1864 23.2894C21.0792 23.5045 21.0256 23.7465 21.0256 24.0154C21.0256 24.356 21.1775 24.6697 21.4811 24.9565C21.7847 25.2254 22.1687 25.3598 22.6331 25.3598ZM43.118 24.6876V30.334H40.037V27.6452H32.8033V30.334H29.7223V24.6876H30.66C30.8744 24.5801 31.0798 24.4277 31.2762 24.2305C31.437 24.0692 31.5888 23.863 31.7317 23.6121C31.8746 23.3611 31.9639 23.0474 31.9996 22.671L32.8033 15.2769H41.5105V24.6876H43.118ZM34.9466 22.671C34.9109 23.0474 34.8395 23.3611 34.7323 23.6121C34.6251 23.863 34.518 24.0692 34.4108 24.2305C34.2858 24.4277 34.1518 24.5801 34.009 24.6876H38.4295V18.2346H35.4825L34.9466 22.671ZM47.3952 21.4611C47.3952 22.4828 47.6898 23.2984 48.2793 23.9079C48.8687 24.5173 49.601 24.822 50.4762 24.822C51.3513 24.822 52.0837 24.5173 52.673 23.9079C53.2624 23.2984 53.5572 22.4828 53.5572 21.4611C53.5572 20.4394 53.2624 19.6238 52.673 19.0143C52.0837 18.4048 51.3513 18.1001 50.4762 18.1001C49.601 18.1001 48.8687 18.4048 48.2793 19.0143C47.6898 19.6238 47.3952 20.4394 47.3952 21.4611ZM56.638 21.4611C56.638 22.3394 56.4683 23.164 56.1289 23.9347C55.8075 24.6876 55.361 25.3508 54.7898 25.9244C54.2361 26.498 53.5837 26.9551 52.8338 27.2957C52.1015 27.6183 51.3156 27.7797 50.4762 27.7797C49.6367 27.7797 48.8419 27.6183 48.0917 27.2957C47.3594 26.9551 46.7075 26.498 46.136 25.9244C45.5823 25.3508 45.1358 24.6876 44.7964 23.9347C44.4749 23.164 44.3142 22.3394 44.3142 21.4611C44.3142 20.5827 44.4749 19.7672 44.7964 19.0143C45.1358 18.2435 45.5823 17.5713 46.136 16.9977C46.7075 16.4241 47.3594 15.976 48.0917 15.6533C48.8419 15.3128 49.6367 15.1425 50.4762 15.1425C51.3156 15.1425 52.1015 15.3128 52.8338 15.6533C53.5837 15.976 54.2361 16.4241 54.7898 16.9977C55.361 17.5713 55.8075 18.2435 56.1289 19.0143C56.4683 19.7672 56.638 20.5827 56.638 21.4611Z" fill="#2E3634"/><path d="M104.65 24.5531V30.8717H101.435V27.6452H91.2541V30.8717H88.0391V24.5531H88.9767C89.2806 24.4097 89.5575 24.2126 89.8073 23.9616C90.0215 23.7465 90.2268 23.4597 90.4235 23.1012C90.6378 22.7248 90.7804 22.2677 90.852 21.73L92.1917 10.7061H102.774V24.5531H104.65ZM99.5594 13.7981H94.8711L93.9334 21.73C93.8618 22.2677 93.7456 22.7248 93.5849 23.1012C93.4418 23.4597 93.2991 23.7465 93.1564 23.9616C92.9777 24.2126 92.7899 24.4097 92.5937 24.5531H99.5594V13.7981ZM117.503 23.8809C117.343 24.347 117.092 24.8131 116.753 25.2791C116.431 25.7452 116.029 26.1664 115.547 26.5428C115.083 26.9013 114.547 27.1971 113.94 27.4301C113.351 27.6632 112.707 27.7797 112.011 27.7797C111.171 27.7797 110.377 27.6183 109.626 27.2957C108.894 26.9551 108.242 26.498 107.671 25.9244C107.117 25.3508 106.671 24.6876 106.331 23.9347C106.009 23.164 105.849 22.3394 105.849 21.4611C105.849 20.5827 106.009 19.7672 106.331 19.0143C106.671 18.2435 107.117 17.5713 107.671 16.9977C108.242 16.4241 108.894 15.976 109.626 15.6533C110.377 15.3128 111.171 15.1425 112.011 15.1425C112.815 15.1425 113.574 15.2949 114.288 15.5996C115.003 15.9043 115.628 16.3345 116.164 16.8902C116.699 17.4459 117.119 18.1181 117.423 18.9068C117.745 19.6775 117.905 20.529 117.905 21.4611C117.905 21.6045 117.896 21.7479 117.878 21.8913C117.86 22.0167 117.843 22.1422 117.825 22.2677C117.807 22.4111 117.789 22.5455 117.771 22.671H109.198C109.341 23.2805 109.645 23.7913 110.109 24.2036C110.573 24.6159 111.207 24.822 112.011 24.822C112.422 24.822 112.761 24.7772 113.029 24.6876C113.315 24.5979 113.556 24.4904 113.753 24.3649C113.967 24.2215 114.146 24.0602 114.288 23.8809H117.503ZM112.011 18.1001C111.207 18.1001 110.547 18.3332 110.028 18.7992C109.528 19.2652 109.207 19.8389 109.064 20.52H114.958C114.815 19.8389 114.485 19.2652 113.967 18.7992C113.467 18.3332 112.815 18.1001 112.011 18.1001ZM131.295 15.2769V27.6452H128.213V22.8054H123.257V27.6452H120.176V15.2769H123.257V19.8478H128.213V15.2769H131.295ZM145.236 23.8809C145.076 24.347 144.825 24.8131 144.486 25.2791C144.165 25.7452 143.763 26.1664 143.28 26.5428C142.816 26.9013 142.28 27.1971 141.673 27.4301C141.084 27.6632 140.441 27.7797 139.744 27.7797C138.905 27.7797 138.11 27.6183 137.36 27.2957C136.627 26.9551 135.975 26.498 135.404 25.9244C134.851 25.3508 134.404 24.6876 134.065 23.9347C133.743 23.164 133.582 22.3394 133.582 21.4611C133.582 20.5827 133.743 19.7672 134.065 19.0143C134.404 18.2435 134.851 17.5713 135.404 16.9977C135.975 16.4241 136.627 15.976 137.36 15.6533C138.11 15.3128 138.905 15.1425 139.744 15.1425C140.548 15.1425 141.307 15.2949 142.021 15.5996C142.736 15.9043 143.361 16.3345 143.897 16.8902C144.432 17.4459 144.852 18.1181 145.156 18.9068C145.478 19.6775 145.638 20.529 145.638 21.4611C145.638 21.6045 145.629 21.7479 145.611 21.8913C145.593 22.0167 145.576 22.1422 145.558 22.2677C145.54 22.4111 145.522 22.5455 145.504 22.671H136.931C137.074 23.2805 137.378 23.7913 137.842 24.2036C138.306 24.6159 138.941 24.822 139.744 24.822C140.155 24.822 140.495 24.7772 140.762 24.6876C141.048 24.5979 141.289 24.4904 141.486 24.3649C141.7 24.2215 141.879 24.0602 142.021 23.8809H145.236ZM139.744 18.1001C138.941 18.1001 138.28 18.3332 137.762 18.7992C137.262 19.2652 136.94 19.8389 136.797 20.52H142.691C142.548 19.8389 142.218 19.2652 141.7 18.7992C141.2 18.3332 140.548 18.1001 139.744 18.1001ZM156.348 18.2346H150.99V27.6452H147.909V15.2769H156.348V18.2346Z" fill="#2E3634"/></g><defs><linearGradient id="paint0_linear_13794_8191" x1="64.5921" y1="6.91243" x2="67.7671" y2="18.0647" gradientUnits="userSpaceOnUse"><stop stop-color="#27B993"/><stop offset="1" stop-color="#0A8645"/></linearGradient><linearGradient id="paint1_linear_13794_8191" x1="71.418" y1="24.4315" x2="79.8796" y2="3.10125" gradientUnits="userSpaceOnUse"><stop stop-color="#0FDEA8"/><stop offset="1" stop-color="#0CC68B"/></linearGradient><linearGradient id="paint2_linear_13794_8191" x1="74.5196" y1="23.2775" x2="68.7483" y2="18.4862" gradientUnits="userSpaceOnUse"><stop stop-color="#0ED39B"/><stop offset="1" stop-color="#29BA93"/></linearGradient><clipPath id="clip0_13794_8191"><rect width="166" height="33" fill="white" transform="translate(0 0.5)"/></clipPath></defs></svg>