<svg width="149" height="36" viewBox="0 0 149 36" fill="none" xmlns="http://www.w3.org/2000/svg"
    alt="Займер" class="bEN3MW1P">
    <path
        d="M108.092 10.07c-.342 1.151-.696 2.303-1.039 3.456-.811 2.731-1.62 5.463-2.428 8.195-.257.867-.647 1.15-1.574 1.15h-1.285c-.771 0-1.183-.286-1.405-1.024-.685-2.288-1.364-4.581-2.047-6.872-.457-1.532-.915-3.064-1.375-4.595a.606.606 0 0 0-.167-.298V21.53c0 .95-.403 1.345-1.37 1.346-.629 0-1.257.005-1.885 0-.744-.008-1.2-.448-1.2-1.176-.003-5.173-.003-10.345 0-15.515 0-.708.45-1.156 1.168-1.16 1.527-.008 3.054-.008 4.58 0 .65 0 1.072.313 1.26.98.558 1.967 1.096 3.938 1.64 5.908l1.485 5.389c.065-.182.109-.285.138-.393L105.5 6.333c.299-1.085.595-1.311 1.737-1.311h4.111c.829 0 1.264.425 1.265 1.236v15.39c0 .801-.445 1.224-1.275 1.227h-1.884c-.856 0-1.293-.417-1.293-1.251V10.083l-.069-.014ZM84.354 11.46l-3.17 6.042c-.803 1.533-1.606 3.067-2.408 4.602-.28.537-.706.79-1.34.774-1.013-.027-2.027-.005-3.04-.008-.805 0-1.26-.43-1.261-1.199V6.197c0-.733.448-1.168 1.194-1.179.67-.007 1.341-.005 2.013 0 .803.005 1.243.432 1.244 1.214v10.46l.07.027c.08-.134.17-.265.241-.404 1.812-3.448 3.63-6.893 5.423-10.351.342-.658.79-.995 1.573-.955.897.045 1.799.01 2.697.011.866 0 1.3.417 1.3 1.244v15.353c0 .834-.428 1.257-1.285 1.26h-1.927c-.796-.005-1.239-.438-1.239-1.22V11.483l-.085-.023ZM120.523 19.115h8.897c.829 0 1.261.425 1.266 1.234 0 .459.007.918 0 1.377-.012.68-.458 1.14-1.146 1.141-4.112.006-8.223.006-12.334 0-.696 0-1.162-.45-1.163-1.125-.005-5.2-.005-10.4 0-15.603 0-.677.462-1.123 1.161-1.124 4.111-.005 8.223-.005 12.334 0 .694 0 1.136.455 1.148 1.137.007.46 0 .918 0 1.377-.005.81-.437 1.235-1.265 1.236h-8.895v3.337h8.8c.947 0 1.357.398 1.359 1.313v1.252c-.008.75-.451 1.187-1.228 1.188-2.84.003-5.68.003-8.52 0h-.412l-.002 3.26Z"
        fill="#192028" class="logo-path"></path>
    <path fill-rule="evenodd" clip-rule="evenodd"
        d="M64.201 5.016h-3.043c-.72.003-1.048.222-1.294.863-1.232 3.196-2.46 6.393-3.683 9.591l-.425 1.108c-.616 1.606-1.233 3.212-1.822 4.827-.282.785.257 1.455 1.114 1.465.503.005 1.007.004 1.511.002l.757-.002c.658 0 1.001-.236 1.225-.834l.092-.247a84.55 84.55 0 0 0 .7-1.908c.072-.208.176-.271.397-.271 1.942.008 3.883.008 5.825 0 .221-.001.322.072.393.277.175.503.361 1 .548 1.5l.216.576c.258.698.566.907 1.343.907h1.97c1.155 0 1.652-.665 1.25-1.713-1.962-5.123-3.928-10.243-5.897-15.36-.212-.553-.56-.776-1.177-.781Zm-1.612 5.12h.104l1.928 5.706h-3.957l1.925-5.705ZM138.563 21.6v-4.404c.319 0 .635.003.948.006.734.007 1.452.013 2.17-.019.909-.037 1.831-.082 2.718-.259 2.245-.447 3.873-1.646 4.387-3.916a9.561 9.561 0 0 0 .197-2.564c-.139-2.737-1.621-4.468-4.362-5.11a11.774 11.774 0 0 0-2.453-.304c-1.652-.03-3.304-.025-4.956-.02-.632.002-1.264.004-1.896.004-.751 0-1.204.44-1.204 1.169-.004 5.173-.004 10.346 0 15.52 0 .724.46 1.16 1.206 1.167.429.004.857.003 1.285.002l.643-.002c.889-.001 1.317-.413 1.317-1.27Zm.032-8.164v-4.66c.394 0 .784-.004 1.172-.007a59.129 59.129 0 0 1 2.575.015c1.249.044 2.216 1.093 2.216 2.32 0 1.226-.975 2.277-2.213 2.322-.858.031-1.719.024-2.59.017-.385-.004-.771-.007-1.16-.007Z"
        fill="#192028" class="logo-path"></path>
    <path
        d="M50.165 13.115c.49.282 1.002.51 1.434.834 1.129.857 1.506 2.048 1.444 3.398-.134 2.903-2.484 4.806-5.266 5.34-1.8.352-3.66.266-5.416-.25-2.227-.652-3.741-2.003-4.291-4.278-.203-.834.245-1.45 1.123-1.457.742-.006 1.484 0 2.227 0 .622 0 .949.223 1.176.78.734 1.806 3.01 2.55 4.741 1.548.686-.396 1.028-.98.993-1.765-.035-.785-.405-1.428-1.166-1.696-.589-.207-1.243-.29-1.875-.324-1.027-.054-1.391-.363-1.4-1.363a6.964 6.964 0 0 1 .034-.873c.064-.545.473-.885 1.042-.909.428-.018.856-.005 1.274-.083 1.105-.207 1.723-.918 1.666-1.849-.053-.879-.87-1.674-1.902-1.713-.626-.023-1.272.09-1.884.23-.499.115-.878.468-1.086.94-.297.676-.794.962-1.553.899-.538-.045-1.084-.008-1.627-.01-.992 0-1.484-.615-1.23-1.566.354-1.323 1.188-2.294 2.385-2.975 1.07-.609 2.26-.85 3.475-.936 1.442-.103 2.88-.033 4.277.383.929.276 1.766.7 2.452 1.387 1.872 1.875 1.49 4.814-.804 6.164l-.243.144ZM81.513 4.187c-1.215-.024-2.232-.19-3.15-.73-.532-.313-.994-.705-1.252-1.27-.258-.566-.086-1.144.403-1.475a1.168 1.168 0 0 1 1.55.185c.928 1.02 2.092 1.115 3.32.786.436-.116.831-.45 1.191-.746.36-.297.745-.515 1.237-.39.444.098.789.44.88.875.104.422-.047.793-.307 1.127-.725.933-1.742 1.352-2.884 1.538-.379.064-.765.08-.988.1Z"
        fill="#192028" class="logo-path"></path>
    <path fill-rule="evenodd" clip-rule="evenodd"
        d="M40.792 29.538h-2.628v5.822h1.561v-1.946h1.319c1.242 0 2.107-.605 2.107-1.914 0-1.439-.989-1.962-2.36-1.962Zm.848 1.98c0 .677-.496.718-1.033.718l-.882.001v-1.456h1.008c.546 0 .907.172.907.736ZM43.72 32.45c0 1.774 1.15 3.05 2.997 3.05 1.814 0 2.913-1.333 2.912-3.043 0-1.873-1.15-3.059-2.93-3.059-1.796 0-2.98 1.326-2.98 3.051Zm1.593-.014c0-1.104.531-1.8 1.37-1.8.84 0 1.352.668 1.35 1.775 0 1.162-.495 1.84-1.343 1.84-.863 0-1.377-.679-1.377-1.815ZM50.503 35.361h2.863c1.486 0 2.358-.552 2.355-1.963 0-1.309-.881-1.914-2.275-1.914h-1.401v-.72h3.169v-1.226h-4.71v5.823Zm1.536-2.69h1.075c.537 0 1.032.073 1.028.72 0 .564-.327.736-.99.736H52.04v-1.456ZM56.378 32.45c0 1.774 1.151 3.05 2.998 3.05 1.813 0 2.912-1.333 2.911-3.043 0-1.873-1.15-3.059-2.93-3.059-1.795 0-2.98 1.326-2.98 3.051Zm1.594-.017c0-1.104.53-1.799 1.37-1.799v.003c.839 0 1.35.667 1.35 1.772 0 1.162-.496 1.84-1.344 1.84-.862 0-1.376-.68-1.376-1.816Z"
        fill="#7D8888" class="logo-path"></path>
    <path d="M67.912 30.83H66.14v4.531h-1.578v-4.53h-1.771v-1.293h5.12v1.292Z" fill="#7D8888"
        class="logo-path"></path>
    <path fill-rule="evenodd" clip-rule="evenodd"
        d="M71.09 32.45c0 1.774 1.152 3.05 2.998 3.05 1.815 0 2.913-1.333 2.912-3.043 0-1.873-1.15-3.059-2.93-3.059-1.796 0-2.98 1.326-2.98 3.051Zm1.594-.017c0-1.104.531-1.799 1.37-1.799l.002.003c.84 0 1.352.667 1.348 1.772 0 1.162-.495 1.84-1.343 1.84-.863 0-1.377-.68-1.377-1.816Z"
        fill="#7D8888" class="logo-path"></path>
    <path
        d="M83.038 35.361h-1.57v-2.405h-2.023v2.404h-1.57v-5.822h1.57v2.077h2.023v-2.077h1.57v5.823ZM89.291 35.361h-1.57v-4.53h-1.325l-.076 2.265c-.059 1.643-.806 2.38-1.83 2.38a3.57 3.57 0 0 1-.822-.107v-1.218c.148.05.304.075.461.074.353 0 .638-.147.672-1.341l.1-3.345h4.391v5.822Z"
        fill="#7D8888" class="logo-path"></path>
    <path fill-rule="evenodd" clip-rule="evenodd"
        d="M94.216 35.361h1.614l-2.235-5.83h-1.578l-2.242 5.83h1.595l.395-1.063h2.065l.386 1.063Zm-2.093-2.16.685-2.035.675 2.036h-1.36ZM97.483 28.018c0 .875.748 1.235 1.537 1.235.789 0 1.535-.361 1.535-1.235h-.72c-.076.318-.42.473-.815.473-.395 0-.74-.155-.815-.473h-.722Zm2.485 7.343h1.52l-.001-5.823h-1.663l-2.04 3.876.059-3.876h-1.52v5.823h1.714l2.04-3.876-.109 3.876Z"
        fill="#7D8888" class="logo-path"></path>
    <path
        d="M107.741 35.361h-1.57v-2.405h-2.019v2.404h-1.57v-5.822h1.57v2.077h2.023v-2.077h1.57l-.004 5.823ZM113.851 35.5c-1.662 0-2.644-.769-2.669-2.086h1.57c0 .686.486.918 1.091.918.528 0 .898-.295.898-.704 0-.482-.395-.744-.965-.744h-.554V31.82c.176.017.378.017.453.017.671 0 .915-.303.915-.654 0-.32-.311-.622-.781-.622-.605 0-.943.245-.974.712h-1.488c.025-1.21.932-1.873 2.426-1.873 1.427 0 2.334.605 2.334 1.62 0 .5-.395 1.005-.848 1.168a1.315 1.315 0 0 1 1.074 1.325c.003 1.186-1.079 1.987-2.482 1.987Z"
        fill="#7D8888" class="logo-path"></path>
    <path fill-rule="evenodd" clip-rule="evenodd"
        d="M120.978 35.361h1.612l-2.233-5.83h-1.578l-2.242 5.83h1.594l.395-1.063h2.065l.387 1.063Zm-2.094-2.16.685-2.035.675 2.036h-1.36ZM124.243 28.018c0 .875.747 1.235 1.536 1.235s1.536-.361 1.538-1.235h-.722c-.076.318-.42.473-.815.473-.395 0-.739-.155-.814-.473h-.723Zm2.484 7.343h1.52l-.003-5.823h-1.662l-2.04 3.876.059-3.876h-1.52v5.823h1.713l2.042-3.876-.109 3.876Z"
        fill="#7D8888" class="logo-path"></path>
    <path
        d="M129.355 29.538h2.267l1.091 4.04 1.113-4.04h2.208v5.822h-1.475l.075-4.44-1.334 4.44h-1.2l-1.326-4.432.05 4.432h-1.469v-5.822Z"
        fill="#7D8888" class="logo-path"></path>
    <path fill-rule="evenodd" clip-rule="evenodd"
        d="M136.925 32.45c0 1.774 1.151 3.05 2.998 3.05 1.813 0 2.913-1.333 2.911-3.043 0-1.873-1.149-3.059-2.929-3.059-1.796 0-2.98 1.326-2.98 3.051Zm1.594-.017c0-1.104.531-1.799 1.371-1.799v.003c.835 0 1.349.667 1.349 1.772 0 1.162-.496 1.84-1.343 1.84-.863 0-1.377-.68-1.377-1.816ZM143.708 29.538h3.006c1.032 0 1.93.384 1.93 1.463 0 .584-.276.918-.78 1.178.713.228 1.074.712 1.074 1.43 0 .54-.201.99-.587 1.309-.514.426-1.092.441-1.738.441h-2.905v-5.821Zm2.644 2.29c.529 0 .771-.172.771-.565 0-.482-.395-.564-.814-.564h-1.074v1.13l1.117-.002Zm1.008 1.667c0 .573-.42.663-.89.663l-1.235.005v-1.335h1.193c.487 0 .932.095.932.667Z"
        fill="#7D8888" class="logo-path"></path>
    <path fill="#FF8900" d="M0 25.127h9.936v9.702H0z"></path>
    <path d="M9.936 25.127 0 34.829v-9.702h9.936Z" fill="#FFA700"></path>
    <path fill="#FFB83A" d="M9.936 25.127h9.936v9.702H9.936z"></path>
    <path d="m19.871 25.127-9.935 9.702v-9.702h9.935Z" fill="#FFCA49"></path>
    <path fill="#B8BA3C" d="M9.936 15.426h9.936v9.702H9.936z"></path>
    <path d="m19.871 15.426-9.935 9.701v-9.701h9.935Z" fill="#CACB4B"></path>
    <path fill="#61C528" d="M19.871 15.426h9.936v9.702h-9.936z"></path>
    <path d="m29.807 15.426-9.936 9.701v-9.701h9.936Z" fill="#8DCC4E"></path>
    <path fill="#4C9D33" d="M19.871 5.724h9.936v9.702h-9.936z"></path>
    <path d="m29.807 5.724-9.936 9.701V5.724h9.936Z" fill="#5FB640"></path>
</svg>