<svg width="64" height="59" viewBox="0 0 64 59" fill="none" xmlns="http://www.w3.org/2000/svg">
<path d="M4.66823 31.4556C4.23246 31.0186 4.2234 30.2988 4.64798 29.8478L24.1186 9.16372C27.2888 5.79593 32.4964 5.71066 35.7501 8.97327L50.631 23.895C53.8848 27.1576 53.9524 32.5326 50.7822 35.9004L36.283 51.3031C33.1128 54.6709 27.9052 54.7562 24.6515 51.4936L4.66823 31.4556Z" fill="url(#paint0_linear_108_2)"/>
<path d="M26.5831 31.4391C26.1371 31.0176 26.1076 30.3019 26.517 29.8405L40.1969 14.4207C42.0159 12.3703 45.0967 12.2262 47.0779 14.0986L59.1985 25.5534C61.1798 27.4258 61.3114 30.6059 59.4924 32.6562L48.3647 45.199C46.5457 47.2493 43.465 47.3936 41.4837 45.5211L26.5831 31.4391Z" fill="url(#paint1_linear_108_2)"/>
<defs>
<linearGradient id="paint0_linear_108_2" x1="35.9282" y1="8.1156" x2="21.4777" y2="51.35" gradientUnits="userSpaceOnUse">
<stop stop-color="#58AED3"/>
<stop offset="1" stop-color="#58AED3" stop-opacity="0.8"/>
</linearGradient>
<linearGradient id="paint1_linear_108_2" x1="48.1503" y1="13.8832" x2="38.7179" y2="45.2269" gradientUnits="userSpaceOnUse">
<stop stop-color="#20AFCE" stop-opacity="0.77"/>
<stop offset="1" stop-color="#20AFCE" stop-opacity="0.62"/>
</linearGradient>
</defs>
</svg>
