<svg xmlns="http://www.w3.org/2000/svg" xml:space="preserve" version="1.0" viewBox="0 0 90 100"><path fill="#231F20" d="m83.3 23.2-.5.7c.3-2-.1-4.8-.6-6.4-.7 2.6-2 4.9-3.8 7.1l-.1-1.3c-2.1 3.3-4.7 6-7.6 7.3 0-.5-.1-1.1-.3-1.5-3.8 5-13 3.8-12 13.9 2.1-.3 3.1 1.8 1.3 3.8-.8 0-1.6-.3-2.3-.7l.4-.6-1.6-.8c.4-.1.8-.3 1.2-.5-2.4-1.2-1.6-3.5-4.4-4.7-.5-.5-.9-1.2-1.2-1.9-.1-.5-.2-1.1-.3-1.7 0-1.2 0-1.9.3-2.4l.2.3c.7-1.6 1.6-2.8 2.8-3.5 3.3.1 5.2-.1 5.8-2.1-.2.1-.3.1-.4.1-.1-.2-.2-.3-.3-.4.8-.3 2 .2 2.3.2-.1-1-.5-1.3-.7-1.7l1.1-.8c2.8.9 5.2-1.2 6.9-.3l.6-2.1c-2.5-1.2-4 .4-6.1.4.6-1.3.7-2.5.2-3.7l-2.2-.7c-2.7.8-2.6 3.3-1.6 5-.6.6-1.2.9-1.6 1.1l-.7.1s-.1-.9-1.3-1.2v-.6c1.5-1.2 1.6-2.4 1.3-3.1s-1.1-1.1-1.8-.9l-1 .3-.1-.2c.1-.1.1-.2.1-.3 0-.2-.1-.4-.2-.5h.1l-.1-.4.4.1v-1.4l-.4.1.1-.4h-1.4l.1.4-.4-.1v1.4l.4-.1-.4.5h.2c-.1.1-.2.3-.2.5 0 .1 0 .3.1.4l-.1.2-1-.3c-.7-.2-1.5.1-1.8.9-.3.7-.2 1.8 1.3 3.1v.8h-1.1c-1.2-.7-2.2-1.9-2.5-3.4.8-.1 1.4-.4 1.9-.9v-2.1c3.2-2.4 4.1-5.6 1.3-7-1.6-.8-3.6-.1-4.6.7-.2-.3-.5-.6-.8-.7 0-.3-.1-.6-.4-.9h.2l-.2-.7.7.2V7.6l-.7.2.2-.7h-2.2l.2.7-.7-.2v2.2l.7-.2-.2.7h.2c-.2.2-.4.5-.4.9v.1c-.2.1-.5.4-.7.6-1-.8-3-1.5-4.5-.7-2.8 1.4-1.9 4.6 1.3 7v2.1c.5.5 1.2.8 1.9.9-.3 1.4-1.3 2.6-2.5 3.4H38v-.9c1.5-1.2 1.6-2.4 1.3-3.1s-1.1-1.1-1.8-.9l-1 .3-.1-.2c.1-.1.1-.2.1-.3 0-.2-.1-.4-.2-.5h.1l-.1-.4.4.1v-1.4l-.4.1.1-.4H35l.1.4-.4-.1v1.4l.4-.1v.4h.2c-.1.1-.2.3-.2.5 0 .1 0 .3.1.4l-.1.2-1-.3c-.7-.2-1.5.1-1.8.9-.3.7-.2 1.8 1.3 3.1v.6c-1.2.3-1.3 1.3-1.3 1.3h-.5c-.4-.2-1.3-.8-1.9-1.4 1-1.8 1-4-1.6-4.8L26 20c-.5 1.2-.4 2.3.2 3.6-2.1 0-3.6-1.6-6.1-.4l.6 2.1c1.7-.9 4.1 1.2 6.9.3l1.1.8c-.4.5-.8 1-.9 1.9.7-.4 1.4-.5 2.5-.3-.4 0-.5.2-.5.3.1.1.2.1.2.1-.1 0-.4-.1-.7-.1.6 1.9 2.6 2.1 5.9 2 1.2.6 2 1.8 2.8 3.5l.2-.3c.2.6.3 1.2.3 2.4 0 .7-.1 1.2-.3 1.7-.4.7-.8 1.4-1.2 1.9-2.8 1.2-2 3.5-4.4 4.6.4.3.7.5 1.2.5l-1.6.8.4.6c-.7.4-1.4.7-2.3.7-1.9-2-.9-4 1.3-3.8 1-10.1-8.2-8.8-12-13.9-.1.4-.2 1-.3 1.5-2.9-1.3-5.5-4-7.6-7.3l-.1 1.3c-1.7-2.2-3-4.6-3.8-7.1-.5 1.6-.9 4.4-.6 6.4l-.5-.7c-1 3.8-.9 6.3 1.2 9.6.3 2.1 1.2 4.2 2.2 5.8-.6-.1-1-.2-1.6-.2 1.1 2.1 2.4 4.1 3.6 5.4l-1.7.5c1.5 2.3 3.2 3.8 5.2 5.1-.9.2-1.3.5-2 1 1.3 1.4 2.4 2.1 4.2 2.6-1.4.5-2 1.1-2.4 2.2 1.8.6 3.8 1 5.8.9-1.2.7-2.3 1.5-2.9 2.6l-.4-.2c-.2-.1-.3-.1-.5-.1-.4 0-.9.3-1 .7 0 .1-.1.2-.1.2v.2c-.1.1-.3.2-.4.3l-.5-.2c-.2-.1-.4-.1-.6-.1-.5 0-1 .3-1.2.8-.3.7 0 1.4.6 1.8l.4.2h.1v.5l-.1.2c0 .1-.1.1-.1.2q-.15.45 0 .9c.1.3.3.5.6.7l.8.4-.2-.1.4.2 1.4.7.1.1c-1 1.2-2.2 1.9-3.6 1.9h-.7l-.3-.2h-.1q-.9-.15-1.8-.6l-.7-.4.2.8c.4 1.9 2.1 3.8 4.7 5.5 2.5 1.5 5.2 2.4 7.5 2.4 1.2 0 2.2-.3 2.9-.8l.7-.5-.8-.2c-.6-.2-1.2-.5-1.6-.8l-.4-.1-.3-.3c-1.4-1.3-1.4-3.2-1-4.6h.1l1.4.7.4.2.1-.2 2.9 1.4c-.1 4.5-1.5 7.3-4.1 10.2H23c-.4.1-.7.5-.8.9l-.3.3h-.1c-.2-.3-.5-.5-.9-.5-.1 0-.2 0-.3.1l-.5.2c-.3.1-.5.3-.6.5s-.1.4-.1.7c-.1 0-.3.1-.4.1-.2-.4-.6-.7-1-.7-.1 0-.2 0-.4.1l-.3.1c-.6.2-.9.7-.7 1.3-1.3.4-2.6.9-3.8 1.2.2 3.1 1.2 5.7 3.2 8.1 3.1-1.5 6.1-3 9-4.4.1.1.3.2.5.2.1 0 .2 0 .3-.1l.4-.1c.5-.2 1.1-.7 1.4-1.2 4.2-2 8.1-3.8 11.5-5.3.1 1.2.2 2.3.6 3.1.8-.3 1.5-.5 2.2-1.1 0 .4.2.8.3 1.3l-1.5 1.6 1 1 1.5-1.4c.2 1.1 1.4 2.7 2.1 3.1.5-.4 1.8-2.1 2.1-3.1l1.5 1.4 1-1-1.5-1.6c.2-.4.3-.8.3-1.3.7.5 1.4.8 2.2 1.1.3-.8.5-1.8.6-3.1l.4.2.2-.2 7.2 3.5.6.3.2.3.1.1h.1l1 .5.3.1c.3.5 1.1 1.8 2.5 1.7.3 0 .5-.1.7-.2l1 .5.4.2.1-.2 3.7 1.7-.1.2.4.2 1.4.7.4.2.1-.2 1.1.5c-.3 0-.1 0 0 0 .4 0 .9-.3 1-.7 0-.1.1-.2.1-.2v-.2c.1-.1.3-.1.4-.3h.1l.6.3c.2.1.4.1.6.1.5 0 1-.3 1.2-.8.3-.7 0-1.4-.6-1.8l-.5-.3v-.5l.1-.1c.1-.1.1-.1.1-.2q.15-.45 0-.9c-.15-.45-.4-.3-.6-.4l-1.2-.6.1-.2-.4-.2-1.4-.7-.4-.2.1-.2c.2-.5-.2-1.1-.5-1.2l-.5-.2c-.5-.2-1.1 0-1.3.5l-.1.2-.4-.2.1-.3c.2-.5 0-1.1-.6-1.4l-.5-.2c-.3-.1-.7 0-.9.1-3-3.2-4.6-5.9-4.8-9.4 4.7-1.8 10-3.7 15.6-5.5-.6-2.9-1.7-5.6-3.2-8.1l-1.4.8-1.2-2.3c-.6.4-1.2.7-1.9 1.1-.6-.6-1.4-1.2-2.2-1.6 2 .1 4.1-.3 5.8-.9-.5-1-1.1-1.7-2.4-2.2 1.8-.5 3-1.2 4.2-2.6-.7-.5-1.1-.8-2-1 2-1.3 3.6-2.8 5.2-5.1l-1.7-.5c1.2-1.3 2.5-3.3 3.6-5.4-.6 0-1 0-1.6.2 1.1-1.5 1.9-3.7 2.2-5.8 2.1-3.5 2.2-5.9 1.2-9.7M54.2 67c-.1.1-.3.1-.4.2l.1-.7zm-9.9-45.4h1.4c.6 2.3 2 3.9 4 5.2 0 0-1.3 1.9-3.6 2.7.2.3.3.3.6.5-.8.7-1.7 2.4-1.7 2.4v.1-.1s-.9-1.7-1.7-2.4c.2-.2.4-.2.6-.5-2.3-.8-3.6-2.7-3.6-2.7 2-1.3 3.5-2.9 4-5.2m-8.1 45.5-.4-.1.3-.5zm-15.3-7.4c.8-.1 1.6-.2 2.3-.4-.4.3-.8.8-1 1.2l-1.4-.6zm7.7 19.4c1.4-1.6 2.7-3.3 3.5-6.5l3.7 1.7.6.3.2.3.1.1h.1l.5.3-3.5 1.7c-1.7.6-3.6 1.4-5.2 2.1m32.9.1-4.3-2-.6-.3-.2-.3-.1-.1h-.1l-2.1-1c1.2-.5 2.6-1 4-1.6.8 2 1.9 3.8 3.4 5.3m5.8-19.4-.6-.6c.3.1.7.2 1.1.3-.2.1-.3.2-.5.3" opacity=".7"/><g fill="#FCD015"><path d="M32.4 26c-.9-.1-1.9-.1-2.5.1-.8.2-1.4.6-1.7 1.6 2.5-.7 2.7.7 5 1.2-.7.3-2.5.3-3.5-.3.7 1.1 1.6 1.4 4.9 1.3-1.1-.9-.5-2.9-2.2-3.9"/><path d="M30.2 28.3c.6.1.5.5 1.5.5-.2-.2-1.1-.9-1.5-.5M57.4 26c.9-.1 1.9-.1 2.5.1.8.2 1.4.6 1.7 1.6-2.5-.7-2.7.7-5 1.2.7.3 2.5.3 3.5-.3-.7 1.1-1.6 1.4-4.9 1.3 1.1-.9.6-2.9 2.2-3.9"/><path d="M59.7 28.3c-.6.1-.5.5-1.5.5.2-.2 1.1-.9 1.5-.5"/></g><path fill="#221F1F" d="m44.9 72.5 2.8 5.7-2.4 1-2.7-5.8zM42.3 85.6l-1.2 1.2.4.4 1.1-1.1c0-.2-.2-.4-.3-.5M47.8 85.6c-.1.2-.2.3-.4.4l1.1 1.1.4-.4z"/><g fill="#FFC112"><path d="M33.7 23.7v.6c1.5-.1 2.7.1 4.1.2v-.8c-1.3-.2-2.7-.2-4.1 0M33.9 20.4l-.4-.3c-.3 0-.6.2-.8.5-.9 1.1.3 2.3.9 2.8h.2c.3 0 .7-.1 1-.1 0-1.2-.2-2.3-.9-2.9M38 20.1l-.4.3c-.7.6-.8 1.7-.9 2.9.3 0 .7.1 1 .1h.2c.6-.5 1.8-1.7.9-2.8-.2-.4-.5-.5-.8-.5"/><circle cx="35.8" cy="19.5" r=".4"/><path d="M35.1 23.2h1.4c0-1.3.2-2.5 1-3.1l-1 .3-.2-.3c-.1.1-.3.1-.4.1-.2 0-.3-.1-.4-.1l-.2.3-1-.3c.6.7.8 1.9.8 3.1M35.4 18.7h.7l-.1-.4.5.1v-.7l-.5.1.1-.4h-.7l.2.4-.5-.1v.7l.5-.1zM55.5 23.6h-.1c-.8-.1-1.6-.1-2.5 0h-.1c-.2 0-.4 0-.6.1v.8c1.3 0 2.5-.3 4-.2v-.6c-.3-.1-.5-.1-.7-.1M57.2 20.5c-.2-.3-.5-.4-.8-.5l-.4.4c-.7.6-.8 1.7-.9 2.9.3 0 .7.1 1 .1h.2c.6-.5 1.8-1.7.9-2.9M52.3 20.4l-.4-.3c-.3 0-.6.1-.9.5-.9 1.1.3 2.3.9 2.8h.2c.3 0 .7-.1 1-.1 0-1.2-.1-2.3-.8-2.9"/><circle cx="54.1" cy="19.5" r=".4"/><path d="m53.5 20.5-1-.3c.8.6 1 1.8 1 3.1h1.4c0-1.3.2-2.5 1-3.1l-1 .3-.2-.3c-.1.1-.3.1-.4.1-.2 0-.3-.1-.4-.1zM53.8 18.7h.7l-.2-.4.5.1v-.7l-.5.1.2-.4h-.7l.1.4-.5-.1v.7l.5-.1zM39.2 13.6v.6l.5.2v-.5zM44.9 16.9c-2.7 0-4.9.7-4.9 1.5v1.3c.8-.8 2.9-1.1 4.9-1.1s4 .4 4.9 1.1v-1.3c0-.8-2.2-1.5-4.9-1.5M47.4 14.2c.4-1.7 1.8-2.6 3.2-2.9-1.5-.3-3.2.4-3.8 1.4-.3.5-.5 1.1-.7 1.6.4-.2.9-.2 1.3-.1M42.4 14.2c.5-.1.9-.1 1.3.1-.2-.6-.4-1.2-.7-1.7-.6-.9-2.3-1.7-3.8-1.4 1.4.4 2.8 1.3 3.2 3"/><path d="M40.2 20.1c.3.3.8.6 1.5.8.1-.5.1-1 .2-1.6-.8.2-1.4.5-1.7.8M45.2 18.9h-.6c0 .8-.1 1.6-.3 2.3h1.2c-.1-.7-.2-1.4-.3-2.3M48 19.3c0 .6.1 1.1.2 1.6.7-.2 1.2-.5 1.5-.8-.3-.3-.9-.6-1.7-.8"/><circle cx="44.9" cy="11.2" r=".9"/><path d="M44.3 9.9h1.1l-.3-.9.9.3V8.2l-.9.3.3-.9h-1.1l.4.9-1-.3v1.1l1-.3zM50.2 14.4l.5-.2v-.6l-.4.3z"/><path d="M52.3 12.4c-.2-.4-.5-.6-.9-.8-1.5.1-3.2.9-3.6 2.9v.2l-.2-.1c-.6-.2-1.1-.1-1.6.2-.1.4-.2.7-.2.9-.1.4-.5.6-.8.6s-.7-.3-.8-.6c0-.1-.1-.4-.2-.8-.4-.3-1-.3-1.6-.2l-.2.1v-.2c-.4-2-2-2.8-3.6-2.9-.3.2-.6.5-.9.8-1.4 2.1 1.3 4.6 2.3 5.4.7-.9 2.9-1.3 5-1.3 2.2 0 4.4.5 5 1.3.9-.9 3.6-3.4 2.3-5.5M39 14.5l-.2-.1V13l.6.3.5.2.2.1V15l-.6-.3zm.9 2.4q-.3 0-.3-.3t.3-.3c.3 0 .3.1.3.3 0 .1-.1.3-.3.3m1.5-.6q-.3 0-.3-.3t.3-.3.3.3c0 .1-.2.3-.3.3m1.5-.4q-.3 0-.3-.3c0-.3.1-.3.3-.3q.3 0 .3.3c0 .3-.1.3-.3.3m4.1 0q-.3 0-.3-.3c0-.3.1-.3.3-.3q.3 0 .3.3c0 .3-.2.3-.3.3m1.5.4q-.3 0-.3-.3t.3-.3.3.3c0 .1-.1.3-.3.3m1.5.6q-.3 0-.3-.3t.3-.3.3.3c0 .1-.1.3-.3.3m-.2-1.9v-1.4l.2-.1.5-.2.6-.3v1.4l-.2.1-.5.2z"/><circle cx="44.9" cy="15.4" r=".5"/><path d="M44.3 14.7c.2-.2.4-.2.6-.2s.5.1.6.2c.1-.6.4-1.5.9-2.3 0 0 0-.1.1-.1 0-.3-.2-.5-.5-.7-.2.4-.6.8-1.2.8-.5 0-1-.3-1.2-.8-.2.1-.4.3-.4.6 0 .1.1.1.1.2.6.9.9 1.7 1 2.3"/></g><g fill="#E0E0E0"><path d="M72.6 57.4C62.7 62.7 54 67.6 45.1 72l.2.3v.1c9-3.9 18.5-8.2 28.3-13.1-.2-.6-.6-1.4-1-1.9M42.3 73.6l-.1-.2c-2 1-4.1 1.9-6.1 2.8 2-.8 4.1-1.6 6.2-2.6M75 59.1c-9.4 4.7-19.4 9.3-29.5 13.7l2.3 4.8c10-4.2 20.2-8.2 30-11.5-.4-2.5-1.4-4.8-2.8-7M24.7 81l.5 1.5c.1.3-.2.6-.2 1 .1 1.4-.8 2.4-.8 2.4l-.5.4-.2-.6-1.3-3.8c0 .1-.1.1-.2.1l.8 2.3c.3 1-.2 2.4-.3 2.4l-.2.4-.4-.1s-1-.7-1.5-2c-.1-.2-.3-.2-.4-.4l-.5-1.6c-.1 0-.2.1-.4.1l1.2 3.6.2.6h-.6c-.1 0-1.2 0-2.1-1.3-.1-.2-.6-.1-.7-.4l-.5-1.6c-1.2.4-2.3.8-3.5 1.2.4 2.7 1.3 5.1 2.9 7q4.2-2.1 8.7-4.2c0-.1.1-.3.2-.5l1.2-2s-.2-.6-.1-1.3c.9.2 1.6.6 1.9 1.2.1.3.1.8-.1 1.2 5.5-2.6 11.2-5.1 16.9-7.5L42.5 74c-5.9 2.5-11.9 4.9-17.8 7"/></g><path fill="#E2E2E2" d="M23.5 73.4s-.1 0 0 0c-1-.1-1.9-.2-2.8-.4l.1-.4c.7.2 1.4.3 2.2.4-1.4-1.3-1.6-3.2-1.1-5.1L18 66c-1.2 1.7-2.8 2.4-4.7 2.1 1.7 1.8 3.6 3.2 5.9 4l-.1.4c-2.5-.9-4.6-2.4-6.4-4.5-.6-.1-1.2-.4-1.8-.7 1 4.7 10.9 9.4 14.4 6.9-.7-.2-1.3-.5-1.8-.8"/><g fill="#A5A5A5"><path d="m15.6 60-.5-.2c-.5-.2-1 0-1.2.4-.2.5 0 1 .4 1.2l.4.2q.3-.6.9-.6c-.1-.3-.1-.7 0-1M76.5 89l-.5-.3c-.2.3-.5.6-.9.6.2.3.2.7 0 1l.6.3c.5.2 1 0 1.2-.4s0-1-.4-1.2"/></g><g fill="#939393"><path d="m69.939 90.407 2.709-5.688 1.444.688-2.709 5.688zM22.494 67.73l2.708-5.688 1.445.688-2.709 5.687zM16.214 64.818l2.71-5.688 1.444.688-2.71 5.688zM30.3 64.5l6.5 10.1 1 .5c.3-.1.5-.2.8-.4l-5.8-9zM42 70.1l1.5 2.3c.4-.2.9-.4 1.3-.6l-.3-.5zM48 77.9l.2.4-.4.2-.3.1.9 1.5 2.4 1.2-2.3-3.6c-.1.1-.3.2-.5.2M53.6 75.6l6.5 10.1 1 .5c-.3-.8 0-1.4.1-1.5l-5.1-7.9zM67.3 82.1l-.4-.1-1.8 4.1-.2-.2-.8 1.7 1.4.7.8-1.7c-.1-.4-.4-1.4 0-2.2z"/></g><g fill="#DBDBDB"><path d="m24.7 67.7-.4.7 11.6 5.5-.9-1.3zM33.1 69.6l-7.6-3.7-.7 1.4 9.8 4.7zM31.1 66.5l-4.8-2.3-.6 1.4 7 3.3zM30 64.7l-.1-.1-3.1-1.5-.3.7 4.2 2zM14.8 62.9l-.1.1c-.2.4 0 .8.4 1l.8.4.3-.7-1-.5c-.1-.1-.2-.2-.4-.3M18.121 65.446l.344-.722 4.063 1.935-.344.722zM15.1 61.8c-.2.4 0 .8.4 1l1 .5.6-1.4-1-.5c-.4-.1-.9 0-1 .4M18.628 64.377l.645-1.354 4.063 1.935-.645 1.354zM16 60.1c-.2.4 0 .8.4 1l.9.4.6-1.4-.9-.3c-.4-.2-.8-.1-1 .3M19.444 62.546l.645-1.354 4.062 1.935-.645 1.354zM16.7 59.3c.2 0 .3 0 .5.1l.9.4.3-.7-.8-.4c-.4-.2-.8 0-1 .4.1.1.1.1.1.2M20.252 60.846l.344-.723 4.062 1.935-.344.723zM50.5 80l.7 1.1.1.1 7.9 3.8-.8-1.3zM65.987 88.222l.344-.723 3.701 1.763-.344.723zM42.4 71.4l-.8-1.1-.1-.2-7.8-3.7.8 1.3zM75.5 86.3l-1.2-.6-.3.7 1.4.7c.2.1.3.2.4.3l.1-.1c.2-.4 0-.8-.4-1M73.5 90.9l-1.3-.6-.4.7 1.1.5c.4.2.8 0 1-.4 0-.1 0-.1.1-.2-.2.1-.4.1-.5 0M74.3 89.2l-1.3-.6-.6 1.4 1.3.6c.4.2.8 0 1-.4.1-.4 0-.8-.4-1M75.2 87.5l-1.4-.7-.6 1.4 1.4.7c.4.2.8 0 1-.4s0-.8-.4-1M38.5 73.8l1 .5c.6-.3 1.2-.5 1.8-.8L37 71.4zM34.9 68.3l1.5 2.4 5.3 2.5c.5-.2.9-.4 1.4-.7l-.3-.5zM46.7 79l.8.4-.4-.6zM53.3 75.8c-.3.1-.6.2-1 .3l1.7.8zM54.4 77.6l-2.6-1.2c-.6.3-1.2.5-1.9.8l6 2.9zM56.4 80.7l-7-3.3c-.2.1-.3.1-.5.2l1.1 1.8 7.8 3.7zM64.2 81.8l.4-.7-7.6-3.6.8 1.3zM64.1 82.3l-5.8-2.9 1.5 2.4 4.3 2c0-.3.1-.6.1-.8-.1-.3-.3-.4-.1-.7M60.2 82.5l1.2 1.9c.7-.6 1.7-.5 1.7-.5l-.3 1 .3.6 1.3.6.3-.5c-.2-.3-.4-.7-.5-1.3zM63.9 87.1l.3-.6-.8-.4zM69.9 83.6l-.4-.2-.4.8.5.2zM69.4 84.7l-.4-.2-.2.4c-.1.2-.3 0-.7.8l.6.3zM71 87.1l.6-1.2c-.1.1-.4 0-.5.2-.2.3-.6.7-.7.7zM68.9 87.3h-.6l.2-.6.1-.2-.6-.4c-.5.6-1.3 1.1-1.3 1.1l3.6 1.7.6-1.4-.9-.4c-.6.1-1 .2-1.1.2"/></g><path fill="#D0D2D3" d="M45.1 80.8c-1.6 0-2.9 1.3-2.9 2.9s1.3 2.9 2.9 2.9 2.9-1.3 2.9-2.9-1.3-2.9-2.9-2.9m.7 1.8c.2 0 .2-.2.1-.3.1-.2.2 0 .2.1 0 0 .2 0 .2.1s-.1.1-.1.3c0 0-.2-.1-.1 0 0 0-.1 0-.1-.1s.1-.1.1-.2-.2-.1-.2-.1c.1.1.1.3-.1.2 0 .1 0 0 0 0m-.3 1h-.7c.2-.2 0-.7-.4-.7-.1 0-.1.1-.1.1v-.1c0-.2.5-.1.7-.2 0 .1-.1.2-.1.2q.15.15.3.6 0-.45.3-.6c-.1 0-.2-.1-.1-.2.2.1.7 0 .7.2v.1s0-.1-.1-.1c-.5 0-.8.5-.5.7m.3-.5h-.2l.1-.1s.1 0 .1.1m-.6 1.2s.1-.1.1 0-.1.1-.1.1l-.2-.6h.1s.1-.1.2 0v.1-.1.2c.1 0 .1 0 .1.1 0-.1-.1-.1-.1-.1-.1.2-.1.2-.1.3m-.3-.2s0 .1 0 0c0 0-.1 0 0 0l-.1-.1s.1 0 .1.1c0-.1.1-.1.1-.1-.1 0-.2 0-.2-.1l.1-.1v-.1l.3.8h-.3s-.1 0-.1-.1v-.1s.1-.1.1-.2m-.3-1h-.2c0-.1 0-.1.1-.1 0 0 .1 0 .1.1m1-.9v.2zm-.5-.3.1.1-.1.1-.1-.1zm-.6.3v.2zm0 .2h.2c.1 0 .1 0 .1.1.1 0 .2-.1.2-.2l-.1-.1c-.1-.1 0-.2.1-.2l.1.2.1-.2c.1 0 .2.1.1.2l-.1.1c0 .1.1.2.2.2 0-.1 0-.1.1-.1l.1.1.1-.1c.1 0 .1 0 .1.1l-.1.1h-.2c-.2 0-.3-.1-.3-.2H45c0 .1-.1.2-.3.2h-.2s0-.1-.1-.1 0-.1.1-.1m-.5 0c.1-.1.2-.3.2-.1-.1.1-.1.3.1.3-.2 0-.2-.1-.2-.2 0 0-.2 0-.2.1s.1.1.1.2c0 0 0 .1-.1.1 0-.1-.1-.1-.1 0 .1-.2-.1-.2-.1-.3.1-.1.3 0 .3-.1m-.7 1c.1 0 .2 0 .1-.1s-.2-.3-.1-.4c0 0 .3.1.2 0-.1-.2-.1-.4 0-.5 0 .1.4.6.8.9 0 0-.1.1-.1.2s.1.2.2.2h.2v.3c0-.1-.2-.2-.3-.2 0 .1-.1.2-.1.3q-.15.15-.3 0s.1-.2 0-.1-.2 0-.3-.1c.1 0 .1-.1 0-.1s-.3 0-.3-.2c0 0 .2-.1.1-.1 0 .2-.1.1-.1-.1m2.8 1.6c-.1 0-.2 0-.2-.1-.1-.1-.2-.1-.4-.1.1-.1-.1-.2-.2-.1-.1 0-.1.1-.1.2.2 0 .5.2.5.3s0 .1-.1.1c0-.2-.1-.2-.1 0 0 .1-.1.1-.1.2 0-.2-.1-.2-.1 0 0 .1-.1.1-.1.1l-.1-.1c0-.2-.1-.2-.1 0-.1 0-.1-.1-.1-.2 0-.2-.1-.2-.1 0-.1 0-.1-.1-.1-.1.1-.1.3-.3.5-.3 0-.1-.1-.2-.1-.2-.1-.1-.2 0-.2.1-.1 0-.3 0-.3.1l.1.1-.1-.1h-.1c-.1 0-.1-.1-.1-.1v-.1l-.4-.3h-.1s-.2 0-.2-.1h.1s-.1-.1 0-.1h.2v-.1c.1 0 .1.2.1.2s.1 0 0 .1l.4.4h.1c.1 0 .3 0 .3-.1-.2-.3 0-.5.1-.5v.2c0 .1.1.1.1.1h.1c.1 0 .2.1.2.1s.1-.1.2-.1h.1c.1 0 .1-.1.1-.1v-.2c.2 0 .4.2.1.5l.2.1c0-.1 0-.1.1-.1l.1.1.1-.1c.1 0 .1.1.1.2-.2 0-.3.1-.4.1m-.1-.5h.2zm.9-1.1c0 .1-.1.3-.2.3-.2 0 0 .1.1.1 0 .1-.1.2-.3.2-.1 0-.1.1 0 .1-.1.1-.2.1-.3.1s0 .1 0 .1q-.15.15-.3 0c-.1-.1-.1-.2-.1-.3-.1 0-.2 0-.3.2v-.3h.2c.1 0 .2-.1.2-.2s0-.1-.1-.2c.4-.2.7-.8.8-.9.1.1.1.3 0 .5-.1.1.2 0 .2 0 .1.1 0 .3-.1.4-.1-.1.1-.1.2-.1"/><g fill="#1FC150"><path d="M27.8 19.8c-.8.2-1.1.3-1.6.5-.9 2.2.8 4.7 2.8 5.9.4-.2 1.2-.6 2.1-.5-2.3-1.4-4.2-3.4-3.3-5.9M62.1 19.8c.8.2 1.1.3 1.6.5.8 2.2-.8 4.7-2.8 5.9-.4-.2-1.2-.6-2.1-.5 2.4-1.4 4.2-3.4 3.3-5.9M26.2 24.1c-1.7 0-4-1.7-5.8-.6l.4 1.4c1.9-.8 3.6 1.2 6.4.5-.4-.5-.7-.9-1-1.3"/><path d="M28.4 22.9c.2.4.6.8 1 1.1 1-1.3.7-3.9-1.2-4.2v.1c-.2.4-.2.8-.3 1.1.6.5.7 1.2.5 1.9M63.7 24.1c-.3.4-.6.9-1 1.2 2.8.7 4.5-1.3 6.4-.5l.4-1.4c-1.8-1-4.1.7-5.8.7M61.5 22.9c-.2-.6-.1-1.4.5-1.9 0-.3-.1-.7-.3-1.1v-.1c-1.9.3-2.1 2.9-1.2 4.2.4-.4.8-.7 1-1.1M39.9 26.5c2.6-1.4 4.2-3.8 4.3-7.6-.7 0-1.4.1-2 .2 0 2.5-.8 4.2-2.3 5.3.4-.1.7-.2 1-.3l1-.5-.5 1c-.4 1-.9 1.6-1.5 1.9M49.9 26.5c-.5-.3-1.1-.9-1.5-1.8l-.5-1 1 .5c.3.1.6.2 1 .3-1.5-1.1-2.3-2.8-2.3-5.3-.6-.1-1.2-.2-2-.2.2 3.7 1.8 6.2 4.3 7.5M52.4 44.8l-.4-.3v-1.1h-1l-.3-.5c-1.1-2.1-3.2-3.4-5.5-3.4h-.5c-2.3 0-4.5 1.3-5.5 3.4l-.3.5H38v1.1l-.4.3c-2.8 2.1-4.4 5.3-4.4 8.7s1.6 6.6 4.4 8.7l.4.3v1.1h.9l.3.5c1.1 2.1 3.2 3.4 5.5 3.4h.5c2.3 0 4.5-1.3 5.5-3.4l.3-.5h1v-1.1l.4-.3c2.8-2.1 4.4-5.3 4.4-8.7s-1.6-6.5-4.4-8.7M48.9 63h-8v-1.7h.6v-.9h.4v-.8h.7v-5.4h-1v-2.8h1v-.5h-.4v-.7h-.4v-1.5h.4V48h.5v-.5c-.7-.7-1.4-2-.7-2.9s2.1-.3 2.1-.3v-.5H44l.1-.2-.2.1v-1.6l.2.1-.1-.2h1.6l-.1.2.2-.1v1.6l-.2-.1.1.2h-.1v.5s1.5-.6 2.1.3c.7 1 0 2.2-.6 2.9v.5h.5v.7h.5v1.5h-.4v.7h-.4v.5h1v2.8h-1v5.4h.7v.8h.4v.9h.6z"/></g><g fill="#FFD400"><path d="M43 47h1c0-.9-.2-2-.7-2.5l-.3-.3c-.3 0-.5.1-.7.4-.6.9.2 2 .7 2.4M42.6 48.2h4.6v.4h-4.6zM42.2 48.9h5.3v.7h-5.3zM43.1 50.7h3.7v.7h-3.7zM43.1 47.3h3.6v.6h-3.6zM46.7 47c.5-.5 1.3-1.5.7-2.3-.2-.3-.4-.4-.7-.4l-.3.3c-.5.4-.7 1.6-.7 2.5h1zM44.6 43.2h.6l-.1-.4.3.1v-.5l-.3.1.1-.4h-.6l.1.4-.4-.1v.5l.4-.1z"/><circle cx="44.9" cy="43.8" r=".4"/><path d="M44.3 47h1.1c0-1 .2-2.2.8-2.7l-.8.3-.1-.3c-.1.1-.2.1-.4.1-.1 0-.3 0-.4-.1l-.1.3-.8-.3c.6.5.7 1.7.7 2.7M42.6 50h4.6v.4h-4.6zM42.3 60h5.1v.5h-5.1zM41.9 60.7h6v.6h-6zM41.3 61.6h7.2v.9h-7.2zM46.8 59.7V54h-3.7v5.6h3.7zm-.9-5.1h.3v4.3h-.3zm-1.1 0h.3v4.3h-.3zm-1.1 0h.3v4.3h-.3zM43.8 52.8h.1v-.2z"/><path d="M42 51.7v2h5.7v-2zm1.1 1.5c-.1 0-.2 0-.3-.1v-.2h.1l.1.1h.1c.1 0 .2 0 .2-.1s0-.1-.2-.1H43c.1 0 .1 0 .1-.1s-.1-.1-.1-.1h-.1v.1h-.1v-.2c.1 0 .2-.1.3-.1.2 0 .3.1.3.2s0 .2-.1.2c.1 0 .1.1.1.2s-.2.2-.3.2m1.3-.1H44V53h.1l-.1-.1h-.3v.1h.1v.1h-.3V53h.1l.3-.7h.1zm.9.1H45l-.3-.4v.2h.1v.1h-.4V53h.1v-.6h-.1v-.1h.4v.1h-.1v.3l.2-.3v-.1h.3v.1h-.1l-.2.2.3.4zq0-.15 0 0m.4 0c-.3 0-.4-.2-.4-.4 0-.3.1-.4.4-.4s.4.2.4.4-.2.4-.4.4m1.3 0h-.4v-.1h.1v-.3h-.3v.2h.1v.1h-.4V53h.1v-.6h-.1v-.1h.4v.1h-.1v.2h.3v-.2h-.1v-.1h.4v.1h-.1v.6zq0-.15 0 0"/><path d="M45.7 52.4c-.1 0-.2.1-.2.3s.1.3.2.3.2-.2.2-.3c-.1-.1-.1-.3-.2-.3"/></g><g fill="#FFE000"><path d="M67.4 81.7q.15 0 0 0c-.1-.3-.2-.4-.4-.6 0 .1.1.3 0 .4zM39.4 81.7q0 1.35.3 2.7c.7-.3 1.4-.6 2-1.1.1-1 .7-1.9 1.6-2.4.1-.3.2-.7.3-1zM44.8 79.3l-.7.3c-.1.3-.2.7-.3 1 .4-.1.8-.2 1.2-.2s.8.1 1.2.2l-.3-1.2-.9.4zM46.8 80.8c.9.5 1.5 1.4 1.6 2.4.6.5 1.3.9 2 1.1.2-1 .4-1.9.3-2.7l-4.3-2.1c.1.5.2.9.4 1.3M43.6 86.7c.3.7.8 1.7 1.4 2.2.6-.5 1.2-1.5 1.5-2.2-.5.5-2.3.5-2.9 0M26.3 84.6l.4 1.9-.5-.7-1 1.7c-.3.4-.1.7.3.5l.4-.1c.4-.1 1-.6 1.2-1.1l.2-.3c.9-1.5-1-1.9-1-1.9M18.5 85.3l.9-.1-.8-2.4c-.1-.4-.5-.6-.9-.5l-.3.1c-.4.1-.6.5-.5.9l.5 1.6c.1.2.6.1.7.4.7 1.3 1.8 1.3 1.8 1.3l-.3-1zM24.8 82.4l-.4-1.3c-.1-.4-.5-.6-.9-.5l-.3.1c-.4.1-.6.5-.5.9l.7 2.2 1-.9-.8 1.4.1.2.3 1s.9-1.2.7-2.2c-.2-.3.2-.5.1-.9M21.5 81.9c-.1-.3-.5-.5-.8-.4l-.5.2c-.3.1-.5.5-.4.8l.6 1.8 1.4.7h-.9c.2.9.7 1.3 1.3 1.7 0 0 .5-1.2.2-2.1zM63.5 80.1l1.2.6c.2-.3.7-.7 1.4-.5l.3.1h.1c-2.2-2.6-3.6-5.1-3.9-8.3l-4 1.6c.2.6.5 1.2.8 1.8l1.1-1.3.3.3-1.2 1.4.6.9.9-1.1.3.3-1 1.2c.2.3.4.6.7.8l.9-1 .3.3-.9 1.1q.75 1.05 2.1 1.8M23.8 80.2c.3 0 .6.2.8.4l2.8-1.1c.5-.3.9-.7 1.3-1.1l-1-1.2.3-.3 1 1.2c.2-.3.4-.5.7-.8L28.4 76l.3-.3 1 1.3.6-.9-1.3-1.6.3-.3 1.2 1.4c.6-1.2 1-2.3 1.1-3.3l-4.1-1.9c0 3.8-1.3 6.9-3.7 9.8M9.9 26.9v-1.1l.7.9q.9 1.2 1.8 2.1c-.4-.9-.7-2-.8-3.2-1.8-2.6-3.3-5.1-3.8-7-1.1 5.2.3 8.7 2.6 11.5-.3-1-.5-2-.5-3.2M19.5 45.2c-.1-.1-.1-.2-.2-.3l-.6-.9 1 .3q1.05.3 2.4.3c-1.6-.4-3.2-1.2-4.3-3-2.8-1.3-5.6-3.4-7.4-5.9-.7-.5-1.4-1-2-1.7 1.2 5.2 6.3 9.7 11.1 11.2"/><path d="M21 41c-1.7-.7-2.9-1.9-3.6-3.1-2.1-1.1-4.5-2.9-6-5.5-.9-.7-1.7-1.5-2.6-2.5.2 5.1 4.4 9 8.7 11.1-.1-.1-.1-.2-.2-.4l-.4-.9.9.4c1.1.5 2.2.7 3.2.9M17.7 34c-.1-.3-.1-.6-.2-.9l-.1-.9.7.5c.8.6 1.6 1 2.4 1.4-.7-.6-1.3-1.6-1.4-3-3.5-1.7-5.1-3.8-7.3-6.4.3 4.6 2.9 7.2 5.9 9.3M25.1 52.7c.4-.6.9-1.1 1.5-1.4-.9.1-1.8.1-2.7.1-2.9 0-5.5-.6-7.7-1.7-.7.2-1.3.4-1.9.8 2 2.2 6.1 3.1 10.8 2.2"/><path d="M28.2 53.7h-.8c-.7 0-1.4-.1-2.2-.2l-.6-.1.2-.3q-1.65.3-3.3.3c-1 0-1.9-.1-2.8-.2-1.4.4-2.4.9-2.8 1.8 4.5 1.3 8.3.6 12.3-1.3M27.6 50.7h-.1q-1.8 0-4.5-.6l-.6-.1.3-.5c.1-.2.3-.4.4-.6q-6.6-.3-10.8-4.8c-.5.1-.9.3-1.2.3 3.8 6 10 7.2 16.5 6.3"/><path d="M23.5 48.5c.2-.2.4-.4.6-.5-1.8-.4-3.2-1.2-4.1-2.3-2-.5-4.2-1.6-6.1-3.2-1.4-1.1-2.5-2.3-3.5-3.6-.5-.1-1-.2-1.3-.2 3 6.1 7.6 9.6 14.4 9.8"/><path d="M21.6 34.3c4 1.8 7.8 2.7 8.3 7-1.7-5.6-6.7-4.7-12-8.3.2 2.1 1.7 3.5 4 4.4 2.9 1 5.8 1.9 6.9 4.8-3.1-4.5-7.9-3.2-11.7-6.1.5 1.8 2.2 4.4 5.7 4.9 2.5.6 3.8 1 5.1 2.9-2.7-2.8-6.7-2-10.3-3.5C19.8 45.5 25 43.9 28 46c-2.6-1.2-6.2-.6-8.4-1.3 1.1 1.7 2.9 2.6 4.9 3 1.1-.7 2.3-.7 3.6-.8.5 0 1.1-.1 1.6-.1-1.5-1.6-1.2-4.4 1.4-4.3.3-9.2-8.2-8.6-11.5-12.6-.3 2.5.9 3.8 2 4.4M36.8 26.4c1 .4 3.1.6 4.3-1.9-.9.5-2.1.5-3.1.4-1.4-.1-2.8-.4-4.3-.3-.4 0-1.1.4-1.2.9 2.6-.5 3.3.5 4.3.9M42.7 32.1c0 .8 0 1.6-.4 2.2l-.5.8-.2-.9-.3-.9c-.2.6-.4 1.2-.8 1.7l-.6.9-.1-1.1c0-.2 0-.3-.1-.5q-.15.6-.6 1.2l-.1.2c-.1.7-.2 1.4-.3 1.8.9-.2 2-1.4 2.4-2.4.2.6.6 1.4 1 1.7.7-.8.9-1.8 1.1-3 .4.6.9.8 1.8.9.9-.1 1.4-.4 1.8-.9.1 1.2.4 2.2 1.1 3 .3-.3.8-1.1 1-1.7.4.9 1.5 2.2 2.4 2.4-.1-.4-.2-1.1-.3-1.8l-.1-.1q-.45-.6-.6-1.2c0 .1 0 .3-.1.5l-.2 1-.6-.9c-.4-.5-.6-1.1-.8-1.7l-.3.9-.2.9-.5-.8c-.4-.6-.4-1.4-.4-2.2-.5.5-1.1.9-1.6 1.2-.1.5-.4 1-.7 1.4-.3-.4-.5-1-.7-1.4-.4-.3-1-.7-1.5-1.2"/><path d="M39.7 26.7c-1.7.9-3.1.2-3.9-.4-1-.7-2-.7-3-.5 1.9 1.2 1.2 3.4 2.5 4 .6.4 2 1.3 2.6 2.9.3-.5.6-2.3-1-4.3.4.2.9.8.9.8 1 .6 1.8 1.3 2.3 2.1.2-1.2-.4-2.3-1.4-3.5 1.6 1.9 3.4 2 4.6 1.6-1.4-.1-2.9-1.5-3.6-2.7m-6-.6c.3 0 .9-.1 1.8.4-.3.3-1 .8-1.8-.4"/><path d="M40.2 29.7c.2.5.3 1.1.2 1.8l-.2 1.1-.6-.9q-.6-.9-1.5-1.5c.4 1.2.3 2.1.1 2.7.3.8.5 1.7.5 2.5.6-.9.8-1.8.8-2.8.3.7.5 1.4.6 2.2.6-.9.9-1.8 1-2.8.4.7.7 1.4.8 2.1.5-.7.3-2 .2-3.1.7.8 1.8 1.8 2.5 2.1-.4-1.1-1.2-2.1-2-2.9-.1-.1-1.5.1-2.4-.5M37 39.8c-2.5 1.3-2.4 3.8-3.7 4.3.3.1.5.2.8.2.3-.3.5-.7.7-1.1.8-1.2 1.7-2.7 4.1-3.3 0-.1-.1-.2-.1-.3-.4.1-.7.2-1 .2H37M21.9 37.9q-3-1.2-3.9-3.3c-2-1.2-3.7-2.7-5-4.6-1-.9-1.8-1.9-2.7-3 0 5.1 3.3 8.4 6.8 10.3-.1-.3-.3-.7-.4-1l-.3-1.2.9.7c1.5 1.1 3 1.6 4.6 2.1"/><path d="M8.4 30v-1.2l.8.9c.7.9 1.4 1.5 2.1 2.1l-1.2-1.5c-1.3-1.6-2.2-3.4-2.7-5.2l-.6-1.2c-1.1 5.3.8 7.9 3 10.5-.8-1.3-1.3-2.8-1.4-4.4M27.2 61c-.5.3-1 .5-1.6.7l1.3.6c0-.3.2-.8.3-1.3M29.5 63.9l.4.2.3-.2.7.3v-1.8c-.4.5-.9 1.1-1.4 1.5M33 65.2l.5.2.3.5.8.4c-.2-.8-.3-1.8-.3-2.7-.4.6-.8 1.1-1.3 1.6M18.8 58.6l1.4.7c3.1-.1 5.6-1.4 8.1-3v-.1c0-.9.6-2 1.1-2.7-2.6 1.4-4.9 2.2-7.2 2.5-1.6.8-2.9 1.6-3.4 2.6M79.3 26.7l.7-.9v1.1c0 1.2-.2 2.2-.5 3.2 2.3-2.8 3.7-6.3 2.6-11.5-.5 1.9-2 4.4-3.8 7-.1 1.2-.4 2.2-.8 3.2zM72 41.7c-1.1 1.8-2.7 2.5-4.3 3 .9-.1 1.8-.1 2.4-.3l1-.3-.6.9c-.1.1-.1.2-.2.3 4.8-1.5 9.9-6 11-11.1-.7.6-1.4 1.2-2 1.7-1.7 2.5-4.5 4.5-7.3 5.8"/><path d="M72.4 41.1c4.3-2.2 8.5-6.1 8.7-11.1-.8 1-1.7 1.8-2.6 2.5-1.5 2.6-4 4.3-6 5.5-.7 1.3-1.9 2.4-3.6 3.1 1.1-.2 2.1-.4 3.2-.8l.9-.4-.4.9c-.1 0-.1.2-.2.3M69.3 34.1c.8-.4 1.6-.8 2.4-1.4l.7-.5-.1.9c0 .3-.1.6-.2.9 3.1-2 5.6-4.7 5.8-9.2-2.1 2.6-3.7 4.7-7.3 6.4 0 1.3-.6 2.3-1.3 2.9M66 51.4c-.8 0-1.7 0-2.7-.1.5.3 1 .8 1.5 1.4 4.7.9 8.8.1 10.8-2.1-.6-.4-1.2-.7-1.9-.8-2.2 1-4.8 1.6-7.7 1.6"/><path d="M71.2 53.2c-.9.2-1.8.2-2.8.2q-1.65 0-3.3-.3l.2.3-.6.1c-.8.2-1.5.2-2.2.2h-.8c3.9 1.9 7.8 2.6 12.2 1.3-.3-.9-1.3-1.4-2.7-1.8M66.8 48.9c.1.2.3.4.4.6l.3.5-.6.1q-2.7.6-4.5.6h-.1c6.4.9 12.7-.3 16.5-6.2-.3-.1-.8-.2-1.2-.3-2.9 2.9-6.5 4.5-10.8 4.7"/><path d="M76.1 42.6c-1.9 1.5-4.1 2.6-6.1 3.2-1 1.1-2.4 1.9-4.1 2.3.2.2.4.3.6.5 6.8-.3 11.4-3.8 14.5-9.7-.3 0-.8.1-1.3.2-1.1 1.2-2.2 2.4-3.6 3.5"/><path d="M60.1 46.8c.6.1 1.1.1 1.6.1 1.3.1 2.5.1 3.6.8 2-.4 3.8-1.3 4.9-3-2.2.7-5.7.1-8.4 1.3 3-2.1 8.2-.5 10.3-5.4-3.6 1.5-7.6.7-10.3 3.5 1.3-1.9 2.6-2.3 5.1-2.9 3.6-.6 5.2-3.1 5.7-4.9-3.8 2.9-8.6 1.6-11.7 6.1 1.2-3 4-3.9 6.9-4.8 2.3-.9 3.8-2.3 4-4.4-5.3 3.6-10.3 2.7-12 8.3.5-4.3 4.4-5.3 8.3-7 1.1-.7 2.2-2 2-4.4-3.3 3.9-11.8 3.4-11.5 12.6 2.8-.3 3.1 2.5 1.5 4.1M53.1 26.4c1-.5 1.7-1.4 4.3-.9-.1-.5-.7-.9-1.2-.9-1.5-.1-2.9.2-4.3.3-1 .1-2.2.1-3.1-.4 1.2 2.5 3.3 2.3 4.3 1.9M47.7 31c-.1 1.1-.3 2.4.2 3.1.2-.7.5-1.5.8-2.1.1 1 .4 1.9 1 2.8.1-.8.3-1.5.6-2.2 0 1 .2 2 .8 2.8 0-.9.1-1.7.5-2.5-.2-.6-.3-1.5.1-2.7-.6.4-1.1 1-1.5 1.5l-.6.9-.2-1.1c-.1-.6 0-1.2.2-1.8-.9.5-2.3.4-2.5.4-.8.8-1.5 1.8-2 2.9.9-.3 1.9-1.2 2.6-2M52.9 39.8l-.4.1h-.3c-.3 0-.7-.1-1-.2 0 .1-.1.2-.1.3 2.4.5 3.3 2 4.1 3.3.2.4.5.8.7 1.1.3 0 .5-.1.8-.2-1.4-.6-1.3-3.1-3.8-4.4"/><path d="M72.8 37.3c3.5-2 6.8-5.3 6.8-10.3-.9 1.2-1.8 2.1-2.7 3-1.2 2-3 3.5-4.9 4.7-.6 1.4-1.9 2.4-3.8 3.2h-.1c1.5-.4 3.1-.9 4.5-2l.9-.7-.3 1.2c-.1.2-.3.5-.4.9"/><path d="M78.6 31.8q1.05-.9 2.1-2.1l.8-.9V30c-.1 1.6-.5 3.2-1.3 4.6 2.2-2.7 4.1-5.2 3-10.5l-.6 1.2c-.5 1.9-1.4 3.6-2.7 5.2zM70.6 58c-.6-.7-1.7-1.3-2.9-2-2.3-.3-4.6-1.1-7.2-2.5.6.7 1.1 1.8 1.1 2.7v.1c2.2 1.4 4.4 2.5 7 2.8.6-.4 1.3-.8 2-1.1M63.9 61.6l-1.2-.6c.1.4.1.8.2 1.1.4-.1.7-.3 1-.5M60.2 63.7 59 62.5q.15 1.05 0 1.8zM55.2 66.3c.6-.3 1.2-.7 1.9-1-.5-.6-1-1.1-1.4-1.7-.1 1.1-.2 2-.5 2.7M66.7 60.1c-.3-.4-.6-.8-1-1.2-1.6-.5-3-1.4-4.5-2.3h-.6c-.9 0-1.9-.3-2.7-.8 0 .2-.1.3-.1.5 1.9 2.2 3.9 4.1 6.6 5.1.8-.5 1.6-.9 2.3-1.3M62.5 62.4c0-.5-.1-1-.3-1.6-1.7-1-3.2-2.4-4.5-4l-.6 1.8c.8 1.9 1.9 3.5 3.5 4.9.6-.4 1.3-.7 1.9-1.1M58.5 61.9c-.7-.9-1.2-1.9-1.6-2.9-.5 1-1.1 1.9-1.9 2.7.6 1.2 1.4 2.3 2.4 3.4l1.2-.6c.1-.7 0-1.6-.1-2.6M55.2 63c-.2-.3-.4-.6-.5-.9-.4.4-.8.8-1.3 1.1V65l1.2 1.5c.5-.8.7-2 .6-3.5M51.9 65.1c-.3.4-.5.9-.9 1.2.3.5.7 1.1 1.1 1.6.3-.2.6-.3.9-.5.2-.5.4-1 .5-1.7-.2-.2-.4-.5-.5-.7h-1.1zM50.7 66.6c-.6.6-1.3 1.2-2.1 1.6l1.2.9c.5-.3 1.1-.5 1.6-.8 0-.3-.1-.5-.2-.8-.2-.3-.3-.6-.5-.9M49.2 69.4v-.2c-.3-.2-.7-.5-1-.8q-1.05.45-2.4.6c.3.6.6 1.1 1 1.6zM45.4 69h-.8999999999999999c-.2.5-.6 1-.8 1.5l1.1.5c.1-.2.2-.5.2-.7.1.4.2.7.3 1.1l1.2-.6c-.4-.6-.8-1.2-1.1-1.8M40.7 69.3l.7.3.2-.1 1.6.8c.3-.4.6-.9.8-1.3q-1.2-.15-2.4-.6c-.2.2-.6.7-.9.9M41.3 68.2c-.8-.4-1.5-.9-2.1-1.6-.2.3-.3.6-.5.8 0 .2-.2.6-.2.7l1.9.9c.2-.1.6-.6.9-.8M38 65.1h-1c-.2.2-.3.5-.5.7 0 .5.1 1.2.2 1.5l1.3.6c.3-.4.8-1.2 1-1.6-.4-.4-.7-.8-1-1.2M36.6 64.7v-1.5c-.5-.4-.9-.8-1.3-1.2-.2.3-.4.7-.6 1-.1 1.4 0 2.8.4 3.6l.2.1c.4-.5.9-1.3 1.2-1.8v-.2zM33.1 58.9c-.5 1-1 2-1.7 3-.1 1-.2 1.9-.1 2.6l1.3.6c1-1.1 1.8-2.2 2.4-3.4-.8-.9-1.4-1.8-1.9-2.8M32.2 56.7c-1.4 1.6-2.9 3.1-4.6 4.1-.2.7-.4 1.5-.4 2.1l2 .9c1.7-1.4 2.9-3.5 3.7-5.4-.3-.5-.5-1.1-.7-1.7"/><path d="M32.1 56.2c0-.1-.1-.3-.1-.4-.9.5-1.8.9-2.8.9h-.6c-1.4.9-2.9 1.7-4.5 2.3-.5.6-1.2 1.3-1.6 1.8l2 1c3.2-1.1 5.6-3.2 7.6-5.6M66.8 49.8c-2.6-4-5.9-1.2-9.9-3.7-.3.2-.7.2-1.2.3 1.1 1.5 1.8 3.2 2.1 4.9 1.3 2 4 2.3 6.6 1.8-.9-1.5-2.1-2-3.5-2.3-1.6-.5-2.9-1.1-3.3-2.8 1.4 2.9 5.6 2.5 9.2 1.8M61.1 56.2c0-1-.8-2.4-1.4-2.8-.8-.3-1.3-.7-1.7-1.3.1.5.1 1 .1 1.4 0 .6-.1 1.3-.2 1.9 1.1.6 2.2.9 3.2.8M30.1 53.4c-.6.5-1.3 1.8-1.4 2.8 1.1.1 2.1-.2 3.2-.9-.1-.6-.1-1.2-.1-1.8 0-.5 0-1.1.1-1.6-.4.7-.9 1.1-1.8 1.5M28.8 50.8c-1.4.3-2.6.9-3.5 2.3 2.7.5 5.5.2 6.8-2 .3-1.7 1.1-3.3 2.1-4.7q-.75 0-1.2-.3c-3.9 2.5-7.3-.3-9.9 3.7 3.6.8 7.8 1.2 9.1-1.8-.5 1.7-1.8 2.3-3.4 2.8M53.4 43.8c.8.6 1.5 1.4 2.1 2.1.6 0 1.1-.1 1.6-.4-2.7-.5-2.2-4.4-6.3-5.2l-.1.1c.4.4.8.9 1.1 1.5h1.6v1.9M34.5 46q.9-1.2 2.1-2.1V42H38c.3-.6.7-1.1 1.1-1.5l-.1-.1c-4.1.9-3.6 4.7-6.3 5.2.6.3 1.1.4 1.8.4M39.2 39.5l.3.6c.4-.4.8-.7 1.3-1-.1-.2-.1-.5-.1-.8q-.75.9-1.5 1.2M49.3 38.4c0 .3-.1.6-.1.8.5.3.9.6 1.3 1l.3-.6q-.9-.45-1.5-1.2M43.6 38.1h.4c0-.1-.1-.3-.1-.4-.1.1-.2.3-.3.4M46.3 38.1c-.1-.1-.2-.3-.3-.5 0 .2-.1.3-.1.4.1.1.3.1.4.1"/><path d="M51.1 37.9c-.8-.2-1.7-1-2.2-1.8-.2.4-.5.8-.8 1.1l-.3.3-.3-.3c-.6-.7-.9-1.6-1.1-2.5-.4.8-2.7.8-3 0-.1.8-.4 1.7-1.1 2.5l-.3.3-.3-.3c-.3-.2-.5-.6-.8-1.1-.6.8-1.5 1.7-2.2 1.8l-.3.1q-.3.75-.9 1.5c1.1.2 2.7-.8 3.5-2.3 0 .8 0 1.3.1 1.8.6-.3 1.2-.6 1.9-.7.4-.5.8-1.2.9-2.1.2 1 .3 1.5.5 1.9h1c.2-.4.3-1 .5-1.9.1.9.5 1.6.9 2.1.7.2 1.3.4 1.9.7.1-.4.1-.9.1-1.8.9 1.5 2.4 2.5 3.5 2.3q-.6-.75-.9-1.5z"/><path d="M51.6 64.7H53V63c2.9-2.2 4.8-5.6 4.8-9.5 0-3.8-1.9-7.3-4.8-9.5v-1.7h-1.4c-1.2-2.3-3.6-3.9-6.4-3.9h-.5c-2.8 0-5.2 1.6-6.4 3.9H37V44c-2.9 2.2-4.8 5.6-4.8 9.5 0 3.8 1.9 7.3 4.8 9.5v1.7h1.3c1.2 2.3 3.6 3.9 6.4 3.9h.5c2.8 0 5.2-1.6 6.4-3.9M45.2 68h-.5c-2.5 0-4.7-1.4-5.9-3.6l-.2-.3h-1.1v-1.3l-.2-.2c-2.9-2.2-4.5-5.5-4.5-9s1.7-6.8 4.5-9l.2-.2V43h1.1l.2-.3c1.2-2.2 3.4-3.6 5.9-3.6h.5c2.5 0 4.7 1.4 5.9 3.6l.2.3h1.1v1.3l.2.2c2.9 2.2 4.5 5.5 4.5 9s-1.7 6.8-4.5 9l-.2.2V64h-1.1l-.2.3c-1.2 2.3-3.4 3.7-5.9 3.7M51.3 28c-1 1.2-1.6 2.3-1.4 3.5.5-.8 1.2-1.5 2.3-2.1 0 0 .5-.7.9-.8-1.6 2-1.3 3.7-1 4.3.6-1.7 2-2.6 2.6-2.9 1.3-.6.6-2.9 2.5-4-1.1-.2-2.1-.2-3 .5-.8.6-2.2 1.3-3.9.4-.7 1.1-2.2 2.6-3.5 2.8 1.1.2 2.9.1 4.5-1.7m4.9-1.9c-.8 1.1-1.4.6-1.8.4.9-.4 1.4-.3 1.8-.4M62.7 85.4l-.6.6.6-1.9s-2 .2-1.2 1.9l.1.3c.2.5.7 1 1.1 1.2l.3.2c.4.2.6 0 .4-.5zM71.8 83l-.3-.1c-.4-.2-.8 0-1 .4l-1.1 2.3.9.2-1.1.2-.4 1s1.1.2 1.9-1.1c.2-.3.6-.1.7-.3l.7-1.6c.2-.4.1-.8-.3-1M66.7 81.7c.2-.4 0-.8-.4-1l-.3-.2c-.4-.2-.8 0-1 .4l-.6 1.2c-.2.4.2.6 0 1-.3 1 .5 2.2.5 2.2l.4-1 .1-.2-.6-1.4.9.9zM69.4 82.7c.1-.3 0-.7-.3-.8l-.5-.2c-.3-.1-.7 0-.8.3l-1.1 2.5c-.4.9 0 2.2 0 2.2.6-.4 1.1-.8 1.4-1.6l-.8-.1 1.4-.5z"/></g><script/></svg>