<svg viewBox="0 0 75 86" fill="none" xmlns="http://www.w3.org/2000/svg">
<path d="M21.6426 42.9922L10.4164 49.4648L0 67.5024L42.4913 42.9922H21.6426Z" fill="#874691"></path>
<path d="M53.7178 24.5107L42.4916 30.9833L32.0752 49.0209L74.5506 24.5107H53.7178Z" fill="#DA1844"></path>
<path d="M42.4916 18.0376L32.0752 0V36.9795V49.0205V86L42.4916 67.9624V18.0376Z" fill="#F9B229"></path>
<path d="M32.0752 0L42.4916 18.0376L53.7178 24.5102H74.5506L32.0752 0Z" fill="#F07F1A"></path>
<path d="M32.0752 36.9795V86L42.4916 67.9623V55.0013L32.0752 36.9795Z" fill="#72B22C"></path>
<path d="M53.7178 61.4893L42.4916 67.962L32.0752 85.9996L74.5506 61.4893H53.7178Z" fill="#00743E"></path>
<path d="M0 18.4814V67.5019L10.4164 49.4643V36.5191L0 18.4814Z" fill="#5F5A94"></path>
<path d="M32.0749 36.9791V36.995L0 18.4814L10.4164 36.5191L53.7176 61.4894H74.5504L32.0749 36.9791Z" fill="#0D90CD"></path>
<path d="M21.6426 42.9922L10.4164 49.4648L0 67.5024L42.4913 42.9922H21.6426Z" fill="#874691"></path>
<path d="M53.7178 24.5107L42.4916 30.9833L32.0752 49.0209L74.5506 24.5107H53.7178Z" fill="#DA1844"></path>
<path d="M42.4916 18.0376L32.0752 0V36.9795V49.0205V86L42.4916 67.9624V18.0376Z" fill="#F9B229"></path>
<path d="M32.0752 0L42.4916 18.0376L53.7178 24.5102H74.5506L32.0752 0Z" fill="#F07F1A"></path>
<path d="M32.0752 36.9795V86L42.4916 67.9623V55.0013L32.0752 36.9795Z" fill="#72B22C"></path>
<path d="M53.7178 61.4893L42.4916 67.962L32.0752 85.9996L74.5506 61.4893H53.7178Z" fill="#00743E"></path>
<path d="M32.0749 36.9791V36.995L0 18.4814L10.4164 36.5191L53.7176 61.4894H74.5504L32.0749 36.9791Z" fill="#0D90CD"></path>
<path d="M21.6426 42.9922L10.4164 49.4648L0 67.5024L42.4913 42.9922H21.6426Z" fill="#874691"></path>
<path d="M53.7178 24.5107L42.4916 30.9833L32.0752 49.0209L74.5506 24.5107H53.7178Z" fill="#DA1844"></path>
<path d="M42.4916 18.0376L32.0752 0V36.9795V49.0205V86L42.4916 67.9624V18.0376Z" fill="#F9B229"></path>
<path d="M32.0752 36.9795V86L42.4916 67.9623V55.0013L32.0752 36.9795Z" fill="#72B22C"></path>
<path d="M53.7178 61.4893L42.4916 67.962L32.0752 85.9996L74.5506 61.4893H53.7178Z" fill="#00743E"></path>
<path d="M0 18.4814V67.5019L10.4164 49.4643V36.5191L0 18.4814Z" fill="#5F5A94"></path>
<path d="M32.0749 36.9791V36.995L0 18.4814L10.4164 36.5191L53.7176 61.4894H74.5504L32.0749 36.9791Z" fill="#0D90CD"></path>
<path d="M21.6426 42.9922L10.4164 49.4648L0 67.5024L42.4913 42.9922H21.6426Z" fill="#874691"></path>
<path d="M53.7178 24.5107L42.4916 30.9833L32.0752 49.0209L74.5506 24.5107H53.7178Z" fill="#DA1844"></path>
<path d="M42.4916 18.0376L32.0752 0V36.9795V49.0205V86L42.4916 67.9624V18.0376Z" fill="#F9B229"></path>
<path d="M32.0752 36.9795V86L42.4916 67.9623V55.0013L32.0752 36.9795Z" fill="#72B22C"></path>
<path d="M53.7178 61.4893L42.4916 67.962L32.0752 85.9996L74.5506 61.4893H53.7178Z" fill="#00743E"></path>
<path d="M32.0749 36.9791V36.995L0 18.4814L10.4164 36.5191L53.7176 61.4894H74.5504L32.0749 36.9791Z" fill="#0D90CD"></path>
</svg>
