<svg width="211" height="45" viewBox="0 0 211 45" fill="none" xmlns="http://www.w3.org/2000/svg">
<path fill-rule="evenodd" clip-rule="evenodd" d="M15.6512 20.665L15.0711 24.1072L7.62179 24.1211L7.00952 27.4921C7.56727 27.3484 8.4046 27.2913 9.09934 27.2913C12.3927 27.2913 15.1396 29.0291 15.1633 32.6511C15.1801 34.877 14.1848 36.5144 12.766 37.6092C10.9124 39.0862 8.19212 39.6148 5.59487 39.6148C3.61268 39.6176 1.71576 39.4837 0.853271 39.3443L4.22495 20.686L15.6512 20.665ZM5.34744 36.4489C5.79337 36.5297 6.20993 36.5297 6.80124 36.527C8.75686 36.527 10.9445 35.3526 10.9278 33.1086C10.911 31.2675 9.6557 30.3303 7.89717 30.3303C7.43028 30.3303 6.86414 30.3861 6.41961 30.4656L5.34744 36.4489Z" fill="#0599EB"/>
<path fill-rule="evenodd" clip-rule="evenodd" d="M22.39 36.8203C23.6746 36.8161 25.0865 35.8133 25.0753 34.2262C25.0655 33.2192 24.4462 32.6418 23.5027 32.6418C22.3075 32.6474 21.308 33.699 21.0662 34.5651C20.9543 34.8984 20.9082 35.1662 20.911 35.5958C20.9166 36.3112 21.4296 36.8203 22.3662 36.8203H22.39ZM22.917 25.7966L21.6463 31.0295H21.6756C22.5605 30.2527 23.9807 29.8022 25.2318 29.8022C27.4111 29.8022 28.9823 31.1327 29.0005 33.5204C29.0257 36.4493 26.5682 39.6515 21.5806 39.6543C19.46 39.6585 16.976 39.1829 16.9522 36.3489C16.948 35.6041 17.1311 34.4019 17.2961 33.632L18.9847 25.8022L22.917 25.7966ZM36.071 25.7812L33.6051 39.3893L29.3975 39.3921L31.8634 25.7854L36.071 25.7812Z" fill="#0599EB"/>
<path fill-rule="evenodd" clip-rule="evenodd" d="M46.5641 38.9523C45.7114 39.3721 44.3122 39.6761 42.6906 39.6761C39.3175 39.6817 36.9328 37.6287 36.9048 34.0946C36.8685 29.2549 40.5421 25.4753 45.7282 25.4697C46.8996 25.4697 47.9159 25.6873 48.5239 25.9077L47.5398 28.9927C47.0646 28.8072 46.504 28.6692 45.6974 28.6692C42.8584 28.672 41.0914 31.0876 41.1138 33.6455C41.1264 35.5171 42.3328 36.4544 43.8145 36.4488C44.9831 36.4488 45.8107 36.1685 46.5208 35.8979L46.5641 38.9523Z" fill="#0599EB"/>
<path fill-rule="evenodd" clip-rule="evenodd" d="M48.6841 39.3685L50.3112 30.1872C50.5964 28.4648 50.8117 26.9655 50.964 25.766L54.4266 25.7619L54.1945 27.9599H54.2448C55.4596 26.204 57.1245 25.455 58.8746 25.4508C61.0511 25.4481 62.0198 26.8079 62.1386 28.0059C63.3506 26.2402 65.0406 25.4439 66.802 25.4439C68.9211 25.4132 70.1569 26.7688 70.175 29.0826C70.1778 29.6684 70.073 30.7144 69.9388 31.416L68.5227 39.3434L64.6534 39.3518L65.9576 31.9181C66.0709 31.3699 66.1394 30.7786 66.1366 30.2542C66.131 29.3072 65.7032 28.6433 64.7625 28.6433C63.4177 28.6461 62.1191 30.4508 61.6116 33.1733L60.5297 39.3602L56.6534 39.363L57.9786 31.8748C58.0918 31.3295 58.1687 30.7995 58.1659 30.3281C58.1533 29.4076 57.8402 28.6545 56.8617 28.6545C55.5029 28.6587 54.1009 30.5638 53.62 33.25L52.552 39.3658L48.6841 39.3685Z" fill="#0599EB"/>
<path fill-rule="evenodd" clip-rule="evenodd" d="M69.9563 44.6303L72.4208 30.9998C72.7199 29.3834 73.0163 27.124 73.1756 25.7404L76.7668 25.7376L76.5473 27.7111H76.6102C77.7131 26.23 79.3165 25.4266 80.9618 25.4238C83.9183 25.4183 85.3609 27.7781 85.3847 30.5549C85.4238 35.2886 82.3135 39.6442 77.5621 39.6498C76.462 39.6512 75.5073 39.3639 75.0292 39.0877H74.9705L73.957 44.6275L69.9563 44.6303ZM75.5618 35.9427C76.0091 36.3527 76.6214 36.6163 77.4042 36.6121C79.5513 36.6079 81.205 33.5452 81.1785 30.8729C81.1687 29.7948 80.7088 28.6512 79.3976 28.6554C77.892 28.6554 76.4592 30.329 76.0357 33.0236L75.5618 35.9427Z" fill="#0599EB"/>
<path fill-rule="evenodd" clip-rule="evenodd" d="M104.932 19.3027C106.13 19.6333 107.8 19.5412 109.005 19.6849C111.088 19.876 112.631 20.4032 113.813 21.4854C115.436 22.8425 116.042 25.1507 116.062 27.7686C116.102 32.9792 113.873 39.5914 107.6 39.6026C104.142 39.6082 102.034 37.491 102.008 33.9555C101.977 29.9513 104.759 25.6946 109.1 25.6919C110.974 25.6891 112.155 26.5803 112.721 27.9164H112.822C112.822 27.6347 112.819 27.3027 112.854 27.074C112.845 26.0698 112.465 24.8592 111.625 24.1256C110.708 23.2734 109.391 23.0196 107.687 22.8857C106.823 22.8313 105.986 22.7755 105.013 22.5914L104.932 19.3027ZM108.189 36.6486C110.335 36.6458 111.477 33.2595 111.496 31.4562C111.48 30.1131 110.943 28.6681 109.437 28.6681C107.176 28.6709 106.088 31.8955 106.166 34.0071C106.176 35.3976 106.745 36.6514 108.155 36.6486H108.189Z" fill="#0599EB"/>
<path fill-rule="evenodd" clip-rule="evenodd" d="M128.102 38.4887C126.524 39.299 124.54 39.5751 123.036 39.5793C119.145 39.5821 117.118 37.3617 117.093 33.8276C117.058 29.6867 120.031 25.3729 124.964 25.3701C127.718 25.3701 129.711 26.8931 129.736 29.4259C129.767 32.8973 126.393 34.1539 120.937 34.0256C120.941 34.4175 121.082 35.0159 121.37 35.4106C121.9 36.1009 122.815 36.4677 123.99 36.4677C125.474 36.4664 126.724 36.1274 127.803 35.6058L128.102 38.4887ZM125.969 29.4287C125.965 28.762 125.403 28.2878 124.483 28.2906C122.609 28.2906 121.562 29.8192 121.302 31.1037C124.42 31.1219 125.982 30.677 125.971 29.4538V29.4287H125.969Z" fill="#0599EB"/>
<path fill-rule="evenodd" clip-rule="evenodd" d="M136.703 25.6557L135.796 30.6668L139.945 30.6571L140.849 25.6529L144.871 25.6445L142.388 39.2568L138.374 39.2582L139.38 33.7394L135.231 33.7463L134.25 39.2666L130.229 39.2707L132.691 25.6613L136.703 25.6557Z" fill="#0599EB"/>
<path fill-rule="evenodd" clip-rule="evenodd" d="M151.471 25.6416L150.201 30.8703H150.239C151.083 30.0879 152.561 29.6416 153.808 29.6416C156.021 29.636 157.757 30.9763 157.778 33.3543C157.8 36.4547 155.264 39.484 150.211 39.4896C148.036 39.4938 145.498 38.9986 145.477 36.0837C145.468 35.3515 145.681 34.2497 145.875 33.4324L147.558 25.6416H151.471ZM150.972 36.6486C152.34 36.6486 153.854 35.682 153.843 34.0907C153.837 33.0628 153.225 32.4784 152.217 32.4784C150.882 32.4784 149.946 33.5621 149.646 34.3138C149.5 34.6793 149.451 34.9247 149.452 35.3808C149.458 36.1493 149.999 36.6514 150.948 36.6486H150.972Z" fill="#0599EB"/>
<path fill-rule="evenodd" clip-rule="evenodd" d="M161.413 26.264C162.495 25.7368 164.15 25.3226 165.813 25.3184C168.762 25.3142 170.354 26.7577 170.379 29.0436C170.393 31.4327 168.323 32.6322 165.795 33.6559C164.291 34.3309 163.292 34.8595 163.303 35.6392C163.311 36.1887 163.7 36.5778 164.701 36.5778C166.128 36.5764 167.541 35.9962 168.425 35.5276L168.894 38.356C167.624 39.0241 165.731 39.522 164.087 39.4955C161.079 39.5011 159.167 38.2249 159.154 35.7786C159.129 32.946 161.604 31.9097 163.961 30.9362C165.292 30.3811 166.494 29.8818 166.49 29.1496C166.482 28.6308 165.925 28.2598 165.005 28.2403C163.852 28.2403 162.754 28.5736 161.867 28.9697L161.413 26.264Z" fill="#0599EB"/>
<path fill-rule="evenodd" clip-rule="evenodd" d="M177.112 25.6085L175.814 32.8986C175.705 33.5053 175.621 34.172 175.621 34.6769C175.628 35.5625 175.976 36.2682 177.006 36.2654C178.375 36.2654 179.749 34.6099 180.269 31.893L181.415 25.603L185.416 25.5918L183.744 34.7801C183.448 36.5067 183.235 37.9725 183.105 39.211L179.513 39.2124L179.739 36.9711H179.685C178.309 38.7619 176.644 39.5165 175.004 39.5165C172.822 39.5179 171.508 38.2864 171.486 35.7089C171.482 34.9572 171.556 34.1566 171.742 33.2124L173.103 25.6127L177.112 25.6085Z" fill="#0599EB"/>
<path fill-rule="evenodd" clip-rule="evenodd" d="M93.7712 25.7527C89.5888 26.2812 86.7678 29.881 86.6979 34.1376C86.6448 37.4458 88.8759 39.6606 92.2937 39.6592C97.1233 39.655 100.361 35.8698 100.443 31.2017C100.461 30.1209 100.221 29.1167 99.7387 28.2673L96.1798 29.9925C96.314 30.3803 96.3713 30.8084 96.3643 31.2352C96.3279 33.4988 95.0377 36.6425 92.9003 36.6467C91.3766 36.6494 90.7518 35.4291 90.7812 34.0483C90.8315 31.5937 92.1287 28.9521 94.2982 28.6969L94.0955 29.8098L101.585 25.6773L93.2037 24.7666L93.7712 25.7527Z" fill="#0599EB"/>
<path d="M194.472 17.5205L187.694 25.7813L210.805 17.9473L194.472 17.5205Z" fill="#C95900"/>
<path d="M92.8328 18.1534H210.805V0.0892608L92.5784 0L98.6088 9.59414L92.8328 18.1534Z" fill="url(#paint0_radial_101_209)"/>
<path d="M111.052 6.38769L110.151 11.0474C109.979 11.9233 109.879 12.6708 109.773 13.2929L107.977 13.2915L108.11 12.1604H108.084C107.367 13.0613 106.524 13.4435 105.688 13.4421C104.583 13.4407 103.917 12.8173 103.92 11.5048C103.92 11.1213 103.965 10.7141 104.063 10.2343L104.792 6.37793L106.831 6.38072L106.13 10.0809C106.077 10.3905 106.034 10.728 106.034 10.9832C106.032 11.4351 106.204 11.788 106.719 11.7894C107.415 11.7894 108.131 10.9581 108.399 9.57179L109.011 6.38211L111.052 6.38769Z" fill="white"/>
<path d="M112.726 9.07441L113.528 9.07581C114.21 9.0786 114.974 8.87916 114.982 8.35893C114.982 7.90566 114.537 7.69366 113.988 7.69227C113.453 7.69087 112.771 7.87218 112.276 8.12741L111.937 6.88473C112.631 6.51793 113.562 6.25154 114.461 6.25294C115.587 6.25433 117.132 6.60858 117.131 8.04931C117.129 9.00886 116.233 9.51932 115.357 9.68529V9.70063C116.102 9.82895 116.914 10.338 116.912 11.2976C116.911 12.9656 114.985 13.4287 113.606 13.4259C112.592 13.4259 111.628 13.225 110.86 12.7132L111.385 11.3589C111.94 11.7006 112.691 11.9405 113.384 11.9419C114.036 11.9433 114.756 11.7048 114.762 11.1539C114.762 10.5737 114.093 10.3896 113.344 10.3882H112.52L112.726 9.07441Z" fill="white"/>
<path d="M121.809 3.15625C122.417 3.32919 123.263 3.28596 123.873 3.35848C124.934 3.4589 125.712 3.72808 126.306 4.27898C127.13 4.97354 127.42 6.14788 127.416 7.47564C127.413 10.1158 126.248 13.4742 123.067 13.4701C121.307 13.4687 120.248 12.3933 120.249 10.5984C120.251 8.5649 121.686 6.4073 123.899 6.41148C124.844 6.41148 125.44 6.86615 125.719 7.54398H125.781C125.781 7.40451 125.781 7.23296 125.793 7.13393C125.793 6.61092 125.61 5.99028 125.185 5.62347C124.718 5.18414 124.051 5.04188 123.189 4.9847C122.75 4.95402 122.327 4.92612 121.827 4.82571L121.809 3.15625ZM125.083 9.33338C125.083 8.65555 124.816 7.91915 124.05 7.91776C122.905 7.91636 122.335 9.55374 122.359 10.6291C122.357 11.3348 122.642 11.9694 123.362 11.9708C124.469 11.9721 125.064 10.2511 125.083 9.33338Z" fill="white"/>
<path d="M134.996 9.10999C134.994 11.6372 133.263 13.4866 130.854 13.4824C129.102 13.4768 127.927 12.3331 127.929 10.626C127.933 8.22296 129.603 6.26201 132.071 6.26759C133.924 6.27038 134.999 7.54235 134.996 9.10999ZM130.038 10.587C130.034 11.3903 130.431 11.9259 131.144 11.9273C132.258 11.9287 132.883 10.3066 132.884 9.12254C132.891 8.48377 132.619 7.80734 131.799 7.80455C130.625 7.80455 130.027 9.51027 130.038 10.587Z" fill="white"/>
<path d="M139.631 6.43387L139.875 9.11867C139.917 9.54405 139.959 10.1201 140.002 10.7435H140.032C140.216 10.3488 140.588 9.57195 140.953 8.87878L142.231 6.43806L144.825 6.44363L143.888 13.346L142.007 13.3432L142.436 10.5747C142.534 9.98338 142.707 8.96804 142.825 8.27488H142.769C142.555 8.7686 142.171 9.55939 141.744 10.406L140.265 13.2275L138.722 13.2261L138.447 10.4841C138.375 9.70863 138.303 8.8732 138.28 8.25256H138.226C138.052 9.00151 137.838 10.0308 137.699 10.611L137.028 13.3362L135.216 13.3348L137.051 6.42969L139.631 6.43387Z" fill="white"/>
<path d="M149.776 13.3569C149.788 12.9468 149.833 12.481 149.874 11.9873H149.833C149.196 13.1323 148.318 13.5103 147.51 13.5103C146.266 13.5075 145.415 12.5465 145.419 11.1058C145.422 8.77527 146.969 6.29131 150.383 6.29688C151.206 6.29688 152.094 6.45449 152.672 6.64138L151.931 10.2564C151.766 11.1421 151.636 12.5005 151.66 13.361L149.776 13.3569ZM150.38 7.89242C150.22 7.86313 150.025 7.83663 149.826 7.83384C148.511 7.83245 147.543 9.44193 147.541 10.7265C147.539 11.4043 147.809 11.8715 148.378 11.8743C148.985 11.8743 149.74 11.1825 150.048 9.48796L150.38 7.89242Z" fill="white"/>
<path d="M157.849 6.46456L158.265 9.47293C158.366 10.1786 158.433 10.6738 158.495 11.1117H158.521C158.676 10.7017 158.83 10.2498 159.132 9.50222L160.396 6.46875L162.544 6.47154L160.065 11.4241C159.138 13.2568 158.319 14.5148 157.392 15.3767C156.588 16.1354 155.623 16.4729 155.173 16.5427L154.72 14.8049C155.048 14.7086 155.5 14.5385 155.896 14.2554C156.364 13.9304 156.763 13.5245 157.017 13.0573C157.086 12.9597 157.086 12.876 157.061 12.7184L155.699 6.45898L157.849 6.46456Z" fill="white"/>
<path d="M163.756 3.22461C164.362 3.39616 165.208 3.35432 165.817 3.42545C166.883 3.52726 167.657 3.79644 168.253 4.34734C169.073 5.04051 169.371 6.21624 169.37 7.5426C169.36 10.1842 168.198 13.5426 165.012 13.537C163.257 13.5342 162.193 12.4603 162.196 10.6653C162.197 8.63186 163.633 6.47426 165.844 6.47705C166.795 6.47844 167.386 6.93172 167.668 7.60955H167.724C167.724 7.47008 167.724 7.29992 167.738 7.1995C167.738 6.67649 167.556 6.05585 167.13 5.68904C166.669 5.2525 165.998 5.10745 165.138 5.05027C164.699 5.02098 164.274 4.99309 163.779 4.89128L163.756 3.22461ZM167.027 9.40034C167.027 8.72391 166.761 7.9889 165.992 7.9889C164.85 7.98472 164.28 9.62489 164.308 10.6974C164.306 11.4031 164.586 12.0377 165.311 12.0419C166.414 12.0433 167.014 10.3208 167.027 9.40034Z" fill="white"/>
<path d="M176.947 9.17779C176.943 11.705 175.211 13.553 172.804 13.5502C171.051 13.5474 169.877 12.3995 169.878 10.6924C169.882 8.28937 171.557 6.32842 174.019 6.334C175.877 6.33539 176.95 7.60875 176.947 9.17779ZM171.992 10.6534C171.99 11.4581 172.385 11.9937 173.093 11.9937C174.209 11.9979 174.838 10.373 174.839 9.18895C174.842 8.55018 174.572 7.87235 173.75 7.87096C172.576 7.86956 171.975 9.57946 171.992 10.6534Z" fill="white"/>
<path d="M184.964 4.9408C184.593 5.06353 184.166 5.10677 183.75 5.14861C182.7 5.24763 181.633 5.31597 180.743 6.16395C180.305 6.58515 179.931 7.26158 179.791 7.79854H179.864C180.431 6.99519 181.213 6.50007 182.198 6.50286C183.772 6.50705 184.647 7.69393 184.632 9.21834C184.607 11.507 183.035 13.5642 180.618 13.56C178.864 13.5586 177.805 12.3564 177.806 10.1807C177.812 8.19045 178.392 6.36897 179.581 5.15698C180.834 3.85851 182.19 3.62141 183.889 3.48194C184.384 3.44149 184.894 3.37176 185.262 3.25879L184.964 4.9408ZM182.522 9.35642C182.522 8.70928 182.258 7.95893 181.52 7.95893C181.092 7.95753 180.711 8.22392 180.428 8.60607C180.031 9.10119 179.801 9.81806 179.798 10.5698C179.796 11.348 180.11 12.0677 180.845 12.0691C182.02 12.0691 182.521 10.401 182.522 9.35642Z" fill="white"/>
<path d="M188.352 6.51353L187.867 9.05189L189.975 9.05746L190.46 6.51632L192.5 6.51911L191.175 13.4243L189.136 13.4229L189.674 10.6265L187.567 10.6209L187.039 13.4187L185 13.4159L186.311 6.51074L188.352 6.51353Z" fill="white"/>
<path d="M198.53 13.0396C197.727 13.4482 196.721 13.5751 195.953 13.5738C193.974 13.571 192.959 12.451 192.96 10.6588C192.965 8.55562 194.495 6.36594 196.999 6.37012C198.4 6.37152 199.406 7.15255 199.405 8.43707C199.4 10.2014 197.688 10.8346 194.909 10.7606C194.909 10.9587 194.983 11.2697 195.122 11.4664C195.387 11.8206 195.857 12.0047 196.457 12.0061C197.203 12.0075 197.838 11.8387 198.393 11.571L198.53 13.0396ZM196.74 7.85408C195.79 7.85269 195.253 8.62814 195.113 9.27947C196.696 9.29341 197.487 9.07026 197.49 8.45102C197.49 8.09816 197.209 7.85408 196.74 7.85408Z" fill="white"/>
<path d="M205.409 13.0517C204.598 13.459 203.592 13.5831 202.831 13.5831C200.845 13.5803 199.832 12.4632 199.832 10.6696C199.836 8.56497 201.368 6.37668 203.871 6.38087C205.279 6.38365 206.284 7.16329 206.281 8.44921C206.272 10.2135 204.562 10.8467 201.787 10.77C201.787 10.968 201.854 11.2804 202.001 11.4785C202.268 11.8314 202.729 12.0141 203.328 12.0141C204.077 12.0155 204.716 11.8495 205.264 11.5789L205.409 13.0517ZM203.62 7.86622C202.669 7.86343 202.132 8.63749 201.984 9.28742C203.575 9.30555 204.368 9.08101 204.369 8.45897C204.369 8.10611 204.082 7.86762 203.62 7.86622Z" fill="white"/>
<defs>
<radialGradient id="paint0_radial_101_209" cx="0" cy="0" r="1" gradientUnits="userSpaceOnUse" gradientTransform="translate(151.692 9.07671) rotate(90) scale(9.07671 59.1134)">
<stop stop-color="#FD8511" stop-opacity="0.85"/>
<stop offset="1" stop-color="#FC802D"/>
</radialGradient>
</defs>
</svg>
