<svg width="222" height="29" viewBox="0 0 222 29" fill="none" xmlns="http://www.w3.org/2000/svg">
<rect y="6" width="58" height="18" rx="9" fill="url(#paint0_linear_2_925)"/>
<path d="M68 1.35169H84.4749V4.82309H78.1454V22.8559H74.3295V4.82309H68V1.35169Z" fill="#2C3136"/>
<path d="M89.1747 29L91.6278 22.6716L85.6314 7.49576H89.205L93.2934 18.6165L97.2607 7.49576H100.804L92.5969 29H89.1747Z" fill="#2C3136"/>
<path d="M110.833 20.0604C113.438 20.0604 115.315 17.9714 115.315 15.1451C115.315 12.3189 113.438 10.2913 110.833 10.2913C108.229 10.2913 106.351 12.3189 106.351 15.1451C106.351 17.9714 108.229 20.0604 110.833 20.0604ZM111.651 23.286C109.258 23.286 107.471 22.1801 106.351 20.3676V29H102.959V7.49576H106.351V9.98411C107.471 8.17161 109.258 7.06568 111.651 7.06568C115.891 7.06568 118.828 10.5371 118.828 15.1758C118.828 19.8146 115.891 23.286 111.651 23.286Z" fill="#2C3136"/>
<path d="M128.935 20.1833C131.358 20.1833 133.114 18.34 133.114 15.6367C133.114 12.9333 131.358 11.1208 128.935 11.1208C126.451 11.1208 124.695 12.9333 124.695 15.6367C124.695 18.34 126.451 20.1833 128.935 20.1833ZM128.995 23.286C124.089 23.286 121.121 19.5074 121.121 13.4862C121.121 5.89831 123.665 2.30402 130.116 1.78178L134.871 1.41314L135.052 4.70021L130.358 5.03814C126.118 5.34534 124.362 7.00424 124.089 11.1208C125.24 9.15466 127.148 8.07945 129.51 8.07945C133.629 8.07945 136.506 11.2129 136.506 15.6367C136.506 20.1525 133.477 23.286 128.995 23.286Z" fill="#2C3136"/>
<path d="M146.401 23.286C141.738 23.286 138.437 19.8146 138.437 15.1758C138.437 10.5371 141.738 7.06568 146.401 7.06568C151.065 7.06568 154.366 10.5371 154.366 15.1758C154.366 19.8146 151.065 23.286 146.401 23.286ZM146.401 20.0604C149.006 20.0604 150.884 18.0021 150.884 15.1758C150.884 12.3496 149.006 10.2913 146.401 10.2913C143.797 10.2913 141.919 12.3496 141.919 15.1758C141.919 18.0021 143.797 20.0604 146.401 20.0604Z" fill="#2C3136"/>
<path d="M162.618 23.286C159.499 23.286 157.136 22.0265 155.865 19.2309L158.53 17.8792C159.256 19.5689 160.619 20.429 162.557 20.429C164.435 20.429 165.768 19.6303 165.768 18.2479C165.768 17.142 164.859 16.3432 163.254 16.3432H160.286V13.5169H163.284C164.647 13.5169 165.495 12.8411 165.495 11.8273C165.495 10.6292 164.284 9.86123 162.557 9.86123C160.831 9.86123 159.62 10.6292 158.923 12.1038L156.41 10.5985C157.621 8.29449 159.711 7.06568 162.679 7.06568C166.282 7.06568 168.705 8.87818 168.705 11.5816C168.705 13.179 167.857 14.3157 166.161 15.0222C168.039 15.5445 169.008 16.7733 169.008 18.5244C169.008 21.3814 166.434 23.286 162.618 23.286Z" fill="#2C3136"/>
<path d="M181.004 16.1589V15.9131L178.097 16.036C175.19 16.1589 174.069 17.0805 174.069 18.3708C174.069 19.6303 175.129 20.429 176.734 20.429C179.157 20.429 181.004 18.6472 181.004 16.1589ZM184.275 13.2712V22.8559H181.004V20.5519C179.975 22.303 178.218 23.286 175.917 23.286C172.646 23.286 170.738 21.2892 170.738 18.5858C170.738 15.6059 173.07 13.6706 177.582 13.5169L181.004 13.3633V13.2097C181.004 11.2436 179.702 9.92267 177.582 9.92267C175.856 9.92267 174.554 10.7521 173.827 12.2881L171.162 10.9364C172.252 8.50953 174.523 7.06568 177.673 7.06568C181.731 7.06568 184.275 9.46187 184.275 13.2712Z" fill="#2C3136"/>
<path d="M187.875 7.49576H191.266V17.8792L198.141 7.49576H201.594V22.8559H198.202V12.4725L191.327 22.8559H187.875V7.49576ZM194.719 4.76165C191.66 4.76165 189.601 2.94915 189.359 0H192.205C192.387 1.38241 193.386 2.21186 194.719 2.21186C196.082 2.21186 197.111 1.38241 197.293 0H200.14C199.898 2.94915 197.808 4.76165 194.719 4.76165Z" fill="#2C3136"/>
<path d="M209.311 7.49576L213.641 16.7426L217.972 7.49576H222V22.8559H218.85V11.8888L214.52 20.8284H212.672L208.342 11.8888V22.8559H205.192V7.49576H209.311Z" fill="#2C3136"/>
<defs>
<linearGradient id="paint0_linear_2_925" x1="58" y1="15.1636" x2="-4.28409" y2="15.1636" gradientUnits="userSpaceOnUse">
<stop stop-color="#0094E7"/>
<stop offset="1" stop-color="#B9D6FF" stop-opacity="0"/>
</linearGradient>
</defs>
</svg>