<?xml version="1.0" encoding="UTF-8"?>
<svg xmlns="http://www.w3.org/2000/svg" xmlns:xlink="http://www.w3.org/1999/xlink" width="15px" height="12px" viewBox="0 0 14 12" version="1.1">
<defs>
<linearGradient id="linear0" gradientUnits="userSpaceOnUse" x1="30.8913" y1="1.45847" x2="17.4456" y2="42.8118" gradientTransform="matrix(0.254545,0,0,0.266667,0,0)">
<stop offset="0" style="stop-color:rgb(34.509804%,68.235294%,82.745098%);stop-opacity:1;"/>
<stop offset="1" style="stop-color:rgb(34.509804%,68.235294%,82.745098%);stop-opacity:0.8;"/>
</linearGradient>
<linearGradient id="linear1" gradientUnits="userSpaceOnUse" x1="42.8453" y1="6.94565" x2="34.0763" y2="36.8973" gradientTransform="matrix(0.254545,0,0,0.266667,0,0)">
<stop offset="0" style="stop-color:rgb(12.54902%,68.627451%,80.784314%);stop-opacity:0.768627;"/>
<stop offset="1" style="stop-color:rgb(12.54902%,68.627451%,80.784314%);stop-opacity:0.619608;"/>
</linearGradient>
</defs>
<g id="surface1">
<path style=" stroke:none;fill-rule:nonzero;fill:url(#linear0);" d="M 0.078125 6.320312 C 0.0273438 6.265625 0 6.1875 0 6.105469 C 0 6.027344 0.0273438 5.945312 0.078125 5.894531 L 4.914062 0.667969 C 5.117188 0.453125 5.34375 0.292969 5.574219 0.1875 C 5.828125 0.0546875 6.082031 0 6.363281 0 C 6.617188 0 6.898438 0.0546875 7.152344 0.160156 C 7.40625 0.265625 7.636719 0.398438 7.816406 0.613281 L 11.53125 4.398438 C 11.914062 4.800781 12.140625 5.332031 12.140625 5.894531 C 12.140625 6.480469 11.9375 7.039062 11.554688 7.441406 L 7.941406 11.332031 C 7.761719 11.546875 7.535156 11.707031 7.304688 11.8125 C 7.050781 11.945312 6.769531 12 6.515625 12 C 6.238281 12 5.980469 11.945312 5.726562 11.839844 C 5.472656 11.734375 5.242188 11.601562 5.066406 11.386719 Z M 0.078125 6.320312 "/>
<path style=" stroke:none;fill-rule:nonzero;fill:url(#linear1);" d="M 5.523438 6.292969 C 5.472656 6.265625 5.449219 6.1875 5.449219 6.105469 C 5.449219 6.027344 5.472656 5.945312 5.523438 5.894531 L 8.933594 2 C 9.035156 1.867188 9.164062 1.761719 9.316406 1.707031 C 9.445312 1.625 9.597656 1.574219 9.773438 1.574219 C 9.925781 1.574219 10.078125 1.601562 10.234375 1.652344 C 10.386719 1.707031 10.511719 1.785156 10.640625 1.921875 L 13.667969 4.800781 C 13.898438 5.039062 14.027344 5.359375 14.050781 5.707031 C 14.050781 6.027344 13.949219 6.375 13.71875 6.613281 L 10.972656 9.785156 C 10.84375 9.921875 10.714844 10.027344 10.589844 10.078125 C 10.4375 10.160156 10.285156 10.1875 10.132812 10.214844 C 9.953125 10.214844 9.800781 10.1875 9.648438 10.132812 C 9.496094 10.078125 9.367188 10 9.238281 9.867188 Z M 5.523438 6.292969 "/>
</g>
</svg>