<svg width="173" height="45" viewBox="0 0 173 45" fill="none" xmlns="http://www.w3.org/2000/svg">
<path d="M53.8721 32.289H149.783" stroke="black" stroke-opacity="0.31"/>
<g opacity="0.5">
<path d="M59.9035 41.9369V40.1347C59.5276 40.0708 59.1708 39.9233 58.8593 39.7033C58.5253 39.4676 58.2495 39.1587 58.053 38.8002C57.8475 38.4103 57.7435 37.975 57.7506 37.5343C57.7447 37.0953 57.8516 36.6622 58.061 36.2764C58.2574 35.9155 58.5331 35.604 58.8674 35.3652C59.174 35.1498 59.528 35.0115 59.8995 34.962V33.2929H60.7381V34.9701C61.1819 35.0043 61.6043 35.1746 61.9476 35.4579C62.1675 35.6174 62.3607 35.8106 62.5201 36.0304C62.8698 36.4763 63.0486 37.0326 63.0241 37.5988V37.6955C63.0322 38.1205 62.9219 38.5393 62.7056 38.9051C62.4975 39.2635 62.2073 39.5675 61.8589 39.792C61.5233 40.0119 61.1408 40.15 60.7421 40.1952V41.9369H59.9035ZM59.9035 35.4862C59.5488 35.5164 59.2175 35.6756 58.9722 35.9337C58.791 36.1371 58.6518 36.3743 58.5625 36.6317C58.4733 36.8891 58.4357 37.1616 58.4521 37.4335C58.4439 37.7893 58.5213 38.1419 58.6779 38.4616C58.8113 38.7312 58.9995 38.9701 59.2302 39.1631C59.4318 39.3325 59.659 39.4686 59.9035 39.5663V35.4862ZM61.742 35.974C61.4606 35.7168 61.1103 35.5473 60.7341 35.4862V39.5945C61.1154 39.494 61.4623 39.2919 61.738 39.0099C61.9372 38.8096 62.0947 38.5718 62.2013 38.3102C62.3079 38.0486 62.3614 37.7684 62.3588 37.4859V37.502C62.3666 37.2216 62.3157 36.9426 62.2095 36.683C62.1033 36.4234 61.9441 36.1887 61.742 35.9942V35.974Z" fill="#191A1D"/>
<path d="M63.9674 35.0547H64.6971V38.8083L67.096 35.0547H67.8056V40.0823H67.1525V36.2925L64.681 40.0944H63.9674V35.0547Z" fill="#191A1D"/>
<path d="M68.7612 35.0547H69.4668V37.2601H71.3899V35.0547H72.1035V40.0823H71.3899V37.9052H69.4668V40.0904H68.7612V35.0547Z" fill="#191A1D"/>
<path d="M74.7241 36.7239C74.9222 36.7241 75.1182 36.7638 75.3007 36.8408C75.4692 36.9109 75.6246 37.009 75.7603 37.1311C75.8626 37.2209 75.9392 37.3364 75.982 37.4657V37.0142C76.0058 36.6459 75.9003 36.2808 75.6837 35.982C75.5818 35.8582 75.4518 35.7603 75.3046 35.6965C75.1574 35.6327 74.9971 35.6048 74.837 35.6152C74.6325 35.6142 74.4293 35.6483 74.2363 35.716C74.0683 35.7663 73.9149 35.8561 73.7888 35.978L73.4219 35.4902C73.8158 35.1561 74.3165 34.9744 74.833 34.9782C75.1604 34.9712 75.4831 35.0564 75.7643 35.2241C76.0442 35.3893 76.2677 35.6352 76.4054 35.9296C76.5687 36.2673 76.6489 36.6392 76.6392 37.0142V40.0823H75.9901V39.3526C75.9485 39.5117 75.8566 39.6532 75.728 39.7557C75.5816 39.8967 75.4108 40.0101 75.2241 40.0904C75.0668 40.161 74.8965 40.198 74.7241 40.1992C74.409 40.2048 74.0978 40.1284 73.821 39.9775C73.5622 39.8349 73.3485 39.6226 73.2042 39.3647C73.056 39.0889 72.9784 38.7807 72.9784 38.4676C72.9784 38.1545 73.056 37.8463 73.2042 37.5705C73.3548 37.3057 73.5733 37.0858 73.8372 36.9335C74.1088 36.7858 74.4151 36.7134 74.7241 36.7239ZM75.6474 37.6713C75.4299 37.4654 75.1406 37.3526 74.8411 37.3569C74.6421 37.3545 74.4461 37.4052 74.2732 37.5037C74.1003 37.6022 73.9568 37.745 73.8573 37.9173C73.7569 38.0882 73.7053 38.2835 73.7081 38.4817C73.7063 38.6791 73.7593 38.8731 73.8614 39.0421C73.9583 39.2094 74.0973 39.3483 74.2645 39.4453C74.4409 39.5427 74.6396 39.5927 74.8411 39.5904C75.0406 39.5938 75.2373 39.5422 75.4095 39.4413C75.5827 39.3441 75.7268 39.2024 75.8267 39.0309C75.9267 38.8593 75.9789 38.6641 75.978 38.4656C75.9841 38.3171 75.9576 38.1691 75.9005 38.0319C75.8434 37.8947 75.757 37.7717 75.6474 37.6713Z" fill="#191A1D"/>
<path d="M77.5221 35.0547H78.2317V37.2601H80.1508V35.0547H80.8684V40.0823H80.1508V37.9052H78.2317V40.0904H77.5221V35.0547Z" fill="#191A1D"/>
<path d="M84.8558 36.2925C84.8082 36.1723 84.7353 36.0636 84.6421 35.974C84.542 35.8613 84.4217 35.7683 84.2873 35.6998C84.1639 35.6315 84.0252 35.5955 83.8842 35.595C83.6192 35.5949 83.362 35.6844 83.1544 35.849C82.923 36.0403 82.744 36.2872 82.6343 36.5667C82.5004 36.894 82.4346 37.2452 82.4408 37.5988C82.4356 37.9506 82.5 38.3 82.6303 38.6269C82.736 38.9029 82.9143 39.1453 83.1464 39.3284C83.3533 39.4942 83.6109 39.5838 83.8761 39.5824C84.0157 39.586 84.1541 39.5556 84.2793 39.4937C84.5584 39.3562 84.7818 39.127 84.9123 38.8446L85.4848 39.2034C85.3089 39.4892 85.0738 39.7339 84.7953 39.921C84.5167 40.1157 84.1837 40.2173 83.8438 40.2113C83.456 40.2131 83.0782 40.0885 82.7674 39.8565C82.4295 39.608 82.1637 39.274 81.9973 38.8889C81.8124 38.4714 81.7189 38.0191 81.7232 37.5625C81.7244 37.1486 81.8023 36.7385 81.953 36.353C82.1007 35.9627 82.3481 35.6179 82.6706 35.3531C83.0141 35.0812 83.4422 34.9386 83.8801 34.9499C84.2079 34.9453 84.5291 35.0425 84.7994 35.2281C85.0774 35.423 85.3065 35.6797 85.4686 35.978L84.8558 36.2925Z" fill="#191A1D"/>
<path d="M87.944 40.2194C87.5427 40.2282 87.1499 40.1034 86.8273 39.8646C86.5028 39.6177 86.2576 39.2814 86.1217 38.897C85.9681 38.5025 85.8902 38.0826 85.8919 37.6593C85.8822 37.1742 85.9629 36.6916 86.1298 36.2361C86.2703 35.8608 86.5151 35.5335 86.8353 35.2926C87.1593 35.0648 87.5481 34.9475 87.944 34.958C88.3448 34.9488 88.7369 35.0752 89.0568 35.3168C89.6777 35.7765 89.9841 36.5264 89.9841 37.5706C89.9841 38.6148 89.6777 39.3969 89.0689 39.8606C88.7441 40.1017 88.3484 40.2279 87.944 40.2194ZM87.174 35.8893C86.9703 36.1072 86.8151 36.3657 86.7185 36.6478C86.6219 36.9299 86.5862 37.2293 86.6136 37.5262C86.6136 38.5126 86.8541 39.1537 87.3352 39.4493C87.5179 39.5578 87.7276 39.6123 87.94 39.6066C88.1401 39.6147 88.3386 39.5674 88.5136 39.4699C88.6886 39.3725 88.8333 39.2286 88.9318 39.0542C89.172 38.6052 89.2863 38.0995 89.2624 37.5907C89.2624 36.7844 89.0769 36.228 88.702 35.8893C88.4862 35.7135 88.2164 35.6175 87.938 35.6175C87.6596 35.6175 87.3898 35.7135 87.174 35.8893Z" fill="#191A1D"/>
<path d="M90.7421 40.0823V35.083H92.3991C92.6463 35.0844 92.8901 35.1409 93.1127 35.2483C93.3319 35.3461 93.5232 35.4971 93.6691 35.6877C93.8025 35.8583 93.8761 36.0679 93.8787 36.2844C93.8794 36.4742 93.8293 36.6608 93.7336 36.8247C93.6551 36.9744 93.5417 37.103 93.403 37.1996L93.0563 37.3891L93.4191 37.5343C93.5692 37.602 93.7058 37.6962 93.8223 37.8124C93.9397 37.9133 94.0358 38.0366 94.105 38.175C94.1743 38.3135 94.2152 38.4643 94.2255 38.6188C94.2284 38.8921 94.1436 39.1592 93.9836 39.3808C93.8152 39.6155 93.5868 39.8007 93.3224 39.917C93.0303 40.0454 92.7141 40.11 92.3951 40.1065L90.7421 40.0823ZM91.3025 37.123H92.3144C92.4541 37.1233 92.5921 37.0916 92.7176 37.0303C92.8403 36.9703 92.9457 36.8801 93.024 36.7682C93.0968 36.6581 93.136 36.5293 93.1369 36.3973C93.1364 36.2684 93.0955 36.143 93.02 36.0385C92.9401 35.9276 92.8332 35.8388 92.7095 35.7805C92.5842 35.7186 92.4461 35.6869 92.3064 35.6877H91.3025V37.123ZM91.3025 37.6794V39.4493H92.2943C92.4968 39.4534 92.6981 39.4178 92.8869 39.3445C93.0546 39.2792 93.2021 39.1707 93.3143 39.03C93.4203 38.8973 93.4772 38.7322 93.4756 38.5623C93.4644 38.4224 93.4169 38.2877 93.3377 38.1717C93.2585 38.0558 93.1503 37.9625 93.024 37.9011C92.7979 37.756 92.5348 37.679 92.2661 37.6794H91.3025Z" fill="#191A1D"/>
<path d="M96.7615 36.7239C96.9595 36.7241 97.1555 36.7638 97.338 36.8408C97.5066 36.9109 97.662 37.009 97.7976 37.1311C97.9004 37.2198 97.9759 37.3358 98.0154 37.4657V37.0142C98.0406 36.6463 97.9365 36.2812 97.721 35.982C97.6189 35.8584 97.4889 35.7607 97.3418 35.6969C97.1946 35.6332 97.0344 35.6052 96.8744 35.6152C96.6699 35.6142 96.4667 35.6483 96.2737 35.716C96.1057 35.7663 95.9522 35.8561 95.8261 35.978L95.4593 35.4902C95.8531 35.1561 96.3539 34.9744 96.8704 34.9782C97.1977 34.9712 97.5204 35.0564 97.8017 35.2241C98.0816 35.3893 98.305 35.6352 98.4427 35.9296C98.6061 36.2673 98.6863 36.6392 98.6766 37.0142V40.0823H98.0275V39.3526C97.9859 39.5117 97.894 39.6531 97.7654 39.7557C97.6189 39.8967 97.4482 40.0101 97.2614 40.0904C97.1041 40.161 96.9339 40.198 96.7615 40.1992C96.4463 40.2054 96.1349 40.1289 95.8584 39.9775C95.5995 39.8349 95.3858 39.6226 95.2415 39.3647C95.0933 39.0889 95.0157 38.7807 95.0157 38.4676C95.0157 38.1545 95.0933 37.8463 95.2415 37.5705C95.3921 37.3057 95.6106 37.0858 95.8745 36.9335C96.1462 36.7858 96.4524 36.7134 96.7615 36.7239ZM97.6848 37.6713C97.4663 37.4669 97.1776 37.3543 96.8784 37.3569C96.6795 37.3545 96.4835 37.4052 96.3106 37.5037C96.1377 37.6022 95.9941 37.745 95.8947 37.9173C95.7943 38.0882 95.7427 38.2835 95.7455 38.4817C95.7436 38.6791 95.7967 38.8731 95.8987 39.0421C95.9957 39.2094 96.1346 39.3483 96.3019 39.4453C96.4783 39.5427 96.6769 39.5927 96.8784 39.5904C97.0779 39.5932 97.2744 39.5416 97.4469 39.4413C97.6184 39.3422 97.7611 39.2001 97.8608 39.029C97.9605 38.8579 98.0138 38.6636 98.0154 38.4656C98.0204 38.3172 97.9934 38.1696 97.9364 38.0325C97.8793 37.8955 97.7935 37.7723 97.6848 37.6713Z" fill="#191A1D"/>
<path d="M100.829 37.7439C100.209 37.4751 99.8981 37.0719 99.8981 36.5344C99.8992 36.3825 99.9317 36.2326 99.9934 36.0938C100.055 35.9551 100.145 35.8306 100.257 35.728C100.815 35.2495 101.539 35.0079 102.273 35.0547H103.015V40.0823H102.273V38.0382C102.041 38.0272 101.811 38.0002 101.583 37.9576L100.463 40.0823H99.6158L100.829 37.7439ZM102.301 35.6151C101.196 35.6151 100.64 35.9175 100.64 36.5142C100.64 37.1109 101.196 37.4133 102.301 37.4133V35.6151Z" fill="#191A1D"/>
<path d="M109.449 35.0829H110.187V37.0988L112.143 35.0507H113.013L110.643 37.5665L113.259 40.0823H112.247L110.187 38.1874V40.0823H109.449V35.0829Z" fill="#191A1D"/>
<path d="M115.763 40.2194C115.363 40.2277 114.972 40.1029 114.65 39.8646C114.325 39.6189 114.079 39.2822 113.945 38.897C113.791 38.5025 113.713 38.0826 113.715 37.6593C113.703 37.1741 113.784 36.6911 113.953 36.2361C114.09 35.8604 114.334 35.5327 114.654 35.2927C114.979 35.0656 115.367 34.9484 115.763 34.958C116.165 34.9495 116.558 35.0758 116.88 35.3169C117.497 35.7765 117.807 36.5264 117.807 37.5706C117.807 38.6148 117.501 39.397 116.888 39.8606C116.563 40.1023 116.167 40.2286 115.763 40.2194ZM114.997 35.8894C114.793 36.1069 114.637 36.3652 114.539 36.6473C114.442 36.9295 114.406 37.229 114.433 37.5262C114.433 38.5127 114.673 39.1537 115.154 39.4494C115.337 39.5568 115.547 39.6113 115.759 39.6066C115.959 39.6147 116.158 39.5674 116.333 39.47C116.508 39.3725 116.652 39.2287 116.751 39.0543C116.992 38.6056 117.108 38.0999 117.085 37.5908C117.085 36.7844 116.896 36.228 116.525 35.8894C116.314 35.7046 116.039 35.6079 115.759 35.6192C115.48 35.6073 115.206 35.7041 114.997 35.8894Z" fill="#191A1D"/>
<path d="M118.589 40.0823V35.0547H119.307L120.879 39.0865L122.447 35.0547H123.153V40.0823H122.447V36.6553L121.169 40.0823H120.561L119.307 36.6553V40.0823H118.589Z" fill="#191A1D"/>
<path d="M124.101 35.0547H127.963V40.0823H127.225V35.7159H124.842V40.0823H124.101V35.0547Z" fill="#191A1D"/>
<path d="M130.66 36.7239C130.858 36.7245 131.054 36.7643 131.237 36.8408C131.404 36.9126 131.56 37.0106 131.696 37.1311C131.799 37.2198 131.875 37.3358 131.914 37.4657V37.0142C131.939 36.6463 131.835 36.2812 131.62 35.9821C131.517 35.8587 131.387 35.7611 131.24 35.6974C131.093 35.6337 130.933 35.6055 130.773 35.6152C130.569 35.6139 130.365 35.648 130.172 35.716C130.004 35.7672 129.849 35.8569 129.721 35.978L129.358 35.4902C129.75 35.1563 130.25 34.9746 130.765 34.9782C131.094 34.9717 131.417 35.0569 131.7 35.2241C131.98 35.3893 132.204 35.6352 132.341 35.9296C132.502 36.2682 132.582 36.6394 132.575 37.0142V40.0823H131.922V39.3526C131.884 39.5131 131.791 39.6555 131.66 39.7557C131.515 39.8966 131.346 40.0099 131.16 40.0904C131.003 40.1605 130.833 40.1976 130.66 40.1992C130.345 40.206 130.033 40.1295 129.757 39.9775C129.498 39.8341 129.283 39.6221 129.136 39.3647C128.988 39.09 128.913 38.7817 128.919 38.4696C128.915 38.1549 128.994 37.8448 129.148 37.5705C129.298 37.306 129.515 37.0861 129.777 36.9335C130.048 36.7876 130.353 36.7153 130.66 36.7239ZM131.583 37.6713C131.398 37.5022 131.164 37.3951 130.915 37.3647C130.666 37.3344 130.413 37.3824 130.193 37.502C130.026 37.5993 129.887 37.7382 129.789 37.9052C129.689 38.0762 129.637 38.2714 129.64 38.4696C129.636 38.6673 129.69 38.8618 129.793 39.03C129.89 39.1976 130.029 39.3367 130.197 39.4332C130.373 39.5301 130.572 39.5801 130.773 39.5783C130.974 39.5812 131.172 39.5296 131.346 39.4292C131.512 39.3312 131.651 39.1925 131.749 39.026C131.852 38.8544 131.905 38.6576 131.902 38.4575C131.908 38.3114 131.882 38.1657 131.827 38.0302C131.772 37.8947 131.689 37.7723 131.583 37.6713Z" fill="#191A1D"/>
<path d="M133.458 35.0547H134.164V37.2601H136.083V35.0547H136.801V40.0823H136.083V37.9052H134.164V40.0904H133.458V35.0547Z" fill="#191A1D"/>
<path d="M137.756 35.0547H138.486V38.8083L140.885 35.0547H141.594V40.0823H140.937V36.2925L138.466 40.0944H137.756V35.0547Z" fill="#191A1D"/>
<path d="M143.816 37.7439C143.195 37.4751 142.884 37.0719 142.884 36.5344C142.885 36.3821 142.918 36.2317 142.98 36.0929C143.043 35.954 143.134 35.8297 143.247 35.728C143.806 35.2495 144.529 35.0079 145.263 35.0547H146.001V40.0823H145.263V38.0382C145.03 38.0272 144.799 38.0003 144.57 37.9576L143.449 40.0823H142.602L143.816 37.7439ZM145.287 35.6151C144.182 35.6151 143.63 35.9175 143.63 36.5142C143.63 37.1109 144.182 37.4133 145.287 37.4133V35.6151Z" fill="#191A1D"/>
</g>
<path d="M67.06 24.6005V28.4992H64.7659V24.6005H60.2464C58.9562 24.6005 57.9725 24.2619 57.2951 23.5845C56.642 22.9072 56.3114 21.9356 56.3114 20.6656V9.81622C56.3114 8.57042 56.642 7.61087 57.2951 6.93354C57.9483 6.25622 58.9562 5.8853 60.2464 5.8853H64.7659V2.60751H67.06V5.8853H71.5835C72.8495 5.8853 73.8211 6.23203 74.4985 6.93354C75.1758 7.63506 75.5145 8.57042 75.5145 9.81622V20.6615C75.5454 21.191 75.4716 21.7214 75.2973 22.2222C75.1229 22.7231 74.8515 23.1847 74.4985 23.5805C73.8211 24.2605 72.8495 24.6005 71.5835 24.6005H67.06ZM67.06 8.01808V22.496H71.519C72.656 22.496 73.2204 21.9073 73.2204 20.726V9.78397C73.2204 8.60268 72.656 8.01404 71.519 8.01404L67.06 8.01808ZM64.7659 8.01808H60.3109C59.1739 8.01808 58.6054 8.60805 58.6054 9.788V20.726C58.6054 21.906 59.1739 22.496 60.3109 22.496H64.7659V8.01808Z" fill="#4C5866"/>
<path d="M86.9363 7.6875H81.2355C80.0985 7.6875 79.53 8.27613 79.53 9.45339V24.6288C79.53 25.806 80.0985 26.3987 81.2355 26.3987H86.9363C88.0692 26.3987 88.6377 25.806 88.6377 24.6288V9.45339C88.6377 8.27613 88.0706 7.6875 86.9363 7.6875ZM87.0008 28.4952H81.1669C79.8821 28.4952 78.8997 28.1565 78.2197 27.4792C77.5397 26.8019 77.2118 25.8289 77.236 24.5602V9.48967C77.236 8.24253 77.5639 7.28029 78.2197 6.60297C78.8756 5.92564 79.8579 5.57622 81.1669 5.55472H87.0008C88.2668 5.55472 89.2384 5.90413 89.9157 6.60297C90.5931 7.3018 90.9317 8.26403 90.9317 9.48967V24.5602C90.9627 25.0897 90.8889 25.62 90.7145 26.1209C90.5402 26.6218 90.2688 27.0834 89.9157 27.4792C89.2384 28.1565 88.2668 28.4952 87.0008 28.4952Z" fill="#4C5866"/>
<path d="M93.6046 5.55472H103.043C104.309 5.55472 105.284 5.90548 105.962 6.60297C106.639 7.30045 106.978 8.24387 106.978 9.48967V15.5372C107.009 16.0667 106.935 16.5971 106.761 17.098C106.586 17.5988 106.315 18.0604 105.962 18.4562C105.284 19.1335 104.309 19.4722 103.043 19.4722H95.8987V28.4952H93.6046V5.55472ZM95.8987 7.6875V17.3636H102.978C104.115 17.3636 104.684 16.775 104.684 15.5977V9.45339C104.684 8.27613 104.115 7.6875 102.978 7.6875H95.8987Z" fill="#4C5866"/>
<path d="M110.981 26.3987H118.239C119.371 26.3987 119.94 25.806 119.94 24.6288V19.9399C119.96 19.6585 119.921 19.3761 119.825 19.1108C119.729 18.8455 119.579 18.6033 119.384 18.3998C119.183 18.2098 118.946 18.0625 118.687 17.9668C118.427 17.8712 118.152 17.8292 117.876 17.8434H110.981V26.3987ZM117.472 7.6875H110.981V15.7308H117.142C117.413 15.742 117.683 15.6985 117.936 15.6029C118.19 15.5073 118.422 15.3615 118.617 15.1744C118.809 14.9685 118.958 14.726 119.053 14.4613C119.149 14.1966 119.19 13.9153 119.174 13.6343V9.45339C119.174 8.27613 118.609 7.6875 117.472 7.6875ZM118.279 28.4952H108.687V5.55472H117.537C118.803 5.55472 119.775 5.90413 120.452 6.60297C121.129 7.3018 121.468 8.26403 121.468 9.48967V13.223C121.468 14.7954 120.912 15.8558 119.799 16.4041H119.396V16.5371H119.799C121.411 17.0747 122.218 18.2976 122.218 20.206V24.5602C122.218 25.8289 121.879 26.8019 121.202 27.4792C120.525 28.1565 119.554 28.4952 118.291 28.4952H118.279Z" fill="#4C5866"/>
<path d="M134.567 19.3593L131.519 7.69556H130.471L127.39 19.3593H134.567ZM126.866 21.4558L125.032 28.4952H122.77L128.765 5.55472H133.2L139.195 28.4952H136.926L135.059 21.4477L126.866 21.4558Z" fill="#4C5866"/>
<path d="M140.393 5.55472H149.827C151.098 5.55472 152.071 5.90413 152.746 6.60297C153.421 7.3018 153.759 8.26403 153.762 9.48967V15.5372C153.793 16.0667 153.719 16.5971 153.545 17.098C153.37 17.5988 153.099 18.0604 152.746 18.4562C152.069 19.1335 151.096 19.4722 149.827 19.4722H142.691V28.4952H140.393V5.55472ZM142.691 7.6875V17.3636H149.77C150.907 17.3636 151.476 16.775 151.476 15.5977V9.45339C151.476 8.27613 150.907 7.6875 149.77 7.6875H142.691Z" fill="#4C5866"/>
<path d="M153.173 26.3302H155.794L156.548 23.4152L158.35 5.55472H170.014V26.3302H172.473V30.0998L172.114 32.9825L169.852 32.7204L170.179 30.2651V28.4952H155.475V30.2651L155.802 32.7204L153.54 32.9825L153.173 30.0998V26.3302ZM158.285 26.3302H167.724V7.6875H160.289L158.677 24.4312L158.285 26.3302Z" fill="#4C5866"/>
<path d="M0.314793 23.6611C0.113153 23.458 0 23.1834 0 22.8971C0 22.6109 0.113153 22.3363 0.314793 22.1331L19.3405 2.45431C20.0746 1.69357 20.9517 1.08525 21.9214 0.66426C22.8912 0.243266 23.9345 0.0178769 24.9915 0.00102096C26.0486 -0.015835 27.0986 0.176174 28.0813 0.566034C29.0639 0.955894 29.96 1.53593 30.718 2.27288L45.2725 16.4686C46.8009 17.9669 47.6741 20.0093 47.7013 22.1495C47.7285 24.2897 46.9074 26.3537 45.4176 27.8904L31.2381 42.5457C30.5039 43.3064 29.6269 43.9147 28.6571 44.3357C27.6874 44.7567 26.644 44.9821 25.587 44.999C24.5299 45.0158 23.4799 44.8238 22.4973 44.434C21.5146 44.0441 20.6186 43.4641 19.8606 42.7271L0.314793 23.6611Z" fill="url(#paint0_linear_169_376)"/>
<path d="M21.7393 23.649C21.5291 23.4552 21.4043 23.186 21.3922 22.9004C21.3801 22.6147 21.4817 22.3359 21.6748 22.1251L35.0641 7.45767C35.4852 6.99401 35.9937 6.61814 36.5605 6.35165C37.1273 6.08517 37.7412 5.93332 38.3669 5.90485C38.9926 5.87637 39.6177 5.97183 40.2064 6.18573C40.795 6.39964 41.3356 6.72777 41.7971 7.15126L53.6503 18.0369C54.5826 18.896 55.1362 20.0897 55.1899 21.3563C55.2435 22.6229 54.7928 23.8592 53.9366 24.7941L43.0509 36.7239C42.6302 37.1874 42.122 37.5632 41.5556 37.8297C40.9891 38.0961 40.3755 38.2479 39.7502 38.2764C39.1249 38.3049 38.5 38.2094 37.9117 37.9956C37.3234 37.7817 36.7831 37.4537 36.322 37.0303L21.7393 23.649Z" fill="url(#paint1_linear_169_376)"/>
<defs>
<linearGradient id="paint0_linear_169_376" x1="30.8913" y1="1.45847" x2="17.4456" y2="42.8118" gradientUnits="userSpaceOnUse">
<stop stop-color="#58AED3"/>
<stop offset="1" stop-color="#58AED3" stop-opacity="0.8"/>
</linearGradient>
<linearGradient id="paint1_linear_169_376" x1="42.8453" y1="6.94565" x2="34.0763" y2="36.8973" gradientUnits="userSpaceOnUse">
<stop stop-color="#20AFCE" stop-opacity="0.77"/>
<stop offset="1" stop-color="#20AFCE" stop-opacity="0.62"/>
</linearGradient>
</defs>
</svg>
