<svg width="194" height="30" viewBox="0 0 194 30" fill="none" xmlns="http://www.w3.org/2000/svg">
<path fill-rule="evenodd" clip-rule="evenodd" d="M163.01 1.52C162.02 1.86 161.09 2.36 160.21 3.02C159.401 3.65121 158.702 4.41139 158.14 5.27C157.882 5.66759 157.665 6.08964 157.49 6.53C157.32 6.96 157.21 7.38 157.15 7.77C157.099 8.10114 157.095 8.43791 157.14 8.77C157.18 9.08 157.29 9.37 157.48 9.64C157.82 10.17 158.38 10.44 159.18 10.44C159.51 10.44 159.8 10.39 160.07 10.3C160.33 10.21 160.54 10.1 160.7 9.99C160.94 9.79 161.15 9.59 161.34 9.36C161.54 9.13 161.73 8.84 161.92 8.49C162.317 7.67115 162.899 6.95571 163.62 6.4C164.29 5.9606 165.08 5.74042 165.88 5.77C166.43 5.77 166.9 5.85 167.28 6.02C167.646 6.17052 167.968 6.40902 168.22 6.71432C168.471 7.01962 168.643 7.38226 168.72 7.77C168.8 8.17 168.82 8.61 168.74 9.07C168.67 9.54 168.57 9.96 168.42 10.34C168.098 11.1378 167.652 11.8802 167.1 12.54C166.8 12.88 166.47 13.25 166.1 13.64L155.82 24.47C155.37 24.94 154.98 25.4 154.66 25.84C154.33 26.28 154.12 26.79 154.04 27.35C153.98 27.75 153.99 28.1 154.07 28.41C154.14 28.73 154.27 29.01 154.47 29.23C154.75 29.61 155.11 29.83 155.57 29.9C156.01 29.97 156.5 30 157.04 30H167.77L168.52 29.99C168.72 29.99 168.92 29.97 169.07 29.95C169.23 29.93 169.38 29.9 169.52 29.85C169.65 29.82 169.79 29.76 169.92 29.7C170.28 29.5 170.59 29.24 170.85 28.89C171.1 28.54 171.27 28.12 171.35 27.62C171.41 27.12 171.38 26.7 171.23 26.34C171.088 26.0054 170.843 25.725 170.53 25.54C170.43 25.47 170.31 25.42 170.18 25.37C169.864 25.3001 169.543 25.2566 169.22 25.24H161.06L169.1 16.84C169.84 16.07 170.48 15.38 171.03 14.76C171.57 14.15 172.03 13.56 172.41 12.96C172.79 12.38 173.11 11.76 173.34 11.13C173.58 10.49 173.76 9.76 173.88 8.96C174.076 7.83107 174.039 6.67389 173.77 5.56C173.534 4.62141 173.058 3.76008 172.39 3.06C171.695 2.36231 170.845 1.83816 169.91 1.53C168.91 1.18 167.77 1 166.49 1C165.16 1 163.99 1.17 163.01 1.52ZM187.7 1.38C187.46 1.56 187.23 1.77 187.02 2.01C186.82 2.25 186.55 2.63 186.22 3.15L175.05 20.72C174.75 21.16 174.53 21.56 174.36 21.9C174.19 22.25 174.08 22.59 174.03 22.91C173.97 23.3 173.99 23.67 174.09 24.01C174.193 24.3732 174.396 24.7004 174.675 24.9548C174.954 25.2092 175.299 25.3807 175.67 25.45C176.1 25.53 176.62 25.57 177.25 25.57H184.53L184.4 26.42L184.29 27.24C184.26 27.47 184.24 27.67 184.25 27.84C184.243 28.1459 184.29 28.4507 184.39 28.74V28.75C184.51 29.15 184.75 29.45 185.1 29.67C185.46 29.89 185.9 30 186.42 30C186.94 30 187.42 29.89 187.84 29.67C188.26 29.45 188.59 29.14 188.83 28.75C189 28.47 189.13 28.17 189.23 27.85C189.33 27.52 189.42 27.05 189.51 26.42L189.64 25.57H190.38L191.13 25.56C191.317 25.5554 191.504 25.5421 191.69 25.52C191.85 25.5 191.99 25.47 192.14 25.42C192.27 25.39 192.4 25.33 192.54 25.27C192.9 25.07 193.21 24.81 193.47 24.47C193.72 24.11 193.89 23.69 193.97 23.19C194.04 22.69 194 22.27 193.85 21.92C193.708 21.5857 193.462 21.3055 193.15 21.12C193.05 21.05 192.93 21 192.8 20.96C192.484 20.8908 192.163 20.8473 191.84 20.83L191.09 20.82H190.35L190.71 18.42C190.8 17.79 190.85 17.32 190.85 16.99C190.85 16.67 190.81 16.37 190.72 16.09C190.6 15.69 190.36 15.39 190 15.17C189.65 14.95 189.21 14.84 188.69 14.84C188.16 14.84 187.69 14.94 187.27 15.17C186.85 15.39 186.52 15.69 186.27 16.08L186.05 16.52C185.907 16.8683 185.8 17.2302 185.73 17.6L185.59 18.42L185.24 20.82H180.34L190.18 5.35C190.35 5.1 190.48 4.87 190.6 4.68C190.7 4.48 190.8 4.31 190.87 4.15C191.001 3.87781 191.092 3.58816 191.14 3.29C191.19 2.97 191.16 2.67 191.06 2.39C190.96 2.11 190.8 1.87 190.6 1.66C190.39 1.46 190.15 1.3 189.87 1.18C189.589 1.0582 189.286 0.996866 188.98 1C188.51 1 188.08 1.13 187.71 1.38" fill="#F7A72F"/>
<path fill-rule="evenodd" clip-rule="evenodd" d="M116.55 0.229999C115.799 0.534735 115.167 1.07519 114.75 1.77C114.53 2.13 114.39 2.51 114.32 2.91C114.26 3.31 114.28 3.68 114.38 4.04C114.48 4.39 114.64 4.7 114.86 4.96C115.08 5.22 115.36 5.42 115.69 5.58C116.03 5.73 116.4 5.81 116.81 5.81C117.21 5.81 117.61 5.73 117.99 5.58C118.741 5.27589 119.373 4.73528 119.79 4.04H119.8C120.01 3.68 120.15 3.31 120.22 2.91C120.28 2.51 120.26 2.13 120.16 1.77C120.06 1.42 119.9 1.11 119.68 0.849999C119.433 0.579345 119.132 0.363776 118.796 0.217324C118.46 0.0708731 118.096 -0.00317581 117.73 -1.26444e-06C117.33 -1.26444e-06 116.93 0.0799987 116.55 0.229999ZM44.99 2.65L34.62 13.02L35.95 4.67C36 4.36 36.05 4.09 36.07 3.87C36.1 3.64 36.11 3.44 36.12 3.27C36.12 3.09 36.1 2.93 36.08 2.78L35.96 2.31C35.8009 1.92163 35.5202 1.59531 35.16 1.38C34.743 1.13364 34.264 1.01217 33.78 1.03H31.04L30.44 4.75L27.16 25.28L27.05 26.08C27.02 26.31 27 26.51 27 26.68C27 26.86 27.01 27.02 27.04 27.17L27.16 27.64C27.31 28.02 27.57 28.33 27.95 28.56C28.32 28.8 28.78 28.92 29.33 28.92C29.88 28.92 30.38 28.8 30.83 28.56C31.29 28.33 31.65 28.02 31.92 27.64C32.02 27.48 32.12 27.32 32.19 27.17C32.26 27.02 32.33 26.86 32.39 26.69C32.4944 26.2256 32.5878 25.7588 32.67 25.29V25.28L33.43 20.48L37.69 16.21L42.1 26.71C42.22 27.02 42.35 27.31 42.48 27.58C42.62 27.84 42.78 28.08 42.94 28.28C43.11 28.48 43.32 28.63 43.57 28.75C43.82 28.86 44.13 28.92 44.5 28.92C44.97 28.92 45.48 28.78 46.02 28.5C46.52 28.24 46.92 27.9 47.22 27.5C47.52 27.1 47.69 26.68 47.73 26.25C47.75 26.09 47.75 25.95 47.73 25.79C47.73 25.65 47.7 25.49 47.66 25.33C47.5228 24.9076 47.3694 24.4906 47.2 24.08L42.19 12.13L48.41 5.89C48.69 5.62 48.91 5.38 49.11 5.17L49.57 4.6C49.7924 4.29157 49.9397 3.93544 50 3.56C50.06 3.16 50.03 2.79 49.9 2.47C49.76 2.15 49.57 1.87 49.32 1.65C48.89 1.23 47.58 0.129999 47.58 0.129999C47.58 0.129999 47 0.719999 44.99 2.65ZM104.98 1.04C104.98 1.04 104.76 2.51 104.54 3.68L104.4 4.48L103.46 10.36C102.978 9.66751 102.308 9.12647 101.53 8.8C99.7187 8.19083 97.7568 8.19786 95.95 8.82C95.05 9.14 94.26 9.59 93.59 10.17C93.0252 10.6524 92.5423 11.2232 92.16 11.86C91.77 12.49 91.46 13.16 91.2 13.89C90.95 14.61 90.74 15.38 90.57 16.19C90.2246 17.8297 89.9576 19.4849 89.77 21.15H89.78C89.69 21.95 89.66 22.72 89.68 23.45C89.7 24.18 89.8 24.86 89.98 25.49C90.16 26.13 90.46 26.69 90.88 27.18C91.4027 27.7906 92.0744 28.2557 92.83 28.53C93.7029 28.8548 94.6287 29.0142 95.56 29C96.65 29 97.62 28.84 98.48 28.53C99.33 28.21 100.17 27.67 100.98 26.91C101.01 27.24 101.06 27.52 101.13 27.74C101.21 27.96 101.33 28.16 101.5 28.34C101.86 28.73 102.37 28.92 103.04 28.92C103.52 28.92 103.98 28.82 104.41 28.6C104.85 28.39 105.18 28.1 105.42 27.76C105.599 27.4911 105.747 27.2026 105.86 26.9C105.92 26.74 105.97 26.54 106.02 26.32L106.16 25.49L109.51 4.48C109.61 3.87 109.66 3.41 109.66 3.1C109.66 2.79 109.62 2.5 109.53 2.23C109.409 1.85958 109.156 1.54643 108.82 1.35C108.421 1.12535 107.968 1.01466 107.51 1.03H104.98V1.04ZM95.98 23.98C95.58 23.68 95.3 23.28 95.14 22.75C94.9803 22.154 94.9229 21.5352 94.97 20.92C95.0609 19.39 95.3021 17.8727 95.69 16.39C95.88 15.69 96.13 15.09 96.46 14.58C96.78 14.07 97.19 13.66 97.69 13.37C98.19 13.07 98.83 12.92 99.59 12.92C100.36 12.92 100.94 13.07 101.35 13.37C101.76 13.67 102.05 14.07 102.21 14.57C102.37 15.09 102.43 15.69 102.39 16.39C102.298 17.9199 102.057 19.4371 101.67 20.92C101.49 21.62 101.23 22.22 100.91 22.75C100.58 23.28 100.16 23.69 99.65 23.98C99.0578 24.2981 98.3918 24.4533 97.72 24.43C96.96 24.43 96.38 24.28 95.98 23.98ZM125.72 5.9L125.58 6.7L125.15 9.38H124.65C124.15 9.38 123.8 9.4 123.56 9.44C123.33 9.48 123.1 9.55 122.87 9.66C122.545 9.81124 122.264 10.0432 122.054 10.3338C121.844 10.6244 121.712 10.9639 121.67 11.32L121.37 13.25H124.53L122.95 23.22C122.832 23.9279 122.825 24.65 122.93 25.36C123.027 26.0439 123.296 26.6918 123.712 27.2429C124.129 27.794 124.679 28.23 125.31 28.51C126.01 28.83 126.88 28.99 127.94 28.99H128.22C128.72 28.99 129.14 28.96 129.49 28.9C129.84 28.84 130.13 28.76 130.37 28.64C130.718 28.4704 131.019 28.2173 131.246 27.9032C131.473 27.5892 131.618 27.2239 131.67 26.84H131.68C131.75 26.39 131.72 26.01 131.58 25.71C131.45 25.41 131.24 25.19 130.95 25.04C130.746 24.9346 130.526 24.8604 130.3 24.82C130.025 24.7749 129.748 24.7415 129.47 24.72C129.201 24.7224 128.934 24.6643 128.69 24.55C128.49 24.45 128.35 24.32 128.25 24.16C128.15 24.01 128.09 23.83 128.07 23.61C128.05 23.4 128.07 23.18 128.1 22.94L129.64 13.26H131.18C131.66 13.26 132.02 13.24 132.26 13.2C132.49 13.16 132.72 13.1 132.95 12.99C133.276 12.8379 133.558 12.6044 133.768 12.3119C133.979 12.0195 134.11 11.6779 134.15 11.32L134.49 9.38H130.26L130.69 6.69C130.79 6.09 130.84 5.63 130.84 5.32C130.84 5.01 130.8 4.72 130.72 4.44C130.596 4.06841 130.34 3.75529 130 3.56C129.601 3.33535 129.148 3.22466 128.69 3.24H126.16L125.72 5.9ZM30.44 4.75L30.45 4.67L30.44 4.75ZM143.52 8.55C142.87 8.69 142.26 8.87 141.7 9.1C140.685 9.52711 139.744 10.1109 138.91 10.83C137.884 11.7304 137.072 12.8473 136.53 14.1C136.25 14.74 136.02 15.43 135.83 16.18C135.406 17.8176 135.138 19.4918 135.03 21.18C134.98 21.94 134.99 22.63 135.07 23.26C135.183 24.4557 135.649 25.5907 136.41 26.52C137.016 27.2591 137.782 27.8507 138.65 28.25C139.13 28.48 139.68 28.66 140.3 28.8C141.679 29.0801 143.101 29.0801 144.48 28.8C145.14 28.66 145.74 28.48 146.3 28.25C147.33 27.8473 148.279 27.2612 149.1 26.52C150.115 25.6143 150.927 24.503 151.48 23.26C151.75 22.63 151.98 21.94 152.18 21.18C152.37 20.43 152.54 19.59 152.68 18.68C152.83 17.76 152.93 16.92 152.98 16.18C153.02 15.43 153.01 14.74 152.93 14.1C152.793 12.9091 152.333 11.7783 151.6 10.83C151.001 10.0841 150.233 9.49112 149.36 9.1C148.831 8.85783 148.278 8.67343 147.71 8.55C146.331 8.26958 144.909 8.26958 143.53 8.55H143.52ZM140.85 23.55C140.618 23.2987 140.447 22.9976 140.35 22.67C140.25 22.33 140.19 21.95 140.18 21.53C140.16 21.11 140.18 20.66 140.22 20.19C140.329 19.1758 140.489 18.1679 140.7 17.17C140.8 16.69 140.93 16.24 141.09 15.82C141.24 15.4 141.42 15.02 141.63 14.68C141.977 14.125 142.463 13.6705 143.041 13.3618C143.618 13.053 144.266 12.9007 144.92 12.92C145.92 12.92 146.66 13.22 147.16 13.79C147.38 14.05 147.54 14.35 147.64 14.69C147.74 15.02 147.81 15.39 147.82 15.82C147.84 16.24 147.82 16.69 147.78 17.16C147.673 18.1744 147.513 19.1824 147.3 20.18C147.2 20.66 147.07 21.11 146.91 21.53C146.76 21.95 146.58 22.33 146.37 22.67C146.022 23.2231 145.535 23.6756 144.958 23.9826C144.381 24.2896 143.733 24.4403 143.08 24.42C142.08 24.42 141.34 24.14 140.85 23.56V23.55ZM75.87 9.05C74.7057 9.50515 73.6422 10.1847 72.74 11.05C71.82 11.93 71.04 13.01 70.4 14.3C69.7347 15.6839 69.2829 17.1607 69.06 18.68C68.7314 20.3503 68.728 22.0684 69.05 23.74C69.289 24.9232 69.8456 26.019 70.66 26.91C71.4207 27.6937 72.3771 28.2599 73.43 28.55C75.5932 29.1339 77.8671 29.1751 80.05 28.67C80.9748 28.4553 81.8616 28.1012 82.68 27.62C83.2732 27.2761 83.8237 26.8632 84.32 26.39C84.76 25.95 85.02 25.49 85.1 25.02C85.14 24.74 85.12 24.46 85.04 24.21C84.96 23.95 84.84 23.72 84.67 23.53C84.33 23.14 83.57 22.17 83.56 22.17C83.54 22.17 82.25 23.1 81.34 23.67C80.79 24.04 80.19 24.31 79.55 24.49C78.92 24.66 78.28 24.75 77.64 24.75C76.89 24.75 76.25 24.64 75.72 24.41C75.2297 24.2088 74.7968 23.8893 74.46 23.48C74.14 23.08 73.93 22.61 73.83 22.07C73.73 21.52 73.73 20.91 73.83 20.25H83.68C84.05 20.25 84.45 20.23 84.85 20.18C85.25 20.13 85.64 19.94 86.02 19.61C86.36 19.31 86.62 18.97 86.76 18.56C86.91 18.16 87.01 17.76 87.06 17.36C87.23 16.09 87.19 14.9 86.94 13.8C86.7233 12.7654 86.2792 11.7919 85.64 10.95C84.9901 10.1227 84.1447 9.46976 83.18 9.05C82.0494 8.56768 80.8289 8.33243 79.6 8.36C78.28 8.36 77.03 8.59 75.87 9.05ZM74.67 15.66C74.78 15.34 74.95 14.99 75.18 14.62C75.5658 13.9738 76.1163 13.4417 76.7752 13.078C77.434 12.7143 78.1776 12.5321 78.93 12.55C79.8 12.55 80.49 12.74 81 13.12C81.52 13.52 81.86 14.01 82.04 14.62C82.15 14.99 82.21 15.34 82.21 15.66C82.21 15.99 82.19 16.36 82.14 16.81H74.38C74.47 16.37 74.56 15.99 74.68 15.66H74.67ZM62.5 8.52C61.5445 8.76359 60.638 9.16949 59.82 9.72C59.42 9.98 59.09 10.25 58.79 10.54C58.79 10.16 58.74 9.86 58.66 9.63C58.5784 9.39657 58.4451 9.18462 58.27 9.01C57.91 8.62 57.4 8.43 56.73 8.43H54.2C54.2 8.43 53.93 9.83 53.76 11.03L53.62 11.86L51.45 25.47L51.33 26.27C51.3 26.49 51.29 26.68 51.29 26.85C51.2826 27.1462 51.33 27.4411 51.43 27.72C51.55 28.1 51.79 28.39 52.14 28.6C52.49 28.82 52.93 28.92 53.45 28.92C53.98 28.92 54.45 28.82 54.87 28.6C55.29 28.39 55.62 28.1 55.87 27.72C56.04 27.45 56.17 27.16 56.27 26.85C56.37 26.54 56.47 26.08 56.56 25.47L57.97 16.6C58.07 15.97 58.26 15.42 58.53 14.95C58.8 14.47 59.12 14.09 59.48 13.78C60.1787 13.2039 61.0545 12.8861 61.96 12.88C62.3 12.88 62.63 12.93 62.94 13.03C63.25 13.13 63.54 13.25 63.82 13.41C64.45 13.75 65 13.93 65.49 13.93C66.1582 13.9081 66.7994 13.6615 67.31 13.23C67.57 13.01 69.3 11.41 69.3 11.41C69.3 11.41 69 10.76 68.57 10.33C68.13 9.9 67.75 9.53 67.41 9.28C67 8.98 66.53 8.75 66.01 8.59C65.3556 8.41104 64.6782 8.33016 64 8.35C63.5 8.35 62.99 8.41 62.5 8.52ZM113.2 12.48L113.18 12.56V12.49L113.17 12.63L111.12 25.47L111 26.27C110.97 26.49 110.96 26.68 110.96 26.85C110.953 27.1462 111 27.4411 111.1 27.72C111.22 28.1 111.46 28.39 111.8 28.6C112.16 28.82 112.6 28.92 113.12 28.92C113.65 28.92 114.12 28.82 114.54 28.6C114.96 28.39 115.29 28.1 115.54 27.72C115.71 27.45 115.84 27.16 115.94 26.85C116.04 26.54 116.13 26.08 116.23 25.47L118.3 12.46C118.4 11.85 118.45 11.39 118.45 11.08C118.45 10.78 118.41 10.48 118.33 10.21C118.207 9.83795 117.95 9.52456 117.61 9.33C117.212 9.10187 116.759 8.9877 116.3 9H113.74L113.19 12.47L113.2 12.48ZM113.19 12.49V12.48V12.46V12.49Z" fill="#195491"/>
<path fill-rule="evenodd" clip-rule="evenodd" d="M24.25 9H23.64C23.31 9 23.02 9.03 22.78 9.04C22.3867 9.03326 21.9949 9.09068 21.62 9.21C21.45 9.26 21.29 9.31 21.14 9.39C20.7 9.59 20.34 9.73 20.04 10.15C19.74 10.56 19.54 11.05 19.46 11.62L19.03 14.39C19.03 14.39 19.23 14.42 20.56 14.42H21.38C22.04 14.42 22.55 14.36 22.89 14.32C23.24 14.26 23.57 14.17 23.89 14.02C24.32 13.82 24.69 13.52 24.99 13.1C25.29 12.68 25.48 12.19 25.57 11.62L26 9H24.25ZM20.65 16.77H13.45C13.21 16.78 12.99 16.8 12.81 16.83C12.4637 16.8802 12.1267 16.9813 11.81 17.13C11.37 17.33 11.01 17.63 10.71 18.05C10.41 18.47 10.21 18.96 10.13 19.53L9.7 22.22L12.8 22.21H19.78C20.44 22.21 20.95 22.19 21.29 22.14C21.64 22.09 21.97 21.99 22.29 21.84C22.72 21.65 23.09 21.43 23.39 21.01C23.69 20.59 23.88 20.1 23.97 19.53L24.4 16.77H20.65ZM19.05 24.58H4.6L3.73 24.59C3.49 24.6 3.28 24.62 3.09 24.65C2.9 24.68 2.73 24.71 2.57 24.77C2.41 24.81 2.25 24.87 2.1 24.95C1.66 25.15 1.3 25.45 1 25.87C0.7 26.29 0.5 26.78 0.42 27.35L0 29.99L3.75 30H18.18C18.84 30 19.35 29.97 19.69 29.93C20.04 29.88 20.37 29.89 20.69 29.75C21.12 29.55 21.49 29.25 21.79 28.83C22.09 28.41 22.28 27.92 22.37 27.35L22.8 24.58H19.04" fill="#89CAEA"/>
</svg>
