<svg width="145" height="56" viewBox="0 0 145 56" fill="none" xmlns="http://www.w3.org/2000/svg">
    <path d="M37.0732 7.01737C37.1162 6.91096 37.1859 6.81491 37.2823 6.72919C37.3788 6.64347 37.4485 6.60062 37.4915 6.60062C37.5345 6.60062 37.5716 6.60653 37.6042 6.61687C37.6368 6.62722 37.6532 6.68633 37.6532 6.79274C37.6532 6.92131 37.6428 7.01737 37.6205 7.08092L35.1123 17.6846H40.1288L43.1828 3.3641C43.2036 3.2577 43.2199 3.14538 43.2318 3.02715C43.2422 2.9104 43.2481 2.79809 43.2481 2.6902C43.2481 2.30596 43.1517 1.98083 42.9589 1.71334C42.766 1.44585 42.5139 1.22269 42.2039 1.04091C41.8924 0.859135 41.5394 0.726129 41.1433 0.640414C40.7458 0.554698 40.3335 0.511841 39.9048 0.511841C38.9407 0.511841 38.1248 0.667014 37.4618 0.975886C36.7973 1.28624 36.2084 1.87886 35.6937 2.75375L30.3569 11.8204C30.2501 11.9918 30.1374 12.1514 30.0187 12.3007C29.9 12.45 29.7888 12.5253 29.6805 12.5253C29.5737 12.5253 29.4877 12.4515 29.4239 12.3007C29.3601 12.1514 29.3052 11.9918 29.2637 11.8204L27.7849 2.75375C27.6351 1.87886 27.2909 1.28624 26.7555 0.975886C26.22 0.667014 25.4798 0.511841 24.5365 0.511841C23.5723 0.511841 22.6883 0.736473 21.8844 1.18426C21.0804 1.63353 20.5717 2.35916 20.3566 3.36263L17.3025 17.6831H22.319L24.3763 6.98338C24.397 6.91983 24.4297 6.84446 24.4727 6.75874C24.5157 6.67303 24.5795 6.63017 24.6655 6.63017C24.7293 6.63017 24.7782 6.67303 24.8109 6.75874C24.8435 6.84446 24.8702 6.94052 24.891 7.04693L26.4351 16.3382C26.5419 16.8939 26.7733 17.2885 27.1263 17.5235C27.4793 17.7584 27.9999 17.8752 28.6852 17.8752C29.3497 17.8752 29.9178 17.757 30.3895 17.5235C30.8612 17.2885 31.2572 16.8939 31.5791 16.3382L37.0732 7.01737ZM60.9793 17.686L64.0022 3.52519C64.023 3.41878 64.0393 3.31238 64.0512 3.2045C64.0616 3.09809 64.0675 2.99168 64.0675 2.8838C64.0675 2.26458 63.8747 1.71481 63.489 1.23451C63.1034 0.754207 62.47 0.51332 61.5919 0.51332C60.7553 0.51332 59.9736 0.615292 59.2453 0.817758C58.517 1.0217 57.9059 1.43255 57.412 2.05177L49.8235 11.1495C49.7167 11.2573 49.6188 11.3637 49.5343 11.4702C49.4482 11.578 49.3414 11.6298 49.2124 11.6298C49.0834 11.6298 49.0196 11.5662 49.0196 11.4376C49.0196 11.3312 49.03 11.2352 49.0522 11.1495L51.4952 0.70544H46.4787L43.4246 15.0894C43.4024 15.1958 43.3875 15.2978 43.3757 15.3939C43.3653 15.4899 43.3594 15.5919 43.3594 15.6983C43.3594 16.3397 43.5789 16.8629 44.0179 17.2678C44.457 17.6742 45.0636 17.8767 45.835 17.8767C46.6715 17.8767 47.4532 17.7806 48.1815 17.5885C48.9098 17.3964 49.5966 16.9161 50.2388 16.1476L57.6983 7.24201C57.8703 7.07058 57.992 6.94791 58.0676 6.87402C58.1418 6.80012 58.2234 6.7617 58.3094 6.7617C58.4162 6.7617 58.4696 6.82525 58.4696 6.95382C58.4696 6.99668 58.4696 7.04545 58.4696 7.09865C58.4696 7.15186 58.4592 7.20062 58.4369 7.24348L55.9613 17.6875H60.9793V17.686ZM63.664 17.686H68.6805L71.2852 5.48335C71.435 4.73408 71.8963 4.36018 72.6676 4.36018H83.0891L83.8604 0.708394H70.5124C69.3109 0.708394 68.4224 0.964065 67.8439 1.47688C67.2655 1.9897 66.8576 2.80104 66.6217 3.91239L63.664 17.686Z"
          fill="#32E17D"/>
    <path d="M16.2642 7.95729C16.1367 7.66911 15.975 7.34546 15.7836 6.98338L12.5441 0.752731H7.38082L10.8651 6.97156H0.799493L0 10.7091H9.90983L3.11638 17.686H9.08067L15.1087 11.1036C15.4291 10.7416 15.7347 10.3692 16.0224 9.98491C16.3117 9.60214 16.4556 9.20756 16.4556 8.80262C16.4571 8.52774 16.3933 8.24399 16.2642 7.95729Z"
          fill="#6E50E1"/>
    <path d="M145 30.304H134.994L141.464 23.4482H135.857L130.537 29.4483C130.069 29.9567 129.687 30.4163 129.39 30.8286C129.092 31.2409 128.943 31.6917 128.943 32.1779C128.943 32.4114 128.985 32.6272 129.071 32.8282C129.156 33.0292 129.283 33.2878 129.454 33.6055L133.214 40.2721H138.534L134.799 34.0178H144.214L145 30.304Z"
          fill="#32E17D"/>
    <path d="M17.3915 40.179H12.4611L16.0328 23.4896H20.9632L17.3915 40.179ZM30.1596 40.179H24.4712L20.5835 33.9439C20.1193 33.2301 19.8879 32.5799 19.8879 31.9917C19.8879 31.2365 20.4144 30.3335 21.4676 29.2842L27.3458 23.491H33.0669L26.0509 30.3557C26.0079 30.3985 25.913 30.4872 25.7661 30.6232C25.6178 30.7606 25.5184 30.8537 25.4665 30.9069C25.4131 30.9601 25.3345 31.0444 25.2292 31.1582C25.1239 31.2734 25.0497 31.3739 25.0082 31.4567C24.9652 31.5409 24.9236 31.6414 24.8821 31.7552C24.8391 31.8705 24.8183 31.9813 24.8183 32.0863C24.8183 32.4646 24.9548 32.8414 25.2292 33.2198L30.1596 40.179Z"
          fill="#6E50E1"/>
    <path d="M37.9246 23.4896H44.1826C46.3526 23.4896 47.8597 24.0142 48.7022 25.0635C49.5447 26.1128 49.9659 27.6246 49.9659 29.5976C49.9659 30.27 49.8502 31.2247 49.6188 32.4631C49.0492 35.2548 48.1489 37.2396 46.9163 38.4144C45.6837 39.5908 43.6872 40.1775 40.9268 40.1775H36.1224L34.9847 45.5303H30.0854L34.0992 26.6374C34.5635 24.5388 35.8376 23.4896 37.9246 23.4896ZM38.6826 28.3074L36.913 36.5568H40.3898C41.6744 36.5568 42.6177 36.1371 43.2185 35.2976C43.8192 34.4582 44.2775 33.304 44.5935 31.8335C44.8041 30.8892 44.9094 30.1118 44.9094 29.503C44.9094 28.7271 44.7195 28.133 44.3398 27.7236C43.9601 27.3143 43.2971 27.1103 42.3492 27.1103H40.2C39.7357 27.1103 39.3886 27.2005 39.1572 27.3778C38.9243 27.5566 38.7671 27.867 38.6826 28.3074Z"
          fill="#6E50E1"/>
    <path d="M66.2702 40.179H56.7891C54.7866 40.179 53.3226 39.7652 52.3956 38.9347C51.4685 38.1056 51.0043 36.8198 51.0043 35.0774C51.0043 33.9026 51.1941 32.4853 51.5738 30.8271C51.8898 29.4631 52.2324 28.3443 52.6003 27.4739C52.9681 26.6034 53.3909 25.8837 53.864 25.3162C54.3387 24.7487 54.9543 24.3246 55.7122 24.0408C56.4702 23.7571 57.2875 23.5635 58.1611 23.4585C59.0348 23.3536 60.1784 23.3004 61.5905 23.3004C64.1195 23.3004 66.0359 23.6728 67.3426 24.4177C68.6494 25.1625 69.3021 26.4704 69.3021 28.3384C69.3021 28.9266 69.1968 29.6921 68.9861 30.6365C68.7755 31.6237 68.4121 32.3419 67.8959 32.7942C67.3797 33.2464 66.6262 33.471 65.6369 33.471H56.1869C56.1023 33.87 56.0608 34.2691 56.0608 34.6681C56.0608 35.3405 56.2714 35.8386 56.6927 36.1637C57.1139 36.4888 57.8407 36.6514 58.8731 36.6514H67.0267L66.2702 40.179ZM56.9152 30.0705H63.0471C63.6582 30.0705 64.0379 29.735 64.1847 29.0626C64.2263 28.8527 64.2485 28.7064 64.2485 28.6222C64.2485 27.9926 63.943 27.5359 63.3318 27.2522C62.7207 26.9684 61.9939 26.8266 61.1514 26.8266C59.8669 26.8266 58.9072 27.063 58.2753 27.5345C57.642 28.0074 57.1881 28.8527 56.9152 30.0705Z"
          fill="#6E50E1"/>
    <path d="M67.6289 40.179L68.3869 36.5583H70.0615L77.4883 25.2216C78.31 23.9418 79.6895 23.3004 81.6282 23.3004C83.5238 23.3004 84.6095 23.9403 84.884 25.2216L87.4441 36.5583H89.6142L88.8562 40.179H67.6289ZM80.3332 28.0236L75.0557 36.7149H83.0195L81.4709 28.0236C81.4071 27.6675 81.2707 27.4887 81.0601 27.4887C80.7649 27.4887 80.5231 27.6675 80.3332 28.0236Z"
          fill="#6E50E1"/>
    <path d="M107.87 40.179H102.94L105.374 29.9138C105.395 29.8503 105.405 29.7557 105.405 29.6301C105.405 29.5044 105.352 29.4409 105.246 29.4409C105.162 29.4409 104.962 29.599 104.646 29.9138L97.3138 38.6672C96.7442 39.3603 96.1227 39.8169 95.4493 40.0371C94.7744 40.2573 93.9527 40.3682 92.9841 40.3682C92.2261 40.3682 91.6299 40.1687 91.1982 39.7696C90.7666 39.3706 90.55 38.8563 90.55 38.2268C90.55 38.1218 90.5708 37.9223 90.6138 37.6282L93.616 23.4896H98.5464L96.145 33.7548C96.1242 33.839 96.1138 33.9336 96.1138 34.0385C96.1138 34.1641 96.1776 34.2277 96.3037 34.2277C96.3882 34.2277 96.4624 34.207 96.5247 34.1641C96.5885 34.1228 96.6612 34.0489 96.7457 33.9439C96.8303 33.839 96.8822 33.7755 96.9044 33.7548L104.362 24.8123C105.184 23.8044 106.553 23.3004 108.471 23.3004C109.272 23.3004 109.877 23.5265 110.288 23.9773C110.699 24.4295 110.905 24.9807 110.905 25.631C110.905 25.7566 110.884 25.9665 110.841 26.2606L107.87 40.179Z"
          fill="#6E50E1"/>
    <path d="M120.297 40.179H115.367L118.179 27.1118H111.921L112.679 23.491H130.124L129.366 27.1118H123.108L120.297 40.179Z"
          fill="#6E50E1"/>
    <path d="M106.043 46.3254C105.456 46.0698 104.729 45.9412 103.864 45.9412H100.371V53.9719H103.864C104.729 53.9719 105.454 53.8418 106.043 53.5817C106.63 53.3216 107.077 52.8975 107.381 52.3078C107.685 51.7181 107.836 50.9349 107.836 49.9565C107.836 48.9634 107.685 48.1742 107.381 47.5875C107.077 47.0023 106.632 46.5811 106.043 46.3254ZM106.037 50.3748C106.037 50.895 105.954 51.3103 105.786 51.6206C105.619 51.931 105.37 52.1541 105.039 52.2901C104.708 52.426 104.305 52.494 103.83 52.494H102.136V47.4191H103.83C104.554 47.4191 105.103 47.5757 105.476 47.8905C105.85 48.2053 106.037 48.7343 106.037 49.4792V50.3748Z"
          fill="#6E50E1"/>
    <path d="M114.028 48.6117C113.505 48.158 112.746 47.9304 111.749 47.9304C110.76 47.9304 110.006 48.1683 109.489 48.6457C108.971 49.123 108.711 49.924 108.711 51.0487C108.711 52.1511 108.97 52.9388 109.489 53.4118C110.006 53.8847 110.76 54.1211 111.749 54.1211C112.629 54.1211 113.326 53.9556 113.841 53.626C114.355 53.2965 114.665 52.7896 114.775 52.1068H113.105C113.097 52.1068 113.092 52.1127 113.09 52.1201C113.026 52.4083 112.89 52.6241 112.678 52.7645C112.464 52.9078 112.154 52.9802 111.749 52.9802C111.313 52.9802 110.976 52.8679 110.739 52.6433C110.502 52.4186 110.383 52.0344 110.383 51.4905V51.1994H113.129H114.566H114.811V50.8506C114.811 49.8132 114.55 49.0654 114.028 48.6117ZM110.739 49.3683C110.976 49.1703 111.313 49.0713 111.749 49.0713C112.209 49.0713 112.553 49.1703 112.783 49.3683C113 49.5546 113.112 49.8634 113.126 50.2935H110.385C110.395 49.8664 110.512 49.5575 110.739 49.3683Z"
          fill="#6E50E1"/>
    <path d="M121.348 48.4669C120.962 48.1107 120.407 47.9319 119.683 47.9319C119.255 47.9319 118.872 47.9998 118.532 48.1358C118.194 48.2718 117.924 48.4875 117.727 48.7816C117.685 48.8437 117.648 48.9102 117.616 48.9797V48.0826H115.957V53.9719H117.663V50.2595C117.663 49.8398 117.783 49.5472 118.025 49.3802C118.267 49.2132 118.586 49.1304 118.983 49.1304C119.256 49.1304 119.483 49.1629 119.667 49.2294C119.849 49.2959 119.989 49.4097 120.082 49.5723C120.176 49.7349 120.223 49.961 120.223 50.2477V53.9719H121.929V50.1886C121.925 49.3979 121.732 48.823 121.348 48.4669Z"
          fill="#6E50E1"/>
    <path d="M127.521 48.0826V51.8068C127.521 52.2265 127.396 52.5162 127.147 52.6802C126.898 52.8428 126.579 52.9241 126.189 52.9241C125.924 52.9241 125.7 52.893 125.517 52.831C125.335 52.7689 125.195 52.6566 125.102 52.494C125.008 52.3315 124.961 52.1024 124.961 51.8068V48.0826H123.267V51.8541C123.267 52.6847 123.46 53.2699 123.845 53.6113C124.231 53.9527 124.778 54.1241 125.487 54.1241C125.924 54.1241 126.312 54.0546 126.656 53.9142C126.999 53.7738 127.267 53.5581 127.462 53.2625C127.496 53.2108 127.527 53.1531 127.555 53.0955V53.9719H129.213V48.0826H127.521Z"
          fill="#6E50E1"/>
    <path d="M141.893 52.2694H140.184V53.9719H141.893V52.2694Z" fill="#6E50E1"/>
    <path d="M139.663 48.4728C139.316 48.1122 138.812 47.9319 138.15 47.9319C137.722 47.9319 137.34 48.0013 137.005 48.1417C136.67 48.2821 136.406 48.5008 136.21 48.7994C136.167 48.8659 136.128 48.9383 136.094 49.0137C136.01 48.7949 135.897 48.6132 135.755 48.4683C135.405 48.1122 134.897 47.9333 134.236 47.9333C133.846 47.9333 133.494 48.0028 133.178 48.1432C132.862 48.2836 132.61 48.5023 132.419 48.8008C132.386 48.8511 132.358 48.9058 132.331 48.9605V48.0856H130.673V53.9748H132.379V50.2506C132.379 49.8309 132.484 49.5413 132.695 49.3772C132.905 49.2146 133.181 49.1334 133.524 49.1334C133.758 49.1334 133.953 49.1659 134.108 49.2324C134.264 49.2989 134.381 49.4112 134.458 49.5693C134.535 49.7289 134.575 49.9551 134.575 50.2506V53.9748H136.281V50.2624C136.281 49.9757 136.33 49.7496 136.427 49.5871C136.525 49.4245 136.658 49.3077 136.83 49.2383C137.001 49.1688 137.199 49.1334 137.426 49.1334C137.659 49.1334 137.852 49.1659 138.005 49.2324C138.156 49.2989 138.273 49.4112 138.355 49.5693C138.436 49.7289 138.478 49.9551 138.478 50.2506V52.2723H140.184V50.2033C140.184 49.4097 140.01 48.8334 139.663 48.4728Z"
          fill="#6E50E1"/>
    <path d="M89.5325 48.0427V52.8871L89.4999 52.9507V53.8876H88.4393V48.0427H89.5325ZM89.6289 50.2403C89.9286 49.9122 90.3632 49.7482 90.9313 49.7482C91.5097 49.7482 91.9592 49.9122 92.281 50.2403C92.6029 50.5684 92.7631 51.1137 92.7631 51.8777C92.7631 52.6359 92.6029 53.1768 92.281 53.5034C91.9592 53.8285 91.5097 53.9911 90.9313 53.9911C90.3632 53.9911 89.93 53.8285 89.6289 53.5034C89.3293 53.1783 89.1795 52.6359 89.1795 51.8777C89.1795 51.1137 89.3293 50.5684 89.6289 50.2403ZM91.6551 51.5408C91.6551 51.1728 91.5646 50.9097 91.3822 50.7516C91.1997 50.595 90.9372 50.5152 90.5946 50.5152C90.2415 50.5152 89.976 50.5935 89.7995 50.7516C89.623 50.9097 89.534 51.1713 89.534 51.5408V52.197C89.534 52.5605 89.623 52.8221 89.8025 52.9861C89.982 53.1487 90.246 53.23 90.5946 53.23C90.9431 53.23 91.2071 53.1487 91.3866 52.9861C91.5661 52.8236 91.6551 52.5605 91.6551 52.197V51.5408Z"
          fill="#6E50E1"/>
    <path d="M94.1054 49.8516L95.4879 53.199L94.7967 54.096L92.9885 49.8531H94.1054V49.8516ZM93.8562 54.6635C94.0224 54.6635 94.1544 54.6487 94.2538 54.6192C94.3532 54.5896 94.4362 54.5349 94.503 54.4551C94.5697 54.3753 94.635 54.2556 94.7002 54.0945L96.4119 49.8516H97.4087L95.5769 54.3591C95.4641 54.6473 95.3395 54.8748 95.2031 55.0389C95.0666 55.2044 94.9034 55.3197 94.7121 55.3877C94.5222 55.4542 94.2879 55.4882 94.009 55.4882H93.4543V54.6635H93.8562Z"
          fill="#6E50E1"/>
</svg>
