<svg width="112" height="40" fill="none" xmlns="http://www.w3.org/2000/svg"><g clip-path="url(#a)"><path d="M20.72 38.889c10.207 0 18.48-8.208 18.48-18.334 0-10.125-8.274-18.333-18.48-18.333-10.206 0-18.48 8.208-18.48 18.333 0 10.126 8.274 18.334 18.48 18.334Z" fill="#AE0F0A"/><path d="M20.72 38.889c10.207 0 18.48-8.208 18.48-18.334 0-10.125-8.274-18.333-18.48-18.333-10.206 0-18.48 8.208-18.48 18.333 0 10.126 8.274 18.334 18.48 18.334Z" fill="#AF0F0A"/><path d="M20.72 38.889c10.207 0 18.48-8.208 18.48-18.334 0-10.125-8.274-18.333-18.48-18.333-10.206 0-18.48 8.208-18.48 18.333 0 10.126 8.274 18.334 18.48 18.334Z" fill="#AF0F0A"/><path d="M20.72 38.889c10.207 0 18.48-8.208 18.48-18.334 0-10.125-8.274-18.333-18.48-18.333-10.206 0-18.48 8.208-18.48 18.333 0 10.126 8.274 18.334 18.48 18.334Z" fill="#B00F0A"/><path d="M20.72 38.889c10.207 0 18.48-8.208 18.48-18.334 0-10.125-8.274-18.333-18.48-18.333-10.206 0-18.48 8.208-18.48 18.333 0 10.126 8.274 18.334 18.48 18.334Z" fill="#B10F0A"/><path d="M20.72 38.889c10.207 0 18.48-8.208 18.48-18.334 0-10.125-8.274-18.333-18.48-18.333-10.206 0-18.48 8.208-18.48 18.333 0 10.126 8.274 18.334 18.48 18.334Z" fill="#B20F0B"/><path d="M20.72 38.889c10.207 0 18.48-8.208 18.48-18.334 0-10.125-8.274-18.333-18.48-18.333-10.206 0-18.48 8.208-18.48 18.333 0 10.126 8.274 18.334 18.48 18.334Z" fill="#B20F0B"/><path d="M20.72 38.889c10.207 0 18.48-8.208 18.48-18.334 0-10.125-8.274-18.333-18.48-18.333-10.206 0-18.48 8.208-18.48 18.333 0 10.126 8.274 18.334 18.48 18.334Z" fill="#B30F0B"/><path d="M20.72 38.889c10.207 0 18.48-8.208 18.48-18.334 0-10.125-8.274-18.333-18.48-18.333-10.206 0-18.48 8.208-18.48 18.333 0 10.126 8.274 18.334 18.48 18.334Z" fill="#B40E0B"/><path d="M20.72 38.889c10.207 0 18.48-8.208 18.48-18.334 0-10.125-8.274-18.333-18.48-18.333-10.206 0-18.48 8.208-18.48 18.333 0 10.126 8.274 18.334 18.48 18.334Z" fill="#B40E0B"/><path d="M20.16 37.778c9.897 0 17.92-7.96 17.92-17.778 0-9.819-8.023-17.778-17.92-17.778-9.897 0-17.92 7.96-17.92 17.778 0 9.818 8.023 17.778 17.92 17.778Z" fill="#B50E0B"/><path d="M20.16 37.778c9.897 0 17.92-7.96 17.92-17.778 0-9.819-8.023-17.778-17.92-17.778-9.897 0-17.92 7.96-17.92 17.778 0 9.818 8.023 17.778 17.92 17.778Z" fill="#B60E0B"/><path d="M20.16 37.778c9.897 0 17.92-7.96 17.92-17.778 0-9.819-8.023-17.778-17.92-17.778-9.897 0-17.92 7.96-17.92 17.778 0 9.818 8.023 17.778 17.92 17.778Z" fill="#B70E0C"/><path d="M20.16 37.778c9.897 0 17.92-7.96 17.92-17.778 0-9.819-8.023-17.778-17.92-17.778-9.897 0-17.92 7.96-17.92 17.778 0 9.818 8.023 17.778 17.92 17.778Z" fill="#B70E0C"/><path d="M20.16 37.778c9.897 0 17.92-7.96 17.92-17.778 0-9.819-8.023-17.778-17.92-17.778-9.897 0-17.92 7.96-17.92 17.778 0 9.818 8.023 17.778 17.92 17.778Z" fill="#B80E0C"/><path d="M20.16 37.778c9.897 0 17.92-7.96 17.92-17.778 0-9.819-8.023-17.778-17.92-17.778-9.897 0-17.92 7.96-17.92 17.778 0 9.818 8.023 17.778 17.92 17.778Z" fill="#B90E0C"/><path d="M20.16 37.778c9.897 0 17.92-7.96 17.92-17.778 0-9.819-8.023-17.778-17.92-17.778-9.897 0-17.92 7.96-17.92 17.778 0 9.818 8.023 17.778 17.92 17.778Z" fill="#BA0E0C"/><path d="M20.16 37.778c9.897 0 17.92-7.96 17.92-17.778 0-9.819-8.023-17.778-17.92-17.778-9.897 0-17.92 7.96-17.92 17.778 0 9.818 8.023 17.778 17.92 17.778Z" fill="#BA0E0C"/><path d="M20.16 37.778c9.897 0 17.92-7.96 17.92-17.778 0-9.819-8.023-17.778-17.92-17.778-9.897 0-17.92 7.96-17.92 17.778 0 9.818 8.023 17.778 17.92 17.778Z" fill="#BB0E0C"/><path d="M20.16 37.778c9.897 0 17.92-7.96 17.92-17.778 0-9.819-8.023-17.778-17.92-17.778-9.897 0-17.92 7.96-17.92 17.778 0 9.818 8.023 17.778 17.92 17.778Z" fill="#BC0E0D"/><path d="M21.28 38.889c9.897 0 17.92-7.96 17.92-17.778 0-9.818-8.023-17.778-17.92-17.778-9.897 0-17.92 7.96-17.92 17.778 0 9.819 8.023 17.778 17.92 17.778Z" fill="#BC0E0D"/><path d="M21.28 38.889c9.897 0 17.92-7.96 17.92-17.778 0-9.818-8.023-17.778-17.92-17.778-9.897 0-17.92 7.96-17.92 17.778 0 9.819 8.023 17.778 17.92 17.778Z" fill="#BD0E0D"/><path d="M21.28 38.889c9.897 0 17.92-7.96 17.92-17.778 0-9.818-8.023-17.778-17.92-17.778-9.897 0-17.92 7.96-17.92 17.778 0 9.819 8.023 17.778 17.92 17.778Z" fill="#BE0D0D"/><path d="M21.28 38.889c9.897 0 17.92-7.96 17.92-17.778 0-9.818-8.023-17.778-17.92-17.778-9.897 0-17.92 7.96-17.92 17.778 0 9.819 8.023 17.778 17.92 17.778Z" fill="#BF0D0D"/><path d="M21.28 38.889c9.897 0 17.92-7.96 17.92-17.778 0-9.818-8.023-17.778-17.92-17.778-9.897 0-17.92 7.96-17.92 17.778 0 9.819 8.023 17.778 17.92 17.778Z" fill="#BF0D0D"/><path d="M21.28 38.889c9.897 0 17.92-7.96 17.92-17.778 0-9.818-8.023-17.778-17.92-17.778-9.897 0-17.92 7.96-17.92 17.778 0 9.819 8.023 17.778 17.92 17.778Z" fill="#C00D0D"/><path d="M21.28 38.889c9.897 0 17.92-7.96 17.92-17.778 0-9.818-8.023-17.778-17.92-17.778-9.897 0-17.92 7.96-17.92 17.778 0 9.819 8.023 17.778 17.92 17.778Z" fill="#C10D0E"/><path d="M21.28 38.889c9.897 0 17.92-7.96 17.92-17.778 0-9.818-8.023-17.778-17.92-17.778-9.897 0-17.92 7.96-17.92 17.778 0 9.819 8.023 17.778 17.92 17.778Z" fill="#C10D0E"/><path d="M21.28 38.889c9.897 0 17.92-7.96 17.92-17.778 0-9.818-8.023-17.778-17.92-17.778-9.897 0-17.92 7.96-17.92 17.778 0 9.819 8.023 17.778 17.92 17.778Z" fill="#C20D0E"/><path d="M21.28 38.889c9.897 0 17.92-7.96 17.92-17.778 0-9.818-8.023-17.778-17.92-17.778-9.897 0-17.92 7.96-17.92 17.778 0 9.819 8.023 17.778 17.92 17.778Z" fill="#C30D0E"/><path d="M20.72 37.778c9.588 0 17.36-7.71 17.36-17.223 0-9.511-7.772-17.222-17.36-17.222-9.587 0-17.36 7.71-17.36 17.222s7.773 17.223 17.36 17.223Z" fill="#C40D0E"/><path d="M20.72 37.778c9.588 0 17.36-7.71 17.36-17.223 0-9.511-7.772-17.222-17.36-17.222-9.587 0-17.36 7.71-17.36 17.222s7.773 17.223 17.36 17.223Z" fill="#C40D0E"/><path d="M20.72 37.778c9.588 0 17.36-7.71 17.36-17.223 0-9.511-7.772-17.222-17.36-17.222-9.587 0-17.36 7.71-17.36 17.222s7.773 17.223 17.36 17.223Z" fill="#C50D0E"/><path d="M20.72 37.778c9.588 0 17.36-7.71 17.36-17.223 0-9.511-7.772-17.222-17.36-17.222-9.587 0-17.36 7.71-17.36 17.222s7.773 17.223 17.36 17.223Z" fill="#C60C0E"/><path d="M20.72 37.778c9.588 0 17.36-7.71 17.36-17.223 0-9.511-7.772-17.222-17.36-17.222-9.587 0-17.36 7.71-17.36 17.222s7.773 17.223 17.36 17.223Z" fill="#C60C0F"/><path d="M20.72 37.778c9.588 0 17.36-7.71 17.36-17.223 0-9.511-7.772-17.222-17.36-17.222-9.587 0-17.36 7.71-17.36 17.222s7.773 17.223 17.36 17.223Z" fill="#C70C0F"/><path d="M20.72 37.778c9.588 0 17.36-7.71 17.36-17.223 0-9.511-7.772-17.222-17.36-17.222-9.587 0-17.36 7.71-17.36 17.222s7.773 17.223 17.36 17.223Z" fill="#C80C0F"/><path d="M20.72 37.778c9.588 0 17.36-7.71 17.36-17.223 0-9.511-7.772-17.222-17.36-17.222-9.587 0-17.36 7.71-17.36 17.222s7.773 17.223 17.36 17.223Z" fill="#C80C0F"/><path d="M20.72 37.778c9.588 0 17.36-7.71 17.36-17.223 0-9.511-7.772-17.222-17.36-17.222-9.587 0-17.36 7.71-17.36 17.222s7.773 17.223 17.36 17.223Z" fill="#C90C0F"/><path d="M20.72 37.778c9.588 0 17.36-7.71 17.36-17.223 0-9.511-7.772-17.222-17.36-17.222-9.587 0-17.36 7.71-17.36 17.222s7.773 17.223 17.36 17.223Z" fill="#CA0C0F"/><path d="M20.72 37.778c9.588 0 17.36-7.71 17.36-17.223 0-9.511-7.772-17.222-17.36-17.222-9.587 0-17.36 7.71-17.36 17.222s7.773 17.223 17.36 17.223Z" fill="#CA0C0F"/><path d="M20.72 37.778c9.588 0 17.36-7.71 17.36-17.223 0-9.511-7.772-17.222-17.36-17.222-9.587 0-17.36 7.71-17.36 17.222s7.773 17.223 17.36 17.223Z" fill="#CB0B0F"/><path d="M20.72 37.778c9.588 0 17.36-7.71 17.36-17.223 0-9.511-7.772-17.222-17.36-17.222-9.587 0-17.36 7.71-17.36 17.222s7.773 17.223 17.36 17.223Z" fill="#CC0B0F"/><path d="M20.72 37.778c9.588 0 17.36-7.71 17.36-17.223 0-9.511-7.772-17.222-17.36-17.222-9.587 0-17.36 7.71-17.36 17.222s7.773 17.223 17.36 17.223Z" fill="#CC0B10"/><path d="M20.72 37.778c9.588 0 17.36-7.71 17.36-17.223 0-9.511-7.772-17.222-17.36-17.222-9.587 0-17.36 7.71-17.36 17.222s7.773 17.223 17.36 17.223Z" fill="#CD0B10"/><path d="M20.72 37.778c9.588 0 17.36-7.71 17.36-17.223 0-9.511-7.772-17.222-17.36-17.222-9.587 0-17.36 7.71-17.36 17.222s7.773 17.223 17.36 17.223Z" fill="#CE0B10"/><path d="M20.72 37.778c9.588 0 17.36-7.71 17.36-17.223 0-9.511-7.772-17.222-17.36-17.222-9.587 0-17.36 7.71-17.36 17.222s7.773 17.223 17.36 17.223Z" fill="#CE0B10"/><path d="M20.72 37.778c9.588 0 17.36-7.71 17.36-17.223 0-9.511-7.772-17.222-17.36-17.222-9.587 0-17.36 7.71-17.36 17.222s7.773 17.223 17.36 17.223Z" fill="#CF0B10"/><path d="M20.72 37.778c9.588 0 17.36-7.71 17.36-17.223 0-9.511-7.772-17.222-17.36-17.222-9.587 0-17.36 7.71-17.36 17.222s7.773 17.223 17.36 17.223Z" fill="#D00B10"/><path d="M20.16 36.667c9.279 0 16.8-7.462 16.8-16.667 0-9.205-7.521-16.667-16.8-16.667-9.278 0-16.8 7.462-16.8 16.667 0 9.205 7.522 16.667 16.8 16.667Z" fill="#D10A10"/><path d="M20.16 36.667c9.279 0 16.8-7.462 16.8-16.667 0-9.205-7.521-16.667-16.8-16.667-9.278 0-16.8 7.462-16.8 16.667 0 9.205 7.522 16.667 16.8 16.667Z" fill="#D10A10"/><path d="M20.16 36.667c9.279 0 16.8-7.462 16.8-16.667 0-9.205-7.521-16.667-16.8-16.667-9.278 0-16.8 7.462-16.8 16.667 0 9.205 7.522 16.667 16.8 16.667Z" fill="#D20A11"/><path d="M20.16 36.667c9.279 0 16.8-7.462 16.8-16.667 0-9.205-7.521-16.667-16.8-16.667-9.278 0-16.8 7.462-16.8 16.667 0 9.205 7.522 16.667 16.8 16.667Z" fill="#D30A11"/><path d="M20.16 36.667c9.279 0 16.8-7.462 16.8-16.667 0-9.205-7.521-16.667-16.8-16.667-9.278 0-16.8 7.462-16.8 16.667 0 9.205 7.522 16.667 16.8 16.667Z" fill="#D30A11"/><path d="M20.16 36.667c9.279 0 16.8-7.462 16.8-16.667 0-9.205-7.521-16.667-16.8-16.667-9.278 0-16.8 7.462-16.8 16.667 0 9.205 7.522 16.667 16.8 16.667Z" fill="#D40A11"/><path d="M20.16 36.667c9.279 0 16.8-7.462 16.8-16.667 0-9.205-7.521-16.667-16.8-16.667-9.278 0-16.8 7.462-16.8 16.667 0 9.205 7.522 16.667 16.8 16.667Z" fill="#D50911"/><path d="M20.16 36.667c9.279 0 16.8-7.462 16.8-16.667 0-9.205-7.521-16.667-16.8-16.667-9.278 0-16.8 7.462-16.8 16.667 0 9.205 7.522 16.667 16.8 16.667Z" fill="#D50911"/><path d="M20.16 36.667c9.279 0 16.8-7.462 16.8-16.667 0-9.205-7.521-16.667-16.8-16.667-9.278 0-16.8 7.462-16.8 16.667 0 9.205 7.522 16.667 16.8 16.667Z" fill="#D60911"/><path d="M20.16 36.667c9.279 0 16.8-7.462 16.8-16.667 0-9.205-7.521-16.667-16.8-16.667-9.278 0-16.8 7.462-16.8 16.667 0 9.205 7.522 16.667 16.8 16.667Z" fill="#D70911"/><path d="M21.28 37.778c9.279 0 16.8-7.462 16.8-16.667 0-9.205-7.521-16.667-16.8-16.667-9.278 0-16.8 7.462-16.8 16.667 0 9.205 7.522 16.667 16.8 16.667Z" fill="#D80912"/><path d="M21.28 37.778c9.279 0 16.8-7.462 16.8-16.667 0-9.205-7.521-16.667-16.8-16.667-9.278 0-16.8 7.462-16.8 16.667 0 9.205 7.522 16.667 16.8 16.667Z" fill="#D80912"/><path d="M21.28 37.778c9.279 0 16.8-7.462 16.8-16.667 0-9.205-7.521-16.667-16.8-16.667-9.278 0-16.8 7.462-16.8 16.667 0 9.205 7.522 16.667 16.8 16.667Z" fill="#D90812"/><path d="M21.28 37.778c9.279 0 16.8-7.462 16.8-16.667 0-9.205-7.521-16.667-16.8-16.667-9.278 0-16.8 7.462-16.8 16.667 0 9.205 7.522 16.667 16.8 16.667Z" fill="#DA0812"/><path d="M21.28 37.778c9.279 0 16.8-7.462 16.8-16.667 0-9.205-7.521-16.667-16.8-16.667-9.278 0-16.8 7.462-16.8 16.667 0 9.205 7.522 16.667 16.8 16.667Z" fill="#DA0812"/><path d="M21.28 37.778c9.279 0 16.8-7.462 16.8-16.667 0-9.205-7.521-16.667-16.8-16.667-9.278 0-16.8 7.462-16.8 16.667 0 9.205 7.522 16.667 16.8 16.667Z" fill="#DB0812"/><path d="M21.28 37.778c9.279 0 16.8-7.462 16.8-16.667 0-9.205-7.521-16.667-16.8-16.667-9.278 0-16.8 7.462-16.8 16.667 0 9.205 7.522 16.667 16.8 16.667Z" fill="#DC0812"/><path d="M21.28 37.778c9.279 0 16.8-7.462 16.8-16.667 0-9.205-7.521-16.667-16.8-16.667-9.278 0-16.8 7.462-16.8 16.667 0 9.205 7.522 16.667 16.8 16.667Z" fill="#DC0812"/><path d="M21.28 37.778c9.279 0 16.8-7.462 16.8-16.667 0-9.205-7.521-16.667-16.8-16.667-9.278 0-16.8 7.462-16.8 16.667 0 9.205 7.522 16.667 16.8 16.667Z" fill="#DD0712"/><path d="M21.28 37.778c9.279 0 16.8-7.462 16.8-16.667 0-9.205-7.521-16.667-16.8-16.667-9.278 0-16.8 7.462-16.8 16.667 0 9.205 7.522 16.667 16.8 16.667Z" fill="#DE0713"/><path d="M20.72 36.667c8.97 0 16.24-7.214 16.24-16.112 0-8.897-7.27-16.11-16.24-16.11-8.969 0-16.24 7.213-16.24 16.11 0 8.898 7.271 16.112 16.24 16.112Z" fill="#DE0713"/><path d="M20.72 36.667c8.97 0 16.24-7.214 16.24-16.112 0-8.897-7.27-16.11-16.24-16.11-8.969 0-16.24 7.213-16.24 16.11 0 8.898 7.271 16.112 16.24 16.112Z" fill="#DF0713"/><path d="M20.72 36.667c8.97 0 16.24-7.214 16.24-16.112 0-8.897-7.27-16.11-16.24-16.11-8.969 0-16.24 7.213-16.24 16.11 0 8.898 7.271 16.112 16.24 16.112Z" fill="#E00713"/><path d="M20.72 36.667c8.97 0 16.24-7.214 16.24-16.112 0-8.897-7.27-16.11-16.24-16.11-8.969 0-16.24 7.213-16.24 16.11 0 8.898 7.271 16.112 16.24 16.112Z" fill="#E10613"/><path d="M20.72 36.667c8.97 0 16.24-7.214 16.24-16.112 0-8.897-7.27-16.11-16.24-16.11-8.969 0-16.24 7.213-16.24 16.11 0 8.898 7.271 16.112 16.24 16.112Z" fill="#E10613"/><path d="M20.72 36.667c8.97 0 16.24-7.214 16.24-16.112 0-8.897-7.27-16.11-16.24-16.11-8.969 0-16.24 7.213-16.24 16.11 0 8.898 7.271 16.112 16.24 16.112Z" fill="#E20613"/><path d="M20.72 36.667c8.97 0 16.24-7.214 16.24-16.112 0-8.897-7.27-16.11-16.24-16.11-8.969 0-16.24 7.213-16.24 16.11 0 8.898 7.271 16.112 16.24 16.112Z" fill="#E30613"/><path d="M20.72 36.667c8.97 0 16.24-7.214 16.24-16.112 0-8.897-7.27-16.11-16.24-16.11-8.969 0-16.24 7.213-16.24 16.11 0 8.898 7.271 16.112 16.24 16.112Z" fill="#E30613"/><path d="M20.72 36.667c8.97 0 16.24-7.214 16.24-16.112 0-8.897-7.27-16.11-16.24-16.11-8.969 0-16.24 7.213-16.24 16.11 0 8.898 7.271 16.112 16.24 16.112Z" fill="#E30613"/><path d="M20.72 28.889c4.64 0 8.4-3.731 8.4-8.334 0-4.602-3.76-8.333-8.4-8.333-4.639 0-8.4 3.731-8.4 8.333 0 4.603 3.761 8.334 8.4 8.334Z" fill="#E30613"/><path d="M20.16 0C9.025 0 0 8.953 0 20s9.028 20 20.16 20c11.135 0 20.16-8.953 20.16-20S31.295 0 20.16 0ZM2.255 20c0-2.5.522-4.879 1.46-7.037l6.056 21.503C5.224 31.248 2.255 25.97 2.255 20ZM27.628 4.04 20.03 30.406 12.606 4.143l-.062-.219A17.931 17.931 0 0 1 20.16 2.24c2.684 0 5.23.586 7.516 1.637l-.048.163ZM38.062 20c0 6.14-3.141 11.555-7.918 14.743l6.416-21.869A17.575 17.575 0 0 1 38.062 20Z" fill="url(#b)"/><path fill-rule="evenodd" clip-rule="evenodd" d="m104.809 15.34-2.37-8.234h-.04l-2.354 8.234h4.764ZM53.114 37.778V35.42h-4.807v2.357H45.92V33.36h.597c.608-.588 1.246-1.097 1.246-3.813v-1.545c0-.845.697-1.476 1.562-1.476h5.318v6.834h.841v4.418h-2.37Zm23.222-11.252v3.344h-3.111v-3.344h-2.36v8.895h2.36v-3.487h3.111v3.487h2.394v-8.895h-2.394Zm11.547 3.247H85.66v-3.247h-2.387v8.895H87.8c1.896 0 2.918-.21 2.918-2.762-.004-2.68-1.205-2.886-2.835-2.886Zm7.922-3.247h4.794v1.941h-3.942v6.95h-2.394v-7.419c-.003-.84.704-1.472 1.542-1.472Zm13.441 8.895.19-5.471h-.027l-2.3 3.809c-.581.957-1.208 1.662-2.32 1.662h-1.042v-8.895h2.367l-.2 5.448h.06l2.257-3.796c.587-.944 1.208-1.652 2.32-1.652h1.072v8.895h-2.377Zm-46.991-1.954V31.75h3.331v-1.655h-3.331v-1.629h4.083v-1.941h-4.911c-.855 0-1.54.628-1.54 1.476v5.923c0 .835.685 1.493 1.54 1.493h4.97v-1.955h-4.142v.004ZM50.31 18.81 45.923 3.333h5.145l4.12 14.613h.13L59.52 3.333h5.234l-5.542 18.971h-5.027c-2.023 0-3.329-1.546-3.876-3.494Zm22.077 3.494h-5.078V3.334h5.078v18.97Zm6.924-3.494L74.92 3.333h5.15l4.114 14.613h.143l4.196-14.613h5.232L88.21 22.304H83.21c-2.03 0-3.352-1.546-3.9-3.494Zm19.666.29-.915 3.204h-5.261l5.712-18.97h4.854c2.03 0 3.288 1.542 3.886 3.48L112 22.307h-5.178l-.971-3.204h-6.874V19.1ZM87.222 33.467h-1.565v-1.74h1.629c.774 0 1.031.127 1.031.845.004.795-.32.895-1.095.895Zm-34.956-4.884H50.15v.964c0 2.613-.554 3.364-1.002 3.813h3.115v-4.777h.003Z" fill="#E30613"/></g><defs><linearGradient id="b" x1="20.16" y1="40.002" x2="20.16" y2="-.001" gradientUnits="userSpaceOnUse"><stop stop-color="#F28E00"/><stop offset="1" stop-color="#FFDB00"/></linearGradient><clipPath id="a"><path fill="#fff" d="M0 0h112v40H0z"/></clipPath></defs></svg>