<svg width="14" height="12" viewBox="1 0 14 12" fill="none" xmlns="http://www.w3.org/2000/svg">
<path d="M12.5552 10.7199C12.7776 10.0285 13.826 3.14677 13.9583 1.79063C13.9952 1.6374 13.9816 1.4763 13.9195 1.3315C13.8575 1.1867 13.7503 1.06603 13.6142 0.98759C13.1859 0.862751 12.7265 0.904525 12.3275 1.10459C11.6074 1.36518 2.38886 5.29532 1.85407 5.52401C1.31928 5.75269 0.874512 5.97605 0.874512 6.31642C0.874512 6.55573 1.01218 6.68869 1.40401 6.84824C1.79583 7.00778 2.82834 7.3056 3.43197 7.47046C3.96856 7.60507 4.53597 7.53098 5.02046 7.26305C5.41228 7.01842 9.94477 3.9711 10.2731 3.70519C10.6013 3.43928 10.8555 3.77964 10.5908 4.04555C10.326 4.31146 7.21257 7.34815 6.79956 7.76828C6.71014 7.85395 6.64263 7.96002 6.60276 8.0775C6.56289 8.19498 6.55185 8.32039 6.57056 8.44307C6.58927 8.56576 6.63719 8.68209 6.71024 8.78219C6.7833 8.8823 6.87933 8.96321 6.99018 9.01806C7.37142 9.25738 10.1195 11.1081 10.5325 11.4059C10.8839 11.6733 11.3097 11.8239 11.7503 11.8367C12.1581 11.8154 12.3646 11.3049 12.5552 10.7199Z" fill="black"/>
</svg>
