<svg width="16" height="10" viewBox="0 0 16 10" fill="none" xmlns="http://www.w3.org/2000/svg">
<path fill-rule="evenodd" clip-rule="evenodd" d="M2.42884 0.817703H0.754667C0.276331 0.817703 0.180664 1.0473 0.180664 1.29604C0.180664 1.73611 0.754667 3.93645 2.82108 6.84473C4.20825 8.82504 6.15986 9.90608 7.9297 9.90608C8.99161 9.90608 9.12554 9.66691 9.12554 9.25555V7.75357C9.12554 7.27524 9.22121 7.17957 9.56561 7.17957C9.81435 7.17957 10.2353 7.30394 11.2302 8.26061C12.3687 9.39905 12.5504 9.90608 13.1914 9.90608H14.8656C15.3439 9.90608 15.5831 9.66691 15.4396 9.19815C15.2961 8.71981 14.7508 8.05014 14.0333 7.23697C13.6506 6.7682 13.0575 6.2803 12.8853 6.03156C12.6365 5.70629 12.6939 5.56279 12.8853 5.28536C12.8853 5.28536 14.923 2.41534 15.1334 1.42997C15.2387 1.076 15.1334 0.817703 14.6264 0.817703H12.9522C12.7957 0.808341 12.6403 0.849862 12.5092 0.93607C12.3782 1.02228 12.2785 1.14855 12.2252 1.29604C12.2252 1.29604 11.3642 3.36245 10.1683 4.71136C9.77608 5.10359 9.59431 5.22796 9.38385 5.22796C9.28818 5.22796 9.12554 5.10359 9.12554 4.74962V1.42997C9.12554 1.00904 9.00118 0.817703 8.64721 0.817703H6.01636C5.74849 0.817703 5.58586 1.00904 5.58586 1.20037C5.58586 1.60217 6.19813 1.69784 6.25553 2.82671V5.29493C6.25553 5.84023 6.15986 5.9359 5.94939 5.9359C5.37539 5.9359 3.99778 3.85035 3.17505 1.46824C3.02198 1.00904 2.85934 0.817703 2.42884 0.817703Z" fill="#212121"/>
</svg>
