<svg width="60" height="60" viewBox="0 0 60 60" fill="none" xmlns="http://www.w3.org/2000/svg">
<path d="M0 0H44C49.6005 0 52.4008 0 54.5399 1.08993C56.4215 2.04867 57.9513 3.57847 58.9101 5.46009C60 7.59921 60 10.3995 60 16V44C60 49.6005 60 52.4008 58.9101 54.5399C57.9513 56.4215 56.4215 57.9513 54.5399 58.9101C52.4008 60 49.6005 60 44 60H16C10.3995 60 7.59921 60 5.46009 58.9101C3.57847 57.9513 2.04867 56.4215 1.08993 54.5399C0 52.4008 0 49.6005 0 44V0Z" fill="#F0F2F9" fill-opacity="0.5"/>
<g clip-path="url(#clip0_810_919)">
<path d="M36.9538 40.496C36.7803 40.1076 36.8125 39.6545 37.0466 39.2945C37.2806 38.9345 37.68 38.7201 38.1077 38.7241H40.004V41.2969H38.1077C37.5993 41.2888 37.1434 40.9733 36.9538 40.496Z" fill="#4C5866"/>
<path d="M22.0133 48H39.4755V43.9183C38.0674 44.165 36.623 43.7969 35.4973 42.907C34.307 41.8228 33.9036 40.1197 34.4805 38.6108C35.0575 37.106 36.4938 36.1108 38.0997 36.0987H39.4715V32.0048H22.0133C21.3153 32.0129 20.6254 31.8552 20 31.5477V45.9733C20 47.0898 20.8997 47.9919 22.0133 47.996V48Z" fill="#4C5866"/>
<path d="M31.6287 25.3463C30.4949 27.0008 28.6228 27.9919 26.6216 28.004C24.6204 28.0162 22.7362 27.0494 21.5823 25.411C20.5938 25.6416 19.9321 26.5761 20.041 27.5914C20.1499 28.6028 20.9972 29.3754 22.014 29.3875H37.0957V25.3463H31.6246H31.6287Z" fill="#4C5866"/>
<path d="M23.1758 22.0089C23.2 23.8778 24.7211 25.3827 26.5851 25.3827C28.4491 25.3827 29.9702 23.8819 29.9944 22.0089C29.9702 20.14 28.4491 18.6351 26.5851 18.6351C24.7211 18.6351 23.2 20.1359 23.1758 22.0089Z" fill="#20AFCE"/>
<path d="M31.2129 16.3859C31.2331 18.2589 32.7541 19.7718 34.6222 19.7718C36.4903 19.7718 38.0154 18.2629 38.0315 16.3859C38.0154 14.5089 36.4943 13 34.6222 13C32.7501 13 31.2331 14.5089 31.2129 16.3859Z" fill="#20AFCE"/>
</g>
<defs>
<clipPath id="clip0_810_919">
<rect width="20" height="35" fill="white" transform="translate(20 13)"/>
</clipPath>
</defs>
</svg>
