<svg width="60" height="60" viewBox="0 0 60 60" fill="none" xmlns="http://www.w3.org/2000/svg">
<path d="M0 0H44C49.6005 0 52.4008 0 54.5399 1.08993C56.4215 2.04867 57.9513 3.57847 58.9101 5.46009C60 7.59921 60 10.3995 60 16V44C60 49.6005 60 52.4008 58.9101 54.5399C57.9513 56.4215 56.4215 57.9513 54.5399 58.9101C52.4008 60 49.6005 60 44 60H16C10.3995 60 7.59921 60 5.46009 58.9101C3.57847 57.9513 2.04867 56.4215 1.08993 54.5399C0 52.4008 0 49.6005 0 44V0Z" fill="#F0F2F9" fill-opacity="0.5"/>
<g clip-path="url(#clip0_810_918)">
<path d="M30.8223 13V20.2729C33.0801 20.5571 35.1754 21.5845 36.7835 23.1926C38.3916 24.8007 39.419 26.9001 39.7032 29.1538H47.0127C46.0624 18.9125 38.5987 13.532 30.8223 13Z" fill="#0096D8"/>
<path d="M39.7032 31.6918C39.5083 33.5354 38.7976 35.2856 37.6484 36.7435L42.826 41.921C45.303 39.0581 46.7852 35.4684 47.0532 31.6918H39.7073H39.7032Z" fill="#20AFCE"/>
<path d="M32.2275 40.2723C30.0753 40.9058 27.7688 40.7961 25.6896 39.9596C23.6065 39.1231 21.8644 37.6125 20.7436 35.6674C16.8534 29.8036 21.2715 20.8211 28.2804 20.2607V13C20.1873 13.5604 12.4311 19.3592 12.0007 30.4249C11.8708 45.2996 29.8601 53.5714 41.0354 43.7118L35.8457 38.5221C34.7655 39.3343 33.5351 39.9271 32.2275 40.2723Z" fill="#4C5866"/>
<path d="M30.8008 27.8544C30.6424 27.7488 30.4394 27.696 30.1836 27.696H29.3633V29.0929H30.1754C30.4475 29.0929 30.6587 29.0401 30.8089 28.9346C30.9592 28.829 31.0363 28.6503 31.0363 28.4026C31.0363 28.1549 30.9592 27.964 30.8008 27.8584V27.8544Z" fill="#4C5866"/>
<path d="M37.2011 29.7345C37.0387 27.9356 36.2468 26.2504 34.9595 24.9793C33.6844 23.7042 31.9951 22.9205 30.2003 22.7662C28.4013 22.6119 26.6065 23.0951 25.1324 24.1306C23.6543 25.1661 22.5903 26.6889 22.1274 28.4351C21.6645 30.1772 21.8269 32.0289 22.5903 33.6654C23.3538 35.2978 24.6695 36.6135 26.306 37.3729C27.9425 38.1363 29.7942 38.2947 31.5363 37.8236C33.2824 37.3607 34.8093 36.2968 35.8488 34.8146C36.8843 33.3365 37.3635 31.5375 37.2051 29.7345H37.2011ZM32.3281 29.4706C32.1413 29.7711 31.8693 29.9985 31.516 30.1569C31.1627 30.3152 30.7363 30.3924 30.2328 30.3924H29.3678V31.1193H31.1789C31.6134 31.1193 31.9627 31.4725 31.9627 31.903C31.9627 32.3334 31.6094 32.6867 31.1789 32.6867H29.3678V33.6776C29.3678 34.1121 29.0145 34.4613 28.5841 34.4613C28.1536 34.4613 27.8003 34.108 27.8003 33.6776V32.6867H27.2846C26.8501 32.6867 26.5009 32.3334 26.5009 31.903C26.5009 31.4725 26.8542 31.1193 27.2846 31.1193H27.8003V27.3508C27.8003 26.7986 28.247 26.3519 28.7993 26.3519H30.2774C30.7282 26.3519 31.1302 26.4331 31.4835 26.5915C31.8368 26.7498 32.1129 26.9813 32.3159 27.2818C32.519 27.5823 32.6205 27.9478 32.6205 28.3701C32.6205 28.7924 32.5271 29.166 32.3403 29.4665L32.3281 29.4706Z" fill="#4C5866"/>
</g>
<defs>
<clipPath id="clip0_810_918">
<rect width="35.0487" height="35" fill="white" transform="translate(12 13)"/>
</clipPath>
</defs>
</svg>
