<svg width="60" height="60" viewBox="0 0 60 60" fill="none" xmlns="http://www.w3.org/2000/svg">
<path d="M0 0H44C49.6005 0 52.4008 0 54.5399 1.08993C56.4215 2.04867 57.9513 3.57847 58.9101 5.46009C60 7.59921 60 10.3995 60 16V44C60 49.6005 60 52.4008 58.9101 54.5399C57.9513 56.4215 56.4215 57.9513 54.5399 58.9101C52.4008 60 49.6005 60 44 60H16C10.3995 60 7.59921 60 5.46009 58.9101C3.57847 57.9513 2.04867 56.4215 1.08993 54.5399C0 52.4008 0 49.6005 0 44V0Z" fill="#F0F2F9" fill-opacity="0.5"/>
<g clip-path="url(#clip0_810_921)">
<path d="M20.9094 40.7681V17.7162H20.5156C19.8244 17.7162 19.1944 18.0006 18.7394 18.4556C18.2844 18.9106 18 19.5406 18 20.2319V45.48C18 46.1712 18.2844 46.8012 18.7394 47.2606C19.1944 47.7156 19.8244 48 20.5156 48H36.13C36.8212 48 37.4513 47.7156 37.9062 47.2606C38.3612 46.8056 38.6456 46.1756 38.6456 45.48V44.5437H24.6894C23.6481 44.5437 22.7031 44.1194 22.0206 43.4369C21.3381 42.7544 20.9137 41.8094 20.9137 40.7681H20.9094Z" fill="#20AFCE"/>
<path d="M42.0805 13.7394C41.6255 13.2844 40.9955 13 40.2999 13H24.6899C23.9987 13 23.3687 13.2844 22.9093 13.7394C22.4543 14.1944 22.1699 14.8244 22.1699 15.52V40.7681C22.1699 41.4594 22.4543 42.0894 22.9093 42.5487C23.3643 43.0037 23.9943 43.2881 24.6899 43.2881H40.3043C40.9955 43.2881 41.6255 43.0037 42.0849 42.5487C42.5399 42.0938 42.8243 41.4638 42.8243 40.7681V15.5156C42.8243 14.8244 42.5399 14.1944 42.0849 13.735L42.0805 13.7394ZM38.8343 37.2375H26.1555C25.8099 37.2375 25.5255 36.9575 25.5255 36.6075C25.5255 36.2575 25.8099 35.9775 26.1555 35.9775H38.8343C39.1799 35.9775 39.4643 36.2575 39.4643 36.6075C39.4643 36.9575 39.1843 37.2375 38.8343 37.2375ZM38.8343 32.7575H26.1555C25.8099 32.7575 25.5255 32.4775 25.5255 32.1275C25.5255 31.7775 25.8099 31.4975 26.1555 31.4975H38.8343C39.1799 31.4975 39.4643 31.7775 39.4643 32.1275C39.4643 32.4775 39.1843 32.7575 38.8343 32.7575ZM38.8343 28.2731H26.1555C25.8099 28.2731 25.5255 27.9931 25.5255 27.6431C25.5255 27.2931 25.8099 27.0131 26.1555 27.0131H38.8343C39.1799 27.0131 39.4643 27.2931 39.4643 27.6431C39.4643 27.9931 39.1843 28.2731 38.8343 28.2731ZM39.4643 23.1631C39.4643 23.5087 39.1843 23.7931 38.8343 23.7931H26.1555C25.8099 23.7931 25.5255 23.5131 25.5255 23.1631V19.0637C25.5255 18.7181 25.8099 18.4338 26.1555 18.4338H28.6974V16.1106C28.6974 15.765 28.9818 15.4806 29.3274 15.4806H32.4993C32.8449 15.4806 33.1293 15.7606 33.1293 16.1106V17.5588H35.6712C36.0168 17.5588 36.3012 17.8387 36.3012 18.1887V20.0438H38.843C39.1887 20.0438 39.473 20.3238 39.473 20.6738V23.1587L39.4643 23.1631Z" fill="#4C5866"/>
<path d="M38.2087 21.3081H36.2969V22.5331H38.2087V21.3081Z" fill="#0096D8"/>
<path d="M33.125 22.5331H35.0369V20.6694V18.8231H33.125V22.5331Z" fill="#0096D8"/>
<path d="M29.9531 19.0594V22.5331H31.865V18.1844V16.745H29.9531V19.0594Z" fill="#0096D8"/>
<path d="M28.697 19.6937H26.7852V22.5331H28.697V19.6937Z" fill="#0096D8"/>
</g>
<defs>
<clipPath id="clip0_810_921">
<rect width="24.8194" height="35" fill="white" transform="translate(18 13)"/>
</clipPath>
</defs>
</svg>
