<svg width="60" height="60" viewBox="0 0 60 60" fill="none" xmlns="http://www.w3.org/2000/svg">
<path d="M0 0H44C49.6005 0 52.4008 0 54.5399 1.08993C56.4215 2.04867 57.9513 3.57847 58.9101 5.46009C60 7.59921 60 10.3995 60 16V44C60 49.6005 60 52.4008 58.9101 54.5399C57.9513 56.4215 56.4215 57.9513 54.5399 58.9101C52.4008 60 49.6005 60 44 60H16C10.3995 60 7.59921 60 5.46009 58.9101C3.57847 57.9513 2.04867 56.4215 1.08993 54.5399C0 52.4008 0 49.6005 0 44V0Z" fill="#F0F2F9" fill-opacity="0.5"/>
<g clip-path="url(#clip0_810_920)">
<path fill-rule="evenodd" clip-rule="evenodd" d="M32.7843 21.989C35.9548 21.989 38.5256 24.5598 38.5256 27.7303C38.5256 30.9007 35.9548 33.4716 32.7843 33.4716C29.6138 33.4716 27.043 30.9007 27.043 27.7303C27.043 24.5598 29.6138 21.989 32.7843 21.989Z" fill="#4C5866"/>
<path fill-rule="evenodd" clip-rule="evenodd" d="M24.8931 16.2595L25.8074 17.726L27.4639 18.1238L26.3477 19.4478L26.4783 21.1399L24.8753 20.4868L23.3078 21.1399L23.4325 19.4181L22.3223 18.1238L24.0025 17.7082L24.8931 16.2595Z" fill="#0096D8"/>
<path fill-rule="evenodd" clip-rule="evenodd" d="M40.6861 16.2595L41.6004 17.726L43.2509 18.1238L42.1347 19.4478L42.2713 21.1399L40.6682 20.4868L39.0949 21.1399L39.2196 19.4181L38.1152 18.1238L39.7895 17.7082L40.6801 16.2595H40.6861Z" fill="#0096D8"/>
<path fill-rule="evenodd" clip-rule="evenodd" d="M32.7912 13L33.9608 14.8821L36.0745 15.3868L34.6495 17.0848L34.8217 19.2519L32.7674 18.4207L30.7606 19.2519L30.915 17.0433L29.502 15.3868L31.6512 14.8584L32.7912 13Z" fill="#0096D8"/>
<path fill-rule="evenodd" clip-rule="evenodd" d="M20.8145 40.5844L22.9697 36.2146C23.0529 36.0424 23.1241 35.8702 23.3141 35.8702H24.4837C24.6678 35.8643 24.8222 36.0068 24.8281 36.1908C24.8281 36.1968 24.8281 36.2087 24.8281 36.2146L24.2938 40.626H27.957C28.5982 40.626 29.3107 41.1781 29.1207 41.7897L27.6364 46.5691C27.4464 47.1807 27.1139 47.7328 26.4727 47.7328H20.8086V40.5844H20.8145Z" fill="#20AFCE"/>
<path d="M19.7583 40.1272H16V48.0059H19.7583V40.1272Z" fill="#4C5866"/>
<path fill-rule="evenodd" clip-rule="evenodd" d="M32.7851 35.3715C30.238 35.3715 27.7622 36.1849 25.7198 37.6989L25.4941 39.5691H27.964C29.2583 39.5691 30.5645 40.7387 30.1371 42.1043L28.9437 45.9576H44.5942C43.9352 39.9313 38.847 35.3655 32.7851 35.3655V35.3715Z" fill="#4C5866"/>
</g>
<defs>
<clipPath id="clip0_810_920">
<rect width="28.5937" height="35" fill="white" transform="translate(16 13)"/>
</clipPath>
</defs>
</svg>
