<svg width="280" height="100" viewBox="0 0 280 100" fill="none" xmlns="http://www.w3.org/2000/svg">
<g clip-path="url(#clip0_810_968)">
<path d="M67.819 90.3109L63.2674 89.6728C62.1379 89.5048 60.9915 89.3369 60.1318 89.2362L58.7494 88.8499C58.1762 80.2857 55.3778 76.2219 52.7817 73.7366C51.1132 72.6767 49.3789 71.7232 47.5894 70.8818C47.3983 73.921 47.6252 76.9719 48.2637 79.9498C48.7742 81.7287 49.676 83.3721 50.9037 84.7605C52.1313 86.1489 53.6539 87.2476 55.3609 87.9767C55.2092 88.3965 42.9197 83.745 43.1051 83.3419C43.85 80.0811 43.9928 76.7125 43.5266 73.4007C43.3672 71.3138 42.7145 69.2941 41.6216 67.5065C40.4109 66.0556 39.1103 64.6815 37.7274 63.3923C36.5487 66.1488 35.782 69.0625 35.4516 72.0405C35.3389 73.718 35.6459 75.397 36.3451 76.9272C37.1027 78.7889 38.3135 80.4336 39.8684 81.7131C37.972 80.5675 36.1375 79.3231 34.3727 77.9851C33.1048 77.1356 31.9296 76.1563 30.8662 75.0632C29.9559 74.1564 29.3658 73.6022 29.3658 73.6022C33.2769 66.2807 34.6255 61.2429 32.2317 54.7777C31.9603 54.2994 31.6195 53.8637 31.2202 53.4847C28.0509 56.944 22.2349 63.0397 26.8371 71.0498L22.9429 65.844C22.1534 64.594 21.4494 63.2925 20.8356 61.9482L19.8916 60.1346C26.1291 54.6602 28.6578 50.8147 29.2141 47.4225C29.5863 45.4114 29.4824 43.3414 28.9107 41.3772C24.5444 44.0472 17.11 47.8759 18.4755 56.86C18.4755 56.86 18.2058 56.1043 17.8518 54.9624C17.4978 53.8205 17.1269 52.2252 16.8066 50.546C16.3953 48.408 16.097 46.25 15.9131 44.0808C23.9038 41.0246 27.1068 37.263 28.6915 34.1396C29.5769 32.3076 30.0213 30.2952 29.9896 28.2622C25.0333 29.6056 17.0594 31.436 15.7108 40.504C15.7108 40.504 15.6097 37.2462 15.8794 33.9717C16.0306 31.8027 16.3064 29.6441 16.7054 27.5065C25.2862 26.6501 29.2984 23.9633 31.6248 21.7634C32.6646 20.3858 33.5893 18.9255 34.3895 17.3974C31.4893 16.7335 28.4836 16.6649 25.5559 17.1958C23.7525 17.5917 22.073 18.4194 20.6631 19.6074C19.2531 20.7954 18.1551 22.3078 17.464 24.0136C17.5571 23.5376 17.6752 23.0667 17.8181 22.6031C18.0878 21.8138 18.4249 20.7559 18.7621 19.6979C19.5376 17.5653 20.4479 15.5166 20.4479 15.5166C22.7672 14.7427 24.8619 13.4169 26.5505 11.6543C28.6409 9.52162 29.6187 6.36461 31.5068 0.0505899C28.9046 -0.303756 26.256 0.151378 23.9234 1.35373C21.5908 2.55609 19.6881 4.44694 18.4755 6.76763C17.8681 8.0222 17.5234 9.38683 17.4625 10.7784C17.4017 12.1699 17.6259 13.5592 18.1215 14.8617C18.1215 14.8617 17.1606 17.0447 16.4357 19.2781C16.0648 20.42 15.7108 21.5619 15.4411 22.4184C15.1713 23.2748 15.1039 23.8793 15.1039 23.8793C15.5208 19.7927 15.0552 15.6645 13.7384 11.7718C12.6595 8.2118 11.058 4.92045 10.3668 1.69627C9.6458 2.50661 8.98117 3.36503 8.37755 4.26554C7.12668 6.37763 6.25393 8.69026 5.79826 11.1001C4.71935 16.6417 6.64117 23.3419 14.3622 27.1203C13.9406 29.4146 13.6423 31.7296 13.4687 34.0556C13.2158 37.5485 13.3507 41.0246 13.3507 41.0246C11.7997 31.7215 5.76455 27.2042 1.93777 22.0825C0.755856 25.1269 0.372912 28.4214 0.82514 31.6543C1.49946 36.8768 5.03965 42.7374 13.5024 44.3831C13.5024 44.3831 13.8058 47.8759 14.4802 51.3016C14.9652 53.575 15.5844 55.8179 16.3345 58.0187C12.2043 49.4209 5.27567 46.5829 0.201392 42.771C-0.111228 46.0059 0.392938 49.2674 1.66804 52.2588C2.86875 55.383 5.14016 57.9834 8.08038 59.5999C11.0206 61.2165 14.4401 61.7449 17.7338 61.0917L18.7284 63.0397C19.3474 64.5355 20.0977 65.9741 20.9705 67.3386L25.1682 72.9809C18.2732 66.5829 10.8051 66.2639 4.33161 63.9129C4.62826 64.9079 5.0002 65.879 5.44425 66.818C6.442 69.0512 7.75317 71.1319 9.33846 72.9977C13.5193 76.86 19.8579 79.7147 27.6126 75.3487L29.2984 76.9272C30.4274 78.1197 31.695 79.1739 33.0746 80.0674C34.5244 81.1085 36.0248 82.1161 37.0868 82.9053C37.6806 83.327 38.3128 83.6924 38.9749 83.9969C36.9823 83.2254 34.9145 82.6626 32.8049 82.3176C30.8903 82.1138 28.9627 82.0576 27.0394 82.1497C23.3981 82.1497 19.8747 82.9221 16.6043 83.0229C17.21 83.8218 17.8689 84.5791 18.5767 85.2899C20.1667 87.0682 22.106 88.5027 24.2747 89.5048C26.9448 90.7118 29.8865 91.1983 32.8049 90.9154C36.3845 90.2332 39.6346 88.3841 42.0431 85.6593C41.8745 86.0456 52.5119 90.0422 54.7203 90.5124C52.701 90.3417 50.6708 90.3417 48.6514 90.5124C46.7541 90.7934 44.8976 91.3008 43.122 92.0237C39.7504 93.2664 36.6822 94.9121 33.6983 96.0707C34.4834 96.6413 35.2994 97.1682 36.1428 97.6493C38.0956 98.8084 40.2734 99.5411 42.532 99.7987C47.7411 100.655 54.3326 98.7911 58.3111 91.3016C58.3111 91.3016 58.9011 91.4192 59.7609 91.6711C60.6206 91.923 61.8007 91.9566 62.9808 92.1245L67.6842 92.7794H67.7685C68.0733 92.7507 68.3569 92.6114 68.5652 92.388C68.7736 92.1645 68.8922 91.8725 68.8985 91.5676C68.9047 91.2627 68.7982 90.9661 68.5991 90.7344C68.4001 90.5026 68.1224 90.3519 67.819 90.3109Z" fill="#B5B5C5"/>
</g>
<g clip-path="url(#clip1_810_968)">
<path d="M212.181 90.3109L216.733 89.6728C217.862 89.5048 219.008 89.3369 219.868 89.2362L221.251 88.8499C221.824 80.2857 224.622 76.2219 227.218 73.7366C228.887 72.6767 230.621 71.7232 232.411 70.8818C232.602 73.921 232.375 76.9719 231.736 79.9498C231.226 81.7287 230.324 83.3721 229.096 84.7605C227.869 86.1489 226.346 87.2476 224.639 87.9767C224.791 88.3965 237.08 83.745 236.895 83.3419C236.15 80.0811 236.007 76.7125 236.473 73.4007C236.633 71.3138 237.286 69.2941 238.378 67.5065C239.589 66.0556 240.89 64.6815 242.273 63.3923C243.451 66.1488 244.218 69.0625 244.548 72.0405C244.661 73.718 244.354 75.397 243.655 76.9272C242.897 78.7889 241.686 80.4336 240.132 81.7131C242.028 80.5675 243.862 79.3231 245.627 77.9851C246.895 77.1356 248.07 76.1563 249.134 75.0632C250.044 74.1564 250.634 73.6022 250.634 73.6022C246.723 66.2807 245.374 61.2429 247.768 54.7777C248.04 54.2994 248.381 53.8637 248.78 53.4847C251.949 56.944 257.765 63.0397 253.163 71.0498L257.057 65.844C257.847 64.594 258.551 63.2925 259.164 61.9482L260.108 60.1346C253.871 54.6602 251.342 50.8147 250.786 47.4225C250.414 45.4114 250.518 43.3414 251.089 41.3772C255.456 44.0472 262.89 47.8759 261.524 56.86C261.524 56.86 261.794 56.1043 262.148 54.9624C262.502 53.8205 262.873 52.2252 263.193 50.546C263.605 48.408 263.903 46.25 264.087 44.0808C256.096 41.0246 252.893 37.263 251.309 34.1396C250.423 32.3076 249.979 30.2952 250.01 28.2622C254.967 29.6056 262.941 31.436 264.289 40.504C264.289 40.504 264.39 37.2462 264.121 33.9717C263.969 31.8027 263.694 29.6441 263.295 27.5065C254.714 26.6501 250.702 23.9633 248.375 21.7634C247.335 20.3858 246.411 18.9255 245.61 17.3974C248.511 16.7335 251.516 16.6649 254.444 17.1958C256.248 17.5917 257.927 18.4194 259.337 19.6074C260.747 20.7954 261.845 22.3078 262.536 24.0136C262.443 23.5376 262.325 23.0667 262.182 22.6031C261.912 21.8138 261.575 20.7559 261.238 19.6979C260.462 17.5653 259.552 15.5166 259.552 15.5166C257.233 14.7427 255.138 13.4169 253.449 11.6543C251.359 9.52162 250.381 6.36461 248.493 0.0505899C251.095 -0.303756 253.744 0.151378 256.077 1.35373C258.409 2.55609 260.312 4.44694 261.524 6.76763C262.132 8.0222 262.477 9.38683 262.537 10.7784C262.598 12.1699 262.374 13.5592 261.878 14.8617C261.878 14.8617 262.839 17.0447 263.564 19.2781C263.935 20.42 264.289 21.5619 264.559 22.4184C264.829 23.2748 264.896 23.8793 264.896 23.8793C264.479 19.7927 264.945 15.6645 266.262 11.7718C267.341 8.2118 268.942 4.92045 269.633 1.69627C270.354 2.50661 271.019 3.36503 271.622 4.26554C272.873 6.37763 273.746 8.69026 274.202 11.1001C275.281 16.6417 273.359 23.3419 265.638 27.1203C266.059 29.4146 266.358 31.7296 266.531 34.0556C266.784 37.5485 266.649 41.0246 266.649 41.0246C268.2 31.7215 274.235 27.2042 278.062 22.0825C279.244 25.1269 279.627 28.4214 279.175 31.6543C278.501 36.8768 274.96 42.7374 266.498 44.3831C266.498 44.3831 266.194 47.8759 265.52 51.3016C265.035 53.575 264.416 55.8179 263.665 58.0187C267.796 49.4209 274.724 46.5829 279.799 42.771C280.111 46.0059 279.607 49.2674 278.332 52.2588C277.131 55.383 274.86 57.9834 271.92 59.5999C268.979 61.2165 265.56 61.7449 262.266 61.0917L261.272 63.0397C260.653 64.5355 259.902 65.9741 259.029 67.3386L254.832 72.9809C261.727 66.5829 269.195 66.2639 275.668 63.9129C275.372 64.9079 275 65.879 274.556 66.818C273.558 69.0512 272.247 71.1319 270.662 72.9977C266.481 76.86 260.142 79.7147 252.387 75.3487L250.702 76.9272C249.573 78.1197 248.305 79.1739 246.925 80.0674C245.476 81.1085 243.975 82.1161 242.913 82.9053C242.319 83.327 241.687 83.6924 241.025 83.9969C243.018 83.2254 245.086 82.6626 247.195 82.3176C249.11 82.1138 251.037 82.0576 252.961 82.1497C256.602 82.1497 260.125 82.9221 263.396 83.0229C262.79 83.8218 262.131 84.5791 261.423 85.2899C259.833 87.0682 257.894 88.5027 255.725 89.5048C253.055 90.7118 250.114 91.1983 247.195 90.9154C243.615 90.2332 240.365 88.3841 237.957 85.6593C238.126 86.0456 227.488 90.0422 225.28 90.5124C227.299 90.3417 229.329 90.3417 231.349 90.5124C233.246 90.7934 235.102 91.3008 236.878 92.0237C240.25 93.2664 243.318 94.9121 246.302 96.0707C245.517 96.6413 244.701 97.1682 243.857 97.6493C241.904 98.8084 239.727 99.5411 237.468 99.7987C232.259 100.655 225.667 98.7911 221.689 91.3016C221.689 91.3016 221.099 91.4192 220.239 91.6711C219.379 91.923 218.199 91.9566 217.019 92.1245L212.316 92.7794H212.232C211.927 92.7507 211.643 92.6114 211.435 92.388C211.226 92.1645 211.108 91.8725 211.102 91.5676C211.095 91.2627 211.202 90.9661 211.401 90.7344C211.6 90.5026 211.878 90.3519 212.181 90.3109Z" fill="#B5B5C5"/>
</g>
<path d="M91.2405 34.3996H81.9605V57.9996H76.8005V34.3996H67.5605V29.9996H91.2405V34.3996Z" fill="#8A8A99"/>
<path d="M108.295 58.3996C105.441 58.3996 102.868 57.7863 100.575 56.5596C98.2813 55.3063 96.4813 53.5863 95.1746 51.3996C93.8679 49.1863 93.2146 46.7196 93.2146 43.9996C93.2146 41.2796 93.8679 38.8263 95.1746 36.6396C96.4813 34.4263 98.2813 32.7063 100.575 31.4796C102.868 30.2263 105.441 29.5996 108.295 29.5996C111.148 29.5996 113.721 30.2263 116.015 31.4796C118.308 32.7063 120.108 34.4129 121.415 36.5996C122.721 38.7863 123.375 41.2529 123.375 43.9996C123.375 46.7463 122.721 49.2129 121.415 51.3996C120.108 53.5863 118.308 55.3063 116.015 56.5596C113.721 57.7863 111.148 58.3996 108.295 58.3996ZM108.295 53.8396C110.161 53.8396 111.841 53.4263 113.335 52.5996C114.828 51.7463 116.001 50.5729 116.855 49.0796C117.708 47.5596 118.135 45.8663 118.135 43.9996C118.135 42.1329 117.708 40.4529 116.855 38.9596C116.001 37.4396 114.828 36.2663 113.335 35.4396C111.841 34.5863 110.161 34.1596 108.295 34.1596C106.428 34.1596 104.748 34.5863 103.255 35.4396C101.761 36.2663 100.588 37.4396 99.7346 38.9596C98.8813 40.4529 98.4546 42.1329 98.4546 43.9996C98.4546 45.8663 98.8813 47.5596 99.7346 49.0796C100.588 50.5729 101.761 51.7463 103.255 52.5996C104.748 53.4263 106.428 53.8396 108.295 53.8396Z" fill="#8A8A99"/>
<path d="M153.924 29.9996V57.9996H148.804V34.3996H134.284V57.9996H129.164V29.9996H153.924Z" fill="#8A8A99"/>
<path d="M160.099 44.7996H171.099V48.9596H160.099V44.7996Z" fill="#8A8A99"/>
<path d="M183.948 29.9996V57.9996H178.748V34.3596H172.828V29.9996H183.948Z" fill="#8A8A99"/>
<path d="M207.663 43.2796C209.129 43.9463 210.249 44.8529 211.023 45.9996C211.823 47.1196 212.223 48.4396 212.223 49.9596C212.223 51.6663 211.743 53.1596 210.783 54.4396C209.849 55.7196 208.516 56.7063 206.783 57.3996C205.049 58.0663 203.036 58.3996 200.743 58.3996C198.449 58.3996 196.436 58.0663 194.703 57.3996C192.996 56.7063 191.676 55.7196 190.743 54.4396C189.809 53.1596 189.343 51.6663 189.343 49.9596C189.343 48.4396 189.729 47.1196 190.503 45.9996C191.276 44.8529 192.383 43.9463 193.823 43.2796C192.703 42.6663 191.836 41.8663 191.223 40.8796C190.636 39.8663 190.343 38.7063 190.343 37.3996C190.343 35.8263 190.769 34.4529 191.623 33.2796C192.503 32.1063 193.729 31.1996 195.303 30.5596C196.876 29.9196 198.689 29.5996 200.743 29.5996C202.823 29.5996 204.649 29.9196 206.223 30.5596C207.796 31.1996 209.023 32.1063 209.903 33.2796C210.783 34.4529 211.223 35.8263 211.223 37.3996C211.223 38.7063 210.916 39.8529 210.303 40.8396C209.689 41.8263 208.809 42.6396 207.663 43.2796ZM200.743 33.6796C199.116 33.6796 197.823 34.0263 196.863 34.7196C195.929 35.4129 195.463 36.3863 195.463 37.6396C195.463 38.8396 195.929 39.7996 196.863 40.5196C197.823 41.2129 199.116 41.5596 200.743 41.5596C202.396 41.5596 203.703 41.2129 204.663 40.5196C205.623 39.7996 206.103 38.8396 206.103 37.6396C206.103 36.3863 205.609 35.4129 204.623 34.7196C203.663 34.0263 202.369 33.6796 200.743 33.6796ZM200.743 54.3196C202.663 54.3196 204.183 53.9196 205.303 53.1196C206.423 52.3196 206.983 51.2129 206.983 49.7996C206.983 48.4129 206.423 47.3196 205.303 46.5196C204.183 45.7196 202.663 45.3196 200.743 45.3196C198.823 45.3196 197.316 45.7196 196.223 46.5196C195.129 47.3196 194.583 48.4129 194.583 49.7996C194.583 51.2129 195.129 52.3196 196.223 53.1196C197.316 53.9196 198.823 54.3196 200.743 54.3196Z" fill="#8A8A99"/>
<defs>
<clipPath id="clip0_810_968">
<rect width="69" height="100" fill="white"/>
</clipPath>
<clipPath id="clip1_810_968">
<rect width="69" height="100" fill="white" transform="matrix(-1 0 0 1 280 0)"/>
</clipPath>
</defs>
</svg>
