<svg width="150" height="48" viewBox="0 0 150 48" fill="none" xmlns="http://www.w3.org/2000/svg">
<g clip-path="url(#clip0_22_2)">
<path d="M54.9677 23.1084V10.707H63.7305V13.1873H58.2427V15.7028H63.3233V18.183H58.2427V23.1084H54.9677ZM64.1057 16.899C64.1057 15.609 64.3594 14.489 64.8669 13.5391C65.3744 12.5775 66.1002 11.8328 67.0444 11.3051C67.9885 10.7774 69.1038 10.5135 70.3902 10.5135C71.6883 10.5135 72.8094 10.7774 73.7536 11.3051C74.6977 11.8328 75.4236 12.5775 75.931 13.5391C76.4503 14.489 76.7099 15.609 76.7099 16.899C76.7099 18.1772 76.4503 19.2971 75.931 20.2588C75.4236 21.2204 74.6977 21.9709 73.7536 22.5103C72.8094 23.038 71.6883 23.3019 70.3902 23.3019C69.1038 23.3019 67.9885 23.038 67.0444 22.5103C66.1121 21.9709 65.3862 21.2204 64.8669 20.2588C64.3594 19.2971 64.1057 18.1772 64.1057 16.899ZM67.5224 16.899C67.5224 18.0599 67.7583 18.9687 68.2304 19.6255C68.7025 20.2704 69.4224 20.593 70.3902 20.593C71.3579 20.593 72.0837 20.2704 72.5675 19.6255C73.0514 18.9687 73.2934 18.0599 73.2934 16.899C73.2934 15.7379 73.0514 14.835 72.5675 14.19C72.0837 13.545 71.3579 13.2225 70.3902 13.2225C69.4224 13.2225 68.7025 13.545 68.2304 14.19C67.7583 14.8232 67.5224 15.7262 67.5224 16.899ZM77.9617 23.1084V10.707H83.8567C85.2965 10.707 86.4058 11.0471 87.1848 11.7273C87.9755 12.4075 88.3709 13.3515 88.3709 14.5594C88.3709 15.3685 88.1938 16.0604 87.8398 16.6351C87.4857 17.198 86.9723 17.6377 86.2996 17.9543C85.6269 18.2593 84.8244 18.4117 83.8921 18.4117L84.0514 17.9719H84.9366C85.4558 17.9719 85.9161 18.1126 86.3173 18.3941C86.7186 18.6756 87.0491 19.0685 87.3087 19.5727L89.2029 23.1084H85.6269L83.5912 19.1505C83.4613 18.8926 83.2666 18.7166 83.007 18.6228C82.7591 18.529 82.4759 18.4821 82.1572 18.4821H81.2368V23.1084H77.9617ZM81.2368 16.1777H83.2902C83.9275 16.1777 84.4113 16.0546 84.7419 15.8083C85.0723 15.5503 85.2375 15.1692 85.2375 14.6649C85.2375 14.1724 85.0723 13.803 84.7419 13.5567C84.4113 13.3104 83.9275 13.1873 83.2902 13.1873H81.2368V16.1777ZM93.1898 23.1084L88.7288 10.707H92.0923L95.0132 19.6783H94.1989L97.4561 10.707H99.7929L102.732 19.6783H101.953L105.104 10.707H108.255L103.776 23.1084H101.156L98.3236 15.0343H98.7307L95.8276 23.1084H93.1898ZM106.227 23.1084L112.069 10.707H114.724L120.602 23.1084H117.326L115.822 19.6958L117.079 20.593H109.75L110.989 19.6958L109.502 23.1084H106.227ZM113.379 14.0492L111.308 18.957L110.812 18.1302H115.999L115.556 18.957L113.467 14.0492H113.379ZM120.664 23.1084V10.707H126.559C127.999 10.707 129.108 11.0471 129.887 11.7273C130.678 12.4075 131.074 13.3515 131.074 14.5594C131.074 15.3685 130.897 16.0604 130.542 16.6351C130.188 17.198 129.675 17.6377 129.002 17.9543C128.33 18.2593 127.527 18.4117 126.595 18.4117L126.754 17.9719H127.639C128.158 17.9719 128.619 18.1126 129.02 18.3941C129.421 18.6756 129.752 19.0685 130.011 19.5727L131.906 23.1084H128.33L126.294 19.1505C126.164 18.8926 125.969 18.7166 125.71 18.6228C125.462 18.529 125.179 18.4821 124.86 18.4821H123.939V23.1084H120.664ZM123.939 16.1777H125.993C126.63 16.1777 127.114 16.0546 127.445 15.8083C127.775 15.5503 127.94 15.1692 127.94 14.6649C127.94 14.1724 127.775 13.803 127.445 13.5567C127.114 13.3104 126.63 13.1873 125.993 13.1873H123.939V16.1777ZM132.576 23.1084V10.707H137.604C139.079 10.707 140.324 10.9592 141.339 11.4634C142.354 11.956 143.121 12.6655 143.64 13.5919C144.172 14.5066 144.437 15.609 144.437 16.899C144.437 18.1772 144.172 19.2796 143.64 20.206C143.121 21.1324 142.354 21.8477 141.339 22.352C140.324 22.8562 139.079 23.1084 137.604 23.1084H132.576ZM135.851 20.4698H137.391C138.678 20.4698 139.628 20.1766 140.242 19.5903C140.867 19.0039 141.18 18.1069 141.18 16.899C141.18 15.6793 140.867 14.7822 140.242 14.2076C139.628 13.6212 138.678 13.328 137.391 13.328H135.851V20.4698Z" fill="#4C5866"/>
<path opacity="0.5" d="M54.957 35.074V30.338H53.893V29.6584H55.1958L54.957 29.8849V28.9788C54.957 28.3674 55.109 27.8999 55.4129 27.5763C55.7242 27.2527 56.1657 27.0909 56.7374 27.0909C56.875 27.0909 57.0197 27.1052 57.1717 27.134C57.331 27.1555 57.4648 27.1879 57.5734 27.231V27.9539C57.4866 27.918 57.378 27.8891 57.2477 27.8675C57.1247 27.8388 56.998 27.8244 56.8677 27.8244C56.5276 27.8244 56.2706 27.9251 56.0969 28.1265C55.9232 28.3279 55.8363 28.6371 55.8363 29.0543V29.8418L55.6952 29.6584H59.1911V35.074H58.3117V30.338H55.8363V35.074H54.957ZM58.214 28.4285V27.4469H59.2996V28.4285H58.214ZM60.9088 35.074V30.9098C60.9088 30.7084 60.8979 30.5034 60.8762 30.2949C60.8617 30.0791 60.8436 29.8669 60.8219 29.6584H61.6688L61.7773 30.845H61.647C61.8063 30.4279 62.0596 30.1115 62.407 29.8957C62.7617 29.6728 63.1706 29.5613 63.6338 29.5613C64.278 29.5613 64.7629 29.7339 65.0886 30.0791C65.4215 30.4172 65.5881 30.9529 65.5881 31.6865V35.074H64.7086V31.7405C64.7086 31.2298 64.6037 30.8594 64.3938 30.6293C64.1911 30.392 63.8727 30.2733 63.4384 30.2733C62.9317 30.2733 62.53 30.4279 62.2333 30.7371C61.9366 31.0464 61.7882 31.46 61.7882 31.9777V35.074H60.9088ZM69.3437 35.1711C68.8588 35.1711 68.4354 35.0595 68.0735 34.8366C67.7116 34.6064 67.4294 34.2828 67.2267 33.8657C67.0313 33.4485 66.9336 32.9487 66.9336 32.3661C66.9336 31.7764 67.0313 31.273 67.2267 30.8559C67.4294 30.4387 67.7116 30.1187 68.0735 29.8957C68.4354 29.6728 68.8588 29.5613 69.3437 29.5613C69.8359 29.5613 70.2593 29.6871 70.614 29.9389C70.9758 30.1833 71.2147 30.5178 71.3305 30.9421H71.2003L71.3196 29.6584H72.1665C72.1448 29.8669 72.1231 30.0791 72.1013 30.2949C72.0868 30.5034 72.0796 30.7084 72.0796 30.9098V35.074H71.2003V33.801H71.3196C71.2038 34.2253 70.965 34.5598 70.6031 34.8042C70.2413 35.0488 69.8215 35.1711 69.3437 35.1711ZM69.5175 34.459C70.0385 34.459 70.4511 34.2828 70.7551 33.9305C71.0591 33.5708 71.2111 33.0494 71.2111 32.3661C71.2111 31.6757 71.0591 31.1543 70.7551 30.8019C70.4511 30.4423 70.0385 30.2625 69.5175 30.2625C69.0036 30.2625 68.591 30.4423 68.2798 30.8019C67.9758 31.1543 67.8238 31.6757 67.8238 32.3661C67.8238 33.0494 67.9758 33.5708 68.2798 33.9305C68.591 34.2828 69.0036 34.459 69.5175 34.459ZM73.7798 35.074V30.9098C73.7798 30.7084 73.769 30.5034 73.7473 30.2949C73.7328 30.0791 73.7147 29.8669 73.693 29.6584H74.5399L74.6484 30.845H74.5181C74.6773 30.4279 74.9306 30.1115 75.2781 29.8957C75.6327 29.6728 76.0416 29.5613 76.5049 29.5613C77.149 29.5613 77.6339 29.7339 77.9597 30.0791C78.2926 30.4172 78.4591 30.9529 78.4591 31.6865V35.074H77.5797V31.7405C77.5797 31.2298 77.4747 30.8594 77.2649 30.6293C77.0622 30.392 76.7437 30.2733 76.3094 30.2733C75.8028 30.2733 75.4012 30.4279 75.1043 30.7371C74.8076 31.0464 74.6593 31.46 74.6593 31.9777V35.074H73.7798ZM82.4319 35.1711C81.8964 35.1711 81.4295 35.056 81.0314 34.8258C80.6406 34.5957 80.3366 34.2684 80.1195 33.8441C79.9095 33.4198 79.8046 32.9164 79.8046 32.3337C79.8046 31.744 79.9132 31.2442 80.1304 30.8343C80.3475 30.4172 80.6514 30.1006 81.0423 29.8849C81.4404 29.6691 81.9036 29.5613 82.4319 29.5613C82.7794 29.5613 83.1159 29.6225 83.4416 29.7446C83.7745 29.8669 84.0496 30.0395 84.2668 30.2625L83.9519 30.8882C83.7347 30.6796 83.4959 30.525 83.2353 30.4244C82.982 30.3236 82.7323 30.2733 82.4862 30.2733C81.9216 30.2733 81.4838 30.4495 81.1726 30.8019C80.8614 31.1543 80.7057 31.6685 80.7057 32.3446C80.7057 33.0135 80.8614 33.5312 81.1726 33.8981C81.4838 34.2648 81.9216 34.4482 82.4862 34.4482C82.7251 34.4482 82.9712 34.4014 83.2244 34.308C83.485 34.2145 83.7275 34.0599 83.9519 33.8441L84.2668 34.459C84.0423 34.6891 83.7637 34.8654 83.4307 34.9876C83.0978 35.1099 82.7649 35.1711 82.4319 35.1711ZM85.5165 35.074V29.6584H86.3959V35.074H85.5165ZM85.408 28.4285V27.4469H86.4936V28.4285H85.408ZM90.1771 35.1711C89.6921 35.1711 89.2687 35.0595 88.9068 34.8366C88.545 34.6064 88.2627 34.2828 88.0601 33.8657C87.8646 33.4485 87.7669 32.9487 87.7669 32.3661C87.7669 31.7764 87.8646 31.273 88.0601 30.8559C88.2627 30.4387 88.545 30.1187 88.9068 29.8957C89.2687 29.6728 89.6921 29.5613 90.1771 29.5613C90.6692 29.5613 91.0927 29.6871 91.4473 29.9389C91.8091 30.1833 92.048 30.5178 92.1638 30.9421H92.0336L92.1529 29.6584H92.9998C92.9781 29.8669 92.9564 30.0791 92.9347 30.2949C92.9202 30.5034 92.913 30.7084 92.913 30.9098V35.074H92.0336V33.801H92.1529C92.0372 34.2253 91.7983 34.5598 91.4364 34.8042C91.0746 35.0488 90.6548 35.1711 90.1771 35.1711ZM90.3508 34.459C90.8718 34.459 91.2844 34.2828 91.5884 33.9305C91.8925 33.5708 92.0445 33.0494 92.0445 32.3661C92.0445 31.6757 91.8925 31.1543 91.5884 30.8019C91.2844 30.4423 90.8718 30.2625 90.3508 30.2625C89.8369 30.2625 89.4243 30.4423 89.1131 30.8019C88.8091 31.1543 88.6571 31.6757 88.6571 32.3661C88.6571 33.0494 88.8091 33.5708 89.1131 33.9305C89.4243 34.2828 89.8369 34.459 90.3508 34.459ZM94.6132 35.074V27.134H95.4926V35.074H94.6132ZM102.322 35.1711C101.786 35.1711 101.319 35.056 100.921 34.8258C100.53 34.5957 100.226 34.2684 100.009 33.8441C99.7993 33.4198 99.6943 32.9164 99.6943 32.3337C99.6943 31.744 99.8029 31.2442 100.02 30.8343C100.237 30.4172 100.541 30.1006 100.932 29.8849C101.33 29.6691 101.793 29.5613 102.322 29.5613C102.669 29.5613 103.006 29.6225 103.331 29.7446C103.664 29.8669 103.939 30.0395 104.157 30.2625L103.842 30.8882C103.624 30.6796 103.386 30.525 103.125 30.4244C102.872 30.3236 102.622 30.2733 102.376 30.2733C101.811 30.2733 101.374 30.4495 101.062 30.8019C100.751 31.1543 100.595 31.6685 100.595 32.3446C100.595 33.0135 100.751 33.5312 101.062 33.8981C101.374 34.2648 101.811 34.4482 102.376 34.4482C102.615 34.4482 102.861 34.4014 103.114 34.308C103.375 34.2145 103.617 34.0599 103.842 33.8441L104.157 34.459C103.932 34.6891 103.653 34.8654 103.32 34.9876C102.988 35.1099 102.655 35.1711 102.322 35.1711ZM107.537 35.1711C107.016 35.1711 106.56 35.0595 106.169 34.8366C105.785 34.6064 105.488 34.2828 105.278 33.8657C105.069 33.4413 104.964 32.9415 104.964 32.3661C104.964 31.7836 105.069 31.2837 105.278 30.8666C105.488 30.4495 105.785 30.1295 106.169 29.9065C106.56 29.6763 107.016 29.5613 107.537 29.5613C108.065 29.5613 108.521 29.6763 108.905 29.9065C109.295 30.1295 109.596 30.4495 109.806 30.8666C110.023 31.2837 110.131 31.7836 110.131 32.3661C110.131 32.9415 110.023 33.4413 109.806 33.8657C109.596 34.2828 109.295 34.6064 108.905 34.8366C108.521 35.0595 108.065 35.1711 107.537 35.1711ZM107.537 34.459C108.058 34.459 108.47 34.2828 108.774 33.9305C109.078 33.5708 109.23 33.0494 109.23 32.3661C109.23 31.6757 109.075 31.1543 108.764 30.8019C108.46 30.4423 108.051 30.2625 107.537 30.2625C107.023 30.2625 106.614 30.4423 106.31 30.8019C106.006 31.1543 105.854 31.6757 105.854 32.3661C105.854 33.0494 106.006 33.5708 106.31 33.9305C106.614 34.2828 107.023 34.459 107.537 34.459ZM111.503 35.074V30.9098C111.503 30.7084 111.492 30.5034 111.47 30.2949C111.455 30.0791 111.437 29.8669 111.416 29.6584H112.262L112.371 30.845H112.241C112.386 30.4351 112.614 30.1187 112.925 29.8957C113.243 29.6728 113.627 29.5613 114.076 29.5613C114.531 29.5613 114.901 29.6691 115.183 29.8849C115.472 30.1006 115.668 30.4351 115.769 30.8882H115.606C115.744 30.4783 115.986 30.1546 116.334 29.9173C116.681 29.68 117.086 29.5613 117.55 29.5613C118.15 29.5613 118.603 29.7339 118.907 30.0791C119.211 30.4172 119.363 30.9529 119.363 31.6865V35.074H118.483V31.7405C118.483 31.2298 118.393 30.8594 118.212 30.6293C118.031 30.392 117.741 30.2733 117.343 30.2733C116.887 30.2733 116.526 30.4315 116.258 30.748C115.997 31.0572 115.867 31.4744 115.867 31.9994V35.074H114.988V31.7405C114.988 31.2298 114.897 30.8594 114.716 30.6293C114.535 30.392 114.246 30.2733 113.848 30.2733C113.392 30.2733 113.033 30.4315 112.773 30.748C112.512 31.0572 112.382 31.4744 112.382 31.9994V35.074H111.503ZM121.034 37.4042V30.9098C121.034 30.7084 121.023 30.5034 121.001 30.2949C120.987 30.0791 120.969 29.8669 120.947 29.6584H121.794L121.913 30.9421H121.783C121.899 30.5178 122.134 30.1833 122.489 29.9389C122.843 29.6871 123.267 29.5613 123.759 29.5613C124.251 29.5613 124.674 29.6728 125.029 29.8957C125.391 30.1187 125.673 30.4387 125.876 30.8559C126.079 31.273 126.18 31.7764 126.18 32.3661C126.18 32.9487 126.079 33.4485 125.876 33.8657C125.681 34.2828 125.402 34.6064 125.04 34.8366C124.678 35.0595 124.251 35.1711 123.759 35.1711C123.274 35.1711 122.854 35.0488 122.5 34.8042C122.145 34.5598 121.91 34.2253 121.794 33.801H121.913V37.4042H121.034ZM123.585 34.459C124.106 34.459 124.519 34.2828 124.823 33.9305C125.134 33.5708 125.29 33.0494 125.29 32.3661C125.29 31.6757 125.134 31.1543 124.823 30.8019C124.519 30.4423 124.106 30.2625 123.585 30.2625C123.071 30.2625 122.659 30.4423 122.348 30.8019C122.044 31.1543 121.892 31.6757 121.892 32.3661C121.892 33.0494 122.044 33.5708 122.348 33.9305C122.659 34.2828 123.071 34.459 123.585 34.459ZM129.617 35.1711C129.132 35.1711 128.709 35.0595 128.347 34.8366C127.985 34.6064 127.703 34.2828 127.5 33.8657C127.305 33.4485 127.207 32.9487 127.207 32.3661C127.207 31.7764 127.305 31.273 127.5 30.8559C127.703 30.4387 127.985 30.1187 128.347 29.8957C128.709 29.6728 129.132 29.5613 129.617 29.5613C130.109 29.5613 130.533 29.6871 130.888 29.9389C131.249 30.1833 131.488 30.5178 131.604 30.9421H131.474L131.593 29.6584H132.44C132.418 29.8669 132.397 30.0791 132.375 30.2949C132.36 30.5034 132.353 30.7084 132.353 30.9098V35.074H131.474V33.801H131.593C131.477 34.2253 131.239 34.5598 130.877 34.8042C130.515 35.0488 130.095 35.1711 129.617 35.1711ZM129.791 34.459C130.312 34.459 130.725 34.2828 131.029 33.9305C131.333 33.5708 131.485 33.0494 131.485 32.3661C131.485 31.6757 131.333 31.1543 131.029 30.8019C130.725 30.4423 130.312 30.2625 129.791 30.2625C129.277 30.2625 128.865 30.4423 128.553 30.8019C128.249 31.1543 128.097 31.6757 128.097 32.3661C128.097 33.0494 128.249 33.5708 128.553 33.9305C128.865 34.2828 129.277 34.459 129.791 34.459ZM134.053 35.074V30.9098C134.053 30.7084 134.043 30.5034 134.021 30.2949C134.006 30.0791 133.988 29.8669 133.967 29.6584H134.813L134.922 30.845H134.792C134.951 30.4279 135.204 30.1115 135.552 29.8957C135.906 29.6728 136.315 29.5613 136.778 29.5613C137.423 29.5613 137.908 29.7339 138.233 30.0791C138.566 30.4172 138.733 30.9529 138.733 31.6865V35.074H137.853V31.7405C137.853 31.2298 137.748 30.8594 137.538 30.6293C137.336 30.392 137.017 30.2733 136.583 30.2733C136.076 30.2733 135.675 30.4279 135.378 30.7371C135.081 31.0464 134.933 31.46 134.933 31.9777V35.074H134.053ZM140.145 37.5228L139.938 36.8C140.278 36.7209 140.561 36.6274 140.785 36.5196C141.017 36.4188 141.209 36.2822 141.361 36.1096C141.513 35.937 141.643 35.7212 141.751 35.4623L142.034 34.8258L142.012 35.1926L139.634 29.6584H140.59L142.555 34.4158H142.273L144.216 29.6584H145.139L142.62 35.5271C142.475 35.8722 142.316 36.1599 142.142 36.3901C141.968 36.6274 141.78 36.818 141.578 36.9618C141.382 37.1128 141.165 37.2316 140.926 37.3178C140.687 37.4042 140.427 37.4725 140.145 37.5228Z" fill="#191A1D"/>
</g>
<path d="M3.43161 25.9327C3.04987 25.5976 3.01165 25.0146 3.34623 24.6304L18.6901 7.0127C21.1884 4.14417 25.5243 3.84695 28.3746 6.34884L41.4109 17.7914C44.2612 20.2932 44.5466 24.6468 42.0483 27.5153L30.6222 40.6347C28.1239 43.5032 23.788 43.8004 20.9376 41.2985L3.43161 25.9327Z" fill="url(#paint0_linear_22_2)"/>
<path d="M21.3958 24.9059C21.0159 24.5724 20.9779 23.9923 21.3109 23.61L32.4361 10.8361C33.9154 9.13755 36.4828 8.96157 38.1706 10.443L48.4954 19.5056C50.1831 20.987 50.3521 23.5648 48.8728 25.2633L39.8232 35.654C38.3439 37.3525 35.7765 37.5285 34.0888 36.0471L21.3958 24.9059Z" fill="url(#paint1_linear_22_2)"/>
<defs>
<linearGradient id="paint0_linear_22_2" x1="28.4865" y1="5.64588" x2="18.8844" y2="41.4813" gradientUnits="userSpaceOnUse">
<stop stop-color="#58AED3"/>
<stop offset="1" stop-color="#58AED3" stop-opacity="0.8"/>
</linearGradient>
<linearGradient id="paint1_linear_22_2" x1="39.0611" y1="10.2476" x2="32.1697" y2="35.9669" gradientUnits="userSpaceOnUse">
<stop stop-color="#20AFCE" stop-opacity="0.77"/>
<stop offset="1" stop-color="#20AFCE" stop-opacity="0.62"/>
</linearGradient>
<clipPath id="clip0_22_2">
<rect width="91.5379" height="26.9229" fill="white" transform="translate(53.817 10.5587)"/>
</clipPath>
</defs>
</svg>
