<svg width="158" height="52" viewBox="0 0 158 52" fill="none" xmlns="http://www.w3.org/2000/svg">
<line x1="67.2294" y1="29.7532" x2="148.278" y2="29.7532" stroke="black" stroke-opacity="0.31"/>
<path d="M61.9115 33.9673C62.3896 34.0091 62.8049 34.1346 63.1575 34.3437C63.516 34.5529 63.7939 34.8338 63.9911 35.1864C64.1883 35.5389 64.2869 35.9573 64.2869 36.4413C64.2869 36.9254 64.1913 37.3467 64.0001 37.7052C63.8089 38.0578 63.537 38.3387 63.1844 38.5478C62.8318 38.751 62.4075 38.8735 61.9115 38.9153V40.995H61.1406V38.9153C60.6685 38.8735 60.2532 38.751 59.8946 38.5478C59.5361 38.3387 59.2582 38.0578 59.061 37.7052C58.8638 37.3467 58.7652 36.9254 58.7652 36.4413C58.7652 35.9513 58.8608 35.53 59.052 35.1774C59.2432 34.8188 59.5181 34.538 59.8767 34.3348C60.2352 34.1256 60.6655 34.0031 61.1675 33.9673V32.0311H61.9115V33.9673ZM61.1675 34.6216C60.803 34.6575 60.5042 34.7501 60.2711 34.8995C60.038 35.0489 59.8647 35.2521 59.7512 35.5091C59.6436 35.766 59.5898 36.0768 59.5898 36.4413C59.5898 36.7999 59.6436 37.1106 59.7512 37.3736C59.8647 37.6305 60.038 37.8367 60.2711 37.9921C60.5042 38.1415 60.803 38.2341 61.1675 38.2699V34.6216ZM61.9115 38.2699C62.2701 38.2281 62.5629 38.1325 62.79 37.9831C63.023 37.8337 63.1933 37.6305 63.3009 37.3736C63.4145 37.1106 63.4712 36.7999 63.4712 36.4413C63.4712 36.0827 63.4145 35.775 63.3009 35.518C63.1874 35.2611 63.0141 35.0579 62.781 34.9085C62.5539 34.7591 62.2641 34.6664 61.9115 34.6306V38.2699Z" fill="#191A1D"/>
<path d="M66.1928 36.9702C66.1928 37.024 66.1898 37.1016 66.1838 37.2032C66.1838 37.2989 66.1808 37.4034 66.1748 37.517C66.1688 37.6245 66.1629 37.7291 66.1569 37.8307C66.1509 37.9263 66.1449 38.004 66.139 38.0638L68.7116 34.039H69.6797V38.8436H68.9447V36.011C68.9447 35.9154 68.9447 35.7899 68.9447 35.6346C68.9506 35.4792 68.9566 35.3268 68.9626 35.1774C68.9686 35.022 68.9746 34.9055 68.9805 34.8278L66.4258 38.8436H65.4487V34.039H66.1928V36.9702Z" fill="#191A1D"/>
<path d="M71.9079 34.039V36.0379H74.5164V34.039H75.3053V38.8436H74.5164V36.7013H71.9079V38.8436H71.1191V34.039H71.9079Z" fill="#191A1D"/>
<path d="M78.5567 33.9583C79.1423 33.9583 79.5756 34.0868 79.8564 34.3437C80.1373 34.6007 80.2777 35.0101 80.2777 35.5718V38.8436H79.704L79.5516 38.1624H79.5158C79.3783 38.3357 79.2349 38.4821 79.0855 38.6016C78.9421 38.7152 78.7748 38.7988 78.5835 38.8526C78.3983 38.9064 78.1712 38.9333 77.9023 38.9333C77.6154 38.9333 77.3555 38.8825 77.1224 38.7809C76.8953 38.6793 76.7161 38.5239 76.5846 38.3148C76.4531 38.0996 76.3874 37.8307 76.3874 37.508C76.3874 37.0299 76.5756 36.6624 76.9521 36.4054C77.3286 36.1425 77.9083 35.9991 78.6911 35.9752L79.5068 35.9483V35.6614C79.5068 35.2611 79.4202 34.9832 79.2469 34.8278C79.0736 34.6724 78.8286 34.5947 78.5118 34.5947C78.2608 34.5947 78.0218 34.6336 77.7947 34.7113C77.5676 34.783 77.3555 34.8666 77.1583 34.9623L76.9163 34.3706C77.1254 34.2571 77.3734 34.1615 77.6603 34.0838C77.9471 34.0001 78.2459 33.9583 78.5567 33.9583ZM78.7897 36.522C78.1921 36.5459 77.7768 36.6415 77.5437 36.8088C77.3166 36.9761 77.2031 37.2122 77.2031 37.517C77.2031 37.7859 77.2838 37.9831 77.4451 38.1086C77.6125 38.2341 77.8246 38.2968 78.0816 38.2968C78.4879 38.2968 78.8256 38.1863 79.0945 37.9652C79.3634 37.7381 79.4979 37.3915 79.4979 36.9254V36.4951L78.7897 36.522Z" fill="#191A1D"/>
<path d="M82.4609 34.039V36.0379H85.0694V34.039H85.8582V38.8436H85.0694V36.7013H82.4609V38.8436H81.672V34.039H82.4609Z" fill="#191A1D"/>
<path d="M89.2171 38.9333C88.7928 38.9333 88.4134 38.8466 88.0787 38.6733C87.75 38.5 87.4901 38.2311 87.2989 37.8666C87.1136 37.502 87.021 37.0359 87.021 36.4682C87.021 35.8766 87.1196 35.3955 87.3168 35.025C87.514 34.6545 87.7799 34.3826 88.1146 34.2093C88.4552 34.036 88.8406 33.9493 89.2709 33.9493C89.5159 33.9493 89.752 33.9762 89.9791 34.03C90.2061 34.0778 90.3914 34.1376 90.5348 34.2093L90.2928 34.8637C90.1494 34.8099 89.9821 34.7591 89.7908 34.7113C89.5996 34.6635 89.4203 34.6396 89.253 34.6396C88.9303 34.6396 88.6644 34.7083 88.4552 34.8457C88.246 34.9832 88.0907 35.1864 87.9891 35.4553C87.8875 35.7242 87.8367 36.0588 87.8367 36.4592C87.8367 36.8417 87.8875 37.1674 87.9891 37.4363C88.0907 37.7052 88.2431 37.9084 88.4462 38.0458C88.6494 38.1833 88.9034 38.252 89.2082 38.252C89.4711 38.252 89.7012 38.2251 89.8984 38.1713C90.1016 38.1176 90.2868 38.0518 90.4542 37.9741V38.6733C90.2928 38.757 90.1135 38.8197 89.9163 38.8616C89.7251 38.9094 89.492 38.9333 89.2171 38.9333Z" fill="#191A1D"/>
<path d="M95.6843 36.4323C95.6843 36.8327 95.6305 37.1883 95.523 37.499C95.4214 37.8038 95.272 38.0638 95.0748 38.2789C94.8835 38.494 94.6475 38.6584 94.3666 38.7719C94.0917 38.8795 93.784 38.9333 93.4433 38.9333C93.1266 38.9333 92.8338 38.8795 92.5649 38.7719C92.296 38.6584 92.0629 38.494 91.8657 38.2789C91.6685 38.0638 91.5131 37.8038 91.3996 37.499C91.292 37.1883 91.2382 36.8327 91.2382 36.4323C91.2382 35.9005 91.3278 35.4523 91.5071 35.0878C91.6864 34.7172 91.9434 34.4364 92.278 34.2451C92.6127 34.0479 93.0101 33.9493 93.4702 33.9493C93.9065 33.9493 94.2889 34.0479 94.6176 34.2451C94.9523 34.4364 95.2122 34.7172 95.3975 35.0878C95.5887 35.4523 95.6843 35.9005 95.6843 36.4323ZM92.0539 36.4323C92.0539 36.8088 92.1017 37.1375 92.1974 37.4184C92.2989 37.6933 92.4543 37.9054 92.6635 38.0548C92.8726 38.2042 93.1386 38.2789 93.4613 38.2789C93.784 38.2789 94.0499 38.2042 94.2591 38.0548C94.4682 37.9054 94.6206 37.6933 94.7162 37.4184C94.8178 37.1375 94.8686 36.8088 94.8686 36.4323C94.8686 36.0499 94.8178 35.7242 94.7162 35.4553C94.6146 35.1864 94.4592 34.9802 94.2501 34.8368C94.0469 34.6874 93.781 34.6127 93.4523 34.6127C92.9623 34.6127 92.6067 34.774 92.3856 35.0967C92.1645 35.4194 92.0539 35.8646 92.0539 36.4323Z" fill="#191A1D"/>
<path d="M100.708 35.2491C100.708 35.5479 100.619 35.781 100.439 35.9483C100.26 36.1156 100.03 36.2292 99.7492 36.2889V36.3248C100.048 36.3666 100.308 36.4742 100.529 36.6475C100.75 36.8148 100.861 37.0777 100.861 37.4363C100.861 37.6395 100.822 37.8277 100.744 38.001C100.672 38.1743 100.559 38.3237 100.404 38.4492C100.248 38.5747 100.048 38.6733 99.803 38.745C99.5579 38.8108 99.2621 38.8436 98.9155 38.8436H96.8449V34.039H98.9066C99.2472 34.039 99.552 34.0778 99.8209 34.1555C100.096 34.2272 100.311 34.3527 100.466 34.532C100.628 34.7053 100.708 34.9443 100.708 35.2491ZM100.045 37.4363C100.045 37.1614 99.9404 36.9642 99.7312 36.8447C99.5221 36.7252 99.2143 36.6654 98.808 36.6654H97.6337V38.2072H98.8259C99.2203 38.2072 99.5221 38.1504 99.7312 38.0369C99.9404 37.9174 100.045 37.7172 100.045 37.4363ZM99.9105 35.3477C99.9105 35.1206 99.8269 34.9563 99.6595 34.8547C99.4982 34.7471 99.2323 34.6933 98.8617 34.6933H97.6337V36.011H98.7183C99.1068 36.011 99.4026 35.9573 99.6057 35.8497C99.8089 35.7421 99.9105 35.5748 99.9105 35.3477Z" fill="#191A1D"/>
<path d="M103.74 33.9583C104.325 33.9583 104.759 34.0868 105.039 34.3437C105.32 34.6007 105.461 35.0101 105.461 35.5718V38.8436H104.887L104.735 38.1624H104.699C104.561 38.3357 104.418 38.4821 104.269 38.6016C104.125 38.7152 103.958 38.7988 103.767 38.8526C103.581 38.9064 103.354 38.9333 103.085 38.9333C102.798 38.9333 102.538 38.8825 102.305 38.7809C102.078 38.6793 101.899 38.5239 101.768 38.3148C101.636 38.0996 101.57 37.8307 101.57 37.508C101.57 37.0299 101.759 36.6624 102.135 36.4054C102.512 36.1425 103.091 35.9991 103.874 35.9752L104.69 35.9483V35.6614C104.69 35.2611 104.603 34.9832 104.43 34.8278C104.257 34.6724 104.012 34.5947 103.695 34.5947C103.444 34.5947 103.205 34.6336 102.978 34.7113C102.751 34.783 102.538 34.8666 102.341 34.9623L102.099 34.3706C102.308 34.2571 102.556 34.1615 102.843 34.0838C103.13 34.0001 103.429 33.9583 103.74 33.9583ZM103.973 36.522C103.375 36.5459 102.96 36.6415 102.727 36.8088C102.5 36.9761 102.386 37.2122 102.386 37.517C102.386 37.7859 102.467 37.9831 102.628 38.1086C102.795 38.2341 103.008 38.2968 103.265 38.2968C103.671 38.2968 104.009 38.1863 104.277 37.9652C104.546 37.7381 104.681 37.3915 104.681 36.9254V36.4951L103.973 36.522Z" fill="#191A1D"/>
<path d="M107.151 38.8436H106.237L107.608 36.8268C107.423 36.7789 107.243 36.7042 107.07 36.6027C106.897 36.4951 106.756 36.3487 106.649 36.1634C106.541 35.9722 106.488 35.7361 106.488 35.4553C106.488 34.9951 106.643 34.6455 106.954 34.4065C107.264 34.1615 107.677 34.039 108.191 34.039H110.342V38.8436H109.553V36.9343H108.388L107.151 38.8436ZM107.249 35.4642C107.249 35.7391 107.351 35.9453 107.554 36.0827C107.763 36.2142 108.053 36.28 108.424 36.28H109.553V34.6933H108.271C107.907 34.6933 107.644 34.7651 107.483 34.9085C107.327 35.0519 107.249 35.2372 107.249 35.4642Z" fill="#191A1D"/>
<path d="M117.306 34.039H118.167L116.114 36.3517L118.337 38.8436H117.423L115.253 36.4054V38.8436H114.465V34.039H115.253V36.3696L117.306 34.039Z" fill="#191A1D"/>
<path d="M123.122 36.4323C123.122 36.8327 123.068 37.1883 122.96 37.499C122.859 37.8038 122.709 38.0638 122.512 38.2789C122.321 38.494 122.085 38.6584 121.804 38.7719C121.529 38.8795 121.221 38.9333 120.881 38.9333C120.564 38.9333 120.271 38.8795 120.002 38.7719C119.733 38.6584 119.5 38.494 119.303 38.2789C119.106 38.0638 118.95 37.8038 118.837 37.499C118.729 37.1883 118.676 36.8327 118.676 36.4323C118.676 35.9005 118.765 35.4523 118.944 35.0878C119.124 34.7172 119.381 34.4364 119.715 34.2451C120.05 34.0479 120.447 33.9493 120.908 33.9493C121.344 33.9493 121.726 34.0479 122.055 34.2451C122.39 34.4364 122.65 34.7172 122.835 35.0878C123.026 35.4523 123.122 35.9005 123.122 36.4323ZM119.491 36.4323C119.491 36.8088 119.539 37.1375 119.635 37.4184C119.736 37.6933 119.892 37.9054 120.101 38.0548C120.31 38.2042 120.576 38.2789 120.899 38.2789C121.221 38.2789 121.487 38.2042 121.696 38.0548C121.905 37.9054 122.058 37.6933 122.153 37.4184C122.255 37.1375 122.306 36.8088 122.306 36.4323C122.306 36.0499 122.255 35.7242 122.153 35.4553C122.052 35.1864 121.897 34.9802 121.687 34.8368C121.484 34.6874 121.218 34.6127 120.89 34.6127C120.4 34.6127 120.044 34.774 119.823 35.0967C119.602 35.4194 119.491 35.8646 119.491 36.4323Z" fill="#191A1D"/>
<path d="M129.436 34.039V38.8436H128.728V35.778C128.728 35.6525 128.731 35.521 128.737 35.3836C128.749 35.2461 128.761 35.1117 128.773 34.9802H128.746L127.177 38.8436H126.514L124.99 34.9802H124.963C124.975 35.1117 124.981 35.2461 124.981 35.3836C124.987 35.521 124.99 35.6614 124.99 35.8049V38.8436H124.282V34.039H125.331L126.846 37.9024L128.388 34.039H129.436Z" fill="#191A1D"/>
<path d="M134.941 34.039V38.8436H134.152V34.7113H131.669V38.8436H130.88V34.039H134.941Z" fill="#191A1D"/>
<path d="M138.204 33.9583C138.79 33.9583 139.223 34.0868 139.504 34.3437C139.785 34.6007 139.925 35.0101 139.925 35.5718V38.8436H139.352L139.199 38.1624H139.163C139.026 38.3357 138.882 38.4821 138.733 38.6016C138.59 38.7152 138.422 38.7988 138.231 38.8526C138.046 38.9064 137.819 38.9333 137.55 38.9333C137.263 38.9333 137.003 38.8825 136.77 38.7809C136.543 38.6793 136.364 38.5239 136.232 38.3148C136.101 38.0996 136.035 37.8307 136.035 37.508C136.035 37.0299 136.223 36.6624 136.6 36.4054C136.976 36.1425 137.556 35.9991 138.339 35.9752L139.154 35.9483V35.6614C139.154 35.2611 139.068 34.9832 138.894 34.8278C138.721 34.6724 138.476 34.5947 138.159 34.5947C137.908 34.5947 137.669 34.6336 137.442 34.7113C137.215 34.783 137.003 34.8666 136.806 34.9623L136.564 34.3706C136.773 34.2571 137.021 34.1615 137.308 34.0838C137.595 34.0001 137.893 33.9583 138.204 33.9583ZM138.437 36.522C137.84 36.5459 137.424 36.6415 137.191 36.8088C136.964 36.9761 136.851 37.2122 136.851 37.517C136.851 37.7859 136.931 37.9831 137.093 38.1086C137.26 38.2341 137.472 38.2968 137.729 38.2968C138.135 38.2968 138.473 38.1863 138.742 37.9652C139.011 37.7381 139.145 37.3915 139.145 36.9254V36.4951L138.437 36.522Z" fill="#191A1D"/>
<path d="M142.108 34.039V36.0379H144.717V34.039H145.506V38.8436H144.717V36.7013H142.108V38.8436H141.32V34.039H142.108Z" fill="#191A1D"/>
<path d="M147.681 36.9702C147.681 37.024 147.678 37.1016 147.672 37.2032C147.672 37.2989 147.669 37.4034 147.663 37.517C147.657 37.6245 147.652 37.7291 147.646 37.8307C147.64 37.9263 147.634 38.004 147.628 38.0638L150.2 34.039H151.168V38.8436H150.433V36.011C150.433 35.9154 150.433 35.7899 150.433 35.6346C150.439 35.4792 150.445 35.3268 150.451 35.1774C150.457 35.022 150.463 34.9055 150.469 34.8278L147.914 38.8436H146.937V34.039H147.681V36.9702Z" fill="#191A1D"/>
<path d="M152.904 38.8436H151.989L153.361 36.8268C153.175 36.7789 152.996 36.7042 152.823 36.6027C152.65 36.4951 152.509 36.3487 152.402 36.1634C152.294 35.9722 152.24 35.7361 152.24 35.4553C152.24 34.9951 152.396 34.6455 152.706 34.4065C153.017 34.1615 153.429 34.039 153.943 34.039H156.095V38.8436H155.306V36.9343H154.141L152.904 38.8436ZM153.002 35.4642C153.002 35.7391 153.104 35.9453 153.307 36.0827C153.516 36.2142 153.806 36.28 154.176 36.28H155.306V34.6933H154.024C153.66 34.6933 153.397 34.7651 153.235 34.9085C153.08 35.0519 153.002 35.2372 153.002 35.4642Z" fill="#191A1D"/>
<path d="M61.6467 18.9527C61.3748 18.9527 61.187 18.9656 61.0834 18.9915L60.8115 18.9527C60.3713 18.875 60.0735 18.7196 59.9181 18.4866C59.7757 18.2406 59.7045 17.755 59.7045 17.0299V15.8452C59.7045 14.6799 60.2289 14.0972 61.2777 14.0972H61.6467V18.9527ZM68.6968 17.0299C68.6968 17.755 68.6191 18.2406 68.4637 18.4866C68.3213 18.7196 68.03 18.875 67.5897 18.9527L67.3178 18.9915C67.2402 18.9786 67.1625 18.9721 67.0848 18.9721C67.0071 18.9592 66.897 18.9527 66.7546 18.9527V14.0972H67.1236C68.1724 14.0972 68.6968 14.6799 68.6968 15.8452V17.0299ZM60.0929 10.6207C59.0441 10.6207 58.2155 10.692 57.6069 10.8344C56.9336 10.9509 56.3704 11.2293 55.9172 11.6695C55.3605 12.1615 54.985 12.783 54.7908 13.534C54.6095 14.285 54.5189 15.1719 54.5189 16.1948V17.7097C54.5189 18.5513 54.6289 19.2829 54.849 19.9044C55.0821 20.5129 55.3993 20.992 55.8007 21.3416C56.6294 22.1055 57.9112 22.4875 59.6462 22.4875H61.6467C61.6467 22.6299 61.6596 22.7335 61.6855 22.7982C61.6855 22.9924 61.6726 23.1672 61.6467 23.3226C61.6337 23.478 61.5949 23.6463 61.5301 23.8276C61.4783 23.9959 61.3035 24.1836 61.0057 24.3908L60.9863 27.2652H67.3178V24.3131C67.0589 24.1319 66.9035 23.97 66.8517 23.8276C66.8129 23.6722 66.7805 23.5168 66.7546 23.3615C66.7287 23.2061 66.7158 23.0183 66.7158 22.7982C66.7417 22.7335 66.7546 22.6299 66.7546 22.4875H68.7551C70.4901 22.4875 71.7719 22.1055 72.6006 21.3416C73.0149 20.979 73.3321 20.5 73.5522 19.9044C73.7724 19.2958 73.8824 18.5643 73.8824 17.7097V16.1948C73.8824 15.1719 73.7853 14.285 73.5911 13.534C73.4098 12.783 73.0408 12.1615 72.484 11.6695C72.0309 11.2293 71.4676 10.9509 70.7943 10.8344C70.1858 10.692 69.3571 10.6207 68.3084 10.6207H60.0929Z" fill="#4C5866"/>
<path d="M74.8949 22.5263V15.3597C74.8949 13.534 75.3999 12.2328 76.4098 11.4559C77.4327 10.6661 78.9994 10.2711 81.1099 10.2711C82.1846 10.2711 83.0974 10.3618 83.8484 10.5431C84.6123 10.7243 85.2597 11.0157 85.7906 11.417C86.8005 12.1551 87.3055 13.4693 87.3055 15.3597V22.5263C87.3055 24.2743 86.8134 25.5626 85.8294 26.3913C84.8454 27.207 83.2722 27.6148 81.1099 27.6148C78.9606 27.6148 77.3874 27.207 76.3904 26.3913C75.3934 25.5626 74.8949 24.2743 74.8949 22.5263ZM82.1004 22.7205V15.2043C82.1004 14.3238 81.7703 13.8836 81.1099 13.8836C80.4366 13.8836 80.1 14.3238 80.1 15.2043V22.7205C80.1 23.5751 80.4366 24.0024 81.1099 24.0024C81.7703 24.0024 82.1004 23.5751 82.1004 22.7205Z" fill="#4C5866"/>
<path d="M88.6981 10.6207H96.0201C97.0689 10.6207 97.8975 10.692 98.5061 10.8344C99.1794 10.9509 99.7426 11.2293 100.196 11.6695C100.753 12.1615 101.122 12.783 101.303 13.534C101.497 14.285 101.594 15.1719 101.594 16.1948V17.7097C101.594 18.5513 101.478 19.2829 101.245 19.9044C101.024 20.5129 100.714 20.992 100.312 21.3416C99.4837 22.1055 98.2018 22.4875 96.4668 22.4875H94.4664C94.4664 22.6299 94.4534 22.7335 94.4275 22.7982C94.4275 22.9924 94.434 23.1672 94.4469 23.3226C94.4728 23.478 94.5117 23.6398 94.5635 23.8082C94.6153 23.9635 94.7706 24.1319 95.0296 24.3131V27.2652H88.6981V24.3131C89.0736 24.0801 89.2613 23.6334 89.2613 22.973V15.0878C89.2613 14.2979 89.0736 13.793 88.6981 13.5729V10.6207ZM94.4664 14.0972V18.9527C94.7383 18.9527 94.926 18.9656 95.0296 18.9915L95.3015 18.9527C95.7417 18.875 96.033 18.7196 96.1755 18.4866C96.3308 18.2406 96.4085 17.755 96.4085 17.0299V15.8452C96.4085 14.6799 95.8841 14.0972 94.8354 14.0972H94.4664Z" fill="#4C5866"/>
<path d="M110.503 27.2652H102.424V24.3131C102.851 24.1319 103.064 23.6981 103.064 23.0119V15.282C103.064 14.6216 103.026 14.1944 102.948 14.0001C102.87 13.793 102.695 13.6505 102.424 13.5729V10.6207H110.017C110.924 10.6207 111.675 10.6661 112.27 10.7567C112.866 10.8344 113.377 11.0027 113.805 11.2617C114.944 11.935 115.514 13.1585 115.514 14.9324C115.514 16.8746 114.64 18.0787 112.892 18.5448C113.695 18.6614 114.374 19.0369 114.931 19.6713C115.501 20.3058 115.786 21.2445 115.786 22.4875C115.786 23.2385 115.682 23.9376 115.475 24.585C115.32 25.1677 114.989 25.6921 114.484 26.1582C113.954 26.5984 113.364 26.8962 112.717 27.0516C112.07 27.194 111.332 27.2652 110.503 27.2652ZM108.27 14.0584V17.0688H108.949C109.532 17.004 109.92 16.8487 110.115 16.6027C110.27 16.4214 110.348 15.9682 110.348 15.2431C110.348 14.7641 110.166 14.4404 109.804 14.272C109.661 14.2073 109.493 14.1555 109.299 14.1167C109.118 14.0778 108.91 14.0584 108.677 14.0584H108.27ZM108.27 20.1763V23.8082H108.833C109.467 23.8082 109.907 23.6204 110.153 23.2449C110.335 22.9212 110.425 22.3904 110.425 21.6523C110.425 20.6683 109.843 20.1763 108.677 20.1763H108.27Z" fill="#4C5866"/>
<path d="M126.509 10.6207L128.665 21.4193C128.885 22.5846 129.054 23.3226 129.17 23.6334C129.287 23.9312 129.5 24.1577 129.811 24.3131V27.2652H123.246V24.3131C123.622 24.1966 123.81 23.9053 123.81 23.4391V23.2061C123.81 23.1025 123.797 22.9989 123.771 22.8953H121.265L121.168 23.4391C121.168 23.9182 121.408 24.2095 121.887 24.3131V27.2652H116.157V24.3131C116.494 24.0542 116.747 23.4197 116.915 22.4098L119.11 10.6207H126.509ZM123.324 19.6713L122.45 14.7382L121.615 19.6713H123.324Z" fill="#4C5866"/>
<path d="M130.563 10.6207H137.885C138.934 10.6207 139.762 10.692 140.371 10.8344C141.044 10.9509 141.607 11.2293 142.06 11.6695C142.617 12.1615 142.986 12.783 143.167 13.534C143.362 14.285 143.459 15.1719 143.459 16.1948V17.7097C143.459 18.5513 143.342 19.2829 143.109 19.9044C142.889 20.5129 142.578 20.992 142.177 21.3416C141.348 22.1055 140.066 22.4875 138.331 22.4875H136.331C136.331 22.6299 136.318 22.7335 136.292 22.7982C136.292 22.9924 136.299 23.1672 136.312 23.3226C136.337 23.478 136.376 23.6398 136.428 23.8082C136.48 23.9635 136.635 24.1319 136.894 24.3131V27.2652H130.563V24.3131C130.938 24.0801 131.126 23.6334 131.126 22.973V15.0878C131.126 14.2979 130.938 13.793 130.563 13.5729V10.6207ZM136.331 14.0972V18.9527C136.603 18.9527 136.791 18.9656 136.894 18.9915L137.166 18.9527C137.606 18.875 137.898 18.7196 138.04 18.4866C138.195 18.2406 138.273 17.755 138.273 17.0299V15.8452C138.273 14.6799 137.749 14.0972 136.7 14.0972H136.331Z" fill="#4C5866"/>
<path d="M158 27.2652H144.288V24.3131C144.586 24.1836 144.8 23.9571 144.929 23.6334C145.02 23.4003 145.065 23.0831 145.065 22.6817V15.2431C145.065 13.6635 145.479 12.4982 146.308 11.7472C147.137 10.9962 148.431 10.6207 150.192 10.6207H158V13.5729C157.715 13.6894 157.527 13.8512 157.437 14.0584C157.359 14.2656 157.32 14.5828 157.32 15.0101V22.7982C157.32 23.1867 157.366 23.5168 157.456 23.7887C157.56 24.0218 157.741 24.1966 158 24.3131V27.2652ZM152.115 23.7305V14.2526H151.591H151.668C151.189 14.2526 150.833 14.3627 150.6 14.5828C150.367 14.79 150.251 15.1978 150.251 15.8064V22.2156C150.251 22.8241 150.348 23.232 150.542 23.4391C150.749 23.6334 151.06 23.7305 151.474 23.7305H152.115Z" fill="#4C5866"/>
<path d="M3.66818 27.7421C3.24999 27.375 3.20812 26.7363 3.57465 26.3155L20.3832 7.01598C23.12 3.87362 27.8699 3.54803 30.9923 6.28875L45.273 18.8236C48.3955 21.5643 48.7081 26.3335 45.9713 29.4758L33.4544 43.8476C30.7177 46.99 25.9678 47.3155 22.8454 44.5748L3.66818 27.7421Z" fill="url(#paint0_linear_33_7)"/>
<path d="M23.3473 26.6173C22.9312 26.252 22.8895 25.6165 23.2542 25.1977L35.4415 11.2044C37.062 9.34367 39.8745 9.1509 41.7234 10.7737L53.0339 20.7014C54.8827 22.3243 55.0678 25.1482 53.4473 27.0089L43.5338 38.3914C41.9133 40.2521 39.1008 40.4449 37.252 38.822L23.3473 26.6173Z" fill="url(#paint1_linear_33_7)"/>
<defs>
<linearGradient id="paint0_linear_33_7" x1="31.1149" y1="5.51868" x2="20.5961" y2="44.7751" gradientUnits="userSpaceOnUse">
<stop stop-color="#58AED3"/>
<stop offset="1" stop-color="#58AED3" stop-opacity="0.8"/>
</linearGradient>
<linearGradient id="paint1_linear_33_7" x1="42.699" y1="10.5597" x2="35.1497" y2="38.7342" gradientUnits="userSpaceOnUse">
<stop stop-color="#20AFCE" stop-opacity="0.77"/>
<stop offset="1" stop-color="#20AFCE" stop-opacity="0.62"/>
</linearGradient>
</defs>
</svg>
