<svg width="456" height="134" viewBox="0 0 456 134" fill="none" xmlns="http://www.w3.org/2000/svg">
<line x1="165" y1="80" x2="394" y2="80.0002" stroke="black" stroke-opacity="0.31" stroke-width="2"/>
<line x1="407" y1="80" x2="437" y2="80" stroke="black" stroke-opacity="0.31" stroke-width="2"/>
<path d="M138.753 114.368V113H137.865C136.681 113 135.609 112.92 134.649 112.76C133.705 112.584 132.897 112.232 132.225 111.704C131.553 111.16 131.033 110.384 130.665 109.376C130.297 108.352 130.113 106.992 130.113 105.296C130.113 103.6 130.297 102.248 130.665 101.24C131.033 100.216 131.553 99.44 132.225 98.912C132.897 98.368 133.705 98.016 134.649 97.856C135.609 97.68 136.681 97.592 137.865 97.592C138.009 97.592 138.153 97.592 138.297 97.592C138.457 97.592 138.609 97.6 138.753 97.616V96.224H140.481V97.616C140.625 97.6 140.769 97.592 140.913 97.592C141.057 97.592 141.209 97.592 141.369 97.592C142.537 97.592 143.601 97.68 144.561 97.856C145.521 98.016 146.337 98.368 147.009 98.912C147.681 99.44 148.201 100.216 148.569 101.24C148.937 102.248 149.121 103.6 149.121 105.296C149.121 106.992 148.937 108.352 148.569 109.376C148.201 110.384 147.681 111.16 147.009 111.704C146.337 112.232 145.521 112.584 144.561 112.76C143.601 112.92 142.537 113 141.369 113C141.209 113 141.057 113 140.913 113C140.769 113.016 140.625 113.016 140.481 113V114.368H138.753ZM140.481 111.632C140.609 111.648 140.745 111.656 140.889 111.656C141.033 111.656 141.177 111.656 141.321 111.656C142.185 111.656 142.985 111.616 143.721 111.536C144.457 111.44 145.089 111.192 145.617 110.792C146.161 110.376 146.585 109.744 146.889 108.896C147.193 108.032 147.345 106.832 147.345 105.296C147.345 103.776 147.193 102.592 146.889 101.744C146.585 100.88 146.161 100.248 145.617 99.848C145.089 99.432 144.457 99.184 143.721 99.104C142.985 99.008 142.185 98.96 141.321 98.96C141.177 98.96 141.033 98.96 140.889 98.96C140.745 98.96 140.609 98.968 140.481 98.984V111.632ZM138.753 98.984C138.609 98.968 138.465 98.96 138.321 98.96C138.177 98.96 138.041 98.96 137.913 98.96C137.049 98.96 136.249 99.008 135.513 99.104C134.777 99.184 134.137 99.432 133.593 99.848C133.065 100.248 132.649 100.88 132.345 101.744C132.041 102.592 131.889 103.776 131.889 105.296C131.889 106.832 132.041 108.032 132.345 108.896C132.649 109.744 133.065 110.376 133.593 110.792C134.137 111.192 134.777 111.44 135.513 111.536C136.249 111.616 137.049 111.656 137.913 111.656C138.041 111.656 138.177 111.656 138.321 111.656C138.465 111.656 138.609 111.648 138.753 111.632V98.984ZM162.65 113V99.944L153.554 113H151.658V97.592H153.266V110.6L162.362 97.592H164.282V113H162.65ZM178.911 113V105.512H169.791V113H168.087V97.592H169.791V104.096H178.911V97.592H180.615V113H178.911ZM198.079 113.024C197.279 112.912 196.687 112.68 196.303 112.328C195.919 111.976 195.663 111.408 195.535 110.624C194.975 111.472 194.223 112.12 193.279 112.568C192.351 113.016 191.215 113.24 189.871 113.24C188.959 113.24 188.119 113.168 187.351 113.024C186.599 112.88 185.951 112.632 185.407 112.28C184.863 111.912 184.439 111.424 184.135 110.816C183.831 110.192 183.679 109.416 183.679 108.488C183.679 107.56 183.831 106.792 184.135 106.184C184.439 105.56 184.863 105.072 185.407 104.72C185.951 104.352 186.599 104.096 187.351 103.952C188.119 103.808 188.959 103.736 189.871 103.736H195.103C195.055 102.552 194.935 101.624 194.743 100.952C194.551 100.264 194.255 99.752 193.855 99.416C193.471 99.08 192.967 98.872 192.343 98.792C191.735 98.696 190.975 98.648 190.063 98.648C189.583 98.648 189.111 98.68 188.647 98.744C188.183 98.808 187.743 98.888 187.327 98.984C186.927 99.08 186.559 99.184 186.223 99.296C185.887 99.392 185.607 99.48 185.383 99.56L184.591 98.288C185.263 97.968 186.071 97.72 187.015 97.544C187.959 97.368 188.991 97.28 190.111 97.28C191.407 97.28 192.487 97.376 193.351 97.568C194.231 97.76 194.927 98.136 195.439 98.696C195.967 99.256 196.343 100.056 196.567 101.096C196.791 102.136 196.903 103.504 196.903 105.2V105.584V108.272C196.903 108.88 196.927 109.392 196.975 109.808C197.039 110.208 197.127 110.544 197.239 110.816C197.351 111.072 197.495 111.272 197.671 111.416C197.863 111.56 198.087 111.664 198.343 111.728L198.079 113.024ZM195.127 105.128H189.871C189.199 105.128 188.583 105.168 188.023 105.248C187.463 105.312 186.983 105.464 186.583 105.704C186.183 105.928 185.871 106.264 185.647 106.712C185.423 107.144 185.311 107.736 185.311 108.488C185.311 109.24 185.423 109.84 185.647 110.288C185.871 110.72 186.183 111.056 186.583 111.296C186.999 111.52 187.487 111.672 188.047 111.752C188.607 111.816 189.223 111.848 189.895 111.848C191.031 111.848 191.943 111.704 192.631 111.416C193.319 111.128 193.847 110.704 194.215 110.144C194.583 109.568 194.823 108.872 194.935 108.056C195.063 107.224 195.127 106.264 195.127 105.176V105.128ZM212.099 113V105.512H202.979V113H201.275V97.592H202.979V104.096H212.099V97.592H213.803V113H212.099ZM230.451 112.256C229.779 112.576 228.947 112.832 227.955 113.024C226.979 113.216 225.931 113.312 224.811 113.312C223.627 113.312 222.555 113.208 221.595 113C220.651 112.808 219.843 112.424 219.171 111.848C218.499 111.272 217.979 110.464 217.611 109.424C217.243 108.368 217.059 106.992 217.059 105.296C217.059 103.6 217.243 102.232 217.611 101.192C217.979 100.136 218.499 99.32 219.171 98.744C219.843 98.168 220.651 97.784 221.595 97.592C222.555 97.384 223.627 97.28 224.811 97.28C227.051 97.28 228.851 97.6 230.211 98.24L229.419 99.512C228.955 99.352 228.323 99.168 227.523 98.96C226.723 98.752 225.835 98.648 224.859 98.648C223.995 98.648 223.195 98.712 222.459 98.84C221.723 98.952 221.083 99.232 220.539 99.68C220.011 100.128 219.595 100.8 219.291 101.696C218.987 102.576 218.835 103.776 218.835 105.296C218.835 106.832 218.987 108.048 219.291 108.944C219.595 109.824 220.011 110.488 220.539 110.936C221.083 111.368 221.723 111.648 222.459 111.776C223.195 111.888 223.995 111.944 224.859 111.944C225.339 111.944 225.819 111.912 226.299 111.848C226.779 111.768 227.227 111.68 227.643 111.584C228.059 111.488 228.443 111.384 228.795 111.272C229.147 111.16 229.435 111.064 229.659 110.984L230.451 112.256ZM240.42 98.624C239.636 98.624 238.884 98.664 238.164 98.744C237.444 98.808 236.812 99.048 236.268 99.464C235.724 99.88 235.284 100.544 234.948 101.456C234.628 102.352 234.468 103.624 234.468 105.272C234.468 106.376 234.54 107.312 234.684 108.08C234.844 108.832 235.052 109.456 235.308 109.952C235.58 110.432 235.9 110.808 236.268 111.08C236.636 111.352 237.036 111.552 237.468 111.68C237.916 111.792 238.388 111.864 238.884 111.896C239.38 111.912 239.892 111.92 240.42 111.92C240.932 111.92 241.436 111.912 241.932 111.896C242.428 111.864 242.892 111.792 243.324 111.68C243.772 111.552 244.18 111.352 244.548 111.08C244.932 110.808 245.252 110.432 245.508 109.952C245.78 109.456 245.988 108.832 246.132 108.08C246.292 107.312 246.372 106.376 246.372 105.272C246.372 103.624 246.204 102.352 245.868 101.456C245.532 100.544 245.084 99.88 244.524 99.464C243.98 99.048 243.348 98.808 242.628 98.744C241.924 98.664 241.188 98.624 240.42 98.624ZM232.692 105.272C232.692 103.544 232.892 102.16 233.292 101.12C233.708 100.064 234.26 99.256 234.948 98.696C235.652 98.12 236.468 97.744 237.396 97.568C238.34 97.376 239.348 97.28 240.42 97.28C241.492 97.28 242.492 97.376 243.42 97.568C244.364 97.744 245.18 98.12 245.868 98.696C246.572 99.256 247.124 100.064 247.524 101.12C247.94 102.16 248.148 103.544 248.148 105.272C248.148 107 247.94 108.392 247.524 109.448C247.124 110.488 246.572 111.296 245.868 111.872C245.18 112.432 244.364 112.808 243.42 113C242.492 113.176 241.492 113.264 240.42 113.264C239.348 113.264 238.34 113.176 237.396 113C236.468 112.808 235.652 112.432 234.948 111.872C234.26 111.296 233.708 110.488 233.292 109.448C232.892 108.392 232.692 107 232.692 105.272ZM251.408 113V97.592H258.008C259.144 97.592 260.096 97.648 260.864 97.76C261.632 97.856 262.24 98.048 262.688 98.336C263.152 98.608 263.48 99 263.672 99.512C263.864 100.024 263.96 100.688 263.96 101.504C263.96 102.112 263.92 102.616 263.84 103.016C263.76 103.416 263.632 103.76 263.456 104.048C263.296 104.32 263.088 104.552 262.832 104.744C262.592 104.936 262.312 105.112 261.992 105.272C262.312 105.432 262.6 105.608 262.856 105.8C263.128 105.976 263.352 106.208 263.528 106.496C263.72 106.768 263.864 107.112 263.96 107.528C264.056 107.928 264.104 108.424 264.104 109.016C264.104 109.832 264 110.504 263.792 111.032C263.6 111.544 263.272 111.944 262.808 112.232C262.344 112.52 261.728 112.72 260.96 112.832C260.192 112.944 259.24 113 258.104 113H251.408ZM258.152 111.632C258.904 111.632 259.544 111.624 260.072 111.608C260.616 111.576 261.056 111.48 261.392 111.32C261.728 111.16 261.968 110.904 262.112 110.552C262.272 110.184 262.352 109.672 262.352 109.016C262.352 108.232 262.28 107.632 262.136 107.216C261.992 106.8 261.76 106.504 261.44 106.328C261.136 106.136 260.736 106.024 260.24 105.992C259.744 105.96 259.144 105.944 258.44 105.944H253.136V111.632H258.152ZM258.44 104.576C259.144 104.576 259.736 104.552 260.216 104.504C260.696 104.456 261.08 104.336 261.368 104.144C261.672 103.952 261.888 103.656 262.016 103.256C262.144 102.856 262.208 102.296 262.208 101.576C262.208 100.984 262.128 100.512 261.968 100.16C261.824 99.808 261.584 99.544 261.248 99.368C260.928 99.192 260.504 99.08 259.976 99.032C259.448 98.984 258.808 98.96 258.056 98.96H253.136V104.576H258.44ZM281.259 113.024C280.459 112.912 279.867 112.68 279.483 112.328C279.099 111.976 278.843 111.408 278.715 110.624C278.155 111.472 277.403 112.12 276.459 112.568C275.531 113.016 274.395 113.24 273.051 113.24C272.139 113.24 271.299 113.168 270.531 113.024C269.779 112.88 269.131 112.632 268.587 112.28C268.043 111.912 267.619 111.424 267.315 110.816C267.011 110.192 266.859 109.416 266.859 108.488C266.859 107.56 267.011 106.792 267.315 106.184C267.619 105.56 268.043 105.072 268.587 104.72C269.131 104.352 269.779 104.096 270.531 103.952C271.299 103.808 272.139 103.736 273.051 103.736H278.283C278.235 102.552 278.115 101.624 277.923 100.952C277.731 100.264 277.435 99.752 277.035 99.416C276.651 99.08 276.147 98.872 275.523 98.792C274.915 98.696 274.155 98.648 273.243 98.648C272.763 98.648 272.291 98.68 271.827 98.744C271.363 98.808 270.923 98.888 270.507 98.984C270.107 99.08 269.739 99.184 269.403 99.296C269.067 99.392 268.787 99.48 268.563 99.56L267.771 98.288C268.443 97.968 269.251 97.72 270.195 97.544C271.139 97.368 272.171 97.28 273.291 97.28C274.587 97.28 275.667 97.376 276.531 97.568C277.411 97.76 278.107 98.136 278.619 98.696C279.147 99.256 279.523 100.056 279.747 101.096C279.971 102.136 280.083 103.504 280.083 105.2V105.584V108.272C280.083 108.88 280.107 109.392 280.155 109.808C280.219 110.208 280.307 110.544 280.419 110.816C280.531 111.072 280.675 111.272 280.851 111.416C281.043 111.56 281.267 111.664 281.523 111.728L281.259 113.024ZM278.307 105.128H273.051C272.379 105.128 271.763 105.168 271.203 105.248C270.643 105.312 270.163 105.464 269.763 105.704C269.363 105.928 269.051 106.264 268.827 106.712C268.603 107.144 268.491 107.736 268.491 108.488C268.491 109.24 268.603 109.84 268.827 110.288C269.051 110.72 269.363 111.056 269.763 111.296C270.179 111.52 270.667 111.672 271.227 111.752C271.787 111.816 272.403 111.848 273.075 111.848C274.211 111.848 275.123 111.704 275.811 111.416C276.499 111.128 277.027 110.704 277.395 110.144C277.763 109.568 278.003 108.872 278.115 108.056C278.243 107.224 278.307 106.264 278.307 105.176V105.128ZM295.135 106.088V98.96H290.575C289.823 98.96 289.183 98.984 288.655 99.032C288.127 99.08 287.695 99.216 287.359 99.44C287.039 99.664 286.799 100.016 286.639 100.496C286.495 100.976 286.423 101.656 286.423 102.536C286.423 103.384 286.495 104.048 286.639 104.528C286.799 104.992 287.039 105.344 287.359 105.584C287.695 105.808 288.127 105.952 288.655 106.016C289.183 106.064 289.823 106.088 290.575 106.088H295.135ZM296.863 113H295.135V107.456H290.191L287.935 110.528C287.487 111.136 287.079 111.616 286.711 111.968C286.343 112.32 285.991 112.584 285.655 112.76C285.319 112.936 284.983 113.032 284.647 113.048C284.311 113.08 283.943 113.064 283.543 113L283.279 111.728C283.519 111.76 283.743 111.768 283.951 111.752C284.175 111.72 284.399 111.64 284.623 111.512C284.863 111.368 285.119 111.16 285.391 110.888C285.663 110.616 285.983 110.24 286.351 109.76L288.199 107.36C287.527 107.28 286.959 107.144 286.495 106.952C286.047 106.744 285.679 106.456 285.391 106.088C285.119 105.72 284.919 105.248 284.791 104.672C284.679 104.096 284.623 103.384 284.623 102.536C284.623 101.48 284.719 100.632 284.911 99.992C285.119 99.336 285.455 98.832 285.919 98.48C286.383 98.128 286.999 97.896 287.767 97.784C288.535 97.656 289.487 97.592 290.623 97.592H296.863V113ZM325.661 113C325.261 113.064 324.885 113.08 324.533 113.048C324.197 113.032 323.861 112.936 323.525 112.76C323.189 112.584 322.837 112.32 322.469 111.968C322.117 111.616 321.717 111.136 321.269 110.528L317.861 105.992H314.069V113H312.365V97.592H314.069V104.624H317.861L323.213 97.592H325.349C324.373 98.872 323.389 100.16 322.397 101.456C321.421 102.736 320.437 104.016 319.445 105.296L322.853 109.76C323.221 110.24 323.541 110.616 323.813 110.888C324.085 111.16 324.333 111.368 324.557 111.512C324.797 111.64 325.021 111.72 325.229 111.752C325.453 111.768 325.685 111.76 325.925 111.728L325.661 113ZM335.905 98.624C335.121 98.624 334.369 98.664 333.649 98.744C332.929 98.808 332.297 99.048 331.753 99.464C331.209 99.88 330.769 100.544 330.433 101.456C330.113 102.352 329.953 103.624 329.953 105.272C329.953 106.376 330.025 107.312 330.169 108.08C330.329 108.832 330.537 109.456 330.793 109.952C331.065 110.432 331.385 110.808 331.753 111.08C332.121 111.352 332.521 111.552 332.953 111.68C333.401 111.792 333.873 111.864 334.369 111.896C334.865 111.912 335.377 111.92 335.905 111.92C336.417 111.92 336.921 111.912 337.417 111.896C337.913 111.864 338.377 111.792 338.809 111.68C339.257 111.552 339.665 111.352 340.033 111.08C340.417 110.808 340.737 110.432 340.993 109.952C341.265 109.456 341.473 108.832 341.617 108.08C341.777 107.312 341.857 106.376 341.857 105.272C341.857 103.624 341.689 102.352 341.353 101.456C341.017 100.544 340.569 99.88 340.009 99.464C339.465 99.048 338.833 98.808 338.113 98.744C337.409 98.664 336.673 98.624 335.905 98.624ZM328.177 105.272C328.177 103.544 328.377 102.16 328.777 101.12C329.193 100.064 329.745 99.256 330.433 98.696C331.137 98.12 331.953 97.744 332.881 97.568C333.825 97.376 334.833 97.28 335.905 97.28C336.977 97.28 337.977 97.376 338.905 97.568C339.849 97.744 340.665 98.12 341.353 98.696C342.057 99.256 342.609 100.064 343.009 101.12C343.425 102.16 343.633 103.544 343.633 105.272C343.633 107 343.425 108.392 343.009 109.448C342.609 110.488 342.057 111.296 341.353 111.872C340.665 112.432 339.849 112.808 338.905 113C337.977 113.176 336.977 113.264 335.905 113.264C334.833 113.264 333.825 113.176 332.881 113C331.953 112.808 331.137 112.432 330.433 111.872C329.745 111.296 329.193 110.488 328.777 109.448C328.377 108.392 328.177 107 328.177 105.272ZM361.964 113V99.512H361.892L356.18 113H354.308L348.596 99.512H348.524V113H346.892V97.592H349.484L354.236 108.68L355.244 111.584L356.252 108.68L361.004 97.592H363.596V113H361.964ZM378.247 113V99.008H369.127V113H367.423V97.592H379.951V113H378.247ZM397.415 113.024C396.615 112.912 396.023 112.68 395.639 112.328C395.255 111.976 394.999 111.408 394.871 110.624C394.311 111.472 393.559 112.12 392.615 112.568C391.687 113.016 390.551 113.24 389.207 113.24C388.295 113.24 387.455 113.168 386.687 113.024C385.935 112.88 385.287 112.632 384.743 112.28C384.199 111.912 383.775 111.424 383.471 110.816C383.167 110.192 383.015 109.416 383.015 108.488C383.015 107.56 383.167 106.792 383.471 106.184C383.775 105.56 384.199 105.072 384.743 104.72C385.287 104.352 385.935 104.096 386.687 103.952C387.455 103.808 388.295 103.736 389.207 103.736H394.439C394.391 102.552 394.271 101.624 394.079 100.952C393.887 100.264 393.591 99.752 393.191 99.416C392.807 99.08 392.303 98.872 391.679 98.792C391.071 98.696 390.311 98.648 389.399 98.648C388.919 98.648 388.447 98.68 387.983 98.744C387.519 98.808 387.079 98.888 386.663 98.984C386.263 99.08 385.895 99.184 385.559 99.296C385.223 99.392 384.943 99.48 384.719 99.56L383.927 98.288C384.599 97.968 385.407 97.72 386.351 97.544C387.295 97.368 388.327 97.28 389.447 97.28C390.743 97.28 391.823 97.376 392.687 97.568C393.567 97.76 394.263 98.136 394.775 98.696C395.303 99.256 395.679 100.056 395.903 101.096C396.127 102.136 396.239 103.504 396.239 105.2V105.584V108.272C396.239 108.88 396.263 109.392 396.311 109.808C396.375 110.208 396.463 110.544 396.575 110.816C396.687 111.072 396.831 111.272 397.007 111.416C397.199 111.56 397.423 111.664 397.679 111.728L397.415 113.024ZM394.463 105.128H389.207C388.535 105.128 387.919 105.168 387.359 105.248C386.799 105.312 386.319 105.464 385.919 105.704C385.519 105.928 385.207 106.264 384.983 106.712C384.759 107.144 384.647 107.736 384.647 108.488C384.647 109.24 384.759 109.84 384.983 110.288C385.207 110.72 385.519 111.056 385.919 111.296C386.335 111.52 386.823 111.672 387.383 111.752C387.943 111.816 388.559 111.848 389.231 111.848C390.367 111.848 391.279 111.704 391.967 111.416C392.655 111.128 393.183 110.704 393.551 110.144C393.919 109.568 394.159 108.872 394.271 108.056C394.399 107.224 394.463 106.264 394.463 105.176V105.128ZM411.435 113V105.512H402.315V113H400.611V97.592H402.315V104.096H411.435V97.592H413.139V113H411.435ZM427.939 113V99.944L418.843 113H416.947V97.592H418.555V110.6L427.651 97.592H429.571V113H427.939ZM444.056 106.088V98.96H439.496C438.744 98.96 438.104 98.984 437.576 99.032C437.048 99.08 436.616 99.216 436.28 99.44C435.96 99.664 435.72 100.016 435.56 100.496C435.416 100.976 435.344 101.656 435.344 102.536C435.344 103.384 435.416 104.048 435.56 104.528C435.72 104.992 435.96 105.344 436.28 105.584C436.616 105.808 437.048 105.952 437.576 106.016C438.104 106.064 438.744 106.088 439.496 106.088H444.056ZM445.784 113H444.056V107.456H439.112L436.856 110.528C436.408 111.136 436 111.616 435.632 111.968C435.264 112.32 434.912 112.584 434.576 112.76C434.24 112.936 433.904 113.032 433.568 113.048C433.232 113.08 432.864 113.064 432.464 113L432.2 111.728C432.44 111.76 432.664 111.768 432.872 111.752C433.096 111.72 433.32 111.64 433.544 111.512C433.784 111.368 434.04 111.16 434.312 110.888C434.584 110.616 434.904 110.24 435.272 109.76L437.12 107.36C436.448 107.28 435.88 107.144 435.416 106.952C434.968 106.744 434.6 106.456 434.312 106.088C434.04 105.72 433.84 105.248 433.712 104.672C433.6 104.096 433.544 103.384 433.544 102.536C433.544 101.48 433.64 100.632 433.832 99.992C434.04 99.336 434.376 98.832 434.84 98.48C435.304 98.128 435.92 97.896 436.688 97.784C437.456 97.656 438.408 97.592 439.544 97.592H445.784V113Z" fill="#7A7A7A"/>
<path d="M10.916 70.6478C9.89699 69.654 9.87581 68.0168 10.8686 66.9911L56.3971 19.948C63.8101 12.2884 75.9872 12.0945 83.5954 19.5148L118.392 53.4523C126 60.8726 126.158 73.0973 118.745 80.7569L84.8415 115.788C77.4285 123.448 65.2515 123.642 57.6433 116.222L10.916 70.6478Z" fill="url(#paint0_linear_40_5)"/>
<path d="M62.1599 70.6102C61.1171 69.6517 61.048 68.024 62.0053 66.9746L93.9935 31.9043C98.2467 27.241 105.451 26.9131 110.084 31.1718L138.425 57.224C143.058 61.4827 143.366 68.7153 139.112 73.3784L113.092 101.905C108.839 106.569 101.635 106.897 97.0023 102.638L62.1599 70.6102Z" fill="url(#paint1_linear_40_5)"/>
<path d="M164.245 27.5L157.035 34.71V59.49L164.245 66.7H179.435V74.75H183.985V66.7H199.175L206.385 59.49V34.71L199.175 27.5H183.985V19.45H179.435V27.5H164.245ZM197.285 32.05L201.835 36.6V57.6L197.285 62.15H183.985V32.05H197.285ZM179.435 32.05V62.15H166.135L161.585 57.6V36.6L166.135 32.05H179.435ZM218.823 24L210.913 31.21V65.79L218.823 73H239.053L246.963 65.79V31.21L239.053 24H218.823ZM242.413 33.1V63.9L237.373 68.45H220.503L215.463 63.9V33.1L220.503 28.55H237.373L242.413 33.1ZM258.147 54.31H280.337L287.547 47.17V31.14L280.337 24H253.597V73H258.147V54.31ZM278.377 28.55L282.997 33.1V45.21L278.377 49.76H258.147V28.55H278.377ZM321.879 47.1L325.309 43.67V29.81L319.499 24H292.829V73H319.569L326.779 65.79V52.07L321.879 47.1ZM322.229 53.89V64.04L317.819 68.45H297.379V49.41H317.819L322.229 53.89ZM297.379 28.55H317.679L320.759 31.63V41.78L317.679 44.86H297.379V28.55ZM337.996 58.16H356.756L361.796 73.7L366.206 72.3L350.596 24H344.156L328.546 72.3L332.956 73.7L337.996 58.16ZM339.466 53.61L347.376 29.11L355.286 53.61H339.466ZM374.615 54.31H396.805L404.015 47.17V31.14L396.805 24H370.065V73H374.615V54.31ZM394.845 28.55L399.465 33.1V45.21L394.845 49.76H374.615V28.55H394.845ZM444.048 68.45H438.938V24H411.428L407.158 62.71L403.938 68.45H399.528V84.76H404.078V73H439.498V84.76H444.048V68.45ZM411.568 64.11C412.898 51.02 414.088 41.64 415.488 28.55H434.388V68.45H409.118L411.568 64.11Z" fill="#4C5866"/>
<defs>
<linearGradient id="paint0_linear_40_5" x1="84.0118" y1="17.5642" x2="51.8709" y2="116.431" gradientUnits="userSpaceOnUse">
<stop stop-color="#58AED3"/>
<stop offset="1" stop-color="#58AED3" stop-opacity="0.8"/>
</linearGradient>
<linearGradient id="paint1_linear_40_5" x1="112.591" y1="30.6817" x2="91.6312" y2="102.29" gradientUnits="userSpaceOnUse">
<stop stop-color="#20AFCE" stop-opacity="0.77"/>
<stop offset="1" stop-color="#20AFCE" stop-opacity="0.62"/>
</linearGradient>
</defs>
</svg>
