<svg width="155" height="49" viewBox="0 0 155 49" fill="none" xmlns="http://www.w3.org/2000/svg">
<g clip-path="url(#clip0_22_2)">
<path d="M56.7468 23.2638V10.4416H65.8069V13.006H60.1329V15.6068H65.386V18.1712H60.1329V23.2638H56.7468ZM66.1949 16.8436C66.1949 15.5098 66.4572 14.3519 66.9819 13.3698C67.5066 12.3755 68.257 11.6056 69.2333 11.06C70.2094 10.5144 71.3625 10.2415 72.6926 10.2415C74.0348 10.2415 75.194 10.5144 76.1702 11.06C77.1463 11.6056 77.8968 12.3755 78.4215 13.3698C78.9584 14.3519 79.2268 15.5098 79.2268 16.8436C79.2268 18.1653 78.9584 19.3232 78.4215 20.3174C77.8968 21.3117 77.1463 22.0877 76.1702 22.6454C75.194 23.191 74.0348 23.4638 72.6926 23.4638C71.3625 23.4638 70.2094 23.191 69.2333 22.6454C68.2693 22.0877 67.5189 21.3117 66.9819 20.3174C66.4572 19.3232 66.1949 18.1653 66.1949 16.8436ZM69.7275 16.8436C69.7275 18.0439 69.9715 18.9836 70.4595 19.6627C70.9477 20.3295 71.692 20.663 72.6926 20.663C73.6932 20.663 74.4436 20.3295 74.9438 19.6627C75.4442 18.9836 75.6943 18.0439 75.6943 16.8436C75.6943 15.6432 75.4442 14.7096 74.9438 14.0427C74.4436 13.3758 73.6932 13.0424 72.6926 13.0424C71.692 13.0424 70.9477 13.3758 70.4595 14.0427C69.9715 14.6975 69.7275 15.6311 69.7275 16.8436ZM80.521 23.2638V10.4416H86.6161C88.1047 10.4416 89.2517 10.7932 90.0571 11.4965C90.8746 12.1997 91.2834 13.1758 91.2834 14.4247C91.2834 15.2613 91.1004 15.9767 90.7343 16.5708C90.3682 17.1528 89.8374 17.6074 89.1419 17.9348C88.4463 18.2501 87.6167 18.4077 86.6527 18.4077L86.8174 17.953H87.7326C88.2694 17.953 88.7453 18.0985 89.1602 18.3895C89.575 18.6805 89.9168 19.0867 90.1852 19.6081L92.1437 23.2638H88.4463L86.3415 19.1716C86.2073 18.9049 86.0059 18.723 85.7375 18.6259C85.4812 18.529 85.1884 18.4804 84.8589 18.4804H83.9072V23.2638H80.521ZM83.9072 16.0979H86.0304C86.6893 16.0979 87.1895 15.9706 87.5313 15.716C87.8729 15.4492 88.0438 15.0552 88.0438 14.5338C88.0438 14.0245 87.8729 13.6426 87.5313 13.388C87.1895 13.1333 86.6893 13.006 86.0304 13.006H83.9072V16.0979ZM96.2659 23.2638L91.6535 10.4416H95.1311L98.1512 19.7172H97.3092L100.677 10.4416H103.093L106.131 19.7172H105.326L108.584 10.4416H111.842L107.211 23.2638H104.502L101.574 14.9157H101.995L98.9931 23.2638H96.2659ZM109.745 23.2638L115.786 10.4416H118.531L124.608 23.2638H121.222L119.666 19.7354L120.965 20.663H113.388L114.669 19.7354L113.131 23.2638H109.745ZM117.14 13.8972L114.998 18.9715L114.486 18.1167H119.849L119.391 18.9715L117.231 13.8972H117.14ZM124.673 23.2638V10.4416H130.768C132.256 10.4416 133.403 10.7932 134.209 11.4965C135.026 12.1997 135.435 13.1758 135.435 14.4247C135.435 15.2613 135.252 15.9767 134.886 16.5708C134.52 17.1528 133.989 17.6074 133.294 17.9348C132.598 18.2501 131.768 18.4077 130.804 18.4077L130.969 17.953H131.884C132.421 17.953 132.897 18.0985 133.312 18.3895C133.727 18.6805 134.068 19.0867 134.337 19.6081L136.295 23.2638H132.598L130.493 19.1716C130.359 18.9049 130.158 18.723 129.889 18.6259C129.633 18.529 129.34 18.4804 129.011 18.4804H128.059V23.2638H124.673ZM128.059 16.0979H130.182C130.841 16.0979 131.341 15.9706 131.683 15.716C132.025 15.4492 132.195 15.0552 132.195 14.5338C132.195 14.0245 132.025 13.6426 131.683 13.388C131.341 13.1333 130.841 13.006 130.182 13.006H128.059V16.0979ZM136.989 23.2638V10.4416H142.187C143.712 10.4416 145 10.7023 146.049 11.2237C147.098 11.7329 147.891 12.4665 148.428 13.4244C148.978 14.3701 149.252 15.5098 149.252 16.8436C149.252 18.1653 148.978 19.305 148.428 20.2629C147.891 21.2207 147.098 21.9603 146.049 22.4817C145 23.003 143.712 23.2638 142.187 23.2638H136.989ZM140.375 20.5357H141.967C143.297 20.5357 144.28 20.2325 144.914 19.6263C145.561 19.02 145.884 18.0925 145.884 16.8436C145.884 15.5826 145.561 14.655 144.914 14.0609C144.28 13.4547 143.297 13.1515 141.967 13.1515H140.375V20.5357Z" fill="#4C5866"/>
<path opacity="0.5" d="M56.7357 35.6354V30.7387H55.6357V30.036H56.9827L56.7357 30.2702V29.3333C56.7357 28.7012 56.8929 28.2179 57.2072 27.8833C57.529 27.5487 57.9855 27.3813 58.5766 27.3813C58.7188 27.3813 58.8685 27.3962 59.0256 27.4259C59.1903 27.4482 59.3287 27.4817 59.441 27.5263V28.2737C59.3512 28.2365 59.2389 28.2067 59.1042 28.1844C58.977 28.1547 58.846 28.1398 58.7113 28.1398C58.3596 28.1398 58.094 28.2439 57.9144 28.4521C57.7348 28.6604 57.645 28.9801 57.645 29.4114V30.2257L57.499 30.036H61.1135V35.6354H60.2043V30.7387H57.645V35.6354H56.7357ZM60.1033 28.7644V27.7494H61.2258V28.7644H60.1033ZM62.8895 35.6354V31.3299C62.8895 31.1216 62.8783 30.9097 62.8558 30.6941C62.8409 30.471 62.8222 30.2516 62.7997 30.036H63.6753L63.7875 31.2629H63.6528C63.8175 30.8316 64.0794 30.5045 64.4386 30.2813C64.8053 30.0509 65.2281 29.9356 65.707 29.9356C66.373 29.9356 66.8744 30.1141 67.2112 30.471C67.5554 30.8205 67.7276 31.3745 67.7276 32.133V35.6354H66.8183V32.1887C66.8183 31.6607 66.7098 31.2778 66.4928 31.0399C66.2832 30.7945 65.954 30.6718 65.505 30.6718C64.9811 30.6718 64.5658 30.8316 64.259 31.1514C63.9522 31.4711 63.7987 31.8987 63.7987 32.4341V35.6354H62.8895ZM71.6106 35.7357C71.1093 35.7357 70.6716 35.6204 70.2974 35.3899C69.9231 35.1519 69.6314 34.8173 69.4218 34.386C69.2198 33.9547 69.1188 33.4379 69.1188 32.8356C69.1188 32.2259 69.2198 31.7054 69.4218 31.2741C69.6314 30.8428 69.9231 30.5119 70.2974 30.2813C70.6716 30.0509 71.1093 29.9356 71.6106 29.9356C72.1196 29.9356 72.5573 30.0657 72.9241 30.326C73.2982 30.5788 73.5452 30.9246 73.6649 31.3633H73.5302L73.6536 30.036H74.5292C74.5068 30.2516 74.4843 30.471 74.4618 30.6941C74.4468 30.9097 74.4394 31.1216 74.4394 31.3299V35.6354H73.5302V34.3192H73.6536C73.5339 34.7579 73.287 35.1037 72.9128 35.3564C72.5387 35.6093 72.1046 35.7357 71.6106 35.7357ZM71.7903 34.9996C72.3291 34.9996 72.7556 34.8173 73.0699 34.453C73.3842 34.0812 73.5414 33.5421 73.5414 32.8356C73.5414 32.1218 73.3842 31.5827 73.0699 31.2183C72.7556 30.8465 72.3291 30.6606 71.7903 30.6606C71.259 30.6606 70.8324 30.8465 70.5106 31.2183C70.1963 31.5827 70.0392 32.1218 70.0392 32.8356C70.0392 33.5421 70.1963 34.0812 70.5106 34.453C70.8324 34.8173 71.259 34.9996 71.7903 34.9996ZM76.1973 35.6354V31.3299C76.1973 31.1216 76.1862 30.9097 76.1637 30.6941C76.1487 30.471 76.13 30.2516 76.1076 30.036H76.9831L77.0953 31.2629H76.9606C77.1252 30.8316 77.3872 30.5045 77.7464 30.2813C78.1131 30.0509 78.5358 29.9356 79.0149 29.9356C79.6808 29.9356 80.1822 30.1141 80.519 30.471C80.8632 30.8205 81.0353 31.3745 81.0353 32.133V35.6354H80.1262V32.1887C80.1262 31.6607 80.0176 31.2778 79.8006 31.0399C79.5911 30.7945 79.2617 30.6718 78.8127 30.6718C78.289 30.6718 77.8737 30.8316 77.5667 31.1514C77.2599 31.4711 77.1066 31.8987 77.1066 32.4341V35.6354H76.1973ZM85.143 35.7357C84.5893 35.7357 84.1066 35.6167 83.6949 35.3787C83.2909 35.1408 82.9765 34.8025 82.7521 34.3638C82.535 33.925 82.4265 33.4046 82.4265 32.8021C82.4265 32.1924 82.5388 31.6756 82.7634 31.2518C82.9878 30.8205 83.3021 30.4933 83.7062 30.2702C84.1178 30.0471 84.5967 29.9356 85.143 29.9356C85.5022 29.9356 85.8502 29.9989 86.1869 30.1252C86.5311 30.2516 86.8155 30.4301 87.0401 30.6606L86.7145 31.3075C86.49 31.0919 86.2431 30.932 85.9737 30.828C85.7117 30.7238 85.4536 30.6718 85.1991 30.6718C84.6154 30.6718 84.1627 30.8539 83.8409 31.2183C83.5192 31.5827 83.3582 32.1143 83.3582 32.8133C83.3582 33.5049 83.5192 34.0403 83.8409 34.4195C84.1627 34.7987 84.6154 34.9884 85.1991 34.9884C85.4461 34.9884 85.7006 34.94 85.9624 34.8434C86.2318 34.7467 86.4825 34.5869 86.7145 34.3638L87.0401 34.9996C86.808 35.2374 86.52 35.4197 86.1757 35.5461C85.8315 35.6725 85.4873 35.7357 85.143 35.7357ZM88.3323 35.6354V30.036H89.2414V35.6354H88.3323ZM88.22 28.7644V27.7494H89.3425V28.7644H88.22ZM93.151 35.7357C92.6495 35.7357 92.2118 35.6204 91.8376 35.3899C91.4635 35.1519 91.1716 34.8173 90.9621 34.386C90.76 33.9547 90.659 33.4379 90.659 32.8356C90.659 32.2259 90.76 31.7054 90.9621 31.2741C91.1716 30.8428 91.4635 30.5119 91.8376 30.2813C92.2118 30.0509 92.6495 29.9356 93.151 29.9356C93.6598 29.9356 94.0976 30.0657 94.4643 30.326C94.8384 30.5788 95.0854 30.9246 95.2051 31.3633H95.0704L95.1939 30.036H96.0694C96.047 30.2516 96.0246 30.471 96.0021 30.6941C95.9872 30.9097 95.9797 31.1216 95.9797 31.3299V35.6354H95.0704V34.3192H95.1939C95.0742 34.7579 94.8272 35.1037 94.453 35.3564C94.0789 35.6093 93.6448 35.7357 93.151 35.7357ZM93.3306 34.9996C93.8693 34.9996 94.2959 34.8173 94.6101 34.453C94.9246 34.0812 95.0817 33.5421 95.0817 32.8356C95.0817 32.1218 94.9246 31.5827 94.6101 31.2183C94.2959 30.8465 93.8693 30.6606 93.3306 30.6606C92.7992 30.6606 92.3726 30.8465 92.0509 31.2183C91.7366 31.5827 91.5794 32.1218 91.5794 32.8356C91.5794 33.5421 91.7366 34.0812 92.0509 34.453C92.3726 34.8173 92.7992 34.9996 93.3306 34.9996ZM97.7376 35.6354V27.4259H98.6468V35.6354H97.7376ZM105.708 35.7357C105.154 35.7357 104.671 35.6167 104.26 35.3787C103.856 35.1408 103.541 34.8025 103.317 34.3638C103.1 33.925 102.991 33.4046 102.991 32.8021C102.991 32.1924 103.103 31.6756 103.328 31.2518C103.552 30.8205 103.867 30.4933 104.271 30.2702C104.682 30.0471 105.161 29.9356 105.708 29.9356C106.067 29.9356 106.415 29.9989 106.752 30.1252C107.096 30.2516 107.38 30.4301 107.605 30.6606L107.279 31.3075C107.055 31.0919 106.808 30.932 106.538 30.828C106.276 30.7238 106.018 30.6718 105.764 30.6718C105.18 30.6718 104.727 30.8539 104.406 31.2183C104.084 31.5827 103.923 32.1143 103.923 32.8133C103.923 33.5049 104.084 34.0403 104.406 34.4195C104.727 34.7987 105.18 34.9884 105.764 34.9884C106.011 34.9884 106.265 34.94 106.527 34.8434C106.796 34.7467 107.047 34.5869 107.279 34.3638L107.605 34.9996C107.373 35.2374 107.085 35.4197 106.74 35.5461C106.396 35.6725 106.052 35.7357 105.708 35.7357ZM111.1 35.7357C110.561 35.7357 110.089 35.6204 109.685 35.3899C109.289 35.1519 108.982 34.8173 108.765 34.386C108.548 33.9473 108.439 33.4305 108.439 32.8356C108.439 32.2333 108.548 31.7165 108.765 31.2852C108.982 30.8539 109.289 30.5231 109.685 30.2925C110.089 30.0545 110.561 29.9356 111.1 29.9356C111.646 29.9356 112.117 30.0545 112.514 30.2925C112.918 30.5231 113.229 30.8539 113.446 31.2852C113.67 31.7165 113.782 32.2333 113.782 32.8356C113.782 33.4305 113.67 33.9473 113.446 34.386C113.229 34.8173 112.918 35.1519 112.514 35.3899C112.117 35.6204 111.646 35.7357 111.1 35.7357ZM111.1 34.9996C111.638 34.9996 112.065 34.8173 112.379 34.453C112.694 34.0812 112.851 33.5421 112.851 32.8356C112.851 32.1218 112.69 31.5827 112.368 31.2183C112.054 30.8465 111.631 30.6606 111.1 30.6606C110.568 30.6606 110.145 30.8465 109.831 31.2183C109.517 31.5827 109.36 32.1218 109.36 32.8356C109.36 33.5421 109.517 34.0812 109.831 34.453C110.145 34.8173 110.568 34.9996 111.1 34.9996ZM115.2 35.6354V31.3299C115.2 31.1216 115.189 30.9097 115.166 30.6941C115.151 30.471 115.133 30.2516 115.11 30.036H115.986L116.098 31.2629H115.963C116.113 30.8391 116.349 30.5119 116.67 30.2813C117 30.0509 117.396 29.9356 117.86 29.9356C118.332 29.9356 118.713 30.0471 119.005 30.2702C119.305 30.4933 119.507 30.8391 119.611 31.3075H119.443C119.585 30.8838 119.836 30.549 120.195 30.3037C120.554 30.0583 120.973 29.9356 121.452 29.9356C122.074 29.9356 122.541 30.1141 122.855 30.471C123.17 30.8205 123.327 31.3745 123.327 32.133V35.6354H122.418V32.1887C122.418 31.6607 122.324 31.2778 122.137 31.0399C121.95 30.7945 121.651 30.6718 121.239 30.6718C120.768 30.6718 120.393 30.8354 120.117 31.1626C119.847 31.4823 119.712 31.9136 119.712 32.4565V35.6354H118.803V32.1887C118.803 31.6607 118.71 31.2778 118.523 31.0399C118.336 30.7945 118.036 30.6718 117.625 30.6718C117.153 30.6718 116.783 30.8354 116.513 31.1626C116.244 31.4823 116.109 31.9136 116.109 32.4565V35.6354H115.2ZM125.055 38.0446V31.3299C125.055 31.1216 125.044 30.9097 125.021 30.6941C125.006 30.471 124.987 30.2516 124.965 30.036H125.841L125.964 31.3633H125.829C125.949 30.9246 126.192 30.5788 126.559 30.326C126.926 30.0657 127.363 29.9356 127.872 29.9356C128.381 29.9356 128.819 30.0509 129.186 30.2813C129.56 30.5119 129.852 30.8428 130.061 31.2741C130.271 31.7054 130.376 32.2259 130.376 32.8356C130.376 33.4379 130.271 33.9547 130.061 34.386C129.859 34.8173 129.571 35.1519 129.197 35.3899C128.823 35.6204 128.381 35.7357 127.872 35.7357C127.371 35.7357 126.937 35.6093 126.57 35.3564C126.204 35.1037 125.96 34.7579 125.841 34.3192H125.964V38.0446H125.055ZM127.693 34.9996C128.232 34.9996 128.658 34.8173 128.972 34.453C129.294 34.0812 129.455 33.5421 129.455 32.8356C129.455 32.1218 129.294 31.5827 128.972 31.2183C128.658 30.8465 128.232 30.6606 127.693 30.6606C127.161 30.6606 126.735 30.8465 126.413 31.2183C126.099 31.5827 125.942 32.1218 125.942 32.8356C125.942 33.5421 126.099 34.0812 126.413 34.453C126.735 34.8173 127.161 34.9996 127.693 34.9996ZM133.929 35.7357C133.428 35.7357 132.99 35.6204 132.616 35.3899C132.242 35.1519 131.95 34.8173 131.741 34.386C131.538 33.9547 131.437 33.4379 131.437 32.8356C131.437 32.2259 131.538 31.7054 131.741 31.2741C131.95 30.8428 132.242 30.5119 132.616 30.2813C132.99 30.0509 133.428 29.9356 133.929 29.9356C134.438 29.9356 134.876 30.0657 135.243 30.326C135.617 30.5788 135.864 30.9246 135.984 31.3633H135.849L135.972 30.036H136.848C136.826 30.2516 136.803 30.471 136.781 30.6941C136.766 30.9097 136.758 31.1216 136.758 31.3299V35.6354H135.849V34.3192H135.972C135.853 34.7579 135.606 35.1037 135.232 35.3564C134.857 35.6093 134.423 35.7357 133.929 35.7357ZM134.109 34.9996C134.648 34.9996 135.074 34.8173 135.389 34.453C135.703 34.0812 135.86 33.5421 135.86 32.8356C135.86 32.1218 135.703 31.5827 135.389 31.2183C135.074 30.8465 134.648 30.6606 134.109 30.6606C133.578 30.6606 133.151 30.8465 132.829 31.2183C132.515 31.5827 132.358 32.1218 132.358 32.8356C132.358 33.5421 132.515 34.0812 132.829 34.453C133.151 34.8173 133.578 34.9996 134.109 34.9996ZM138.516 35.6354V31.3299C138.516 31.1216 138.505 30.9097 138.482 30.6941C138.467 30.471 138.449 30.2516 138.426 30.036H139.302L139.414 31.2629H139.279C139.444 30.8316 139.706 30.5045 140.065 30.2813C140.432 30.0509 140.855 29.9356 141.334 29.9356C142 29.9356 142.501 30.1141 142.838 30.471C143.182 30.8205 143.354 31.3745 143.354 32.133V35.6354H142.445V32.1887C142.445 31.6607 142.336 31.2778 142.119 31.0399C141.91 30.7945 141.581 30.6718 141.132 30.6718C140.608 30.6718 140.192 30.8316 139.886 31.1514C139.579 31.4711 139.425 31.8987 139.425 32.4341V35.6354H138.516ZM144.814 38.1673L144.601 37.42C144.952 37.3382 145.244 37.2414 145.476 37.13C145.716 37.0259 145.914 36.8846 146.071 36.7061C146.228 36.5277 146.363 36.3045 146.475 36.0368L146.767 35.3787L146.745 35.758L144.286 30.036H145.274L147.306 34.9549H147.014L149.023 30.036H149.977L147.373 36.1038C147.224 36.4607 147.059 36.7581 146.879 36.9961C146.7 37.2414 146.505 37.4385 146.296 37.5872C146.094 37.7434 145.869 37.8662 145.622 37.9553C145.375 38.0446 145.106 38.1152 144.814 38.1673Z" fill="#191A1D"/>
</g>
<path d="M3.46202 26.1839C3.06733 25.8374 3.02781 25.2346 3.37375 24.8374L19.2382 6.62191C21.8213 3.65605 26.3044 3.34875 29.2514 5.93552L42.73 17.7663C45.6771 20.3531 45.9721 24.8544 43.3891 27.8203L31.5753 41.3848C28.9922 44.3506 24.5091 44.6579 21.5621 42.0711L3.46202 26.1839Z" fill="url(#paint0_linear_22_2)"/>
<path d="M22.0358 25.1222C21.643 24.7775 21.6037 24.1777 21.948 23.7824L33.4507 10.575C34.9802 8.81886 37.6347 8.63691 39.3797 10.1686L50.0549 19.5387C51.7999 21.0704 51.9747 23.7357 50.4452 25.4918L41.0885 36.2351C39.559 37.9912 36.9045 38.1732 35.1595 36.6415L22.0358 25.1222Z" fill="url(#paint1_linear_22_2)"/>
<defs>
<linearGradient id="paint0_linear_22_2" x1="29.3671" y1="5.20871" x2="19.4392" y2="42.2601" gradientUnits="userSpaceOnUse">
<stop stop-color="#58AED3"/>
<stop offset="1" stop-color="#58AED3" stop-opacity="0.8"/>
</linearGradient>
<linearGradient id="paint1_linear_22_2" x1="40.3005" y1="9.96661" x2="33.1752" y2="36.5585" gradientUnits="userSpaceOnUse">
<stop stop-color="#20AFCE" stop-opacity="0.77"/>
<stop offset="1" stop-color="#20AFCE" stop-opacity="0.62"/>
</linearGradient>
<clipPath id="clip0_22_2">
<rect width="94.644" height="27.8365" fill="white" transform="translate(55.5571 10.2882)"/>
</clipPath>
</defs>
</svg>
