<svg width="183" height="58" viewBox="0 0 183 58" fill="none" xmlns="http://www.w3.org/2000/svg">
<g clip-path="url(#clip0_22_2)">
<path d="M67.1697 27.5367V12.3595H77.8939V15.3949H71.1777V18.4734H77.3956V21.5088H71.1777V27.5367H67.1697ZM78.3531 19.9374C78.3531 18.3586 78.6636 16.988 79.2847 15.8255C79.9057 14.6486 80.794 13.7373 81.9496 13.0914C83.105 12.4456 84.4699 12.1227 86.0443 12.1227C87.633 12.1227 89.0051 12.4456 90.1606 13.0914C91.316 13.7373 92.2043 14.6486 92.8254 15.8255C93.4609 16.988 93.7786 18.3586 93.7786 19.9374C93.7786 21.5018 93.4609 22.8724 92.8254 24.0492C92.2043 25.2261 91.316 26.1446 90.1606 26.8048C89.0051 27.4506 87.633 27.7735 86.0443 27.7735C84.4699 27.7735 83.105 27.4506 81.9496 26.8048C80.8085 26.1446 79.9203 25.2261 79.2847 24.0492C78.6636 22.8724 78.3531 21.5018 78.3531 19.9374ZM82.5345 19.9374C82.5345 21.3581 82.8233 22.4704 83.401 23.2742C83.9789 24.0635 84.8599 24.4583 86.0443 24.4583C87.2286 24.4583 88.1169 24.0635 88.709 23.2742C89.3012 22.4704 89.5973 21.3581 89.5973 19.9374C89.5973 18.5165 89.3012 17.4114 88.709 16.622C88.1169 15.8327 87.2286 15.438 86.0443 15.438C84.8599 15.438 83.9789 15.8327 83.401 16.622C82.8233 17.397 82.5345 18.5021 82.5345 19.9374ZM95.3106 27.5367V12.3595H102.525C104.287 12.3595 105.645 12.7757 106.598 13.6081C107.566 14.4405 108.05 15.5959 108.05 17.0741C108.05 18.0644 107.833 18.9112 107.4 19.6145C106.966 20.3034 106.338 20.8415 105.515 21.229C104.692 21.6022 103.709 21.7887 102.568 21.7887L102.763 21.2505H103.847C104.482 21.2505 105.045 21.4227 105.537 21.7672C106.028 22.1116 106.432 22.5925 106.75 23.2096L109.068 27.5367H104.692L102.2 22.6929C102.041 22.3772 101.803 22.1619 101.485 22.0471C101.182 21.9323 100.835 21.8748 100.445 21.8748H99.3187V27.5367H95.3106ZM99.3187 19.0547H101.832C102.612 19.0547 103.204 18.904 103.608 18.6026C104.013 18.2868 104.215 17.8204 104.215 17.2033C104.215 16.6005 104.013 16.1484 103.608 15.847C103.204 15.5456 102.612 15.3949 101.832 15.3949H99.3187V19.0547ZM113.947 27.5367L108.488 12.3595H112.604L116.179 23.3388H115.182L119.169 12.3595H122.028L125.625 23.3388H124.672L128.528 12.3595H132.384L126.903 27.5367H123.697L120.23 17.6554H120.729L117.176 27.5367H113.947ZM129.903 27.5367L137.052 12.3595H140.302L147.495 27.5367H143.487L141.645 23.3603L143.183 24.4583H134.214L135.731 23.3603L133.911 27.5367H129.903ZM138.655 16.4498L136.121 22.4561L135.514 21.4443H141.862L141.32 22.4561L138.764 16.4498H138.655ZM147.572 27.5367V12.3595H154.786C156.548 12.3595 157.906 12.7757 158.859 13.6081C159.827 14.4405 160.311 15.5959 160.311 17.0741C160.311 18.0644 160.094 18.9112 159.661 19.6145C159.228 20.3034 158.599 20.8415 157.776 21.229C156.953 21.6022 155.971 21.7887 154.83 21.7887L155.025 21.2505H156.108C156.743 21.2505 157.307 21.4227 157.798 21.7672C158.289 22.1116 158.693 22.5925 159.011 23.2096L161.329 27.5367H156.953L154.461 22.6929C154.302 22.3772 154.064 22.1619 153.746 22.0471C153.443 21.9323 153.096 21.8748 152.706 21.8748H151.58V27.5367H147.572ZM151.58 19.0547H154.093C154.873 19.0547 155.465 18.904 155.87 18.6026C156.274 18.2868 156.476 17.8204 156.476 17.2033C156.476 16.6005 156.274 16.1484 155.87 15.847C155.465 15.5456 154.873 15.3949 154.093 15.3949H151.58V19.0547ZM162.15 27.5367V12.3595H168.303C170.108 12.3595 171.632 12.668 172.874 13.2852C174.116 13.888 175.055 14.7563 175.691 15.8901C176.341 17.0095 176.666 18.3586 176.666 19.9374C176.666 21.5018 176.341 22.8508 175.691 23.9846C175.055 25.1184 174.116 25.9939 172.874 26.611C171.632 27.2281 170.108 27.5367 168.303 27.5367H162.15ZM166.158 24.3076H168.043C169.617 24.3076 170.78 23.9487 171.531 23.2311C172.297 22.5135 172.679 21.4156 172.679 19.9374C172.679 18.4447 172.297 17.3468 171.531 16.6435C170.78 15.9259 169.617 15.5671 168.043 15.5671H166.158V24.3076Z" fill="#4C5866"/>
<path opacity="0.5" d="M67.1566 42.1806V36.3846H65.8545V35.5528H67.4489L67.1566 35.8301V34.7211C67.1566 33.9729 67.3426 33.4008 67.7146 33.0047C68.0955 32.6087 68.6359 32.4106 69.3356 32.4106C69.5039 32.4106 69.6811 32.4282 69.8671 32.4634C70.062 32.4897 70.2259 32.5294 70.3587 32.5822V33.4668C70.2524 33.4228 70.1196 33.3875 69.9601 33.3611C69.8095 33.3259 69.6545 33.3084 69.4951 33.3084C69.0788 33.3084 68.7643 33.4316 68.5517 33.678C68.3391 33.9245 68.2328 34.303 68.2328 34.8135V35.7773L68.0601 35.5528H72.3384V42.1806H71.2622V36.3846H68.2328V42.1806H67.1566ZM71.1426 34.0477V32.8463H72.4713V34.0477H71.1426ZM74.4407 42.1806V37.0844C74.4407 36.8379 74.4274 36.587 74.4008 36.3318C74.3831 36.0677 74.361 35.808 74.3344 35.5528H75.3707L75.5036 37.0051H75.3442C75.539 36.4946 75.8491 36.1073 76.2742 35.8432C76.7083 35.5704 77.2088 35.434 77.7757 35.434C78.564 35.434 79.1575 35.6453 79.5561 36.0677C79.9635 36.4815 80.1673 37.1372 80.1673 38.0349V42.1806H79.0911V38.101C79.0911 37.476 78.9626 37.0227 78.7057 36.7411C78.4577 36.4506 78.068 36.3054 77.5365 36.3054C76.9164 36.3054 76.4248 36.4946 76.0617 36.873C75.6985 37.2515 75.5169 37.7577 75.5169 38.3913V42.1806H74.4407ZM84.7636 42.2994C84.1702 42.2994 83.6521 42.1629 83.2091 41.8901C82.7662 41.6084 82.4208 41.2124 82.1727 40.7019C81.9336 40.1913 81.8141 39.5796 81.8141 38.8667C81.8141 38.1449 81.9336 37.5289 82.1727 37.0184C82.4208 36.5078 82.7662 36.1161 83.2091 35.8432C83.6521 35.5704 84.1702 35.434 84.7636 35.434C85.3661 35.434 85.8842 35.588 86.3183 35.8961C86.7611 36.1953 87.0535 36.6046 87.1952 37.1239H87.0358L87.1819 35.5528H88.2183C88.1917 35.808 88.1652 36.0677 88.1385 36.3318C88.1208 36.587 88.1119 36.8379 88.1119 37.0844V42.1806H87.0358V40.6227H87.1819C87.0401 41.142 86.7479 41.5513 86.3049 41.8505C85.8621 42.1498 85.3483 42.2994 84.7636 42.2994ZM84.9763 41.4281C85.614 41.4281 86.1189 41.2124 86.4909 40.7811C86.863 40.341 87.049 39.7029 87.049 38.8667C87.049 38.0217 86.863 37.3836 86.4909 36.9523C86.1189 36.5122 85.614 36.2922 84.9763 36.2922C84.3474 36.2922 83.8424 36.5122 83.4616 36.9523C83.0896 37.3836 82.9036 38.0217 82.9036 38.8667C82.9036 39.7029 83.0896 40.341 83.4616 40.7811C83.8424 41.2124 84.3474 41.4281 84.9763 41.4281ZM90.1927 42.1806V37.0844C90.1927 36.8379 90.1795 36.587 90.153 36.3318C90.1351 36.0677 90.1131 35.808 90.0865 35.5528H91.1229L91.2557 37.0051H91.0962C91.2911 36.4946 91.6012 36.1073 92.0264 35.8432C92.4604 35.5704 92.9608 35.434 93.5278 35.434C94.3161 35.434 94.9095 35.6453 95.3082 36.0677C95.7157 36.4815 95.9194 37.1372 95.9194 38.0349V42.1806H94.8432V38.101C94.8432 37.476 94.7147 37.0227 94.4579 36.7411C94.2099 36.4506 93.82 36.3054 93.2886 36.3054C92.6686 36.3054 92.177 36.4946 91.8137 36.873C91.4505 37.2515 91.269 37.7577 91.269 38.3913V42.1806H90.1927ZM100.781 42.2994C100.126 42.2994 99.5547 42.1586 99.0675 41.8769C98.5893 41.5953 98.2171 41.1948 97.9515 40.6755C97.6945 40.1562 97.5661 39.5401 97.5661 38.827C97.5661 38.1053 97.699 37.4936 97.9648 36.992C98.2305 36.4815 98.6025 36.0941 99.0808 35.8301C99.5681 35.566 100.135 35.434 100.781 35.434C101.207 35.434 101.619 35.5089 102.017 35.6584C102.425 35.808 102.761 36.0193 103.027 36.2922L102.642 37.0579C102.376 36.8027 102.084 36.6134 101.765 36.4903C101.455 36.367 101.149 36.3054 100.848 36.3054C100.157 36.3054 99.6212 36.521 99.2403 36.9523C98.8594 37.3836 98.6689 38.0129 98.6689 38.8403C98.6689 39.6589 98.8594 40.2926 99.2403 40.7415C99.6212 41.1903 100.157 41.4148 100.848 41.4148C101.14 41.4148 101.441 41.3576 101.751 41.2432C102.07 41.1288 102.367 40.9396 102.642 40.6755L103.027 41.4281C102.752 41.7096 102.411 41.9253 102.004 42.075C101.596 42.2246 101.189 42.2994 100.781 42.2994ZM104.557 42.1806V35.5528H105.633V42.1806H104.557ZM104.424 34.0477V32.8463H105.752V34.0477H104.424ZM110.26 42.2994C109.667 42.2994 109.149 42.1629 108.706 41.8901C108.263 41.6084 107.917 41.2124 107.669 40.7019C107.43 40.1913 107.311 39.5796 107.311 38.8667C107.311 38.1449 107.43 37.5289 107.669 37.0184C107.917 36.5078 108.263 36.1161 108.706 35.8432C109.149 35.5704 109.667 35.434 110.26 35.434C110.863 35.434 111.381 35.588 111.815 35.8961C112.258 36.1953 112.55 36.6046 112.692 37.1239H112.532L112.678 35.5528H113.715C113.688 35.808 113.662 36.0677 113.635 36.3318C113.617 36.587 113.609 36.8379 113.609 37.0844V42.1806H112.532V40.6227H112.678C112.537 41.142 112.244 41.5513 111.802 41.8505C111.359 42.1498 110.845 42.2994 110.26 42.2994ZM110.473 41.4281C111.111 41.4281 111.616 41.2124 111.988 40.7811C112.36 40.341 112.546 39.7029 112.546 38.8667C112.546 38.0217 112.36 37.3836 111.988 36.9523C111.616 36.5122 111.111 36.2922 110.473 36.2922C109.844 36.2922 109.339 36.5122 108.958 36.9523C108.586 37.3836 108.4 38.0217 108.4 38.8667C108.4 39.7029 108.586 40.341 108.958 40.7811C109.339 41.2124 109.844 41.4281 110.473 41.4281ZM115.689 42.1806V32.4634H116.766V42.1806H115.689ZM125.123 42.2994C124.468 42.2994 123.897 42.1586 123.409 41.8769C122.931 41.5953 122.559 41.1948 122.293 40.6755C122.036 40.1562 121.908 39.5401 121.908 38.827C121.908 38.1053 122.041 37.4936 122.306 36.992C122.572 36.4815 122.944 36.0941 123.423 35.8301C123.91 35.566 124.477 35.434 125.123 35.434C125.549 35.434 125.96 35.5089 126.359 35.6584C126.766 35.808 127.103 36.0193 127.369 36.2922L126.984 37.0579C126.718 36.8027 126.425 36.6134 126.107 36.4903C125.797 36.367 125.491 36.3054 125.19 36.3054C124.499 36.3054 123.963 36.521 123.582 36.9523C123.201 37.3836 123.011 38.0129 123.011 38.8403C123.011 39.6589 123.201 40.2926 123.582 40.7415C123.963 41.1903 124.499 41.4148 125.19 41.4148C125.482 41.4148 125.783 41.3576 126.093 41.2432C126.412 41.1288 126.709 40.9396 126.984 40.6755L127.369 41.4281C127.094 41.7096 126.753 41.9253 126.346 42.075C125.938 42.2246 125.531 42.2994 125.123 42.2994ZM131.506 42.2994C130.868 42.2994 130.31 42.1629 129.831 41.8901C129.362 41.6084 128.999 41.2124 128.742 40.7019C128.485 40.1825 128.357 39.5708 128.357 38.8667C128.357 38.1537 128.485 37.542 128.742 37.0315C128.999 36.521 129.362 36.1294 129.831 35.8565C130.31 35.5748 130.868 35.434 131.506 35.434C132.152 35.434 132.71 35.5748 133.18 35.8565C133.658 36.1294 134.026 36.521 134.283 37.0315C134.548 37.542 134.681 38.1537 134.681 38.8667C134.681 39.5708 134.548 40.1825 134.283 40.7019C134.026 41.2124 133.658 41.6084 133.18 41.8901C132.71 42.1629 132.152 42.2994 131.506 42.2994ZM131.506 41.4281C132.144 41.4281 132.648 41.2124 133.02 40.7811C133.392 40.341 133.578 39.7029 133.578 38.8667C133.578 38.0217 133.388 37.3836 133.007 36.9523C132.635 36.5122 132.135 36.2922 131.506 36.2922C130.877 36.2922 130.376 36.5122 130.004 36.9523C129.632 37.3836 129.446 38.0217 129.446 38.8667C129.446 39.7029 129.632 40.341 130.004 40.7811C130.376 41.2124 130.877 41.4281 131.506 41.4281ZM136.359 42.1806V37.0844C136.359 36.8379 136.346 36.587 136.319 36.3318C136.302 36.0677 136.279 35.808 136.253 35.5528H137.289L137.422 37.0051H137.263C137.44 36.5034 137.719 36.1161 138.1 35.8432C138.489 35.5704 138.959 35.434 139.508 35.434C140.066 35.434 140.518 35.566 140.863 35.8301C141.218 36.0941 141.457 36.5034 141.581 37.0579H141.382C141.55 36.5563 141.847 36.1601 142.272 35.8697C142.697 35.5792 143.193 35.434 143.76 35.434C144.495 35.434 145.049 35.6453 145.421 36.0677C145.793 36.4815 145.979 37.1372 145.979 38.0349V42.1806H144.903V38.101C144.903 37.476 144.792 37.0227 144.57 36.7411C144.349 36.4506 143.995 36.3054 143.507 36.3054C142.949 36.3054 142.507 36.4991 142.179 36.8863C141.86 37.2648 141.7 37.7753 141.7 38.4179V42.1806H140.624V38.101C140.624 37.476 140.513 37.0227 140.292 36.7411C140.071 36.4506 139.716 36.3054 139.229 36.3054C138.671 36.3054 138.233 36.4991 137.914 36.8863C137.595 37.2648 137.436 37.7753 137.436 38.4179V42.1806H136.359ZM148.024 45.0324V37.0844C148.024 36.8379 148.011 36.587 147.984 36.3318C147.966 36.0677 147.944 35.808 147.918 35.5528H148.954L149.1 37.1239H148.941C149.083 36.6046 149.371 36.1953 149.805 35.8961C150.238 35.588 150.757 35.434 151.359 35.434C151.961 35.434 152.48 35.5704 152.914 35.8432C153.356 36.1161 153.702 36.5078 153.95 37.0184C154.198 37.5289 154.322 38.1449 154.322 38.8667C154.322 39.5796 154.198 40.1913 153.95 40.7019C153.711 41.2124 153.37 41.6084 152.927 41.8901C152.484 42.1629 151.961 42.2994 151.359 42.2994C150.766 42.2994 150.252 42.1498 149.818 41.8505C149.384 41.5513 149.096 41.142 148.954 40.6227H149.1V45.0324H148.024ZM151.146 41.4281C151.784 41.4281 152.289 41.2124 152.661 40.7811C153.042 40.341 153.232 39.7029 153.232 38.8667C153.232 38.0217 153.042 37.3836 152.661 36.9523C152.289 36.5122 151.784 36.2922 151.146 36.2922C150.518 36.2922 150.013 36.5122 149.632 36.9523C149.26 37.3836 149.074 38.0217 149.074 38.8667C149.074 39.7029 149.26 40.341 149.632 40.7811C150.013 41.2124 150.518 41.4281 151.146 41.4281ZM158.529 42.2994C157.935 42.2994 157.417 42.1629 156.974 41.8901C156.531 41.6084 156.186 41.2124 155.938 40.7019C155.699 40.1913 155.579 39.5796 155.579 38.8667C155.579 38.1449 155.699 37.5289 155.938 37.0184C156.186 36.5078 156.531 36.1161 156.974 35.8432C157.417 35.5704 157.935 35.434 158.529 35.434C159.131 35.434 159.649 35.588 160.083 35.8961C160.526 36.1953 160.818 36.6046 160.96 37.1239H160.801L160.947 35.5528H161.983C161.957 35.808 161.93 36.0677 161.904 36.3318C161.886 36.587 161.877 36.8379 161.877 37.0844V42.1806H160.801V40.6227H160.947C160.805 41.142 160.513 41.5513 160.07 41.8505C159.627 42.1498 159.113 42.2994 158.529 42.2994ZM158.741 41.4281C159.379 41.4281 159.884 41.2124 160.256 40.7811C160.628 40.341 160.814 39.7029 160.814 38.8667C160.814 38.0217 160.628 37.3836 160.256 36.9523C159.884 36.5122 159.379 36.2922 158.741 36.2922C158.112 36.2922 157.607 36.5122 157.227 36.9523C156.855 37.3836 156.669 38.0217 156.669 38.8667C156.669 39.7029 156.855 40.341 157.227 40.7811C157.607 41.2124 158.112 41.4281 158.741 41.4281ZM163.958 42.1806V37.0844C163.958 36.8379 163.945 36.587 163.918 36.3318C163.9 36.0677 163.878 35.808 163.852 35.5528H164.888L165.021 37.0051H164.861C165.056 36.4946 165.366 36.1073 165.791 35.8432C166.225 35.5704 166.726 35.434 167.293 35.434C168.081 35.434 168.675 35.6453 169.073 36.0677C169.481 36.4815 169.685 37.1372 169.685 38.0349V42.1806H168.608V38.101C168.608 37.476 168.48 37.0227 168.223 36.7411C167.975 36.4506 167.585 36.3054 167.054 36.3054C166.434 36.3054 165.942 36.4946 165.579 36.873C165.216 37.2515 165.034 37.7577 165.034 38.3913V42.1806H163.958ZM171.412 45.1776L171.16 44.2931C171.576 44.1962 171.922 44.0817 172.196 43.9498C172.48 43.8265 172.715 43.6593 172.901 43.4481C173.087 43.2369 173.246 42.9727 173.379 42.6558L173.724 41.8769L173.698 42.3258L170.788 35.5528H171.957L174.362 41.3752H174.017L176.395 35.5528H177.524L174.442 42.7351C174.265 43.1576 174.07 43.5096 173.857 43.7913C173.645 44.0817 173.414 44.315 173.166 44.491C172.927 44.6759 172.661 44.8212 172.369 44.9267C172.077 45.0324 171.758 45.116 171.412 45.1776Z" fill="#191A1D"/>
</g>
<path d="M4.0979 30.9932C3.6307 30.5831 3.58393 29.8695 3.99341 29.3994L22.7718 7.83818C25.8293 4.32757 31.1358 3.96382 34.6241 7.02572L50.5783 21.0295C54.0667 24.0914 54.416 29.4195 51.3585 32.9301L37.3748 48.986C34.3173 52.4967 29.0108 52.8604 25.5224 49.7985L4.0979 30.9932Z" fill="url(#paint0_linear_22_2)"/>
<path d="M26.0832 29.7365C25.6183 29.3285 25.5718 28.6185 25.9793 28.1506L39.5948 12.5174C41.4051 10.4387 44.5473 10.2233 46.6128 12.0363L59.2487 23.1274C61.3142 24.9405 61.5211 28.0953 59.7106 30.174L48.6354 42.8905C46.825 44.9692 43.6829 45.1846 41.6174 43.3716L26.0832 29.7365Z" fill="url(#paint1_linear_22_2)"/>
<defs>
<linearGradient id="paint0_linear_22_2" x1="34.761" y1="6.16541" x2="23.0096" y2="50.0222" gradientUnits="userSpaceOnUse">
<stop stop-color="#58AED3"/>
<stop offset="1" stop-color="#58AED3" stop-opacity="0.8"/>
</linearGradient>
<linearGradient id="paint1_linear_22_2" x1="47.7027" y1="11.7972" x2="39.2687" y2="43.2734" gradientUnits="userSpaceOnUse">
<stop stop-color="#20AFCE" stop-opacity="0.77"/>
<stop offset="1" stop-color="#20AFCE" stop-opacity="0.62"/>
</linearGradient>
<clipPath id="clip0_22_2">
<rect width="112.028" height="32.9493" fill="white" transform="translate(65.7615 12.1779)"/>
</clipPath>
</defs>
</svg>
