<svg width="461" height="336" viewBox="0 0 461 336" fill="none" xmlns="http://www.w3.org/2000/svg">
<path d="M86.6717 132.811H82.2053C81.4655 132.811 80.8654 132.211 80.8654 131.471C80.8654 130.731 81.4655 130.131 82.2053 130.131H86.6717C87.4115 130.131 88.0117 130.731 88.0117 131.471C88.0117 132.211 87.4115 132.811 86.6717 132.811Z" fill="#77787C"/>
<path d="M71.2241 132.811H60.2412C59.5015 132.811 58.9013 132.211 58.9013 131.471C58.9013 130.731 59.5015 130.131 60.2412 130.131H71.2241C71.9639 130.131 72.5641 130.731 72.5641 131.471C72.5641 132.211 71.9639 132.811 71.2241 132.811Z" fill="#77787C"/>
<path d="M49.26 132.811H44.7936C44.0538 132.811 43.4536 132.211 43.4536 131.471V127.004C43.4536 126.265 44.0538 125.664 44.7936 125.664C45.5333 125.664 46.1335 126.265 46.1335 127.004V130.131H49.26C49.9998 130.131 50.6 130.731 50.6 131.471C50.6 132.211 49.9998 132.811 49.26 132.811Z" fill="#77787C"/>
<path d="M44.7936 119.197C44.0538 119.197 43.4536 118.597 43.4536 117.857V108.709C43.4536 107.97 44.0538 107.369 44.7936 107.369C45.5333 107.369 46.1335 107.97 46.1335 108.709V117.857C46.1335 118.597 45.5333 119.197 44.7936 119.197ZM44.7936 100.902C44.0538 100.902 43.4536 100.302 43.4536 99.5619V90.4144C43.4536 89.6747 44.0538 89.0745 44.7936 89.0745C45.5333 89.0745 46.1335 89.6747 46.1335 90.4144V99.5619C46.1335 100.302 45.5333 100.902 44.7936 100.902ZM44.7936 82.6051C44.0538 82.6051 43.4536 82.0049 43.4536 81.2652V72.1177C43.4536 71.3779 44.0538 70.7778 44.7936 70.7778C45.5333 70.7778 46.1335 71.3779 46.1335 72.1177V81.2652C46.1335 82.0049 45.5333 82.6051 44.7936 82.6051Z" fill="#77787C"/>
<path d="M44.7936 64.3101C44.0538 64.3101 43.4536 63.71 43.4536 62.9702V58.5038C43.4536 57.764 44.0538 57.1638 44.7936 57.1638C45.5333 57.1638 46.1335 57.764 46.1335 58.5038V62.9702C46.1335 63.71 45.5333 64.3101 44.7936 64.3101Z" fill="#77787C"/>
<path d="M375.733 132.811H371.266C370.527 132.811 369.926 132.211 369.926 131.471C369.926 130.731 370.527 130.131 371.266 130.131H375.733C376.473 130.131 377.073 130.731 377.073 131.471C377.073 132.211 376.473 132.811 375.733 132.811Z" fill="#77787C"/>
<path d="M397.697 132.811H386.714C385.974 132.811 385.374 132.211 385.374 131.471C385.374 130.731 385.974 130.131 386.714 130.131H397.697C398.437 130.131 399.037 130.731 399.037 131.471C399.037 132.211 398.437 132.811 397.697 132.811Z" fill="#77787C"/>
<path d="M413.145 132.811H408.678C407.938 132.811 407.338 132.211 407.338 131.471C407.338 130.731 407.938 130.131 408.678 130.131H411.805V127.004C411.805 126.265 412.405 125.664 413.145 125.664C413.884 125.664 414.484 126.265 414.484 127.004V131.471C414.484 132.211 413.884 132.811 413.145 132.811Z" fill="#77787C"/>
<path d="M413.145 119.743C412.405 119.743 411.805 119.143 411.805 118.403V109.803C411.805 109.064 412.405 108.463 413.145 108.463C413.884 108.463 414.484 109.064 414.484 109.803V118.403C414.484 119.143 413.884 119.743 413.145 119.743ZM413.145 102.542C412.405 102.542 411.805 101.942 411.805 101.202V92.6023C411.805 91.8625 412.405 91.2623 413.145 91.2623C413.884 91.2623 414.484 91.8625 414.484 92.6023V101.202C414.484 101.942 413.884 102.542 413.145 102.542ZM413.145 85.3408C412.405 85.3408 411.805 84.7406 411.805 84.0009V75.4012C411.805 74.6615 412.405 74.0613 413.145 74.0613C413.884 74.0613 414.484 74.6615 414.484 75.4012V84.0009C414.484 84.7406 413.884 85.3408 413.145 85.3408ZM413.145 68.1415C412.405 68.1415 411.805 67.5413 411.805 66.8016V58.2002C411.805 57.4604 412.405 56.8602 413.145 56.8602C413.884 56.8602 414.484 57.4604 414.484 58.2002V66.8016C414.484 67.5413 413.884 68.1415 413.145 68.1415Z" fill="#77787C"/>
<path d="M413.145 50.9405C412.405 50.9405 411.805 50.3403 411.805 49.6005V45.1341C411.805 44.3943 412.405 43.7941 413.145 43.7941C413.884 43.7941 414.484 44.3943 414.484 45.1341V49.6005C414.484 50.3403 413.884 50.9405 413.145 50.9405Z" fill="#77787C"/>
<path d="M440.428 48.7037C440.132 48.7037 439.835 48.6043 439.594 48.4124L428.597 39.6627H423.936C423.196 39.6627 422.596 39.0625 422.596 38.3227V16.0673C422.596 14.0818 420.982 12.4679 418.996 12.4679H402.355C401.615 12.4679 401.015 11.8678 401.015 11.128V9.61361C401.015 6.15211 403.833 3.33441 407.295 3.33441H444.015C447.477 3.33441 450.295 6.15211 450.295 9.61361V33.3835C450.295 36.845 447.477 39.6627 444.015 39.6627H441.768V47.3638C441.768 47.8785 441.473 48.3478 441.011 48.5711C440.826 48.6601 440.627 48.7037 440.428 48.7037ZM425.275 36.9828H429.065C429.369 36.9828 429.662 37.0857 429.899 37.2742L439.088 44.5862V38.3227C439.088 37.583 439.688 36.9828 440.428 36.9828H444.015C446.001 36.9828 447.615 35.3689 447.615 33.3835V9.61361C447.615 7.62813 446.001 6.01428 444.015 6.01428H407.295C405.309 6.01428 403.695 7.62813 403.695 9.61361V9.78808H418.996C422.458 9.78808 425.275 12.6058 425.275 16.0673V36.9828Z" fill="#77787C"/>
<path d="M385.861 55.1574C385.662 55.1574 385.463 55.1138 385.278 55.0248C384.816 54.8015 384.521 54.3322 384.521 53.8175V46.1163H382.274C378.812 46.1163 375.994 43.2986 375.994 39.8371V16.0673C375.994 12.6058 378.812 9.78809 382.274 9.78809H418.996C422.458 9.78809 425.275 12.6058 425.275 16.0673V39.8371C425.275 43.2986 422.458 46.1163 418.996 46.1163H397.692L386.695 54.866C386.454 55.058 386.157 55.1574 385.861 55.1574ZM382.274 12.468C380.288 12.468 378.674 14.0818 378.674 16.0673V39.8371C378.674 41.8226 380.288 43.4365 382.274 43.4365H385.861C386.601 43.4365 387.201 44.0367 387.201 44.7764V51.0399L396.39 43.7278C396.627 43.5394 396.92 43.4365 397.224 43.4365H418.996C420.982 43.4365 422.596 41.8226 422.596 39.8371V16.0673C422.596 14.0818 420.982 12.468 418.996 12.468H382.274Z" fill="#77787C"/>
<path d="M414.706 21.7707H386.562C385.822 21.7707 385.222 21.1705 385.222 20.4308C385.222 19.691 385.822 19.0909 386.562 19.0909H414.706C415.446 19.0909 416.046 19.691 416.046 20.4308C416.046 21.1705 415.446 21.7707 414.706 21.7707Z" fill="#77787C"/>
<path d="M414.706 29.6568H386.562C385.822 29.6568 385.222 29.0566 385.222 28.3168C385.222 27.5771 385.822 26.9769 386.562 26.9769H414.706C415.446 26.9769 416.046 27.5771 416.046 28.3168C416.046 29.0566 415.446 29.6568 414.706 29.6568Z" fill="#77787C"/>
<path d="M414.706 37.5446H393.248C392.508 37.5446 391.908 36.9444 391.908 36.2047C391.908 35.4649 392.508 34.8647 393.248 34.8647H414.706C415.446 34.8647 416.046 35.4649 416.046 36.2047C416.046 36.9444 415.446 37.5446 414.706 37.5446Z" fill="#77787C"/>
<path d="M342.418 147.147H117.558V149.827H342.418V147.147Z" fill="#0D9AAB"/>
<path d="M338.541 297.987H117.79V300.667H338.541V297.987Z" fill="#0D9AAB"/>
<path d="M337.255 335.327H129.279C128.539 335.327 127.939 334.727 127.939 333.988C127.939 333.248 128.539 332.648 129.279 332.648C131.141 332.648 132.655 331.124 132.655 329.252V321.398C132.207 319.976 131.544 318.636 130.682 317.409C130.396 317.001 130.359 316.465 130.591 316.022C130.822 315.579 131.279 315.3 131.779 315.3H341.399C341.762 315.3 342.109 315.447 342.362 315.708C342.615 315.97 342.749 316.321 342.739 316.684C342.629 319.981 342.128 323.327 341.247 326.634C340.589 329.193 339.684 331.777 338.483 334.525C338.269 335.012 337.787 335.327 337.255 335.327ZM134.299 332.648H336.372C337.346 330.332 338.094 328.134 338.654 325.955C339.363 323.298 339.809 320.625 339.989 317.98H134.143C134.604 318.887 134.984 319.831 135.277 320.808C135.316 320.934 135.335 321.064 135.335 321.195V329.252C135.335 330.509 134.953 331.678 134.299 332.648Z" fill="#0D9AAB"/>
<path d="M341.399 317.98H131.779C131.34 317.98 130.928 317.764 130.677 317.402C127.864 313.334 123.241 310.905 118.308 310.905C117.569 310.905 116.969 310.305 116.969 309.565C116.969 308.874 117.492 308.304 118.165 308.232V303.956C118.165 302.565 117.673 301.234 116.78 300.207C116.435 299.81 116.344 299.242 116.562 298.764C116.78 298.286 117.248 297.97 117.773 297.97H338.541C339.162 297.97 339.685 298.394 339.837 298.968C340.432 300.576 340.896 302.042 341.252 303.448C342.418 307.894 342.92 312.357 342.737 316.696C342.707 317.413 342.118 317.98 341.399 317.98ZM132.465 315.3H340.092C340.125 311.633 339.644 307.876 338.656 304.116C338.377 303.016 338.03 301.876 337.595 300.65H120.168C120.617 301.693 120.845 302.813 120.845 303.956V308.408C125.446 309.075 129.635 311.538 132.465 315.3Z" fill="#0D9AAB"/>
<path d="M381.604 149.832H80.3507C79.6109 149.832 79.0107 149.232 79.0107 148.492V131.157C79.0107 130.417 79.6109 129.817 80.3507 129.817H381.604C382.343 129.817 382.944 130.417 382.944 131.157V148.492C382.944 149.232 382.343 149.832 381.604 149.832ZM81.6906 147.152H380.264V132.497H81.6906V147.152Z" fill="#0D9AAB"/>
<path d="M371.493 132.497H90.4612C89.7215 132.497 89.1213 131.897 89.1213 131.157V113.821C89.1213 113.082 89.7215 112.481 90.4612 112.481H371.493C372.233 112.481 372.833 113.082 372.833 113.821V131.157C372.833 131.897 372.233 132.497 371.493 132.497ZM91.8012 129.817H370.153V115.161H91.8012V129.817Z" fill="#0D9AAB"/>
<path d="M371.507 115.153H90.4473C89.8331 115.153 89.2993 114.736 89.1475 114.141C88.9974 113.547 89.2696 112.926 89.8105 112.633L230.355 36.6531C230.753 36.4402 231.231 36.4402 231.629 36.6531L372.144 112.633C372.685 112.926 372.957 113.547 372.807 114.141C372.655 114.736 372.121 115.153 371.507 115.153ZM95.7442 112.473H366.212L230.992 39.3556L95.7442 112.473Z" fill="#0D9AAB"/>
<path d="M305.493 98.447H156.474C155.86 98.447 155.326 98.0301 155.174 97.4351C155.024 96.8402 155.296 96.2208 155.837 95.9277L230.353 55.6442C230.751 55.4313 231.229 55.4313 231.627 55.6442L306.13 95.9277C306.67 96.2208 306.943 96.8419 306.793 97.4351C306.641 98.0301 306.107 98.447 305.493 98.447ZM161.771 95.7672H300.198L230.99 58.3467L161.771 95.7672Z" fill="#0D9AAB"/>
<path d="M142.518 300.667H117.79C117.434 300.667 117.094 300.526 116.843 300.275C115.664 298.94 114.085 298.221 112.431 298.221H96.566C95.8262 298.221 95.226 297.621 95.226 296.881V293.718C95.226 293.289 95.4302 292.887 95.7774 292.635C96.299 292.256 96.7963 291.827 97.2988 291.324L103.944 284.677C104.196 284.426 104.536 284.284 104.892 284.284H142.518C143.258 284.284 143.858 284.885 143.858 285.624V299.327C143.858 300.067 143.258 300.667 142.518 300.667ZM118.366 297.987H141.178V286.964H105.447L99.1935 293.219C98.7678 293.645 98.3421 294.029 97.9059 294.379V295.541H112.431C114.655 295.541 116.785 296.426 118.366 297.987Z" fill="#0D9AAB"/>
<path d="M137.282 286.964H104.892C104.351 286.964 103.862 286.638 103.655 286.137C103.447 285.636 103.561 285.061 103.943 284.679L112.411 276.192C113.793 274.826 114.871 273.219 115.625 271.407C115.833 270.908 116.321 270.581 116.862 270.581H137.282C138.022 270.581 138.622 271.182 138.622 271.921V285.624C138.622 286.364 138.022 286.964 137.282 286.964ZM108.121 284.284H135.942V273.261H117.731C116.871 275.071 115.719 276.691 114.303 278.091L108.121 284.284Z" fill="#0D9AAB"/>
<path d="M142.512 163.521H96.5726C95.8329 163.521 95.2327 162.921 95.2327 162.181V148.483C95.2327 147.744 95.8329 147.144 96.5726 147.144H142.512C143.252 147.144 143.852 147.744 143.852 148.483V162.181C143.852 162.921 143.252 163.521 142.512 163.521ZM97.9126 160.841H141.173V149.823H97.9126V160.841Z" fill="#0D9AAB"/>
<path d="M137.289 177.22L101.797 177.219C101.057 177.219 100.457 176.619 100.457 175.879V162.181C100.457 161.441 101.057 160.841 101.797 160.841H137.289C138.029 160.841 138.629 161.441 138.629 162.181V175.881C138.629 176.236 138.488 176.577 138.236 176.828C137.985 177.079 137.645 177.22 137.289 177.22ZM103.137 174.539L135.949 174.541V163.521H103.137V174.539Z" fill="#0D9AAB"/>
<path d="M133.995 273.261H116.862C116.417 273.261 116 273.04 115.751 272.672C115.503 272.302 115.452 271.832 115.62 271.421C116.353 269.601 116.717 267.729 116.702 265.859C116.702 262.385 115.51 259.105 113.32 256.479L111.291 258.52C110.892 258.92 110.234 259.03 109.728 258.777C107.861 257.852 106.069 256.879 104.401 255.886C103.997 255.643 103.749 255.205 103.749 254.734V175.875C103.749 175.136 104.349 174.535 105.089 174.535H133.995C134.735 174.535 135.335 175.136 135.335 175.875V271.921C135.335 272.661 134.735 273.261 133.995 273.261ZM118.736 270.581H132.655V177.215H106.429V253.968C107.589 254.644 108.809 255.307 110.068 255.949L112.41 253.595C112.661 253.342 113.003 253.199 113.359 253.199C113.715 253.199 114.057 253.34 114.308 253.591C117.579 256.863 119.381 261.216 119.381 265.848C119.395 267.432 119.177 269.02 118.736 270.581Z" fill="#0D9AAB"/>
<path d="M196.398 300.658H150.456C149.717 300.658 149.117 300.058 149.117 299.318V285.621C149.117 284.881 149.717 284.281 150.456 284.281H196.398C197.138 284.281 197.738 284.881 197.738 285.621V299.318C197.738 300.058 197.138 300.658 196.398 300.658ZM151.796 297.979H195.058V286.961H151.796V297.979Z" fill="#0D9AAB"/>
<path d="M191.174 286.961H155.68C154.94 286.961 154.34 286.361 154.34 285.621V271.923C154.34 271.183 154.94 270.583 155.68 270.583H191.174C191.914 270.583 192.514 271.183 192.514 271.923V285.621C192.514 286.361 191.914 286.961 191.174 286.961ZM157.02 284.281H189.834V273.263H157.02V284.281Z" fill="#0D9AAB"/>
<path d="M196.398 163.521H150.458C149.718 163.521 149.118 162.921 149.118 162.181V148.483C149.118 147.744 149.718 147.144 150.458 147.144H196.398C197.138 147.144 197.738 147.744 197.738 148.483V162.181C197.738 162.921 197.138 163.521 196.398 163.521ZM151.798 160.841H195.058V149.823H151.798V160.841Z" fill="#0D9AAB"/>
<path d="M191.174 177.22L155.682 177.219C154.942 177.219 154.342 176.619 154.342 175.879V162.181C154.342 161.441 154.942 160.841 155.682 160.841H191.174C191.914 160.841 192.514 161.441 192.514 162.181V175.881C192.514 176.236 192.373 176.577 192.122 176.828C191.871 177.079 191.53 177.22 191.174 177.22ZM157.022 174.539L189.834 174.541V163.521H157.022V174.539Z" fill="#0D9AAB"/>
<path d="M187.884 273.263H158.971C158.231 273.263 157.631 272.663 157.631 271.923V175.881C157.631 175.141 158.231 174.541 158.971 174.541H187.884C188.624 174.541 189.224 175.141 189.224 175.881V271.923C189.224 272.663 188.624 273.263 187.884 273.263ZM160.311 270.583H186.544V177.22H160.311V270.583Z" fill="#0D9AAB"/>
<path d="M311.498 300.658H265.556C264.817 300.658 264.216 300.058 264.216 299.318V285.621C264.216 284.881 264.817 284.281 265.556 284.281H311.498C312.238 284.281 312.838 284.881 312.838 285.621V299.318C312.838 300.058 312.238 300.658 311.498 300.658ZM266.896 297.979H310.158V286.961H266.896V297.979Z" fill="#0D9AAB"/>
<path d="M306.274 286.961H270.78C270.04 286.961 269.44 286.361 269.44 285.621V271.923C269.44 271.183 270.04 270.583 270.78 270.583H306.274C307.014 270.583 307.614 271.183 307.614 271.923V285.621C307.614 286.361 307.014 286.961 306.274 286.961ZM272.12 284.281H304.934V273.263H272.12V284.281Z" fill="#0D9AAB"/>
<path d="M311.498 163.521H265.558C264.818 163.521 264.218 162.921 264.218 162.181V148.483C264.218 147.744 264.818 147.144 265.558 147.144H311.498C312.237 147.144 312.838 147.744 312.838 148.483V162.181C312.838 162.921 312.237 163.521 311.498 163.521ZM266.898 160.841H310.158V149.823H266.898V160.841Z" fill="#0D9AAB"/>
<path d="M306.274 177.22L270.782 177.219C270.042 177.219 269.442 176.619 269.442 175.879V162.181C269.442 161.441 270.042 160.841 270.782 160.841H306.274C307.014 160.841 307.614 161.441 307.614 162.181V175.881C307.614 176.236 307.473 176.577 307.222 176.828C306.97 177.079 306.63 177.22 306.274 177.22ZM272.122 174.539L304.934 174.541V163.521H272.122V174.539Z" fill="#0D9AAB"/>
<path d="M302.984 273.263H274.071C273.331 273.263 272.731 272.663 272.731 271.923V175.881C272.731 175.141 273.331 174.541 274.071 174.541H302.984C303.724 174.541 304.324 175.141 304.324 175.881V271.923C304.324 272.663 303.724 273.263 302.984 273.263ZM275.41 270.583H301.644V177.22H275.41V270.583Z" fill="#0D9AAB"/>
<path d="M338.541 300.667H319.442C318.702 300.667 318.102 300.067 318.102 299.327V285.624C318.102 284.885 318.702 284.284 319.442 284.284H365.374C366.114 284.284 366.714 284.885 366.714 285.624V296.077C366.714 296.817 366.114 297.417 365.374 297.417H339.267C339.453 297.891 339.638 298.38 339.808 298.874C339.856 299.013 339.881 299.161 339.881 299.31C339.881 300.049 339.281 300.667 338.541 300.667ZM320.782 297.987H336.608C336.411 297.504 336.212 297.038 336.025 296.609C335.845 296.195 335.887 295.719 336.135 295.341C336.383 294.964 336.803 294.737 337.255 294.737H364.035V286.964H320.782V297.987Z" fill="#0D9AAB"/>
<path d="M360.16 286.961H324.665C323.926 286.961 323.325 286.361 323.325 285.621V271.923C323.325 271.183 323.926 270.583 324.665 270.583H360.16C360.899 270.583 361.499 271.183 361.499 271.923V285.621C361.499 286.361 360.899 286.961 360.16 286.961ZM326.005 284.281H358.82V273.263H326.005V284.281Z" fill="#0D9AAB"/>
<path d="M365.381 163.521H319.442C318.702 163.521 318.102 162.921 318.102 162.181V148.483C318.102 147.744 318.702 147.144 319.442 147.144H365.381C366.121 147.144 366.721 147.744 366.721 148.483V162.181C366.721 162.921 366.121 163.521 365.381 163.521ZM320.782 160.841H364.042V149.823H320.782V160.841Z" fill="#0D9AAB"/>
<path d="M360.16 177.22L324.665 177.219C323.926 177.219 323.325 176.619 323.325 175.879V162.181C323.325 161.441 323.926 160.841 324.665 160.841H360.16C360.899 160.841 361.499 161.441 361.499 162.181V175.881C361.499 176.236 361.358 176.577 361.107 176.828C360.856 177.079 360.515 177.22 360.16 177.22ZM326.005 174.539L358.82 174.541V163.521H326.005V174.539Z" fill="#0D9AAB"/>
<path d="M356.871 273.261H327.965C327.225 273.261 326.625 272.661 326.625 271.921V175.875C326.625 175.136 327.225 174.535 327.965 174.535H356.871C357.611 174.535 358.211 175.136 358.211 175.875V202.281C358.211 202.997 357.649 203.585 356.935 203.62L354.514 203.737C354.774 204.539 354.906 205.385 354.906 206.247C354.906 207.1 354.775 207.936 354.522 208.73H356.871C357.611 208.73 358.211 209.33 358.211 210.07V235.208C358.211 235.837 357.771 236.383 357.155 236.518C356.532 236.643 355.913 236.338 355.651 235.762L346.776 216.284L333.9 244.552C333.684 245.028 333.211 245.334 332.689 245.337C333.364 252.522 339.417 258.164 346.758 258.164C350.154 258.164 353.434 256.948 355.995 254.738C356.393 254.398 356.951 254.316 357.429 254.535C357.905 254.753 358.211 255.23 358.211 255.753V271.921C358.211 272.661 357.611 273.261 356.871 273.261ZM329.304 270.581H355.531V258.382C352.907 259.982 349.873 260.844 346.758 260.844C337.489 260.844 329.946 253.286 329.946 243.997C329.946 243.258 330.547 242.657 331.286 242.657H331.819L345.556 212.498C345.993 211.542 347.559 211.542 347.995 212.498L355.531 229.035V211.41H352.387C351.89 211.41 351.433 211.134 351.2 210.693C350.968 210.253 351.002 209.719 351.284 209.309C351.9 208.414 352.226 207.355 352.226 206.247C352.226 205.164 351.916 204.124 351.326 203.239C351.059 202.838 351.028 202.323 351.244 201.892C351.462 201.461 351.895 201.181 352.376 201.158L355.531 201.004V177.215H329.304V270.581Z" fill="#0D9AAB"/>
<path d="M256.897 300.658H205.392C204.652 300.658 204.052 300.058 204.052 299.318V220.416C204.052 219.676 204.652 219.076 205.392 219.076H256.897C257.637 219.076 258.237 219.676 258.237 220.416V299.318C258.237 300.058 257.637 300.658 256.897 300.658ZM206.732 297.979H255.557V221.756H206.732V297.979Z" fill="#0D9AAB"/>
<path d="M214.508 266.581C213.768 266.581 213.168 265.981 213.168 265.241V251.842C213.168 251.102 213.768 250.502 214.508 250.502C215.248 250.502 215.848 251.102 215.848 251.842V265.241C215.848 265.981 215.248 266.581 214.508 266.581Z" fill="#0D9AAB"/>
<path d="M9.64822 335.322H9.63775C7.05908 335.319 4.63743 334.314 2.81595 332.492C-0.938652 328.738 -0.938652 322.629 2.81595 318.875L57.9521 263.739C58.4319 263.259 59.1944 263.214 59.7265 263.632C64.2627 267.19 68.2895 271.218 71.6969 275.604C72.1104 276.138 72.0633 276.896 71.5853 277.374L16.4491 332.51C14.6363 334.324 12.2217 335.322 9.64822 335.322ZM59.0007 266.481L4.71071 320.77C3.40218 322.078 2.68161 323.823 2.68161 325.683C2.68161 327.544 3.40218 329.289 4.71071 330.598C6.02621 331.915 7.7779 332.641 9.64124 332.642H9.64822C11.5046 332.642 13.2475 331.922 14.5543 330.615L68.8461 276.323C65.9743 272.764 62.6698 269.461 59.0007 266.481Z" fill="#0D9AAB"/>
<path d="M78.6932 290.558C78.6217 290.558 78.5501 290.553 78.4769 290.541C78.0511 290.471 77.6865 290.201 77.4928 289.815C75.6504 286.111 73.5864 282.681 71.3619 279.619C70.7827 278.794 70.1808 278.021 69.5806 277.25C66.3075 273.034 62.436 269.163 58.0725 265.74C57.3031 265.143 56.5302 264.541 55.7242 263.974C52.6325 261.729 49.2077 259.674 45.5281 257.85C45.1408 257.658 44.8703 257.294 44.8006 256.866C44.7308 256.441 44.8703 256.008 45.1757 255.703L76.8159 224.062C77.1195 223.759 77.5574 223.616 77.9796 223.687C78.4071 223.757 78.7717 224.027 78.9636 224.415C80.7677 228.056 82.8194 231.488 85.0631 234.616C89.397 240.663 94.6607 245.927 100.706 250.261C103.826 252.498 107.264 254.556 110.928 256.38C111.314 256.573 111.584 256.938 111.654 257.364C111.724 257.789 111.584 258.222 111.279 258.527L79.6406 290.166C79.3876 290.419 79.0456 290.558 78.6932 290.558ZM48.3737 256.294C51.563 257.967 54.5535 259.813 57.2822 261.795C58.1074 262.374 58.9152 263.001 59.7213 263.629C64.2627 267.19 68.2895 271.218 71.6969 275.604C72.3233 276.409 72.9496 277.217 73.5428 278.061C75.5091 280.767 77.3585 283.759 79.0474 286.969L108.083 257.934C104.906 256.263 101.905 254.418 99.1446 252.438C92.8602 247.933 87.3906 242.464 82.8857 236.178C80.902 233.412 79.0631 230.42 77.4074 227.26L48.3737 256.294Z" fill="#0D9AAB"/>
<path d="M86.9422 298.291H86.9334C82.3065 298.289 77.9604 296.487 74.6926 293.219C74.1692 292.696 74.1692 291.848 74.6926 291.324L112.42 253.597C112.942 253.075 113.79 253.072 114.315 253.597C117.579 256.859 119.376 261.209 119.376 265.845C119.395 270.459 117.598 274.811 114.315 278.092L99.1882 293.219C95.9187 296.49 91.5691 298.291 86.9422 298.291ZM77.5766 292.23C80.1989 294.418 83.4737 295.609 86.9352 295.611H86.9422C90.8538 295.611 94.5299 294.09 97.2935 291.324L112.42 276.198C115.194 273.425 116.714 269.749 116.696 265.85C116.696 262.378 115.508 259.1 113.326 256.482L77.5766 292.23Z" fill="#0D9AAB"/>
<path d="M43.0576 261.029C42.7156 261.029 42.3719 260.898 42.1102 260.637C38.8459 257.374 37.0488 253.024 37.0488 248.389C37.0296 243.774 38.8267 239.423 42.1102 236.141L57.2368 221.014C60.5064 217.743 64.8559 215.942 69.4829 215.942C69.4864 215.942 69.4881 215.942 69.4916 215.942C74.1186 215.944 78.4646 217.747 81.7325 221.014C82.2559 221.538 82.2559 222.386 81.7325 222.909L44.005 260.637C43.7433 260.898 43.4013 261.029 43.0576 261.029ZM69.4829 218.622C65.5713 218.622 61.8952 220.144 59.1316 222.909L44.005 238.036C41.2309 240.808 39.7112 244.484 39.7287 248.384C39.7287 251.856 40.9168 255.134 43.0995 257.751L78.8485 222.004C76.2262 219.816 72.9514 218.624 69.4899 218.622C69.4881 218.622 69.4846 218.622 69.4829 218.622Z" fill="#0D9AAB"/>
<path d="M72.4454 280.17C72.4088 280.17 72.3704 280.169 72.3337 280.165C71.9412 280.132 71.5818 279.928 71.3532 279.607C67.0857 273.608 61.8236 268.346 55.7154 263.967C55.3944 263.739 55.192 263.379 55.1606 262.988C55.1275 262.596 55.2688 262.209 55.5479 261.931L83.027 234.45C83.3062 234.171 83.69 234.021 84.0843 234.063C84.4769 234.094 84.8346 234.297 85.0631 234.618C89.397 240.663 94.6607 245.927 100.706 250.261C101.027 250.489 101.23 250.847 101.261 251.24C101.294 251.632 101.153 252.02 100.874 252.297L73.3928 279.778C73.1398 280.031 72.7996 280.17 72.4454 280.17ZM58.5471 262.722C63.9295 266.761 68.6472 271.478 72.6059 276.775L97.8745 251.507C92.5409 247.501 87.8232 242.783 83.8174 237.449L58.5471 262.722Z" fill="#0D9AAB"/>
<path d="M129.272 335.322H48.105C44.7587 335.322 42.0369 332.6 42.0369 329.254V321.194C42.0369 320.454 42.6371 319.854 43.3769 319.854H133.999C134.738 319.854 135.339 320.454 135.339 321.194V329.254C135.339 332.6 132.617 335.322 129.272 335.322ZM44.7168 322.534V329.254C44.7168 331.123 46.2364 332.642 48.105 332.642H129.272C131.139 332.642 132.659 331.123 132.659 329.254V322.534H44.7168Z" fill="#0D9AAB"/>
<path d="M133.999 322.534H43.3769C42.9302 322.534 42.5132 322.312 42.2655 321.942C42.016 321.572 41.9671 321.101 42.1364 320.689L42.7034 319.295C45.4234 312.571 51.8771 308.225 59.142 308.225H118.305C126.043 308.225 133.023 313.398 135.281 320.803C135.405 321.209 135.328 321.651 135.075 321.991C134.822 322.333 134.423 322.534 133.999 322.534ZM45.3763 319.854H132.069C129.675 314.506 124.254 310.905 118.305 310.905H59.142C53.1367 310.905 47.7857 314.401 45.3763 319.854Z" fill="#0D9AAB"/>
<path d="M119.514 310.905H57.8632C57.1234 310.905 56.5232 310.305 56.5232 309.565V303.963C56.5232 299.315 60.3057 295.532 64.9536 295.532H112.424C117.071 295.532 120.854 299.315 120.854 303.963V309.565C120.854 310.305 120.254 310.905 119.514 310.905ZM59.2031 308.225H118.174V303.963C118.174 300.793 115.594 298.212 112.424 298.212H64.9536C61.7835 298.212 59.2031 300.793 59.2031 303.963V308.225Z" fill="#0D9AAB"/>
<path d="M446.615 335.322H337.25C336.798 335.322 336.376 335.094 336.128 334.715C335.88 334.335 335.842 333.857 336.023 333.443C337.156 330.871 338.042 328.352 338.658 325.955C338.66 325.951 338.66 325.946 338.66 325.946C340.568 318.702 340.568 311.357 338.66 304.113C338.042 301.71 337.156 299.191 336.023 296.618C335.842 296.204 335.88 295.726 336.128 295.346C336.376 294.967 336.798 294.739 337.25 294.739H446.615C454.386 294.739 460.707 301.049 460.707 308.806V321.23C460.707 329.001 454.386 335.322 446.615 335.322ZM339.265 332.642H446.615C452.908 332.642 458.027 327.523 458.027 321.23V308.806C458.027 302.527 452.908 297.418 446.615 297.418H339.265C340.087 299.475 340.753 301.492 341.254 303.438C343.278 311.127 343.28 318.931 341.252 326.627C340.751 328.572 340.085 330.589 339.265 332.642Z" fill="#0D9AAB"/>
<path d="M443.202 327.628H339.956C339.541 327.628 339.148 327.434 338.895 327.106C338.64 326.777 338.555 326.349 338.66 325.946C340.568 318.702 340.568 311.357 338.66 304.113C338.555 303.71 338.64 303.282 338.895 302.953C339.148 302.625 339.541 302.431 339.956 302.431H443.202C446.978 302.431 450.049 305.512 450.049 309.3V320.759C450.049 324.547 446.978 327.628 443.202 327.628ZM341.662 324.948H443.202C445.5 324.948 447.369 323.069 447.369 320.759V309.3C447.369 306.99 445.5 305.111 443.202 305.111H341.662C343.142 311.701 343.142 318.358 341.662 324.948Z" fill="#0D9AAB"/>
<path d="M410.114 312.697H341.887C341.147 312.697 340.547 312.097 340.547 311.357C340.547 310.617 341.147 310.017 341.887 310.017H410.114C410.854 310.017 411.454 310.617 411.454 311.357C411.454 312.097 410.854 312.697 410.114 312.697Z" fill="#0D9AAB"/>
<path d="M400.539 320.04H342.027C341.287 320.04 340.687 319.44 340.687 318.7C340.687 317.961 341.287 317.36 342.027 317.36H400.539C401.279 317.36 401.879 317.961 401.879 318.7C401.879 319.44 401.279 320.04 400.539 320.04Z" fill="#0D9AAB"/>
<path d="M458.263 245.344H430.07C429.615 245.344 429.189 245.112 428.943 244.73C428.697 244.346 428.662 243.863 428.85 243.45L442.946 212.498C443.382 211.542 444.949 211.542 445.385 212.498L459.482 243.45C459.671 243.863 459.636 244.346 459.39 244.73C459.144 245.112 458.718 245.344 458.263 245.344ZM432.153 242.664H456.179L444.165 216.286L432.153 242.664Z" fill="#0D9AAB"/>
<path d="M438.553 211.41H401.375C400.661 211.41 400.071 210.85 400.037 210.136L399.572 200.811C399.553 200.434 399.695 200.066 399.962 199.799C400.23 199.53 400.588 199.382 400.973 199.406L438.563 201.158C439.045 201.181 439.479 201.461 439.697 201.892C439.914 202.323 439.882 202.838 439.615 203.239C439.025 204.122 438.715 205.162 438.715 206.247C438.715 207.357 439.041 208.416 439.655 209.309C439.938 209.719 439.971 210.253 439.739 210.693C439.507 211.134 439.05 211.41 438.553 211.41ZM402.65 208.73H436.419C436.166 207.936 436.035 207.102 436.035 206.247C436.035 205.385 436.168 204.541 436.426 203.74L402.322 202.152L402.65 208.73Z" fill="#0D9AAB"/>
<path d="M444.176 260.848C434.889 260.848 427.332 253.291 427.332 244.004C427.332 243.265 427.933 242.664 428.672 242.664H459.66C460.4 242.664 461 243.265 461 244.004C461 253.291 453.452 260.848 444.176 260.848ZM430.075 245.344C430.752 252.527 436.818 258.168 444.176 258.168C451.525 258.168 457.58 252.527 458.257 245.344H430.075Z" fill="#0D9AAB"/>
<path d="M444.181 214.393C441.468 214.393 438.949 213.057 437.441 210.818C436.524 209.487 436.035 207.903 436.035 206.247C436.035 204.63 436.503 203.075 437.385 201.753C437.668 201.327 438.019 200.903 438.424 200.495C439.985 198.96 442.026 198.119 444.181 198.119C446.325 198.119 448.36 198.96 449.909 200.486C451.451 202.049 452.292 204.091 452.292 206.247C452.292 208.404 451.451 210.445 449.923 211.994C448.349 213.545 446.315 214.393 444.181 214.393ZM444.181 200.798C442.733 200.798 441.36 201.365 440.315 202.395C440.041 202.671 439.804 202.957 439.615 203.238C439.025 204.122 438.715 205.162 438.715 206.247C438.715 207.357 439.041 208.416 439.655 209.309C440.672 210.818 442.361 211.713 444.181 211.713C445.607 211.713 446.973 211.141 448.028 210.099C449.045 209.068 449.612 207.695 449.612 206.247C449.612 204.799 449.045 203.426 448.014 202.381C446.983 201.365 445.617 200.798 444.181 200.798Z" fill="#0D9AAB"/>
<path d="M360.87 245.344H332.679C332.223 245.344 331.798 245.112 331.552 244.73C331.306 244.346 331.271 243.863 331.459 243.45L345.555 212.498C345.991 211.542 347.558 211.542 347.994 212.498L362.089 243.45C362.278 243.863 362.243 244.346 361.997 244.73C361.751 245.112 361.325 245.344 360.87 245.344ZM334.762 242.664H358.786L346.774 216.286L334.762 242.664Z" fill="#0D9AAB"/>
<path d="M389.565 211.41H352.387C351.89 211.41 351.433 211.134 351.2 210.693C350.968 210.253 351.002 209.719 351.284 209.309C351.9 208.414 352.226 207.355 352.226 206.247C352.226 205.164 351.916 204.124 351.326 203.239C351.059 202.838 351.028 202.323 351.244 201.892C351.462 201.461 351.895 201.181 352.376 201.158L389.968 199.406C390.353 199.385 390.715 199.532 390.98 199.799C391.247 200.066 391.388 200.434 391.369 200.811L390.903 210.136C390.868 210.85 390.278 211.41 389.565 211.41ZM354.522 208.73H388.289L388.619 202.151L354.514 203.737C354.774 204.539 354.906 205.385 354.906 206.247C354.906 207.1 354.775 207.936 354.522 208.73Z" fill="#0D9AAB"/>
<path d="M346.764 260.848C337.487 260.848 329.941 253.291 329.941 244.004C329.941 243.265 330.541 242.664 331.281 242.664H362.267C363.007 242.664 363.607 243.265 363.607 244.004C363.607 253.291 356.051 260.848 346.764 260.848ZM332.684 245.344C333.361 252.527 339.417 258.168 346.764 258.168C354.121 258.168 360.187 252.527 360.864 245.344H332.684Z" fill="#0D9AAB"/>
<path d="M346.758 214.393C344.625 214.393 342.59 213.545 341.031 212.008C339.488 210.441 338.647 208.402 338.647 206.247C338.647 204.092 339.488 202.053 341.017 200.5C342.58 198.96 344.614 198.119 346.758 198.119C348.913 198.119 350.954 198.96 352.506 200.486C352.919 200.901 353.268 201.324 353.554 201.751C354.439 203.079 354.906 204.633 354.906 206.247C354.906 207.901 354.416 209.485 353.49 210.83C351.993 213.057 349.473 214.393 346.758 214.393ZM346.758 200.798C345.323 200.798 343.956 201.365 342.911 202.395C341.894 203.428 341.327 204.801 341.327 206.247C341.327 207.694 341.894 209.067 342.925 210.113C343.967 211.141 345.333 211.713 346.758 211.713C348.58 211.713 350.269 210.82 351.276 209.321C351.9 208.414 352.226 207.355 352.226 206.247C352.226 205.164 351.916 204.124 351.326 203.239C351.138 202.958 350.897 202.669 350.614 202.386C349.58 201.365 348.207 200.798 346.758 200.798Z" fill="#0D9AAB"/>
<path d="M421.184 297.413H369.757C366.428 297.413 363.719 294.705 363.719 291.377C363.719 289.766 364.347 288.25 365.49 287.109C366.589 285.987 368.147 285.338 369.757 285.338H421.184C424.513 285.338 427.223 288.048 427.223 291.377C427.223 292.963 426.598 294.475 425.462 295.634C424.325 296.769 422.77 297.413 421.184 297.413ZM369.757 288.018C368.864 288.018 368.002 288.374 367.395 288.993C366.749 289.639 366.399 290.482 366.399 291.377C366.399 293.228 367.906 294.733 369.757 294.733H421.184C422.065 294.733 422.931 294.374 423.557 293.748C424.188 293.104 424.543 292.258 424.543 291.377C424.543 289.525 423.035 288.018 421.184 288.018H369.757Z" fill="#0D9AAB"/>
<path d="M413.354 288.018H377.586C374.257 288.018 371.549 285.308 371.549 281.98C371.549 280.369 372.177 278.853 373.32 277.712C374.421 276.59 375.979 275.943 377.586 275.943H413.354C416.683 275.943 419.392 278.651 419.392 281.98C419.392 283.569 418.766 285.082 417.63 286.238C416.496 287.372 414.94 288.018 413.354 288.018ZM377.586 278.623C376.692 278.623 375.832 278.979 375.223 279.598C374.58 280.242 374.229 281.085 374.229 281.98C374.229 283.831 375.735 285.338 377.586 285.338H413.354C414.235 285.338 415.1 284.979 415.727 284.352C416.36 283.709 416.712 282.862 416.712 281.98C416.712 280.128 415.205 278.623 413.354 278.623H377.586Z" fill="#0D9AAB"/>
<path d="M404.733 278.621H386.206C385.84 278.621 385.489 278.471 385.236 278.204C384.983 277.939 384.849 277.581 384.868 277.215L388.905 196.496C388.931 195.967 389.268 195.503 389.762 195.313C390.254 195.126 390.816 195.242 391.191 195.617C393.433 197.855 397.439 197.899 399.754 195.61C400.133 195.24 400.694 195.125 401.181 195.315C401.673 195.507 402.006 195.967 402.034 196.496L402.713 210.004L406.071 277.215C406.091 277.581 405.956 277.939 405.703 278.204C405.45 278.471 405.1 278.621 404.733 278.621ZM387.614 275.941H403.325L399.483 199.082C397.022 200.352 393.888 200.334 391.456 199.089L387.614 275.941Z" fill="#0D9AAB"/>
<path d="M395.479 200.048C393.128 200.048 390.933 199.148 389.296 197.511C387.619 195.878 386.69 193.659 386.69 191.276V184.362C386.69 179.515 390.633 175.572 395.479 175.572C397.784 175.572 400.044 176.509 401.678 178.143C403.339 179.827 404.252 182.032 404.252 184.362V191.276C404.252 193.636 403.324 195.854 401.638 197.518C399.984 199.15 397.798 200.048 395.479 200.048ZM395.479 178.252C392.11 178.252 389.369 180.993 389.369 184.362V191.276C389.369 192.93 390.011 194.467 391.179 195.604C393.445 197.867 397.439 197.899 399.754 195.61C400.926 194.453 401.572 192.914 401.572 191.276V184.362C401.572 182.742 400.935 181.204 399.777 180.033C398.648 178.902 397.079 178.252 395.479 178.252Z" fill="#0D9AAB"/>
<path d="M59.73 180.298H19.8757C19.1359 180.298 18.5357 179.698 18.5357 178.958C18.5357 178.218 19.1359 177.618 19.8757 177.618H59.73C60.4697 177.618 61.0699 178.218 61.0699 178.958C61.0699 179.698 60.4697 180.298 59.73 180.298Z" fill="#0D9AAB"/>
<path d="M12.4118 213.927C11.6721 213.927 11.0719 213.327 11.0719 212.587V180.563C11.0719 179.824 11.6721 179.223 12.4118 179.223C13.1516 179.223 13.7518 179.824 13.7518 180.563V212.587C13.7518 213.327 13.1516 213.927 12.4118 213.927Z" fill="#0D9AAB"/>
<path d="M67.2898 213.927C66.5501 213.927 65.9499 213.327 65.9499 212.587V180.563C65.9499 179.824 66.5501 179.223 67.2898 179.223C68.0296 179.223 68.6298 179.824 68.6298 180.563V212.587C68.6298 213.327 68.0296 213.927 67.2898 213.927Z" fill="#0D9AAB"/>
<path d="M53.2031 213.927C52.4633 213.927 51.8631 213.327 51.8631 212.587V180.298H27.8403V212.587C27.8403 213.327 27.2401 213.927 26.5003 213.927C25.7606 213.927 25.1604 213.327 25.1604 212.587V178.958C25.1604 178.218 25.7606 177.618 26.5003 177.618H53.2031C53.9428 177.618 54.543 178.218 54.543 178.958V212.587C54.543 213.327 53.9428 213.927 53.2031 213.927Z" fill="#0D9AAB"/>
<path d="M56.2371 173.204H23.3686C22.6288 173.204 22.0287 172.604 22.0287 171.864C22.0287 171.124 22.6288 170.524 23.3686 170.524H56.2371C56.9769 170.524 57.577 171.124 57.577 171.864C57.577 172.604 56.9769 173.204 56.2371 173.204Z" fill="#0D9AAB"/>
<path d="M65.1874 182.158C59.5136 182.158 54.8971 177.542 54.8971 171.866V170.65C54.8971 167.077 57.8056 164.168 61.3787 164.168H63.9033C66.8065 164.168 69.1688 166.531 69.1688 169.434V171.341C69.1688 174.244 66.8065 176.606 63.9033 176.606C61.0001 176.606 58.6378 174.244 58.6378 171.341C58.6378 170.601 59.238 170.001 59.9777 170.001C60.7175 170.001 61.3177 170.601 61.3177 171.341C61.3177 172.766 62.4779 173.926 63.9033 173.926C65.3287 173.926 66.489 172.766 66.489 171.341V169.434C66.489 168.008 65.3287 166.848 63.9033 166.848H61.3787C59.2816 166.848 57.577 168.553 57.577 170.65V171.866C57.577 176.064 60.9914 179.478 65.1874 179.478C69.3834 179.478 72.7978 176.064 72.7978 171.866V167.049C72.7978 163.903 70.2401 161.345 67.0944 161.345H12.5113C9.36557 161.345 6.80783 163.903 6.80783 167.049V171.866C6.80783 176.064 10.2222 179.478 14.4182 179.478C18.6142 179.478 22.0286 176.064 22.0286 171.866V170.65C22.0286 168.553 20.3241 166.848 18.2269 166.848H15.7023C14.2769 166.848 13.1167 168.008 13.1167 169.434V171.341C13.1167 172.766 14.2769 173.926 15.7023 173.926C17.1278 173.926 18.2862 172.766 18.2862 171.341C18.2862 170.601 18.8864 170.001 19.6262 170.001C20.3659 170.001 20.9661 170.601 20.9661 171.341C20.9661 174.244 18.6055 176.606 15.7023 176.606C12.7991 176.606 10.4368 174.244 10.4368 171.341V169.434C10.4368 166.531 12.7991 164.168 15.7023 164.168H18.2269C21.8001 164.168 24.7085 167.077 24.7085 170.65V171.866C24.7085 177.542 20.092 182.158 14.4182 182.158C8.74445 182.158 4.12796 177.542 4.12796 171.866V167.049C4.12796 162.427 7.88954 158.666 12.5113 158.666H67.0944C71.7161 158.666 75.4777 162.427 75.4777 167.049V171.866C75.4777 177.542 70.8612 182.158 65.1874 182.158Z" fill="#0D9AAB"/>
<path d="M39.8508 213.927C39.111 213.927 38.5109 213.327 38.5109 212.587V178.958C38.5109 178.218 39.111 177.618 39.8508 177.618C40.5906 177.618 41.1907 178.218 41.1907 178.958V212.587C41.1907 213.327 40.5906 213.927 39.8508 213.927Z" fill="#0D9AAB"/>
<path d="M44.0984 47.9114C30.8892 47.9114 20.1418 37.164 20.1418 23.9548C20.1418 10.7456 30.8892 0 44.0984 0C57.3075 0 68.0532 10.7456 68.0532 23.9548C68.0532 37.164 57.3075 47.9114 44.0984 47.9114ZM44.0984 2.67987C32.367 2.67987 22.8217 12.2234 22.8217 23.9548C22.8217 35.6862 32.367 45.2315 44.0984 45.2315C55.8298 45.2315 65.3733 35.6862 65.3733 23.9548C65.3733 12.2234 55.8298 2.67987 44.0984 2.67987Z" fill="#77787C"/>
<path d="M46.8114 24.8097H30.3536C29.6138 24.8097 29.0136 24.2095 29.0136 23.4698C29.0136 22.73 29.6138 22.1299 30.3536 22.1299H46.8114C47.5511 22.1299 48.1513 22.73 48.1513 23.4698C48.1513 24.2095 47.5511 24.8097 46.8114 24.8097Z" fill="#77787C"/>
<path d="M44.0984 27.5227C43.3586 27.5227 42.7585 26.9226 42.7585 26.1828V7.67148C42.7585 6.93172 43.3586 6.33154 44.0984 6.33154C44.8381 6.33154 45.4383 6.93172 45.4383 7.67148V26.1828C45.4383 26.9226 44.8381 27.5227 44.0984 27.5227Z" fill="#77787C"/>
</svg>
