<svg width="457" height="339" viewBox="0 0 457 339" fill="none" xmlns="http://www.w3.org/2000/svg">
<path d="M141.816 75.9595H206.465C207.518 75.9595 208.529 75.5409 209.274 74.7959C210.019 74.0509 210.437 73.0404 210.437 71.9868C210.437 70.9332 210.019 69.9227 209.274 69.1777C208.529 68.4327 207.518 68.0142 206.465 68.0142H141.816C140.762 68.0142 139.752 68.4327 139.007 69.1777C138.262 69.9227 137.843 70.9332 137.843 71.9868C137.843 73.0404 138.262 74.0509 139.007 74.7959C139.752 75.5409 140.762 75.9595 141.816 75.9595Z" fill="#0D9AAB"/>
<path d="M122.479 75.9595H127.42C128.474 75.9595 129.484 75.5409 130.229 74.7959C130.974 74.0509 131.393 73.0404 131.393 71.9868C131.393 70.9332 130.974 69.9227 130.229 69.1777C129.484 68.4327 128.474 68.0142 127.42 68.0142H122.479C121.425 68.0142 120.415 68.4327 119.67 69.1777C118.925 69.9227 118.506 70.9332 118.506 71.9868C118.506 73.0404 118.925 74.0509 119.67 74.7959C120.415 75.5409 121.425 75.9595 122.479 75.9595Z" fill="#0D9AAB"/>
<path d="M141.816 104.64H206.465C207.518 104.64 208.529 104.222 209.274 103.477C210.019 102.732 210.437 101.721 210.437 100.668C210.437 99.6138 210.019 98.6033 209.274 97.8583C208.529 97.1133 207.518 96.6947 206.465 96.6947H141.816C140.762 96.6947 139.752 97.1133 139.007 97.8583C138.262 98.6033 137.843 99.6138 137.843 100.668C137.843 101.721 138.262 102.732 139.007 103.477C139.752 104.222 140.762 104.64 141.816 104.64Z" fill="#0D9AAB"/>
<path d="M122.479 104.64H127.42C128.474 104.64 129.484 104.222 130.229 103.477C130.974 102.732 131.393 101.721 131.393 100.668C131.393 99.6138 130.974 98.6033 130.229 97.8583C129.484 97.1133 128.474 96.6947 127.42 96.6947H122.479C121.425 96.6947 120.415 97.1133 119.67 97.8583C118.925 98.6033 118.506 99.6138 118.506 100.668C118.506 101.721 118.925 102.732 119.67 103.477C120.415 104.222 121.425 104.64 122.479 104.64Z" fill="#0D9AAB"/>
<path d="M141.816 133.32H206.465C207.518 133.32 208.529 132.902 209.274 132.157C210.019 131.412 210.437 130.401 210.437 129.348C210.437 128.294 210.019 127.284 209.274 126.539C208.529 125.794 207.518 125.375 206.465 125.375H141.816C140.762 125.375 139.752 125.794 139.007 126.539C138.262 127.284 137.843 128.294 137.843 129.348C137.843 130.401 138.262 131.412 139.007 132.157C139.752 132.902 140.762 133.32 141.816 133.32Z" fill="#0D9AAB"/>
<path d="M122.479 133.32H127.42C128.474 133.32 129.484 132.902 130.229 132.157C130.974 131.412 131.393 130.401 131.393 129.348C131.393 128.294 130.974 127.284 130.229 126.539C129.484 125.794 128.474 125.375 127.42 125.375H122.479C121.425 125.375 120.415 125.794 119.67 126.539C118.925 127.284 118.506 128.294 118.506 129.348C118.506 130.401 118.925 131.412 119.67 132.157C120.415 132.902 121.425 133.32 122.479 133.32Z" fill="#0D9AAB"/>
<path d="M141.816 162H206.465C207.518 162 208.529 161.582 209.274 160.837C210.019 160.092 210.437 159.081 210.437 158.028C210.437 156.974 210.019 155.963 209.274 155.218C208.529 154.473 207.518 154.055 206.465 154.055H141.816C140.762 154.055 139.752 154.473 139.007 155.218C138.262 155.963 137.843 156.974 137.843 158.028C137.843 159.081 138.262 160.092 139.007 160.837C139.752 161.582 140.762 162 141.816 162Z" fill="#0D9AAB"/>
<path d="M122.479 162H127.42C128.474 162 129.484 161.582 130.229 160.837C130.974 160.092 131.393 159.081 131.393 158.028C131.393 156.974 130.974 155.963 130.229 155.218C129.484 154.473 128.474 154.055 127.42 154.055H122.479C121.425 154.055 120.415 154.473 119.67 155.218C118.925 155.963 118.506 156.974 118.506 158.028C118.506 159.081 118.925 160.092 119.67 160.837C120.415 161.582 121.425 162 122.479 162Z" fill="#0D9AAB"/>
<path d="M141.816 187.37H206.465C207.518 187.37 208.529 186.952 209.274 186.207C210.019 185.462 210.437 184.451 210.437 183.398C210.437 182.344 210.019 181.334 209.274 180.588C208.529 179.843 207.518 179.425 206.465 179.425H141.816C140.762 179.425 139.752 179.843 139.007 180.588C138.262 181.334 137.843 182.344 137.843 183.398C137.843 184.451 138.262 185.462 139.007 186.207C139.752 186.952 140.762 187.37 141.816 187.37Z" fill="#0D9AAB"/>
<path d="M122.479 187.37H127.42C128.474 187.37 129.484 186.952 130.229 186.207C130.974 185.462 131.393 184.451 131.393 183.398C131.393 182.344 130.974 181.334 130.229 180.588C129.484 179.843 128.474 179.425 127.42 179.425H122.479C121.425 179.425 120.415 179.843 119.67 180.588C118.925 181.334 118.506 182.344 118.506 183.398C118.506 184.451 118.925 185.462 119.67 186.207C120.415 186.952 121.425 187.37 122.479 187.37Z" fill="#0D9AAB"/>
<path d="M225.698 292.637C235.232 292.637 242.984 285.317 242.984 276.319C242.984 275.602 242.79 274.899 242.423 274.283C242.056 273.668 241.53 273.163 240.899 272.823L232.857 254.346C238.781 255.344 244.868 254.479 250.28 251.872H251.899V284.911H251.237C249.711 284.911 248.201 285.211 246.792 285.795C245.383 286.379 244.102 287.234 243.024 288.313C241.945 289.392 241.09 290.672 240.506 292.081C239.922 293.491 239.622 295.001 239.622 296.526V299.841C239.622 300.895 240.04 301.906 240.786 302.651C241.531 303.396 242.541 303.814 243.595 303.814L268.151 303.822C269.205 303.822 270.215 303.404 270.96 302.659C271.705 301.913 272.124 300.903 272.124 299.849V296.529C272.12 293.45 270.896 290.498 268.719 288.321C266.542 286.144 263.591 284.919 260.512 284.914H259.845V251.872H261.281C266.694 254.477 272.781 255.34 278.705 254.342L270.662 272.823C270.031 273.163 269.505 273.668 269.138 274.284C268.771 274.899 268.577 275.602 268.577 276.319C268.577 285.317 276.332 292.637 285.863 292.637C295.394 292.637 303.149 285.317 303.149 276.319C303.149 275.602 302.956 274.899 302.589 274.283C302.222 273.668 301.695 273.163 301.064 272.823L289.505 246.266C289.008 245.282 288.151 244.528 287.112 244.162C286.073 243.795 284.932 243.843 283.928 244.297L282.745 244.85C279.809 246.213 276.599 246.88 273.363 246.799C270.127 246.719 266.953 245.893 264.089 244.386C263.516 244.083 262.878 243.924 262.23 243.923H259.847V242.06C259.847 241.007 259.428 239.996 258.683 239.251C257.938 238.506 256.928 238.088 255.874 238.088C254.82 238.088 253.81 238.506 253.065 239.251C252.32 239.996 251.901 241.007 251.901 242.06V243.923H249.332C248.684 243.924 248.046 244.083 247.474 244.386C244.609 245.894 241.436 246.72 238.2 246.8C234.964 246.88 231.753 246.213 228.817 244.85L227.634 244.298C227.139 244.055 226.601 243.914 226.052 243.882C225.502 243.849 224.951 243.927 224.432 244.11C223.912 244.293 223.435 244.578 223.027 244.947C222.618 245.317 222.288 245.765 222.055 246.264L210.5 272.823C209.869 273.163 209.343 273.668 208.975 274.283C208.608 274.899 208.415 275.602 208.415 276.319C208.411 285.317 216.165 292.637 225.698 292.637ZM285.862 284.692C284.23 284.722 282.617 284.333 281.178 283.563C279.739 282.793 278.521 281.666 277.641 280.291H294.083C293.203 281.666 291.985 282.793 290.546 283.563C289.107 284.333 287.494 284.722 285.862 284.692ZM285.862 257.805L292.191 272.346H279.533L285.862 257.805ZM260.508 292.862C261.368 292.864 262.199 293.166 262.859 293.717C263.519 294.268 263.964 295.033 264.119 295.878L247.624 295.875C247.778 295.03 248.224 294.265 248.884 293.714C249.544 293.164 250.376 292.862 251.235 292.861L260.508 292.862ZM225.698 257.804L232.026 272.345H219.372L225.698 257.804ZM233.919 280.29C233.017 281.644 231.794 282.753 230.36 283.521C228.926 284.289 227.324 284.69 225.698 284.69C224.071 284.69 222.47 284.289 221.035 283.521C219.601 282.753 218.379 281.644 217.476 280.29H233.919Z" fill="#0D9AAB"/>
<path d="M104.368 80.1228C105.422 80.1228 106.432 79.7042 107.177 78.9592C107.922 78.2142 108.341 77.2037 108.341 76.1501V73.7665C108.341 72.7129 107.922 71.7025 107.177 70.9574C106.432 70.2124 105.422 69.7939 104.368 69.7939C103.315 69.7939 102.304 70.2124 101.559 70.9574C100.814 71.7025 100.396 72.7129 100.396 73.7665V76.1501C100.396 77.2037 100.814 78.2142 101.559 78.9592C102.304 79.7042 103.315 80.1228 104.368 80.1228Z" fill="#0D9AAB"/>
<path d="M104.368 148.046C105.422 148.046 106.432 147.627 107.177 146.882C107.922 146.137 108.341 145.127 108.341 144.073V89.444C108.341 88.3904 107.922 87.3799 107.177 86.6349C106.432 85.8899 105.422 85.4713 104.368 85.4713C103.315 85.4713 102.304 85.8899 101.559 86.6349C100.814 87.3799 100.396 88.3904 100.396 89.444V144.073C100.396 145.127 100.814 146.137 101.559 146.882C102.304 147.627 103.315 148.046 104.368 148.046Z" fill="#0D9AAB"/>
<path d="M244.568 193.297C245.972 194.232 247.621 194.731 249.307 194.732C249.891 194.731 250.473 194.672 251.045 194.555C252.155 194.333 253.211 193.892 254.15 193.258C255.089 192.625 255.894 191.811 256.516 190.865L268.832 172.255C322.223 161.54 362.347 116.744 366.711 62.614L370.683 11.2787C370.737 10.5817 370.606 9.88291 370.303 9.25278C370.001 8.62266 369.537 8.08354 368.96 7.68987C368.382 7.2962 367.711 7.06192 367.013 7.01068C366.316 6.95945 365.618 7.09307 364.989 7.39806L318.702 29.8435C317.849 30.2568 317.172 30.9613 316.793 31.8299L308.418 51.0648L298.652 44.2901C297.933 43.7912 297.07 43.5437 296.196 43.5858C295.322 43.6279 294.486 43.9575 293.819 44.5232C277.514 58.3381 265.368 76.9261 258.695 98.2759C252.373 118.736 251.205 140.441 255.294 161.461L242.133 181.35C241.509 182.295 241.076 183.353 240.86 184.464C240.644 185.575 240.649 186.718 240.875 187.828C241.101 188.937 241.544 189.991 242.177 190.93C242.81 191.868 243.622 192.673 244.567 193.297H244.568ZM266.279 100.647C272.186 81.7509 282.663 65.1975 296.67 52.5837L307.866 60.3509C308.349 60.6855 308.899 60.909 309.478 61.0053C310.058 61.1016 310.651 61.0684 311.216 60.9079C311.781 60.7475 312.303 60.4638 312.745 60.0774C313.187 59.691 313.538 59.2114 313.772 58.6731L323.49 36.3547L362.223 17.5694L358.787 61.9909C354.929 109.842 321.144 149.899 275.236 162.566L340.785 63.5012C342.047 61.5938 342.5 59.2632 342.043 57.0221C341.587 54.7809 340.259 52.8129 338.352 51.5508C336.444 50.2887 334.114 49.8361 331.873 50.2924C329.631 50.7487 327.663 52.0767 326.401 53.9841L261.779 151.649C259.639 134.521 261.173 117.135 266.279 100.647ZM248.761 185.735L332.659 58.936C332.708 58.8612 332.771 58.7967 332.845 58.7464C332.919 58.6961 333.002 58.6609 333.089 58.6428C333.177 58.6247 333.267 58.6241 333.355 58.641C333.443 58.6579 333.526 58.692 333.601 58.7413C333.675 58.7907 333.739 58.8542 333.789 58.9284C333.839 59.0025 333.874 59.0858 333.891 59.1734C333.909 59.261 333.909 59.3513 333.891 59.4389C333.874 59.5266 333.84 59.6099 333.79 59.6841L249.889 186.481C249.84 186.555 249.777 186.619 249.703 186.668C249.63 186.718 249.547 186.753 249.46 186.77C249.373 186.788 249.283 186.788 249.196 186.772C249.109 186.755 249.026 186.721 248.952 186.672C248.878 186.623 248.815 186.56 248.765 186.486C248.715 186.413 248.681 186.33 248.663 186.243C248.645 186.156 248.645 186.067 248.662 185.979C248.679 185.892 248.713 185.809 248.762 185.736L248.761 185.735Z" fill="#77787C"/>
<path d="M331.259 324.749H330.22C327.157 324.452 324.315 323.026 322.245 320.749C320.176 318.471 319.028 315.505 319.025 312.428V246.283C319.025 237.279 315.448 228.644 309.081 222.278C302.714 215.911 294.079 212.334 285.075 212.334H235.337V136.108C235.337 135.055 234.918 134.044 234.173 133.299C233.428 132.554 232.418 132.136 231.364 132.136C230.311 132.136 229.3 132.554 228.555 133.299C227.81 134.044 227.391 135.055 227.391 136.108V212.335H170.472C162.412 212.335 154.682 215.537 148.982 221.236C143.283 226.936 140.081 234.666 140.081 242.726V255.773C140.081 268.644 129.951 279.473 117.081 279.778C113.94 279.85 110.816 279.294 107.893 278.143C104.97 276.991 102.306 275.268 100.057 273.073C97.809 270.878 96.022 268.256 94.801 265.361C93.58 262.467 92.949 259.357 92.946 256.215V42.1475C93.896 42.5932 94.801 43.1277 95.651 43.7439C98.082 45.3813 101.106 47.4192 106.768 47.4192C112.431 47.4192 115.456 45.3786 117.887 43.7439C119.885 42.3971 121.329 41.4265 124.565 41.4265C127.801 41.4265 129.246 42.3991 131.245 43.7439C133.675 45.3813 136.7 47.4192 142.363 47.4192C148.026 47.4192 151.052 45.3813 153.483 43.7439C155.482 42.3971 156.926 41.4265 160.162 41.4265C163.399 41.4265 164.843 42.3991 166.842 43.7439C169.272 45.3813 172.298 47.4192 177.96 47.4192C183.623 47.4192 186.649 45.3813 189.08 43.7439C191.079 42.3971 192.523 41.4265 195.76 41.4265C198.997 41.4265 200.442 42.3991 202.442 43.7439C204.873 45.3813 207.898 47.4186 213.565 47.4186C219.232 47.4186 222.254 45.3813 224.685 43.7439C225.536 43.1278 226.443 42.5935 227.395 42.1482V109.624C227.395 110.678 227.813 111.688 228.558 112.433C229.303 113.178 230.314 113.597 231.367 113.597C232.421 113.597 233.431 113.178 234.177 112.433C234.922 111.688 235.34 110.678 235.34 109.624V37.4492C235.344 36.4029 234.933 35.3976 234.198 34.6533C233.462 33.9089 232.462 33.4858 231.416 33.4765C225.722 33.4646 222.686 35.5092 220.248 37.1512C218.248 38.4986 216.805 39.4686 213.566 39.4686C210.327 39.4686 208.884 38.496 206.884 37.1512C204.453 35.5138 201.428 33.4765 195.764 33.4765C190.1 33.4765 187.076 35.5145 184.644 37.1519C182.646 38.4986 181.201 39.4693 177.964 39.4693C174.727 39.4693 173.284 38.4966 171.285 37.1519C168.854 35.5145 165.829 33.4765 160.166 33.4765C154.503 33.4765 151.478 35.5145 149.047 37.1519C147.048 38.4986 145.604 39.4693 142.367 39.4693C139.131 39.4693 137.686 38.4966 135.688 37.1519C133.257 35.5145 130.232 33.4765 124.569 33.4765C118.907 33.4765 115.878 35.5145 113.447 37.1519C111.448 38.4986 110.004 39.4693 106.768 39.4693C103.533 39.4693 102.089 38.4966 100.09 37.1519C97.653 35.5099 94.618 33.4646 88.925 33.4765C87.878 33.486 86.878 33.9091 86.143 34.6534C85.408 35.3978 84.997 36.4029 85 37.4492V256.215C85.009 264.571 88.331 272.582 94.239 278.49C100.147 284.399 108.158 287.722 116.513 287.731L192.921 287.604V298.747C192.931 307.748 196.511 316.378 202.876 322.742C209.24 329.107 217.87 332.687 226.871 332.697L331.402 332.753C331.975 332.746 332.539 332.616 333.057 332.374C333.576 332.131 334.036 331.781 334.409 331.346C334.781 330.911 335.056 330.402 335.216 329.852C335.376 329.303 335.417 328.725 335.336 328.159C335.178 327.196 334.679 326.322 333.931 325.696C333.183 325.07 332.234 324.734 331.259 324.749ZM192.917 279.654H137.549C140.846 276.704 143.484 273.092 145.289 269.053C147.095 265.014 148.027 260.639 148.026 256.215V242.726C148.026 236.773 150.391 231.064 154.601 226.855C158.81 222.645 164.519 220.28 170.472 220.28C176.425 220.28 182.134 222.645 186.343 226.855C190.553 231.064 192.917 236.773 192.917 242.726V279.654ZM226.868 324.747C219.973 324.739 213.363 321.997 208.488 317.121C203.613 312.246 200.87 305.636 200.863 298.742V242.726C200.865 238.5 199.983 234.32 198.274 230.454C196.565 226.589 194.067 223.123 190.94 220.28H285.075C291.969 220.288 298.579 223.03 303.454 227.905C308.329 232.78 311.071 239.389 311.079 246.283V312.428C311.075 316.882 312.541 321.212 315.251 324.747H226.868Z" fill="#0D9AAB"/>
</svg>
