<svg width="274" height="274" viewBox="0 0 274 274" fill="none" xmlns="http://www.w3.org/2000/svg">
<path d="M245.776 229.582H245.637V215.53C245.637 213.756 244.054 212.457 242.281 212.457H102.177C101.765 212.442 101.354 212.511 100.969 212.659C100.584 212.807 100.233 213.031 99.9364 213.318C99.6401 213.605 99.4047 213.949 99.2445 214.329C99.0842 214.709 99.0024 215.117 99.0039 215.53V229.582H98.6828C96.3191 229.593 93.9808 230.07 91.8019 230.986C89.6231 231.903 87.6466 233.24 85.9859 234.922C84.3253 236.604 83.0131 238.598 82.1246 240.788C81.2361 242.978 80.7889 245.323 80.8086 247.686V252.561C80.7865 252.973 80.8478 253.387 80.9888 253.775C81.1298 254.164 81.3476 254.52 81.6292 254.823C81.9108 255.126 82.2504 255.369 82.6279 255.537C83.0054 255.706 83.413 255.797 83.8263 255.805H260.632C261.486 255.797 262.302 255.451 262.901 254.843C263.501 254.235 263.836 253.415 263.832 252.561V247.686C263.83 242.894 261.929 238.297 258.545 234.904C255.161 231.51 250.569 229.596 245.776 229.582ZM105.426 218.879H239.215V229.582H105.426V218.879ZM257.41 249.383H87.2305V247.686C87.2099 246.166 87.4904 244.656 88.0558 243.245C88.6212 241.833 89.4603 240.547 90.5249 239.461C91.5894 238.375 92.8582 237.511 94.2584 236.917C95.6585 236.324 97.1622 236.014 98.6828 236.004H245.776C248.866 236.016 251.826 237.253 254.006 239.442C256.187 241.632 257.411 244.596 257.41 247.686V249.383Z" fill="url(#paint0_linear_1_2)"/>
<path d="M97.529 147.826C98.1312 148.428 98.9479 148.767 99.7994 148.767C100.651 148.767 101.468 148.428 102.07 147.826L112.707 137.19C113.309 136.588 113.647 135.771 113.647 134.92C113.647 134.068 113.309 133.251 112.707 132.649L108.783 128.726L118.484 119.028L132.96 133.505L132.008 134.457C131.405 135.06 131.067 135.876 131.067 136.728C131.067 137.579 131.405 138.396 132.008 138.998L137.815 144.806L136.046 146.575C135.444 147.177 135.106 147.994 135.106 148.845C135.106 149.697 135.444 150.514 136.046 151.116L143.116 158.185C144.05 159.12 145.16 159.861 146.381 160.367C147.602 160.873 148.911 161.134 150.233 161.134C151.555 161.134 152.864 160.873 154.085 160.367C155.307 159.861 156.416 159.12 157.351 158.185L199.947 115.589C201.832 113.7 202.89 111.141 202.89 108.472C202.89 105.803 201.832 103.243 199.947 101.354L192.877 94.2849C192.275 93.6828 191.458 93.3445 190.607 93.3445C189.755 93.3445 188.939 93.6828 188.336 94.2849L186.568 96.0536L180.76 90.2456C180.462 89.9473 180.108 89.7108 179.718 89.5494C179.329 89.388 178.911 89.3049 178.49 89.3049C178.068 89.3049 177.65 89.388 177.261 89.5494C176.871 89.7108 176.517 89.9473 176.219 90.2456L175.266 91.1987L129.921 45.8565L130.874 44.9039C131.476 44.3017 131.814 43.4851 131.814 42.6335C131.814 41.7819 131.476 40.9653 130.874 40.3631L125.066 34.555L126.835 32.789C127.437 32.1869 127.775 31.3702 127.775 30.5186C127.775 29.6671 127.437 28.8504 126.835 28.2482L119.768 21.1761C117.879 19.2914 115.319 18.233 112.65 18.233C109.982 18.233 107.422 19.2914 105.533 21.1761L62.9376 63.7746C61.0526 65.6637 59.994 68.2235 59.994 70.8922C59.994 73.5609 61.0526 76.1206 62.9376 78.0097L70.007 85.0786C70.6091 85.6807 71.4258 86.019 72.2774 86.019C73.1289 86.019 73.9456 85.6807 74.5478 85.0786L76.3165 83.3126L82.124 89.1207C82.7262 89.7228 83.5428 90.061 84.3944 90.061C85.246 90.061 86.0626 89.7228 86.6648 89.1207L87.6179 88.1681L102.094 102.645L92.3963 112.342L88.4736 108.419C88.1755 108.121 87.8215 107.884 87.4319 107.723C87.0423 107.561 86.6247 107.478 86.203 107.478C85.7813 107.478 85.3637 107.561 84.9741 107.723C84.5845 107.884 84.2305 108.121 83.9323 108.419L73.2961 119.056C72.6939 119.658 72.3557 120.475 72.3557 121.326C72.3557 122.178 72.6939 122.994 73.2961 123.596L74.6752 124.976L16.7745 176.482C13.7862 179.141 11.6762 182.645 10.7241 186.529C9.77199 190.414 10.0227 194.496 11.4429 198.235C12.8632 201.975 15.386 205.194 18.6771 207.467C21.9681 209.74 25.8722 210.959 29.8719 210.963C30.0699 210.963 30.2695 210.963 30.4686 210.955C33.158 210.888 35.8046 210.266 38.2428 209.129C40.6809 207.991 42.858 206.363 44.6379 204.346L96.1499 146.448L97.529 147.826ZM190.604 101.097L195.403 105.896C196.085 106.58 196.469 107.506 196.469 108.472C196.469 109.438 196.085 110.365 195.403 111.049L152.807 153.643C152.124 154.327 151.197 154.711 150.231 154.711C149.265 154.711 148.338 154.327 147.654 153.643L142.856 148.845L190.604 101.097ZM178.487 97.0576L182.024 100.595L142.352 140.264L138.815 136.727L178.487 97.0576ZM72.275 78.2645L67.4762 73.4657C66.7929 72.7824 66.4091 71.8556 66.4091 70.8892C66.4091 69.9228 66.7929 68.9961 67.4762 68.3127L110.072 25.7175C110.755 25.0342 111.682 24.6503 112.649 24.6503C113.615 24.6503 114.542 25.0342 115.225 25.7175L120.023 30.5157L72.275 78.2645ZM84.3925 82.3038L80.8552 78.7665L120.525 39.0964L124.063 42.6338L84.3925 82.3038ZM92.1566 83.6214L125.381 50.3978L170.723 95.7395L137.499 128.963L92.1566 83.6214ZM106.633 107.18L113.94 114.487L104.243 124.185L96.9355 116.878L106.633 107.18ZM86.2008 115.226L105.895 134.919L99.7991 141.015L80.1054 121.321L86.2008 115.226ZM39.8397 200.077C38.6342 201.433 37.1644 202.528 35.5205 203.295C33.8766 204.062 32.0933 204.485 30.2801 204.538C28.4668 204.591 26.6619 204.273 24.976 203.603C23.2901 202.933 21.7588 201.926 20.4762 200.643C19.1935 199.361 18.1865 197.829 17.5169 196.143C16.8474 194.458 16.5294 192.653 16.5825 190.839C16.6356 189.026 17.0587 187.243 17.8258 185.599C18.5929 183.955 19.6878 182.485 21.0434 181.28L79.2213 129.519L91.6016 141.899L39.8397 200.077Z" fill="url(#paint1_linear_1_2)"/>
<path d="M126.243 61.4964C125.64 60.9023 124.825 60.5709 123.978 60.5744C123.131 60.5778 122.32 60.9159 121.721 61.5148C121.122 62.1138 120.784 62.9252 120.781 63.7722C120.777 64.6193 121.108 65.4334 121.703 66.0372L124.729 69.0646C125.028 69.3628 125.382 69.5993 125.771 69.7607C126.161 69.9221 126.578 70.0051 127 70.0051C127.422 70.0051 127.839 69.9221 128.229 69.7607C128.619 69.5993 128.973 69.3628 129.271 69.0646C129.569 68.7664 129.805 68.4124 129.967 68.0228C130.128 67.6332 130.211 67.2156 130.211 66.7939C130.211 66.3722 130.128 65.9546 129.967 65.565C129.805 65.1754 129.569 64.8214 129.271 64.5233L126.243 61.4964Z" fill="url(#paint2_linear_1_2)"/>
<path d="M155.38 98.3858C156.015 98.3858 156.636 98.1974 157.164 97.8446C157.692 97.4917 158.103 96.9902 158.346 96.4034C158.589 95.8167 158.653 95.1711 158.529 94.5482C158.405 93.9253 158.099 93.3532 157.65 92.9042L136.083 71.3347C135.481 70.7325 134.664 70.3942 133.813 70.3942C132.961 70.3942 132.144 70.7325 131.542 71.3347C130.94 71.9369 130.601 72.7537 130.601 73.6054C130.601 74.4571 130.94 75.2738 131.542 75.8761L153.109 97.4429C153.406 97.742 153.76 97.9794 154.15 98.1412C154.54 98.3031 154.958 98.3862 155.38 98.3858Z" fill="url(#paint3_linear_1_2)"/>
<defs>
<linearGradient id="paint0_linear_1_2" x1="172.318" y1="212.455" x2="172.318" y2="255.805" gradientUnits="userSpaceOnUse">
<stop stop-color="#0E7496"/>
<stop offset="0.0001" stop-color="#0E7496"/>
<stop offset="1" stop-color="#0D9AAB"/>
</linearGradient>
<linearGradient id="paint1_linear_1_2" x1="106.524" y1="18.233" x2="106.524" y2="210.963" gradientUnits="userSpaceOnUse">
<stop stop-color="#0E7496"/>
<stop offset="0.0001" stop-color="#0E7496"/>
<stop offset="1" stop-color="#0D9AAB"/>
</linearGradient>
<linearGradient id="paint2_linear_1_2" x1="125.496" y1="60.5744" x2="125.496" y2="70.0051" gradientUnits="userSpaceOnUse">
<stop stop-color="#0E7496"/>
<stop offset="0.0001" stop-color="#0E7496"/>
<stop offset="1" stop-color="#0D9AAB"/>
</linearGradient>
<linearGradient id="paint3_linear_1_2" x1="144.596" y1="70.3942" x2="144.596" y2="98.3858" gradientUnits="userSpaceOnUse">
<stop stop-color="#0E7496"/>
<stop offset="0.0001" stop-color="#0E7496"/>
<stop offset="1" stop-color="#0D9AAB"/>
</linearGradient>
</defs>
</svg>
