<svg width="273" height="273" viewBox="0 0 273 273" fill="none" xmlns="http://www.w3.org/2000/svg">
<path d="M213.281 18.1289H72.5156H68.25C59.5055 18.1289 52.2539 25.3805 52.2539 34.125V234.609V236.742V238.875C52.2539 247.62 59.5055 254.871 68.25 254.871H213.281C217.334 254.871 220.746 251.459 220.746 247.406V221.812V25.5938C220.746 21.5414 217.334 18.1289 213.281 18.1289ZM68.25 24.5273H69.3164V59.7188C69.3164 61.425 70.8094 62.918 72.5156 62.918C74.2219 62.918 75.7148 61.425 75.7148 59.7188V24.5273H213.281C213.921 24.5273 214.348 24.9539 214.348 25.5938V218.613H75.7148V72.5156C75.7148 70.8094 74.2219 69.3164 72.5156 69.3164C70.8094 69.3164 69.3164 70.8094 69.3164 72.5156V218.613H68.25C64.6242 218.613 61.425 219.893 58.6523 221.812V34.125C58.6523 28.793 62.918 24.5273 68.25 24.5273ZM213.281 248.473H68.25C62.918 248.473 58.6523 244.207 58.6523 238.875V236.742V234.609C58.6523 229.277 62.918 225.012 68.25 225.012H214.348V229.277H72.5156C70.8094 229.277 69.3164 230.77 69.3164 232.477C69.3164 234.183 70.8094 235.676 72.5156 235.676H214.348V237.809H179.156C177.45 237.809 175.957 239.302 175.957 241.008C175.957 242.714 177.45 244.207 179.156 244.207H214.348V247.406C214.348 248.046 213.921 248.473 213.281 248.473Z" fill="url(#paint0_linear_1_24)"/>
<path d="M166.359 237.809H72.5156C70.8094 237.809 69.3164 239.302 69.3164 241.008C69.3164 242.714 70.8094 244.207 72.5156 244.207H166.359C168.066 244.207 169.559 242.714 169.559 241.008C169.559 239.302 168.066 237.809 166.359 237.809Z" fill="url(#paint1_linear_1_24)"/>
<path d="M104.508 122.637H108.773C115.172 122.637 120.504 117.305 120.504 110.906V109.84H133.301V183.422C133.301 189.82 138.633 195.152 145.031 195.152C151.43 195.152 156.762 189.82 156.762 183.422V109.84H169.559V110.906C169.559 117.305 174.891 122.637 181.289 122.637H185.555C191.953 122.637 197.285 117.305 197.285 110.906V59.7188C197.285 53.3203 191.953 47.9883 185.555 47.9883H181.289C174.891 47.9883 169.559 53.3203 169.559 59.7188V60.7852H120.504V59.7188C120.504 53.3203 115.172 47.9883 108.773 47.9883H104.508C98.1094 47.9883 92.7773 53.3203 92.7773 59.7188V110.906C92.7773 117.305 98.1094 122.637 104.508 122.637ZM150.363 183.422C150.363 186.408 148.017 188.754 145.031 188.754C142.045 188.754 139.699 186.408 139.699 183.422V109.84H150.363V183.422ZM175.957 59.7188C175.957 56.7328 178.303 54.3867 181.289 54.3867H185.555C188.541 54.3867 190.887 56.7328 190.887 59.7188V110.906C190.887 113.892 188.541 116.238 185.555 116.238H181.289C178.303 116.238 175.957 113.892 175.957 110.906V106.641V63.9844V59.7188ZM169.559 67.1836V103.441H153.562H136.5H120.504V67.1836H169.559ZM99.1758 59.7188C99.1758 56.7328 101.522 54.3867 104.508 54.3867H108.773C111.759 54.3867 114.105 56.7328 114.105 59.7188V63.9844V106.641V110.906C114.105 113.892 111.759 116.238 108.773 116.238H104.508C101.522 116.238 99.1758 113.892 99.1758 110.906V59.7188Z" fill="url(#paint2_linear_1_24)"/>
<defs>
<linearGradient id="paint0_linear_1_24" x1="136.5" y1="18.1289" x2="136.5" y2="254.871" gradientUnits="userSpaceOnUse">
<stop stop-color="#0E7496"/>
<stop offset="1" stop-color="#0D9AAB" stop-opacity="0.8"/>
</linearGradient>
<linearGradient id="paint1_linear_1_24" x1="119.438" y1="237.809" x2="119.438" y2="244.207" gradientUnits="userSpaceOnUse">
<stop stop-color="#0E7496"/>
<stop offset="1" stop-color="#0D9AAB" stop-opacity="0.8"/>
</linearGradient>
<linearGradient id="paint2_linear_1_24" x1="145.031" y1="47.9883" x2="145.031" y2="195.152" gradientUnits="userSpaceOnUse">
<stop stop-color="#0E7496"/>
<stop offset="1" stop-color="#0D9AAB" stop-opacity="0.8"/>
</linearGradient>
</defs>
</svg>
