<svg width="270" height="270" viewBox="0 0 270 270" fill="none" xmlns="http://www.w3.org/2000/svg">
<path d="M84.0971 117.132C75.6 110.859 65.5147 108 65.1176 107.841C63.6882 107.365 61.5441 108.079 61.5441 110.541V132.221C61.5441 133.412 62.3382 134.524 63.5294 134.921C73.2176 137.779 80.6823 143.259 80.7618 143.259C83.1441 144.529 85.2088 142.862 85.2088 141.035V119.515C85.2088 118.482 84.8118 117.688 84.0971 117.132Z" fill="url(#paint0_linear_1_12)"/>
<path d="M63.6882 53.6029C64.5618 53.7618 66.7059 54.3176 66.9441 54.3176C68.2147 54.3176 69.3265 53.5235 69.6441 52.2529C70.0412 50.7441 69.1676 49.2353 67.6588 48.8382C66.7059 48.6 65.8323 48.3618 64.8794 48.1235C63.3706 47.8059 61.8618 48.7588 61.5441 50.1882C61.3059 51.7765 62.1794 53.2853 63.6882 53.6029Z" fill="url(#paint1_linear_1_12)"/>
<path d="M85.05 55.4294C83.6206 54.7941 82.0323 55.4294 81.3971 56.8588C80.7618 58.2882 81.3971 59.8765 82.8265 60.5118C100.694 68.4529 113.479 82.2706 113.638 82.35C114.194 82.9853 116.179 83.6206 117.529 82.5088C118.721 81.5559 118.721 79.7294 117.688 78.6176C117.132 77.9823 104.029 63.8471 85.05 55.4294Z" fill="url(#paint2_linear_1_12)"/>
<path d="M63.6882 74.1706C91.6412 80.5235 113.321 102.759 113.559 102.997C115.226 104.506 116.894 103.712 117.45 103.076C118.482 101.965 118.562 100.218 117.529 99.1853C116.576 98.2324 94.5 75.5206 64.8794 68.85C63.3706 68.5323 61.8618 69.4853 61.5441 70.9147C61.3059 72.3441 62.1794 73.7735 63.6882 74.1706Z" fill="url(#paint3_linear_1_12)"/>
<path d="M64.9588 89.2588C63.45 88.9412 61.9412 89.8941 61.6235 91.3235C61.3059 92.8324 62.2588 94.3412 63.6882 94.6588C91.6412 101.012 113.4 123.247 113.559 123.485C114.115 124.041 116.1 124.756 117.45 123.565C118.641 122.612 118.562 120.706 117.529 119.674C116.656 118.641 94.5794 96.0088 64.9588 89.2588Z" fill="url(#paint4_linear_1_12)"/>
<path d="M97.4382 124.041C96.0882 123.326 94.4206 123.803 93.6265 125.153C92.9118 126.503 93.3882 128.171 94.7382 128.965C104.665 134.444 113.479 143.894 113.559 143.974C114.115 144.529 116.179 145.324 117.45 144.132C118.562 143.1 118.641 141.353 117.609 140.241C117.291 139.765 108.159 129.997 97.4382 124.041Z" fill="url(#paint5_linear_1_12)"/>
<path d="M97.4382 144.609C96.0882 143.894 94.4206 144.371 93.6265 145.721C92.9118 147.071 93.3882 148.738 94.7382 149.532C104.665 155.012 113.479 164.462 113.559 164.541C114.115 165.097 116.179 165.891 117.45 164.7C118.562 163.668 118.641 161.921 117.609 160.809C117.291 160.332 108.159 150.565 97.4382 144.609Z" fill="url(#paint6_linear_1_12)"/>
<path d="M261.741 75.8382C260.153 75.8382 258.882 77.0294 258.882 78.6176V221.241C226.879 206.55 195.194 207.503 173.912 210.997C165.415 212.426 157.95 214.332 151.835 216.159C140.956 217.429 141.591 209.012 141.591 209.012V87.5118C141.591 78.6176 146.832 75.6 146.912 75.5206C151.756 73.8529 158.029 71.8676 165.335 70.2C165.891 70.0412 166.447 69.8029 166.924 69.3265C168.75 67.3412 166.924 64.1647 164.224 64.7206C150.326 67.8176 140.162 71.8676 135.794 73.8529C133.174 69.4059 126.582 59.4794 114.591 48.9971C100.138 36.5294 74.7265 20.9647 35.7353 18.1853C34.9412 18.1059 32.7176 18.5824 32.7176 20.9647V65.4353C28.0324 66.7059 16.3588 70.2 6.98823 75.2029C6.11471 75.6 5.55882 76.5529 5.55882 77.5853V248.956C5.55882 250.941 7.30588 252.053 9.13235 251.735C75.5206 232.915 125.629 248.876 132.776 251.338C133.412 251.576 133.968 251.656 134.603 251.656C135.238 251.656 135.874 251.576 136.429 251.338C143.656 248.876 194.479 232.915 260.868 251.735C263.171 252.132 264.441 251.021 264.441 248.956V78.6176C264.441 77.1088 263.25 75.8382 261.741 75.8382ZM131.824 245.224C126.344 243.476 115.068 240.379 99.1853 238.553C79.0941 236.25 47.8059 235.615 11.0382 245.462V239.506C65.0382 215.921 123.088 236.171 131.744 239.426V245.224H131.824ZM131.824 233.471C125.947 231.326 112.447 226.959 94.5794 224.497C73.2971 221.479 41.85 220.685 11.1176 233.471V227.356C42.5647 212.109 73.7735 212.982 94.5794 216.476C113.479 219.653 127.376 225.371 131.824 227.435V233.471ZM131.824 215.682C128.25 210.6 102.918 170.815 38.2765 166.129V23.9824C73.8529 27.2382 97.2794 41.5324 110.7 53.2059C123.962 64.6412 130.394 75.7588 131.744 78.3V215.682H131.824ZM258.882 245.462C235.218 239.109 213.697 237.124 195.988 237.124C168.353 237.124 142.941 243.476 137.382 245.224V239.506C145.562 236.409 204.565 215.762 258.882 239.506V245.462ZM258.882 233.471C228.071 220.685 196.465 221.479 175.103 224.497C156.918 227.038 143.259 231.485 137.382 233.55V227.435C147.309 222.988 203.374 200.515 258.882 227.356V233.471Z" fill="url(#paint7_linear_1_12)"/>
<path d="M170.418 80.5235C167.956 80.3647 165.653 81.1588 163.826 82.7471C160.015 86.0029 159.618 91.8 162.874 95.6118L184.871 121.103C186.697 123.168 189.238 124.279 191.779 124.279C193.924 124.279 195.988 123.565 197.735 122.056C200.832 119.356 201.706 115.068 200.118 111.494L212.188 101.091L234.662 127.138C236.25 128.965 238.394 129.997 240.776 130.235C241.015 130.235 241.253 130.235 241.412 130.235C243.556 130.235 245.541 129.441 247.209 128.091C249.035 126.503 250.068 124.359 250.306 121.976C250.465 119.594 249.75 117.291 248.162 115.544L225.688 89.4971L237.759 79.0941C239.029 79.8882 240.459 80.3647 241.888 80.4441C242.126 80.4441 242.365 80.4441 242.603 80.4441C244.747 80.4441 246.891 79.65 248.559 78.2206C250.385 76.6324 251.497 74.4088 251.656 72.0265C251.815 69.6441 251.021 67.2618 249.432 65.4353L227.435 39.9441C224.179 36.1324 218.382 35.7353 214.571 38.9912C211.474 41.6912 210.6 45.9794 212.188 49.5529L174.547 82.0324C173.356 81.0794 171.926 80.6824 170.418 80.5235ZM244.668 121.5C244.588 122.374 244.191 123.168 243.556 123.803C242.921 124.359 242.047 124.676 241.094 124.597C240.221 124.518 239.426 124.121 238.791 123.485L220.129 101.806L227.276 99.8206L243.874 119.118C244.509 119.753 244.747 120.626 244.668 121.5ZM215.524 53.9206L233.709 75.0441L196.703 106.968L178.518 85.8441L215.524 53.9206Z" fill="url(#paint8_linear_1_12)"/>
<path d="M210.6 145.244H177.247C172.006 145.244 167.718 149.532 167.718 154.774V156.6H167.559C161.841 156.6 157.235 161.206 157.235 166.924V172.244C157.235 173.753 158.506 175.024 160.015 175.024H227.912C229.421 175.024 230.691 173.753 230.691 172.244V166.924C230.691 161.206 226.085 156.6 220.368 156.6H220.129V154.774C220.129 149.532 215.841 145.244 210.6 145.244ZM210.6 150.803C212.744 150.803 214.571 152.55 214.571 154.774V156.6H180.979C180.979 151.041 186.062 150.803 186.062 150.803H210.6ZM220.368 162.159C222.988 162.159 225.132 164.303 225.132 166.924V169.465H172.959C172.959 162.238 180.979 162.159 180.979 162.159H220.368Z" fill="url(#paint9_linear_1_12)"/>
<defs>
<linearGradient id="paint0_linear_1_12" x1="73.3765" y1="107.702" x2="73.3765" y2="143.704" gradientUnits="userSpaceOnUse">
<stop stop-color="#0E7496"/>
<stop offset="1" stop-color="#0D9AAB" stop-opacity="0.8"/>
</linearGradient>
<linearGradient id="paint1_linear_1_12" x1="65.6225" y1="48.0623" x2="65.6225" y2="54.3176" gradientUnits="userSpaceOnUse">
<stop stop-color="#0E7496"/>
<stop offset="1" stop-color="#0D9AAB" stop-opacity="0.8"/>
</linearGradient>
<linearGradient id="paint2_linear_1_12" x1="99.7973" y1="55.1832" x2="99.7973" y2="83.1162" gradientUnits="userSpaceOnUse">
<stop stop-color="#0E7496"/>
<stop offset="1" stop-color="#0D9AAB" stop-opacity="0.8"/>
</linearGradient>
<linearGradient id="paint3_linear_1_12" x1="89.8852" y1="68.7888" x2="89.8852" y2="103.862" gradientUnits="userSpaceOnUse">
<stop stop-color="#0E7496"/>
<stop offset="1" stop-color="#0D9AAB" stop-opacity="0.8"/>
</linearGradient>
<linearGradient id="paint4_linear_1_12" x1="89.9429" y1="89.1976" x2="89.9429" y2="124.211" gradientUnits="userSpaceOnUse">
<stop stop-color="#0E7496"/>
<stop offset="1" stop-color="#0D9AAB" stop-opacity="0.8"/>
</linearGradient>
<linearGradient id="paint5_linear_1_12" x1="105.816" y1="123.71" x2="105.816" y2="144.752" gradientUnits="userSpaceOnUse">
<stop stop-color="#0E7496"/>
<stop offset="1" stop-color="#0D9AAB" stop-opacity="0.8"/>
</linearGradient>
<linearGradient id="paint6_linear_1_12" x1="105.816" y1="144.278" x2="105.816" y2="165.32" gradientUnits="userSpaceOnUse">
<stop stop-color="#0E7496"/>
<stop offset="1" stop-color="#0D9AAB" stop-opacity="0.8"/>
</linearGradient>
<linearGradient id="paint7_linear_1_12" x1="135" y1="18.1772" x2="135" y2="251.815" gradientUnits="userSpaceOnUse">
<stop stop-color="#0E7496"/>
<stop offset="1" stop-color="#0D9AAB" stop-opacity="0.8"/>
</linearGradient>
<linearGradient id="paint8_linear_1_12" x1="206.176" y1="36.7931" x2="206.176" y2="130.235" gradientUnits="userSpaceOnUse">
<stop stop-color="#0E7496"/>
<stop offset="1" stop-color="#0D9AAB" stop-opacity="0.8"/>
</linearGradient>
<linearGradient id="paint9_linear_1_12" x1="193.963" y1="145.244" x2="193.963" y2="175.024" gradientUnits="userSpaceOnUse">
<stop stop-color="#0E7496"/>
<stop offset="1" stop-color="#0D9AAB" stop-opacity="0.8"/>
</linearGradient>
</defs>
</svg>
