<svg width="262" height="262" viewBox="0 0 262 262" fill="none" xmlns="http://www.w3.org/2000/svg">
<path d="M197.926 8.1875H64.0738C59.1802 8.18484 54.4844 10.119 51.0122 13.5675C47.5401 17.016 45.5738 21.6984 45.543 26.592V208.622C45.5669 213.534 47.5254 218.239 50.994 221.717C54.4626 225.195 59.162 227.166 64.0738 227.203H108.484V250.691C108.484 252.387 110.095 253.812 111.791 253.812H168.88C169.699 253.8 170.479 253.465 171.051 252.881C171.623 252.296 171.942 251.509 171.938 250.691V227.203H197.926C202.825 227.194 207.522 225.248 210.993 221.791C214.464 218.334 216.428 213.645 216.457 208.745V26.6605C216.428 21.76 214.465 17.0692 210.994 13.6093C207.524 10.1495 202.827 8.20078 197.926 8.1875ZM61.918 220.729C59.072 220.213 56.4944 218.722 54.6271 216.513C52.7598 214.304 51.7192 211.514 51.6836 208.622V192.446C54.6007 194.9 58.1455 196.49 61.918 197.036V220.729ZM51.6836 178.73V26.6605C51.7105 23.3881 53.0264 20.2582 55.3458 17.9496C57.6653 15.6409 60.8013 14.3397 64.0738 14.3281H73.1758V190.871H64.0738C57.3018 190.871 51.6836 185.502 51.6836 178.73ZM103.367 197.012V201.105H68.0586V197.012H103.367ZM108.484 221.062H68.0586V216.969H108.484V221.062ZM108.484 210.828H68.0586V207.246H108.484V210.828ZM165.797 247.672H114.625V205.711H165.797V247.672ZM169.891 199.57H109.508V178.59H169.891V199.57ZM146.863 108.474C147.678 108.474 148.459 108.151 149.034 107.575C149.61 106.999 149.934 106.218 149.934 105.404V64.758C149.934 63.6044 150.392 62.4981 151.208 61.6824C152.023 60.8667 153.13 60.4084 154.283 60.4084C155.437 60.4084 156.543 60.8667 157.359 61.6824C158.175 62.4981 158.633 63.6044 158.633 64.758V105.404C158.633 106.218 158.956 106.999 159.532 107.575C160.108 108.151 160.889 108.474 161.703 108.474C162.517 108.474 163.298 108.151 163.874 107.575C164.45 106.999 164.773 106.218 164.773 105.404V74.7109C164.795 73.4167 165.326 72.183 166.249 71.2762C167.173 70.3695 168.417 69.8624 169.711 69.8645C170.558 69.8621 171.373 70.1916 171.981 70.7825C172.588 71.3734 172.94 72.1787 172.961 73.0259V121.503C172.961 129.378 172.677 136.966 168.783 143.244C164.139 150.747 161.687 159.399 161.703 168.222V172.449H118.207V169.066C118.181 167.811 117.956 166.567 117.542 165.382L117.47 165.282C115.188 158.435 110.338 152.741 103.942 149.397C101.627 148.162 99.2734 146.198 99.2734 141.013V97.047C101.988 97.3912 104.481 98.7208 106.279 100.783C108.076 102.845 109.054 105.496 109.025 108.232L109.157 125.257C109.191 126.079 109.543 126.855 110.137 127.423C110.732 127.991 111.524 128.305 112.346 128.301C114.288 128.303 116.153 127.541 117.537 126.179C118.921 124.818 119.713 122.966 119.742 121.024V64.6669C119.729 64.1003 119.828 63.5366 120.035 63.0088C120.242 62.481 120.552 61.9998 120.947 61.5931C121.342 61.1865 121.814 60.8626 122.335 60.6404C122.856 60.4181 123.417 60.3021 123.984 60.2989C125.145 60.2993 126.258 60.7588 127.081 61.5771C127.905 62.3954 128.371 63.5061 128.378 64.6669L128.441 105.404C128.441 106.218 128.765 106.999 129.341 107.575C129.916 108.151 130.697 108.474 131.512 108.474C132.326 108.474 133.107 108.151 133.683 107.575C134.259 106.999 134.582 106.218 134.582 105.404V54.1224C134.582 52.901 135.067 51.7296 135.931 50.8659C136.795 50.0022 137.966 49.517 139.188 49.517C140.409 49.517 141.58 50.0022 142.444 50.8659C143.308 51.7296 143.793 52.901 143.793 54.1224V105.404C143.793 106.218 144.116 106.999 144.692 107.575C145.268 108.151 146.049 108.474 146.863 108.474ZM210.316 208.622C210.294 211.906 208.983 215.05 206.666 217.377C204.348 219.703 201.21 221.027 197.926 221.062H171.938V216.969H197.926C198.74 216.969 199.521 216.645 200.097 216.069C200.673 215.494 200.996 214.713 200.996 213.898C200.996 213.084 200.673 212.303 200.097 211.727C199.521 211.152 198.74 210.828 197.926 210.828H171.938V207.246H197.926C198.74 207.246 199.521 206.923 200.097 206.347C200.673 205.771 200.996 204.99 200.996 204.176C200.996 203.361 200.673 202.581 200.097 202.005C199.521 201.429 198.74 201.105 197.926 201.105H176.031V197.012H197.926C202.467 197.009 206.859 195.391 210.316 192.446V208.622ZM210.316 178.73C210.316 185.502 204.698 190.871 197.926 190.871H176.031V175.432C176.055 175.046 175.999 174.659 175.867 174.296C175.734 173.933 175.528 173.601 175.262 173.321C174.995 173.041 174.673 172.819 174.317 172.669C173.96 172.519 173.577 172.444 173.19 172.449H167.844V168.222C167.828 160.543 169.961 153.012 174.001 146.481C178.747 138.829 179.102 130.3 179.102 121.503V73.0259C179.078 70.5509 178.079 68.1853 176.32 66.4436C174.561 64.702 172.186 63.7252 169.711 63.7259C168.001 63.7357 166.314 64.1257 164.773 64.8675V64.758C164.784 63.3723 164.521 61.9981 163.999 60.7144C163.477 59.4307 162.706 58.2628 161.731 57.2779C160.757 56.2929 159.597 55.5102 158.319 54.9749C157.04 54.4395 155.669 54.162 154.283 54.1583C152.779 54.1796 151.297 54.5194 149.934 55.1551V54.1224C149.934 52.7113 149.656 51.3139 149.116 50.0101C148.576 48.7063 147.784 47.5217 146.786 46.5238C145.788 45.5259 144.604 44.7344 143.3 44.1944C141.996 43.6543 140.599 43.3764 139.188 43.3764C137.776 43.3764 136.379 43.6543 135.075 44.1944C133.771 44.7344 132.587 45.5259 131.589 46.5238C130.591 47.5217 129.799 48.7063 129.259 50.0101C128.719 51.3139 128.441 52.7113 128.441 54.1224V55.1387C127.069 54.5148 125.582 54.181 124.074 54.1583C122.696 54.1606 121.333 54.4343 120.061 54.9637C118.789 55.4931 117.634 56.2678 116.661 57.2436C115.689 58.2195 114.918 59.3773 114.393 60.651C113.868 61.9247 113.599 63.2893 113.602 64.6669V100.529C110.531 94.7765 104.579 90.5742 97.7383 90.5742H96.1427C94.4469 90.5742 93.1303 92.1851 93.1303 93.8804V141.013C93.1303 147.358 95.7677 152.003 101.026 154.814C106.023 157.415 109.817 161.853 111.607 167.194L111.71 167.296C111.92 167.865 112.039 168.463 112.063 169.068V172.449H106.544C105.728 172.426 104.936 172.726 104.34 173.285C103.745 173.844 103.395 174.616 103.367 175.432V190.871H79.3164V14.3281H197.926C201.199 14.3397 204.335 15.6409 206.654 17.9496C208.974 20.2582 210.289 23.3881 210.316 26.6605V178.73Z" fill="url(#paint0_linear_1_8)"/>
<path d="M191.895 29.9509C191.08 29.9509 190.299 30.2744 189.723 30.8502C189.148 31.426 188.824 32.2069 188.824 33.0212V34.8634C188.824 35.6777 189.148 36.4586 189.723 37.0344C190.299 37.6102 191.08 37.9337 191.895 37.9337C192.709 37.9337 193.49 37.6102 194.066 37.0344C194.641 36.4586 194.965 35.6777 194.965 34.8634V33.0212C194.965 32.2069 194.641 31.426 194.066 30.8502C193.49 30.2744 192.709 29.9509 191.895 29.9509Z" fill="url(#paint1_linear_1_8)"/>
<path d="M191.895 42.0689C191.08 42.0689 190.299 42.3924 189.723 42.9682C189.148 43.544 188.824 44.3249 188.824 45.1392V103.735C188.824 104.549 189.148 105.33 189.723 105.906C190.299 106.481 191.08 106.805 191.895 106.805C192.709 106.805 193.49 106.481 194.066 105.906C194.641 105.33 194.965 104.549 194.965 103.735V45.1392C194.965 44.3249 194.641 43.544 194.066 42.9682C193.49 42.3924 192.709 42.0689 191.895 42.0689Z" fill="url(#paint2_linear_1_8)"/>
<defs>
<linearGradient id="paint0_linear_1_8" x1="131" y1="8.1875" x2="131" y2="253.812" gradientUnits="userSpaceOnUse">
<stop stop-color="#0E7496"/>
<stop offset="1" stop-color="#0D9AAB" stop-opacity="0.8"/>
</linearGradient>
<linearGradient id="paint1_linear_1_8" x1="191.895" y1="29.9509" x2="191.895" y2="37.9337" gradientUnits="userSpaceOnUse">
<stop stop-color="#0E7496"/>
<stop offset="1" stop-color="#0D9AAB" stop-opacity="0.8"/>
</linearGradient>
<linearGradient id="paint2_linear_1_8" x1="191.895" y1="42.0689" x2="191.895" y2="106.805" gradientUnits="userSpaceOnUse">
<stop stop-color="#0E7496"/>
<stop offset="1" stop-color="#0D9AAB" stop-opacity="0.8"/>
</linearGradient>
</defs>
</svg>
